<?xml version="1.0" encoding="utf-8" standalone="no"?>
<!DOCTYPE svg PUBLIC "-//W3C//DTD SVG 1.1//EN"
  "http://www.w3.org/Graphics/SVG/1.1/DTD/svg11.dtd">
<svg xmlns:xlink="http://www.w3.org/1999/xlink" width="252pt" height="198pt" viewBox="0 0 252 198" xmlns="http://www.w3.org/2000/svg" version="1.1">
 <metadata>
  <rdf:RDF xmlns:dc="http://purl.org/dc/elements/1.1/" xmlns:cc="http://creativecommons.org/ns#" xmlns:rdf="http://www.w3.org/1999/02/22-rdf-syntax-ns#">
   <cc:Work>
    <dc:type rdf:resource="http://purl.org/dc/dcmitype/StillImage"/>
    <dc:date>2025-06-15T17:13:32.573912</dc:date>
    <dc:format>image/svg+xml</dc:format>
    <dc:creator>
     <cc:Agent>
      <dc:title>Matplotlib v3.10.3, https://matplotlib.org/</dc:title>
     </cc:Agent>
    </dc:creator>
   </cc:Work>
  </rdf:RDF>
 </metadata>
 <defs>
  <style type="text/css">*{stroke-linejoin: round; stroke-linecap: butt}</style>
 </defs>
 <g id="figure_1">
  <g id="patch_1">
   <path d="M 0 198 
L 252 198 
L 252 0 
L 0 0 
z
" style="fill: #ffffff"/>
  </g>
  <g id="axes_1">
   <g id="patch_2">
    <path d="M 34.017271 160.465541 
L 242.082423 160.465541 
L 242.082423 3.00024 
L 34.017271 3.00024 
z
" style="fill: #ffffff"/>
   </g>
   <g id="matplotlib.axis_1">
    <g id="xtick_1">
     <g id="text_1">
      <!-- 1920 -->
      <g style="fill: #262626" transform="translate(26.075778 177.839135) scale(0.11 -0.11)">
       <defs>
        <path id="ArialMT-31" d="M 2384 0 
L 1822 0 
L 1822 3584 
Q 1619 3391 1289 3197 
Q 959 3003 697 2906 
L 697 3450 
Q 1169 3672 1522 3987 
Q 1875 4303 2022 4600 
L 2384 4600 
L 2384 0 
z
" transform="scale(0.015625)"/>
        <path id="ArialMT-39" d="M 350 1059 
L 891 1109 
Q 959 728 1153 556 
Q 1347 384 1650 384 
Q 1909 384 2104 503 
Q 2300 622 2425 820 
Q 2550 1019 2634 1356 
Q 2719 1694 2719 2044 
Q 2719 2081 2716 2156 
Q 2547 1888 2255 1720 
Q 1963 1553 1622 1553 
Q 1053 1553 659 1965 
Q 266 2378 266 3053 
Q 266 3750 677 4175 
Q 1088 4600 1706 4600 
Q 2153 4600 2523 4359 
Q 2894 4119 3086 3673 
Q 3278 3228 3278 2384 
Q 3278 1506 3087 986 
Q 2897 466 2520 194 
Q 2144 -78 1638 -78 
Q 1100 -78 759 220 
Q 419 519 350 1059 
z
M 2653 3081 
Q 2653 3566 2395 3850 
Q 2138 4134 1775 4134 
Q 1400 4134 1122 3828 
Q 844 3522 844 3034 
Q 844 2597 1108 2323 
Q 1372 2050 1759 2050 
Q 2150 2050 2401 2323 
Q 2653 2597 2653 3081 
z
" transform="scale(0.015625)"/>
        <path id="ArialMT-32" d="M 3222 541 
L 3222 0 
L 194 0 
Q 188 203 259 391 
Q 375 700 629 1000 
Q 884 1300 1366 1694 
Q 2113 2306 2375 2664 
Q 2638 3022 2638 3341 
Q 2638 3675 2398 3904 
Q 2159 4134 1775 4134 
Q 1369 4134 1125 3890 
Q 881 3647 878 3216 
L 300 3275 
Q 359 3922 746 4261 
Q 1134 4600 1788 4600 
Q 2447 4600 2831 4234 
Q 3216 3869 3216 3328 
Q 3216 3053 3103 2787 
Q 2991 2522 2730 2228 
Q 2469 1934 1863 1422 
Q 1356 997 1212 845 
Q 1069 694 975 541 
L 3222 541 
z
" transform="scale(0.015625)"/>
        <path id="ArialMT-30" d="M 266 2259 
Q 266 3072 433 3567 
Q 600 4063 929 4331 
Q 1259 4600 1759 4600 
Q 2128 4600 2406 4451 
Q 2684 4303 2865 4023 
Q 3047 3744 3150 3342 
Q 3253 2941 3253 2259 
Q 3253 1453 3087 958 
Q 2922 463 2592 192 
Q 2263 -78 1759 -78 
Q 1097 -78 719 397 
Q 266 969 266 2259 
z
M 844 2259 
Q 844 1131 1108 757 
Q 1372 384 1759 384 
Q 2147 384 2411 759 
Q 2675 1134 2675 2259 
Q 2675 3391 2411 3762 
Q 2147 4134 1753 4134 
Q 1366 4134 1134 3806 
Q 844 3388 844 2259 
z
" transform="scale(0.015625)"/>
       </defs>
       <use xlink:href="#ArialMT-31"/>
       <use xlink:href="#ArialMT-39" transform="translate(55.615234 0)"/>
       <use xlink:href="#ArialMT-32" transform="translate(111.230469 0)"/>
       <use xlink:href="#ArialMT-30" transform="translate(166.845703 0)"/>
      </g>
     </g>
    </g>
    <g id="xtick_2">
     <g id="text_2">
      <!-- 2000 -->
      <g style="fill: #262626" transform="translate(125.29963 177.839135) scale(0.11 -0.11)">
       <use xlink:href="#ArialMT-32"/>
       <use xlink:href="#ArialMT-30" transform="translate(55.615234 0)"/>
       <use xlink:href="#ArialMT-30" transform="translate(111.230469 0)"/>
       <use xlink:href="#ArialMT-30" transform="translate(166.845703 0)"/>
      </g>
     </g>
    </g>
    <g id="xtick_3">
     <g id="text_3">
      <!-- 2080 -->
      <g style="fill: #262626" transform="translate(224.523483 177.839135) scale(0.11 -0.11)">
       <defs>
        <path id="ArialMT-38" d="M 1131 2484 
Q 781 2613 612 2850 
Q 444 3088 444 3419 
Q 444 3919 803 4259 
Q 1163 4600 1759 4600 
Q 2359 4600 2725 4251 
Q 3091 3903 3091 3403 
Q 3091 3084 2923 2848 
Q 2756 2613 2416 2484 
Q 2838 2347 3058 2040 
Q 3278 1734 3278 1309 
Q 3278 722 2862 322 
Q 2447 -78 1769 -78 
Q 1091 -78 675 323 
Q 259 725 259 1325 
Q 259 1772 486 2073 
Q 713 2375 1131 2484 
z
M 1019 3438 
Q 1019 3113 1228 2906 
Q 1438 2700 1772 2700 
Q 2097 2700 2305 2904 
Q 2513 3109 2513 3406 
Q 2513 3716 2298 3927 
Q 2084 4138 1766 4138 
Q 1444 4138 1231 3931 
Q 1019 3725 1019 3438 
z
M 838 1322 
Q 838 1081 952 856 
Q 1066 631 1291 507 
Q 1516 384 1775 384 
Q 2178 384 2440 643 
Q 2703 903 2703 1303 
Q 2703 1709 2433 1975 
Q 2163 2241 1756 2241 
Q 1359 2241 1098 1978 
Q 838 1716 838 1322 
z
" transform="scale(0.015625)"/>
       </defs>
       <use xlink:href="#ArialMT-32"/>
       <use xlink:href="#ArialMT-30" transform="translate(55.615234 0)"/>
       <use xlink:href="#ArialMT-38" transform="translate(111.230469 0)"/>
       <use xlink:href="#ArialMT-30" transform="translate(166.845703 0)"/>
      </g>
     </g>
    </g>
    <g id="text_4">
     <!-- Year -->
     <g style="fill: #262626" transform="translate(125.924222 192.61476) scale(0.12 -0.12)">
      <defs>
       <path id="ArialMT-59" d="M 1784 0 
L 1784 1941 
L 19 4581 
L 756 4581 
L 1659 3200 
Q 1909 2813 2125 2425 
Q 2331 2784 2625 3234 
L 3513 4581 
L 4219 4581 
L 2391 1941 
L 2391 0 
L 1784 0 
z
" transform="scale(0.015625)"/>
       <path id="ArialMT-65" d="M 2694 1069 
L 3275 997 
Q 3138 488 2766 206 
Q 2394 -75 1816 -75 
Q 1088 -75 661 373 
Q 234 822 234 1631 
Q 234 2469 665 2931 
Q 1097 3394 1784 3394 
Q 2450 3394 2872 2941 
Q 3294 2488 3294 1666 
Q 3294 1616 3291 1516 
L 816 1516 
Q 847 969 1125 678 
Q 1403 388 1819 388 
Q 2128 388 2347 550 
Q 2566 713 2694 1069 
z
M 847 1978 
L 2700 1978 
Q 2663 2397 2488 2606 
Q 2219 2931 1791 2931 
Q 1403 2931 1139 2672 
Q 875 2413 847 1978 
z
" transform="scale(0.015625)"/>
       <path id="ArialMT-61" d="M 2588 409 
Q 2275 144 1986 34 
Q 1697 -75 1366 -75 
Q 819 -75 525 192 
Q 231 459 231 875 
Q 231 1119 342 1320 
Q 453 1522 633 1644 
Q 813 1766 1038 1828 
Q 1203 1872 1538 1913 
Q 2219 1994 2541 2106 
Q 2544 2222 2544 2253 
Q 2544 2597 2384 2738 
Q 2169 2928 1744 2928 
Q 1347 2928 1158 2789 
Q 969 2650 878 2297 
L 328 2372 
Q 403 2725 575 2942 
Q 747 3159 1072 3276 
Q 1397 3394 1825 3394 
Q 2250 3394 2515 3294 
Q 2781 3194 2906 3042 
Q 3031 2891 3081 2659 
Q 3109 2516 3109 2141 
L 3109 1391 
Q 3109 606 3145 398 
Q 3181 191 3288 0 
L 2700 0 
Q 2613 175 2588 409 
z
M 2541 1666 
Q 2234 1541 1622 1453 
Q 1275 1403 1131 1340 
Q 988 1278 909 1158 
Q 831 1038 831 891 
Q 831 666 1001 516 
Q 1172 366 1500 366 
Q 1825 366 2078 508 
Q 2331 650 2450 897 
Q 2541 1088 2541 1459 
L 2541 1666 
z
" transform="scale(0.015625)"/>
       <path id="ArialMT-72" d="M 416 0 
L 416 3319 
L 922 3319 
L 922 2816 
Q 1116 3169 1280 3281 
Q 1444 3394 1641 3394 
Q 1925 3394 2219 3213 
L 2025 2691 
Q 1819 2813 1613 2813 
Q 1428 2813 1281 2702 
Q 1134 2591 1072 2394 
Q 978 2094 978 1738 
L 978 0 
L 416 0 
z
" transform="scale(0.015625)"/>
      </defs>
      <use xlink:href="#ArialMT-59"/>
      <use xlink:href="#ArialMT-65" transform="translate(57.574219 0)"/>
      <use xlink:href="#ArialMT-61" transform="translate(113.189453 0)"/>
      <use xlink:href="#ArialMT-72" transform="translate(168.804688 0)"/>
     </g>
    </g>
   </g>
   <g id="matplotlib.axis_2">
    <g id="ytick_1">
     <g id="text_5">
      <!-- 0 -->
      <g style="fill: #262626" transform="translate(18.40024 141.288529) scale(0.11 -0.11)">
       <use xlink:href="#ArialMT-30"/>
      </g>
     </g>
    </g>
    <g id="ytick_2">
     <g id="text_6">
      <!-- 1 -->
      <g style="fill: #262626" transform="translate(18.40024 108.91027) scale(0.11 -0.11)">
       <use xlink:href="#ArialMT-31"/>
      </g>
     </g>
    </g>
    <g id="ytick_3">
     <g id="text_7">
      <!-- 2 -->
      <g style="fill: #262626" transform="translate(18.40024 76.53201) scale(0.11 -0.11)">
       <use xlink:href="#ArialMT-32"/>
      </g>
     </g>
    </g>
    <g id="ytick_4">
     <g id="text_8">
      <!-- 3 -->
      <g style="fill: #262626" transform="translate(18.40024 44.15375) scale(0.11 -0.11)">
       <defs>
        <path id="ArialMT-33" d="M 269 1209 
L 831 1284 
Q 928 806 1161 595 
Q 1394 384 1728 384 
Q 2125 384 2398 659 
Q 2672 934 2672 1341 
Q 2672 1728 2419 1979 
Q 2166 2231 1775 2231 
Q 1616 2231 1378 2169 
L 1441 2663 
Q 1497 2656 1531 2656 
Q 1891 2656 2178 2843 
Q 2466 3031 2466 3422 
Q 2466 3731 2256 3934 
Q 2047 4138 1716 4138 
Q 1388 4138 1169 3931 
Q 950 3725 888 3313 
L 325 3413 
Q 428 3978 793 4289 
Q 1159 4600 1703 4600 
Q 2078 4600 2393 4439 
Q 2709 4278 2876 4000 
Q 3044 3722 3044 3409 
Q 3044 3113 2884 2869 
Q 2725 2625 2413 2481 
Q 2819 2388 3044 2092 
Q 3269 1797 3269 1353 
Q 3269 753 2831 336 
Q 2394 -81 1725 -81 
Q 1122 -81 723 278 
Q 325 638 269 1209 
z
" transform="scale(0.015625)"/>
       </defs>
       <use xlink:href="#ArialMT-33"/>
      </g>
     </g>
    </g>
    <g id="ytick_5">
     <g id="text_9">
      <!-- 4 -->
      <g style="fill: #262626" transform="translate(18.40024 11.77549) scale(0.11 -0.11)">
       <defs>
        <path id="ArialMT-34" d="M 2069 0 
L 2069 1097 
L 81 1097 
L 81 1613 
L 2172 4581 
L 2631 4581 
L 2631 1613 
L 3250 1613 
L 3250 1097 
L 2631 1097 
L 2631 0 
L 2069 0 
z
M 2069 1613 
L 2069 3678 
L 634 1613 
L 2069 1613 
z
" transform="scale(0.015625)"/>
       </defs>
       <use xlink:href="#ArialMT-34"/>
      </g>
     </g>
    </g>
    <g id="text_10">
     <!-- $\Delta T$ ($^{\circ}$C) -->
     <g style="fill: #262626" transform="translate(11.76024 102.372891) rotate(-90) scale(0.12 -0.12)">
      <defs>
       <path id="DejaVuSans-394" d="M 2188 4044 
L 906 525 
L 3472 525 
L 2188 4044 
z
M 50 0 
L 1831 4666 
L 2547 4666 
L 4325 0 
L 50 0 
z
" transform="scale(0.015625)"/>
       <path id="DejaVuSans-Oblique-54" d="M 378 4666 
L 4325 4666 
L 4225 4134 
L 2559 4134 
L 1759 0 
L 1125 0 
L 1925 4134 
L 275 4134 
L 378 4666 
z
" transform="scale(0.015625)"/>
       <path id="ArialMT-20" transform="scale(0.015625)"/>
       <path id="ArialMT-28" d="M 1497 -1347 
Q 1031 -759 709 28 
Q 388 816 388 1659 
Q 388 2403 628 3084 
Q 909 3875 1497 4659 
L 1900 4659 
Q 1522 4009 1400 3731 
Q 1209 3300 1100 2831 
Q 966 2247 966 1656 
Q 966 153 1900 -1347 
L 1497 -1347 
z
" transform="scale(0.015625)"/>
       <path id="DejaVuSans-2218" d="M 2003 2603 
Q 1753 2603 1581 2429 
Q 1409 2256 1409 2006 
Q 1409 1759 1581 1589 
Q 1753 1419 2003 1419 
Q 2253 1419 2425 1589 
Q 2597 1759 2597 2006 
Q 2597 2253 2423 2428 
Q 2250 2603 2003 2603 
z
M 2003 3006 
Q 2203 3006 2387 2929 
Q 2572 2853 2706 2709 
Q 2850 2569 2922 2390 
Q 2994 2212 2994 2006 
Q 2994 1594 2705 1308 
Q 2416 1022 1997 1022 
Q 1575 1022 1294 1303 
Q 1013 1584 1013 2006 
Q 1013 2425 1300 2715 
Q 1588 3006 2003 3006 
z
" transform="scale(0.015625)"/>
       <path id="ArialMT-43" d="M 3763 1606 
L 4369 1453 
Q 4178 706 3683 314 
Q 3188 -78 2472 -78 
Q 1731 -78 1267 223 
Q 803 525 561 1097 
Q 319 1669 319 2325 
Q 319 3041 592 3573 
Q 866 4106 1370 4382 
Q 1875 4659 2481 4659 
Q 3169 4659 3637 4309 
Q 4106 3959 4291 3325 
L 3694 3184 
Q 3534 3684 3231 3912 
Q 2928 4141 2469 4141 
Q 1941 4141 1586 3887 
Q 1231 3634 1087 3207 
Q 944 2781 944 2328 
Q 944 1744 1114 1308 
Q 1284 872 1643 656 
Q 2003 441 2422 441 
Q 2931 441 3284 734 
Q 3638 1028 3763 1606 
z
" transform="scale(0.015625)"/>
       <path id="ArialMT-29" d="M 791 -1347 
L 388 -1347 
Q 1322 153 1322 1656 
Q 1322 2244 1188 2822 
Q 1081 3291 891 3722 
Q 769 4003 388 4659 
L 791 4659 
Q 1378 3875 1659 3084 
Q 1900 2403 1900 1659 
Q 1900 816 1576 28 
Q 1253 -759 791 -1347 
z
" transform="scale(0.015625)"/>
      </defs>
      <use xlink:href="#DejaVuSans-394" transform="translate(0 0.09375)"/>
      <use xlink:href="#DejaVuSans-Oblique-54" transform="translate(68.408203 0.09375)"/>
      <use xlink:href="#ArialMT-20" transform="translate(129.492188 0.09375)"/>
      <use xlink:href="#ArialMT-28" transform="translate(157.275391 0.09375)"/>
      <use xlink:href="#DejaVuSans-2218" transform="translate(191.533203 38.375) scale(0.7)"/>
      <use xlink:href="#ArialMT-43" transform="translate(238.085938 0.09375)"/>
      <use xlink:href="#ArialMT-29" transform="translate(310.302734 0.09375)"/>
     </g>
    </g>
   </g>
   <g id="line2d_1">
    <path d="M 43.474778 143.85486 
L 44.714227 142.282752 
L 45.953677 141.236379 
L 47.193126 138.142094 
L 49.67542 135.710118 
L 50.914869 135.716942 
L 52.154318 133.916335 
L 53.397163 133.094107 
L 54.636613 131.715236 
L 55.876062 131.060121 
L 58.358356 130.366842 
L 59.597805 129.99658 
L 60.837254 129.805196 
L 63.319549 127.402801 
L 64.558998 127.905006 
L 65.798447 128.778523 
L 67.037896 127.274471 
L 68.280741 126.50977 
L 70.75964 129.186055 
L 71.999089 127.594926 
L 73.241934 126.710386 
L 74.481383 127.189154 
L 75.720832 125.884947 
L 76.960282 125.432827 
L 78.203127 126.282258 
L 79.442576 125.48007 
L 80.682025 123.837776 
L 81.921474 123.382661 
L 83.164319 122.74033 
L 84.403768 122.869309 
L 85.643218 123.624376 
L 86.882667 123.148325 
L 88.125512 123.225892 
L 89.364961 124.688474 
L 90.60441 127.768215 
L 91.843859 128.05773 
L 93.086704 128.908119 
L 94.326154 129.600905 
L 95.565603 127.386899 
L 96.805052 127.307017 
L 98.047897 127.846523 
L 99.287346 127.713622 
L 100.526795 126.79104 
L 101.766245 127.980812 
L 103.00909 127.643467 
L 104.248539 127.070551 
L 105.487988 126.165137 
L 106.727437 125.58799 
L 107.970282 128.258501 
L 109.209731 128.412152 
L 111.68863 126.330768 
L 112.931475 128.325754 
L 114.170924 124.93161 
L 115.410373 124.533712 
L 116.649823 122.878109 
L 117.892667 122.876473 
L 119.132117 121.51548 
L 120.371566 120.871636 
L 121.611015 121.598635 
L 122.85386 121.695408 
L 124.093309 120.238137 
L 125.332759 120.256787 
L 127.815053 121.405924 
L 129.054502 120.979463 
L 130.293951 120.430416 
L 131.5334 120.758467 
L 132.776245 120.014454 
L 135.255144 117.867639 
L 136.494593 117.781798 
L 137.737438 117.948047 
L 138.976887 116.322458 
L 141.455786 113.812051 
L 142.698631 113.432865 
L 143.93808 112.364383 
L 145.177529 110.923353 
L 146.416978 108.621684 
L 147.659823 107.058994 
L 148.899272 105.261876 
L 150.138722 102.836755 
L 151.378171 102.63055 
L 152.621016 104.102488 
L 153.860465 102.605106 
L 155.099914 100.281297 
L 156.339364 101.412925 
L 157.582208 101.478572 
L 158.821658 100.155066 
L 160.061107 99.902543 
L 161.300556 99.262343 
L 163.78285 93.957202 
L 165.0223 93.954145 
L 166.261749 91.692185 
L 167.504594 90.54311 
L 168.744043 91.629224 
L 169.983492 91.346842 
L 171.222941 89.688336 
L 172.465786 87.605594 
L 173.705236 86.713396 
L 174.944685 86.472977 
L 176.184134 84.90544 
L 177.426979 85.544467 
L 178.666428 83.651811 
L 181.145327 81.180898 
L 183.627621 80.904784 
L 184.86707 78.649802 
L 186.106519 77.936945 
L 187.349364 78.231494 
L 188.588813 76.890109 
L 189.828263 73.972818 
L 191.067712 75.501912 
L 192.310557 73.012379 
L 193.550006 72.849187 
L 194.789455 71.010167 
L 196.028904 68.693151 
L 197.271749 66.991972 
L 198.511199 67.400554 
L 199.750648 64.499135 
L 202.232942 62.047366 
L 203.472391 60.959677 
L 204.711841 59.132453 
L 205.95129 57.544567 
L 207.194135 56.199754 
L 208.433584 55.188829 
L 209.673033 54.013847 
L 210.912482 52.5307 
L 212.155327 52.491299 
L 213.394777 50.926448 
L 214.634226 50.22656 
L 215.873675 49.269456 
L 217.11652 48.610111 
L 218.355969 48.788959 
L 219.595418 48.116336 
L 220.834868 45.561218 
L 222.077713 44.22502 
L 223.317162 42.382696 
L 224.556611 39.749456 
L 225.79606 38.93365 
L 228.278354 36.744779 
L 229.517804 35.54071 
L 230.757253 35.383447 
L 232.000098 32.31229 
L 232.000098 32.31229 
" clip-path="url(#pa1af9a54a2)" style="fill: none; stroke: #4c72b0; stroke-width: 2; stroke-linecap: round"/>
   </g>
   <g id="line2d_2">
    <path d="M 43.474778 153.308028 
L 44.714227 151.49686 
L 45.953677 148.902297 
L 47.193126 148.044825 
L 48.435971 149.473237 
L 49.67542 147.31572 
L 50.914869 141.503631 
L 52.154318 141.445697 
L 53.397163 144.128819 
L 54.636613 141.100675 
L 55.876062 141.315501 
L 57.115511 138.777588 
L 58.358356 139.321022 
L 59.597805 139.631404 
L 60.837254 141.907896 
L 62.076704 142.28471 
L 64.558998 139.578541 
L 65.798447 138.888874 
L 67.037896 138.361256 
L 68.280741 135.830302 
L 69.52019 137.141451 
L 70.75964 136.513386 
L 71.999089 136.870068 
L 73.241934 137.869556 
L 74.481383 137.426501 
L 75.720832 138.720327 
L 76.960282 138.654402 
L 78.203127 136.831007 
L 79.442576 136.826282 
L 80.682025 133.951641 
L 81.921474 134.983113 
L 83.164319 133.576327 
L 84.403768 134.117031 
L 86.882667 131.7135 
L 88.125512 130.808185 
L 89.364961 134.583522 
L 90.60441 134.681314 
L 91.843859 134.112863 
L 93.086704 136.380999 
L 94.326154 136.285467 
L 95.565603 137.181395 
L 96.805052 133.697062 
L 98.047897 136.386773 
L 99.287346 135.091119 
L 100.526795 135.647163 
L 101.766245 135.528201 
L 103.00909 136.317352 
L 104.248539 134.578372 
L 105.487988 136.040361 
L 106.727437 136.718196 
L 107.970282 136.342005 
L 109.209731 136.327301 
L 110.449181 136.884945 
L 111.68863 138.159398 
L 112.931475 136.923555 
L 114.170924 134.982779 
L 115.410373 132.602648 
L 116.649823 132.959342 
L 117.892667 131.189403 
L 119.132117 127.864605 
L 120.371566 127.677093 
L 121.611015 127.121636 
L 122.85386 126.938879 
L 124.093309 128.532423 
L 125.332759 128.716315 
L 126.572208 130.677681 
L 127.815053 131.763239 
L 129.054502 131.150478 
L 130.293951 129.926764 
L 131.5334 129.415425 
L 132.776245 128.241703 
L 134.015695 130.904476 
L 135.255144 129.103727 
L 136.494593 127.696028 
L 137.737438 124.586328 
L 138.976887 123.730857 
L 140.216336 123.042641 
L 141.455786 119.883326 
L 142.698631 121.715362 
L 143.93808 119.420819 
L 145.177529 118.279754 
L 146.416978 117.494907 
L 147.659823 114.944698 
L 148.899272 115.192453 
L 150.138722 113.250282 
L 151.378171 112.85565 
L 152.621016 113.721114 
L 153.860465 111.706298 
L 155.099914 111.784395 
L 156.339364 108.529722 
L 157.582208 107.147448 
L 158.821658 105.491314 
L 160.061107 105.172033 
L 161.300556 107.175232 
L 162.543401 106.045296 
L 163.78285 107.916534 
L 165.0223 106.22334 
L 166.261749 107.345131 
L 167.504594 107.359014 
L 168.744043 103.669414 
L 171.222941 100.074962 
L 172.465786 95.904716 
L 173.705236 96.997406 
L 174.944685 93.659232 
L 176.184134 93.954293 
L 177.426979 93.545958 
L 178.666428 96.108698 
L 179.905877 91.309837 
L 181.145327 91.63892 
L 182.388172 89.50734 
L 183.627621 87.849403 
L 186.106519 87.156191 
L 187.349364 85.531004 
L 188.588813 86.598232 
L 189.828263 83.606124 
L 191.067712 84.345394 
L 192.310557 82.292313 
L 193.550006 81.101201 
L 194.789455 78.256851 
L 197.271749 74.308342 
L 198.511199 73.023693 
L 199.750648 73.012546 
L 200.990097 73.336428 
L 202.232942 68.096033 
L 203.472391 66.754432 
L 204.711841 66.511469 
L 205.95129 65.880168 
L 207.194135 64.91543 
L 208.433584 64.524023 
L 209.673033 63.391635 
L 210.912482 62.477377 
L 214.634226 62.304175 
L 215.873675 60.356568 
L 217.11652 59.48496 
L 218.355969 59.347317 
L 219.595418 58.136831 
L 220.834868 52.249603 
L 222.077713 51.907088 
L 223.317162 51.03304 
L 224.556611 49.554988 
L 225.79606 46.477976 
L 227.038905 45.196131 
L 228.278354 45.602329 
L 229.517804 44.572068 
L 232.000098 40.68324 
L 232.000098 40.68324 
" clip-path="url(#pa1af9a54a2)" style="fill: none; stroke: #4c72b0; stroke-opacity: 0.5; stroke-linecap: round"/>
   </g>
   <g id="line2d_3">
    <path d="M 43.474778 134.101586 
L 44.714227 129.482765 
L 45.953677 129.081643 
L 47.193126 127.198424 
L 48.435971 127.313927 
L 49.67542 126.179359 
L 50.914869 124.544062 
L 52.154318 123.642724 
L 53.397163 125.055296 
L 54.636613 123.789878 
L 55.876062 122.221507 
L 57.115511 121.956429 
L 58.358356 119.707413 
L 59.597805 119.522118 
L 60.837254 120.084949 
L 62.076704 119.663942 
L 63.319549 118.187063 
L 64.558998 118.533061 
L 65.798447 119.851343 
L 67.037896 121.402002 
L 68.280741 121.779527 
L 69.52019 120.181667 
L 70.75964 118.826992 
L 71.999089 118.813893 
L 73.241934 119.245201 
L 74.481383 119.224204 
L 75.720832 117.448923 
L 76.960282 115.927153 
L 78.203127 115.285799 
L 79.442576 115.232694 
L 80.682025 114.574751 
L 81.921474 114.688322 
L 83.164319 115.521876 
L 84.403768 114.899832 
L 85.643218 115.942611 
L 86.882667 114.948521 
L 88.125512 118.413006 
L 89.364961 115.112442 
L 91.843859 115.780234 
L 93.086704 119.016628 
L 94.326154 117.393855 
L 96.805052 120.224606 
L 98.047897 119.070689 
L 99.287346 118.378496 
L 100.526795 118.862545 
L 103.00909 121.056776 
L 104.248539 119.309916 
L 105.487988 118.662108 
L 106.727437 116.288028 
L 107.970282 117.862964 
L 109.209731 120.187966 
L 110.449181 119.933701 
L 111.68863 117.873099 
L 112.931475 116.678688 
L 114.170924 117.422794 
L 115.410373 117.620897 
L 116.649823 118.143815 
L 117.892667 117.886185 
L 119.132117 115.946045 
L 120.371566 113.35289 
L 121.611015 111.630634 
L 122.85386 110.20437 
L 124.093309 112.476712 
L 125.332759 111.639026 
L 126.572208 111.458388 
L 127.815053 109.689691 
L 129.054502 108.481589 
L 130.293951 110.48062 
L 131.5334 110.461871 
L 132.776245 111.565141 
L 134.015695 110.55973 
L 135.255144 108.34121 
L 136.494593 104.57752 
L 137.737438 105.362885 
L 138.976887 105.427915 
L 140.216336 102.505925 
L 141.455786 102.175348 
L 142.698631 102.002664 
L 146.416978 97.730902 
L 147.659823 98.205168 
L 148.899272 98.011284 
L 150.138722 97.239159 
L 151.378171 95.700591 
L 152.621016 96.51815 
L 153.860465 94.328347 
L 156.339364 91.68436 
L 157.582208 91.00684 
L 160.061107 86.827633 
L 161.300556 86.250759 
L 162.543401 86.32205 
L 163.78285 84.851458 
L 165.0223 82.223016 
L 166.261749 81.237584 
L 168.744043 83.206163 
L 169.983492 82.337408 
L 171.222941 81.921847 
L 172.465786 83.601047 
L 173.705236 82.053957 
L 174.944685 77.726886 
L 176.184134 75.19282 
L 177.426979 73.381776 
L 178.666428 74.68226 
L 179.905877 73.989085 
L 181.145327 73.57064 
L 182.388172 71.082491 
L 183.627621 72.78848 
L 184.86707 68.598139 
L 186.106519 69.842763 
L 187.349364 68.678632 
L 189.828263 64.814131 
L 191.067712 65.299964 
L 192.310557 63.079437 
L 193.550006 60.615711 
L 194.789455 56.273912 
L 196.028904 57.6981 
L 198.511199 52.416185 
L 199.750648 51.382922 
L 200.990097 51.467307 
L 202.232942 51.197165 
L 203.472391 48.735724 
L 204.711841 48.997554 
L 207.194135 47.943313 
L 208.433584 45.922463 
L 209.673033 44.241139 
L 210.912482 44.489981 
L 212.155327 43.930497 
L 213.394777 42.237754 
L 214.634226 42.180925 
L 217.11652 36.751332 
L 218.355969 35.851229 
L 219.595418 36.615257 
L 220.834868 34.612243 
L 222.077713 33.888801 
L 223.317162 32.681298 
L 224.556611 29.746506 
L 225.79606 26.037081 
L 227.038905 26.059116 
L 228.278354 27.743392 
L 229.517804 25.216002 
L 230.757253 24.778642 
L 232.000098 25.203392 
L 232.000098 25.203392 
" clip-path="url(#pa1af9a54a2)" style="fill: none; stroke: #4c72b0; stroke-opacity: 0.5; stroke-linecap: round"/>
   </g>
   <g id="line2d_4">
    <path d="M 44.099596 138.653995 
L 45.339046 139.098086 
L 46.578495 138.803693 
L 47.817944 138.337554 
L 49.060789 138.608418 
L 51.539687 136.154766 
L 52.779137 135.377064 
L 54.021982 135.582035 
L 55.261431 135.053336 
L 56.50088 133.262085 
L 57.740329 132.450603 
L 58.983174 132.196227 
L 60.222623 131.498316 
L 61.462073 132.104951 
L 62.701522 131.77937 
L 63.944367 130.546461 
L 65.183816 129.827737 
L 66.423265 131.652584 
L 67.662715 131.29316 
L 68.905559 132.055669 
L 70.145009 130.926882 
L 71.384458 131.562049 
L 72.623907 130.983451 
L 73.866752 131.420255 
L 75.106201 132.622842 
L 76.345651 131.401296 
L 78.827945 131.968284 
L 80.067394 131.363316 
L 82.546292 132.539903 
L 83.789137 131.716811 
L 85.028587 133.584702 
L 86.268036 133.281662 
L 87.507485 135.370765 
L 88.75033 134.965024 
L 89.989779 135.018876 
L 91.229228 134.793032 
L 94.950972 137.99746 
L 96.190421 138.385971 
L 97.42987 138.298338 
L 98.672715 137.029795 
L 99.912164 136.458608 
L 101.151614 136.202812 
L 102.391063 136.676486 
L 103.633908 135.750877 
L 104.873357 136.241719 
L 106.112806 136.121417 
L 107.352256 136.543709 
L 108.5951 136.70162 
L 109.83455 136.508755 
L 111.073999 135.894894 
L 112.313448 136.593793 
L 113.556293 136.59157 
L 114.795742 134.690886 
L 116.035192 135.976783 
L 117.274641 135.745937 
L 118.517486 133.949498 
L 119.756935 133.884592 
L 120.996384 132.094267 
L 122.235833 132.438622 
L 123.478678 132.249894 
L 124.718128 132.856962 
L 125.957577 133.059523 
L 127.197026 131.176749 
L 128.439871 130.314132 
L 130.918769 131.922584 
L 132.158219 130.084706 
L 133.401064 130.773416 
L 134.640513 128.756383 
L 135.879962 125.699862 
L 137.119411 124.873991 
L 138.362256 125.194261 
L 139.601705 122.556388 
L 140.841155 121.181006 
L 142.080604 119.993488 
L 144.562898 118.964684 
L 145.802347 117.958854 
L 147.041796 116.511032 
L 148.284641 114.56613 
L 149.524091 112.186277 
L 150.76354 111.73885 
L 152.002989 110.257246 
L 153.245834 109.306935 
L 154.485283 107.772777 
L 155.724733 106.877121 
L 156.964182 104.406794 
L 158.207027 105.638839 
L 159.446476 103.687206 
L 160.685925 104.131915 
L 161.925374 101.874031 
L 163.168219 101.408016 
L 164.407669 100.152503 
L 165.647118 98.150106 
L 166.886567 96.746378 
L 168.129412 95.888764 
L 169.368861 95.270889 
L 170.60831 94.792151 
L 171.84776 94.052616 
L 173.090605 91.184514 
L 175.569503 88.809478 
L 176.808952 87.497458 
L 178.051797 85.930137 
L 179.291246 85.360185 
L 180.530696 84.090592 
L 181.770145 82.36505 
L 183.01299 80.098952 
L 184.252439 79.591683 
L 185.491888 76.173701 
L 186.731337 75.896414 
L 187.974182 75.149282 
L 189.213632 73.640753 
L 191.69253 69.442784 
L 195.414274 65.491101 
L 196.653723 64.629164 
L 197.896568 63.054123 
L 199.136017 60.717807 
L 200.375466 58.942675 
L 201.614915 57.52851 
L 202.85776 54.991362 
L 204.09721 54.395349 
L 205.336659 52.568958 
L 206.576108 49.589263 
L 207.818953 48.081907 
L 209.058402 45.301068 
L 210.297851 44.700608 
L 211.537301 42.58674 
L 212.780146 42.481075 
L 214.019595 39.810409 
L 215.259044 39.399728 
L 216.498493 39.147946 
L 217.741338 36.716155 
L 218.980787 35.168225 
L 220.220237 33.274767 
L 221.459686 31.590108 
L 222.702531 32.067116 
L 223.94198 30.238688 
L 225.181429 28.983237 
L 227.663723 21.749065 
L 228.903173 21.33474 
L 232.624916 17.213535 
L 232.624916 17.213535 
" clip-path="url(#pa1af9a54a2)" style="fill: none; stroke: #dd8452; stroke-width: 2; stroke-linecap: round"/>
   </g>
   <g id="line2d_5">
    <path d="M 44.099596 144.404821 
L 45.339046 144.783365 
L 46.578495 145.705502 
L 47.817944 144.195145 
L 49.060789 143.301477 
L 50.300238 142.89103 
L 51.539687 142.774446 
L 52.779137 143.234583 
L 54.021982 141.271982 
L 55.261431 140.729054 
L 56.50088 139.532495 
L 57.740329 138.06722 
L 58.983174 138.456398 
L 60.222623 137.743801 
L 61.462073 137.948672 
L 62.701522 137.555369 
L 63.944367 138.052942 
L 65.183816 137.108486 
L 66.423265 137.261864 
L 67.662715 136.064329 
L 68.905559 135.968149 
L 70.145009 136.880505 
L 72.623907 136.40982 
L 73.866752 138.35655 
L 75.106201 137.068578 
L 77.5851 138.064947 
L 78.827945 139.229579 
L 80.067394 139.301365 
L 81.306843 138.833521 
L 82.546292 138.602749 
L 83.789137 139.234667 
L 85.028587 138.633998 
L 86.268036 140.430696 
L 87.507485 141.176432 
L 88.75033 141.463254 
L 89.989779 141.932568 
L 91.229228 141.521812 
L 92.468678 142.606271 
L 93.711523 143.525926 
L 94.950972 143.280888 
L 96.190421 143.692434 
L 97.42987 143.974612 
L 98.672715 144.494603 
L 99.912164 143.924565 
L 101.151614 144.344485 
L 102.391063 142.912658 
L 103.633908 141.95685 
L 104.873357 142.590177 
L 106.112806 141.995979 
L 107.352256 141.890227 
L 108.5951 141.564733 
L 109.83455 140.374497 
L 111.073999 143.237115 
L 112.313448 140.941028 
L 114.795742 141.13671 
L 116.035192 141.70019 
L 117.274641 140.482423 
L 118.517486 138.664617 
L 119.756935 138.272894 
L 120.996384 138.642323 
L 122.235833 137.558345 
L 123.478678 138.321435 
L 124.718128 138.480557 
L 125.957577 137.610246 
L 127.197026 137.899044 
L 128.439871 138.068949 
L 129.67932 136.875218 
L 130.918769 136.721753 
L 132.158219 137.772913 
L 133.401064 134.724013 
L 134.640513 133.449257 
L 135.879962 132.630982 
L 137.119411 132.010043 
L 138.362256 130.319579 
L 139.601705 129.483308 
L 143.323449 124.217024 
L 144.562898 123.152031 
L 145.802347 122.31818 
L 147.041796 121.265613 
L 148.284641 119.531338 
L 149.524091 118.424622 
L 150.76354 116.486465 
L 152.002989 115.649218 
L 153.245834 115.231632 
L 154.485283 115.288337 
L 155.724733 111.898515 
L 156.964182 110.197787 
L 158.207027 110.886028 
L 159.446476 108.978464 
L 160.685925 107.520971 
L 161.925374 107.891387 
L 163.168219 105.806743 
L 164.407669 104.72137 
L 165.647118 104.153765 
L 168.129412 100.34679 
L 169.368861 98.87965 
L 170.60831 98.312366 
L 171.84776 97.976755 
L 173.090605 97.848116 
L 174.330054 96.472673 
L 175.569503 96.407038 
L 176.808952 94.710052 
L 178.051797 91.433035 
L 179.291246 91.458257 
L 181.770145 85.050636 
L 183.01299 85.27706 
L 184.252439 83.7867 
L 185.491888 83.246441 
L 186.731337 82.324525 
L 187.974182 81.826088 
L 189.213632 79.739418 
L 190.453081 77.384242 
L 191.69253 76.440625 
L 192.935375 73.94714 
L 194.174824 73.636232 
L 195.414274 70.68529 
L 196.653723 69.728618 
L 197.896568 67.90229 
L 199.136017 65.753986 
L 200.375466 66.303361 
L 201.614915 64.392957 
L 202.85776 63.720267 
L 204.09721 59.18029 
L 205.336659 55.204052 
L 206.576108 53.975355 
L 207.818953 53.077141 
L 210.297851 50.23961 
L 211.537301 47.114971 
L 212.780146 46.214461 
L 214.019595 45.008539 
L 215.259044 44.117465 
L 216.498493 44.234778 
L 217.741338 42.607923 
L 218.980787 43.10457 
L 220.220237 42.737649 
L 221.459686 39.737697 
L 222.702531 38.93659 
L 223.94198 34.941072 
L 225.181429 34.288527 
L 226.420878 32.630102 
L 227.663723 31.599902 
L 228.903173 28.650184 
L 230.142622 29.217196 
L 231.382071 26.416866 
L 232.624916 23.966783 
L 232.624916 23.966783 
" clip-path="url(#pa1af9a54a2)" style="fill: none; stroke: #dd8452; stroke-opacity: 0.5; stroke-linecap: round"/>
   </g>
   <g id="line2d_6">
    <path d="M 44.099596 132.067823 
L 45.339046 132.3044 
L 46.578495 133.094305 
L 47.817944 132.941482 
L 49.060789 133.281785 
L 50.300238 131.173031 
L 51.539687 130.50186 
L 52.779137 128.735398 
L 54.021982 129.438139 
L 55.261431 129.295704 
L 56.50088 127.547077 
L 57.740329 126.59973 
L 58.983174 127.37574 
L 60.222623 125.926138 
L 61.462073 124.780924 
L 62.701522 126.959895 
L 63.944367 124.923087 
L 65.183816 126.573224 
L 66.423265 126.868853 
L 67.662715 126.240418 
L 68.905559 125.885021 
L 70.145009 124.167903 
L 71.384458 126.505762 
L 72.623907 125.783407 
L 73.866752 127.180403 
L 75.106201 127.434976 
L 76.345651 127.964218 
L 77.5851 126.957536 
L 78.827945 126.421723 
L 80.067394 128.000025 
L 81.306843 125.965786 
L 82.546292 125.756567 
L 83.789137 126.888097 
L 85.028587 126.048268 
L 86.268036 124.572767 
L 87.507485 125.535948 
L 88.75033 127.668602 
L 89.989779 130.345764 
L 91.229228 130.541088 
L 92.468678 131.181171 
L 93.711523 132.269038 
L 94.950972 132.028879 
L 96.190421 132.194399 
L 97.42987 131.185407 
L 98.672715 130.889963 
L 99.912164 131.352866 
L 101.151614 131.99017 
L 102.391063 132.250215 
L 103.633908 132.257873 
L 104.873357 131.780803 
L 106.112806 130.598867 
L 107.352256 130.083941 
L 108.5951 129.808988 
L 111.073999 128.851142 
L 112.313448 128.632512 
L 113.556293 129.314663 
L 114.795742 130.72054 
L 116.035192 130.123243 
L 117.274641 128.605623 
L 118.517486 127.518718 
L 119.756935 127.575905 
L 120.996384 125.496028 
L 122.235833 122.974369 
L 123.478678 123.957102 
L 124.718128 123.451118 
L 125.957577 126.051257 
L 127.197026 124.11415 
L 128.439871 122.745042 
L 129.67932 123.290415 
L 130.918769 123.664166 
L 132.158219 123.265811 
L 133.401064 121.558043 
L 134.640513 119.006493 
L 135.879962 118.355072 
L 137.119411 117.23892 
L 138.362256 117.170345 
L 139.601705 117.515923 
L 140.841155 116.165096 
L 143.323449 111.617473 
L 144.562898 111.940559 
L 145.802347 110.584717 
L 147.041796 110.016346 
L 148.284641 107.919202 
L 149.524091 105.572154 
L 150.76354 104.463573 
L 152.002989 103.60565 
L 153.245834 103.331006 
L 154.485283 101.758571 
L 155.724733 102.009994 
L 156.964182 100.520091 
L 159.446476 99.753518 
L 160.685925 98.696517 
L 161.925374 97.898609 
L 163.168219 95.20287 
L 164.407669 92.148474 
L 166.886567 90.916071 
L 169.368861 88.212699 
L 171.84776 84.229754 
L 174.330054 82.419149 
L 175.569503 82.300107 
L 176.808952 80.938385 
L 178.051797 80.054796 
L 179.291246 78.875022 
L 180.530696 77.967879 
L 183.01299 74.450654 
L 184.252439 72.677646 
L 185.491888 72.218769 
L 186.731337 69.208492 
L 187.974182 66.554686 
L 189.213632 63.390844 
L 190.453081 63.31954 
L 191.69253 61.987129 
L 192.935375 61.341908 
L 194.174824 59.053195 
L 195.414274 59.627469 
L 199.136017 55.367188 
L 200.375466 53.81937 
L 201.614915 50.916796 
L 202.85776 48.758908 
L 204.09721 47.365752 
L 205.336659 46.59188 
L 207.818953 44.549329 
L 209.058402 41.486991 
L 210.297851 39.552304 
L 211.537301 37.122032 
L 212.780146 36.022727 
L 214.019595 34.282487 
L 215.259044 34.086076 
L 216.498493 32.279868 
L 217.741338 31.959635 
L 218.980787 28.575964 
L 221.459686 24.66614 
L 222.702531 23.726056 
L 223.94198 20.128967 
L 226.420878 17.893278 
L 227.663723 15.398322 
L 228.903173 15.851653 
L 230.142622 13.310578 
L 231.382071 11.525836 
L 232.624916 10.157754 
L 232.624916 10.157754 
" clip-path="url(#pa1af9a54a2)" style="fill: none; stroke: #dd8452; stroke-opacity: 0.5; stroke-linecap: round"/>
   </g>
   <g id="patch_3">
    <path d="M 34.017271 160.465541 
L 34.017271 3.00024 
" style="fill: none; stroke: #ffffff; stroke-width: 1.25; stroke-linejoin: miter; stroke-linecap: square"/>
   </g>
   <g id="patch_4">
    <path d="M 242.082423 160.465541 
L 242.082423 3.00024 
" style="fill: none; stroke: #ffffff; stroke-width: 1.25; stroke-linejoin: miter; stroke-linecap: square"/>
   </g>
   <g id="patch_5">
    <path d="M 34.017271 160.465541 
L 242.082423 160.465541 
" style="fill: none; stroke: #ffffff; stroke-width: 1.25; stroke-linejoin: miter; stroke-linecap: square"/>
   </g>
   <g id="patch_6">
    <path d="M 34.017271 3.00024 
L 242.082423 3.00024 
" style="fill: none; stroke: #ffffff; stroke-width: 1.25; stroke-linejoin: miter; stroke-linecap: square"/>
   </g>
   <g id="legend_1">
    <g id="patch_7">
     <path d="M 39.617271 32.13024 
L 79.451021 32.13024 
Q 81.051021 32.13024 81.051021 30.53024 
L 81.051021 8.60024 
Q 81.051021 7.00024 79.451021 7.00024 
L 39.617271 7.00024 
Q 38.017271 7.00024 38.017271 8.60024 
L 38.017271 30.53024 
Q 38.017271 32.13024 39.617271 32.13024 
z
" style="fill: #ffffff; opacity: 0.8; stroke: #cccccc; stroke-linejoin: miter"/>
    </g>
    <g id="line2d_7">
     <path d="M 41.217271 13.12649 
L 49.217271 13.12649 
L 57.217271 13.12649 
" style="fill: none; stroke: #4c72b0; stroke-width: 2; stroke-linecap: round"/>
    </g>
    <g id="text_11">
     <!-- Mar -->
     <g style="fill: #262626" transform="translate(63.617271 15.92649) scale(0.08 -0.08)">
      <defs>
       <path id="ArialMT-4d" d="M 475 0 
L 475 4581 
L 1388 4581 
L 2472 1338 
Q 2622 884 2691 659 
Q 2769 909 2934 1394 
L 4031 4581 
L 4847 4581 
L 4847 0 
L 4263 0 
L 4263 3834 
L 2931 0 
L 2384 0 
L 1059 3900 
L 1059 0 
L 475 0 
z
" transform="scale(0.015625)"/>
      </defs>
      <use xlink:href="#ArialMT-4d"/>
      <use xlink:href="#ArialMT-61" transform="translate(83.300781 0)"/>
      <use xlink:href="#ArialMT-72" transform="translate(138.916016 0)"/>
     </g>
    </g>
    <g id="line2d_8">
     <path d="M 41.217271 24.54024 
L 49.217271 24.54024 
L 57.217271 24.54024 
" style="fill: none; stroke: #dd8452; stroke-width: 2; stroke-linecap: round"/>
    </g>
    <g id="text_12">
     <!-- Sep -->
     <g style="fill: #262626" transform="translate(63.617271 27.34024) scale(0.08 -0.08)">
      <defs>
       <path id="ArialMT-53" d="M 288 1472 
L 859 1522 
Q 900 1178 1048 958 
Q 1197 738 1509 602 
Q 1822 466 2213 466 
Q 2559 466 2825 569 
Q 3091 672 3220 851 
Q 3350 1031 3350 1244 
Q 3350 1459 3225 1620 
Q 3100 1781 2813 1891 
Q 2628 1963 1997 2114 
Q 1366 2266 1113 2400 
Q 784 2572 623 2826 
Q 463 3081 463 3397 
Q 463 3744 659 4045 
Q 856 4347 1234 4503 
Q 1613 4659 2075 4659 
Q 2584 4659 2973 4495 
Q 3363 4331 3572 4012 
Q 3781 3694 3797 3291 
L 3216 3247 
Q 3169 3681 2898 3903 
Q 2628 4125 2100 4125 
Q 1550 4125 1298 3923 
Q 1047 3722 1047 3438 
Q 1047 3191 1225 3031 
Q 1400 2872 2139 2705 
Q 2878 2538 3153 2413 
Q 3553 2228 3743 1945 
Q 3934 1663 3934 1294 
Q 3934 928 3725 604 
Q 3516 281 3123 101 
Q 2731 -78 2241 -78 
Q 1619 -78 1198 103 
Q 778 284 539 648 
Q 300 1013 288 1472 
z
" transform="scale(0.015625)"/>
       <path id="ArialMT-70" d="M 422 -1272 
L 422 3319 
L 934 3319 
L 934 2888 
Q 1116 3141 1344 3267 
Q 1572 3394 1897 3394 
Q 2322 3394 2647 3175 
Q 2972 2956 3137 2557 
Q 3303 2159 3303 1684 
Q 3303 1175 3120 767 
Q 2938 359 2589 142 
Q 2241 -75 1856 -75 
Q 1575 -75 1351 44 
Q 1128 163 984 344 
L 984 -1272 
L 422 -1272 
z
M 931 1641 
Q 931 1000 1190 694 
Q 1450 388 1819 388 
Q 2194 388 2461 705 
Q 2728 1022 2728 1688 
Q 2728 2322 2467 2637 
Q 2206 2953 1844 2953 
Q 1484 2953 1207 2617 
Q 931 2281 931 1641 
z
" transform="scale(0.015625)"/>
      </defs>
      <use xlink:href="#ArialMT-53"/>
      <use xlink:href="#ArialMT-65" transform="translate(66.699219 0)"/>
      <use xlink:href="#ArialMT-70" transform="translate(122.314453 0)"/>
     </g>
    </g>
   </g>
  </g>
 </g>
 <defs>
  <clipPath id="pa1af9a54a2">
   <rect x="34.017271" y="3.00024" width="208.065152" height="157.465301"/>
  </clipPath>
 </defs>
</svg>
