<?xml version="1.0" encoding="utf-8" standalone="no"?>
<!DOCTYPE svg PUBLIC "-//W3C//DTD SVG 1.1//EN"
  "http://www.w3.org/Graphics/SVG/1.1/DTD/svg11.dtd">
<svg xmlns:xlink="http://www.w3.org/1999/xlink" width="288pt" height="216pt" viewBox="0 0 288 216" xmlns="http://www.w3.org/2000/svg" version="1.1">
 <metadata>
  <rdf:RDF xmlns:dc="http://purl.org/dc/elements/1.1/" xmlns:cc="http://creativecommons.org/ns#" xmlns:rdf="http://www.w3.org/1999/02/22-rdf-syntax-ns#">
   <cc:Work>
    <dc:type rdf:resource="http://purl.org/dc/dcmitype/StillImage"/>
    <dc:date>2025-06-13T13:37:31.594751</dc:date>
    <dc:format>image/svg+xml</dc:format>
    <dc:creator>
     <cc:Agent>
      <dc:title>Matplotlib v3.10.3, https://matplotlib.org/</dc:title>
     </cc:Agent>
    </dc:creator>
   </cc:Work>
  </rdf:RDF>
 </metadata>
 <defs>
  <style type="text/css">*{stroke-linejoin: round; stroke-linecap: butt}</style>
 </defs>
 <g id="figure_1">
  <g id="patch_1">
   <path d="M 0 216 
L 288 216 
L 288 0 
L 0 0 
z
" style="fill: #ffffff"/>
  </g>
  <g id="axes_1">
   <g id="patch_2">
    <path d="M 36 192.24 
L 259.2 192.24 
L 259.2 25.92 
L 36 25.92 
z
" style="fill: #ffffff"/>
   </g>
   <g id="matplotlib.axis_1">
    <g id="xtick_1">
     <g id="text_1">
      <!-- 1979 -->
      <g style="fill: #262626" transform="translate(62.395803 209.613594) scale(0.11 -0.11)">
       <defs>
        <path id="ArialMT-31" d="M 2384 0 
L 1822 0 
L 1822 3584 
Q 1619 3391 1289 3197 
Q 959 3003 697 2906 
L 697 3450 
Q 1169 3672 1522 3987 
Q 1875 4303 2022 4600 
L 2384 4600 
L 2384 0 
z
" transform="scale(0.015625)"/>
        <path id="ArialMT-39" d="M 350 1059 
L 891 1109 
Q 959 728 1153 556 
Q 1347 384 1650 384 
Q 1909 384 2104 503 
Q 2300 622 2425 820 
Q 2550 1019 2634 1356 
Q 2719 1694 2719 2044 
Q 2719 2081 2716 2156 
Q 2547 1888 2255 1720 
Q 1963 1553 1622 1553 
Q 1053 1553 659 1965 
Q 266 2378 266 3053 
Q 266 3750 677 4175 
Q 1088 4600 1706 4600 
Q 2153 4600 2523 4359 
Q 2894 4119 3086 3673 
Q 3278 3228 3278 2384 
Q 3278 1506 3087 986 
Q 2897 466 2520 194 
Q 2144 -78 1638 -78 
Q 1100 -78 759 220 
Q 419 519 350 1059 
z
M 2653 3081 
Q 2653 3566 2395 3850 
Q 2138 4134 1775 4134 
Q 1400 4134 1122 3828 
Q 844 3522 844 3034 
Q 844 2597 1108 2323 
Q 1372 2050 1759 2050 
Q 2150 2050 2401 2323 
Q 2653 2597 2653 3081 
z
" transform="scale(0.015625)"/>
        <path id="ArialMT-37" d="M 303 3981 
L 303 4522 
L 3269 4522 
L 3269 4084 
Q 2831 3619 2401 2847 
Q 1972 2075 1738 1259 
Q 1569 684 1522 0 
L 944 0 
Q 953 541 1156 1306 
Q 1359 2072 1739 2783 
Q 2119 3494 2547 3981 
L 303 3981 
z
" transform="scale(0.015625)"/>
       </defs>
       <use xlink:href="#ArialMT-31"/>
       <use xlink:href="#ArialMT-39" transform="translate(55.615234 0)"/>
       <use xlink:href="#ArialMT-37" transform="translate(111.230469 0)"/>
       <use xlink:href="#ArialMT-39" transform="translate(166.845703 0)"/>
      </g>
     </g>
    </g>
    <g id="xtick_2">
     <g id="text_2">
      <!-- 2000 -->
      <g style="fill: #262626" transform="translate(154.663242 209.613594) scale(0.11 -0.11)">
       <defs>
        <path id="ArialMT-32" d="M 3222 541 
L 3222 0 
L 194 0 
Q 188 203 259 391 
Q 375 700 629 1000 
Q 884 1300 1366 1694 
Q 2113 2306 2375 2664 
Q 2638 3022 2638 3341 
Q 2638 3675 2398 3904 
Q 2159 4134 1775 4134 
Q 1369 4134 1125 3890 
Q 881 3647 878 3216 
L 300 3275 
Q 359 3922 746 4261 
Q 1134 4600 1788 4600 
Q 2447 4600 2831 4234 
Q 3216 3869 3216 3328 
Q 3216 3053 3103 2787 
Q 2991 2522 2730 2228 
Q 2469 1934 1863 1422 
Q 1356 997 1212 845 
Q 1069 694 975 541 
L 3222 541 
z
" transform="scale(0.015625)"/>
        <path id="ArialMT-30" d="M 266 2259 
Q 266 3072 433 3567 
Q 600 4063 929 4331 
Q 1259 4600 1759 4600 
Q 2128 4600 2406 4451 
Q 2684 4303 2865 4023 
Q 3047 3744 3150 3342 
Q 3253 2941 3253 2259 
Q 3253 1453 3087 958 
Q 2922 463 2592 192 
Q 2263 -78 1759 -78 
Q 1097 -78 719 397 
Q 266 969 266 2259 
z
M 844 2259 
Q 844 1131 1108 757 
Q 1372 384 1759 384 
Q 2147 384 2411 759 
Q 2675 1134 2675 2259 
Q 2675 3391 2411 3762 
Q 2147 4134 1753 4134 
Q 1366 4134 1134 3806 
Q 844 3388 844 2259 
z
" transform="scale(0.015625)"/>
       </defs>
       <use xlink:href="#ArialMT-32"/>
       <use xlink:href="#ArialMT-30" transform="translate(55.615234 0)"/>
       <use xlink:href="#ArialMT-30" transform="translate(111.230469 0)"/>
       <use xlink:href="#ArialMT-30" transform="translate(166.845703 0)"/>
      </g>
     </g>
    </g>
    <g id="xtick_3">
     <g id="text_3">
      <!-- 2021 -->
      <g style="fill: #262626" transform="translate(246.965937 209.613594) scale(0.11 -0.11)">
       <use xlink:href="#ArialMT-32"/>
       <use xlink:href="#ArialMT-30" transform="translate(55.615234 0)"/>
       <use xlink:href="#ArialMT-32" transform="translate(111.230469 0)"/>
       <use xlink:href="#ArialMT-31" transform="translate(166.845703 0)"/>
      </g>
     </g>
    </g>
   </g>
   <g id="matplotlib.axis_2">
    <g id="ytick_1">
     <g id="text_4">
      <!-- −2 -->
      <g style="fill: #262626" transform="translate(13.958281 174.373469) scale(0.11 -0.11)">
       <defs>
        <path id="ArialMT-2212" d="M 3381 1997 
L 356 1997 
L 356 2522 
L 3381 2522 
L 3381 1997 
z
" transform="scale(0.015625)"/>
       </defs>
       <use xlink:href="#ArialMT-2212"/>
       <use xlink:href="#ArialMT-32" transform="translate(58.398438 0)"/>
      </g>
     </g>
    </g>
    <g id="ytick_2">
     <g id="text_5">
      <!-- −1 -->
      <g style="fill: #262626" transform="translate(13.958281 140.312877) scale(0.11 -0.11)">
       <use xlink:href="#ArialMT-2212"/>
       <use xlink:href="#ArialMT-31" transform="translate(58.398438 0)"/>
      </g>
     </g>
    </g>
    <g id="ytick_3">
     <g id="text_6">
      <!-- 0 -->
      <g style="fill: #262626" transform="translate(20.382969 106.252285) scale(0.11 -0.11)">
       <use xlink:href="#ArialMT-30"/>
      </g>
     </g>
    </g>
    <g id="ytick_4">
     <g id="text_7">
      <!-- 1 -->
      <g style="fill: #262626" transform="translate(20.382969 72.191692) scale(0.11 -0.11)">
       <use xlink:href="#ArialMT-31"/>
      </g>
     </g>
    </g>
    <g id="ytick_5">
     <g id="text_8">
      <!-- 2 -->
      <g style="fill: #262626" transform="translate(20.382969 38.1311) scale(0.11 -0.11)">
       <use xlink:href="#ArialMT-32"/>
      </g>
     </g>
    </g>
    <g id="text_9">
     <!-- $K$ -->
     <g style="fill: #262626" transform="translate(7.573281 113.04) rotate(-90) scale(0.12 -0.12)">
      <defs>
       <path id="DejaVuSans-Oblique-4b" d="M 1081 4666 
L 1716 4666 
L 1331 2700 
L 3781 4666 
L 4622 4666 
L 1850 2438 
L 3878 0 
L 3109 0 
L 1247 2272 
L 806 0 
L 172 0 
L 1081 4666 
z
" transform="scale(0.015625)"/>
      </defs>
      <use xlink:href="#DejaVuSans-Oblique-4b" transform="translate(0 0.09375)"/>
     </g>
    </g>
   </g>
   <g id="line2d_1">
    <path d="M 74.629865 128.442334 
L 74.994187 135.812964 
L 75.323252 131.019578 
L 75.687574 123.345615 
L 76.040143 85.456197 
L 76.404465 81.474596 
L 76.757035 100.447787 
L 77.121356 108.630243 
L 77.485678 111.595166 
L 77.838248 110.055247 
L 78.20257 87.187093 
L 78.555139 88.612479 
L 78.919461 98.375807 
L 79.283783 114.51508 
L 79.6246 112.326554 
L 79.988922 108.589891 
L 80.341491 110.431346 
L 80.705813 145.065874 
L 81.058382 135.164242 
L 81.787026 91.888555 
L 82.139596 99.958209 
L 82.503917 129.801758 
L 82.856487 139.895712 
L 83.220809 160.228068 
L 83.585131 123.737825 
L 83.914195 115.418112 
L 84.278517 134.877067 
L 84.995409 100.480205 
L 85.347978 117.596463 
L 85.7123 150.20927 
L 86.076622 136.634755 
L 86.429191 166.143471 
L 86.793513 147.065105 
L 87.510404 158.83961 
L 87.874726 132.848196 
L 88.203791 123.629194 
L 88.568113 118.906834 
L 88.920682 107.916777 
L 89.285004 149.276149 
L 89.637574 139.840365 
L 90.001896 151.989556 
L 91.435678 87.320842 
L 91.8 72.409988 
L 92.164322 80.152724 
L 92.493387 83.435749 
L 93.210278 105.802688 
L 93.5746 109.989756 
L 93.927169 151.24245 
L 94.291491 140.764353 
L 94.655813 110.005036 
L 95.008382 112.129072 
L 95.372704 115.411782 
L 95.725274 124.713453 
L 96.089596 112.634834 
L 96.453917 94.30707 
L 96.794735 105.996973 
L 97.159056 104.192331 
L 97.511626 126.443375 
L 97.875948 106.131962 
L 98.228517 104.047942 
L 98.592839 91.678655 
L 98.957161 118.815451 
L 99.30973 106.512651 
L 99.674052 82.784831 
L 100.026622 81.541666 
L 100.390944 86.857874 
L 100.755265 102.903202 
L 101.08433 82.181009 
L 101.448652 76.51885 
L 101.801222 80.394669 
L 102.518113 126.186468 
L 102.882435 128.010919 
L 103.246757 119.361158 
L 103.599326 93.881424 
L 103.963648 85.489697 
L 104.316217 100.642566 
L 104.680539 101.224828 
L 105.044861 102.380017 
L 105.373926 96.116505 
L 105.738248 68.679264 
L 106.455139 120.208093 
L 106.807709 134.035589 
L 107.17203 129.770956 
L 107.536352 152.168313 
L 108.253243 112.186333 
L 108.605813 117.191802 
L 108.970135 109.554288 
L 109.334457 118.651042 
L 109.663521 118.289403 
L 110.027843 120.129768 
L 110.380413 117.893663 
L 110.744735 118.89547 
L 111.461626 149.786765 
L 111.825948 148.916314 
L 112.178517 168.778258 
L 112.895409 149.155851 
L 113.25973 143.876229 
L 113.624052 155.444134 
L 113.964869 137.865831 
L 114.329191 137.161697 
L 114.681761 140.702489 
L 115.046083 151.148432 
L 115.762974 102.123402 
L 116.127296 135.604379 
L 116.479865 152.897072 
L 116.844187 145.417005 
L 117.196757 146.35228 
L 117.561078 139.561369 
L 118.254465 114.345311 
L 118.618787 124.528723 
L 118.971356 103.131001 
L 119.335678 108.75828 
L 119.688248 132.701944 
L 120.416891 88.244613 
L 120.769461 132.112738 
L 121.133783 100.114698 
L 121.486352 178.756915 
L 122.214996 126.201001 
L 122.544061 115.965353 
L 122.908382 115.955484 
L 123.260952 122.819881 
L 123.625274 122.382575 
L 123.977843 110.757665 
L 124.342165 74.363325 
L 124.706487 70.680106 
L 125.059056 85.377332 
L 125.423378 119.792883 
L 125.775948 122.1432 
L 126.14027 107.709223 
L 126.504591 108.404684 
L 126.833656 93.465043 
L 127.197978 99.56927 
L 127.550548 92.304934 
L 127.914869 104.267367 
L 128.267439 124.268963 
L 128.631761 132.855 
L 128.996083 138.315111 
L 129.348652 114.944255 
L 129.712974 122.138614 
L 130.065543 113.770606 
L 130.429865 119.661857 
L 130.794187 130.335375 
L 131.135004 130.280523 
L 131.499326 128.433308 
L 131.851896 137.676238 
L 132.216217 127.290087 
L 132.568787 170.367139 
L 132.933109 145.857102 
L 133.29743 129.274587 
L 133.65 146.487864 
L 134.014322 149.111698 
L 134.731213 123.77074 
L 135.095535 116.868416 
L 135.4246 119.093605 
L 135.788922 113.737302 
L 136.141491 96.609801 
L 136.505813 127.110841 
L 136.858382 119.568942 
L 137.222704 127.695366 
L 137.587026 104.837066 
L 137.939596 120.691199 
L 138.303917 113.590979 
L 138.656487 90.760839 
L 139.020809 113.987609 
L 139.385131 113.727313 
L 139.714195 113.912898 
L 140.078517 87.398956 
L 140.431087 106.024654 
L 140.795409 83.726923 
L 141.147978 46.440695 
L 141.876622 150.592332 
L 142.593513 88.4085 
L 142.946083 87.40486 
L 143.310404 67.257769 
L 143.674726 91.813238 
L 144.003791 90.403778 
L 144.368113 107.045208 
L 144.720682 130.908618 
L 145.085004 131.114044 
L 145.437574 98.018589 
L 145.801896 113.315398 
L 146.166217 119.952071 
L 146.518787 79.332645 
L 146.883109 95.111367 
L 147.235678 121.400309 
L 147.6 135.874654 
L 147.964322 126.654334 
L 148.305139 146.245018 
L 148.669461 144.509027 
L 149.02203 153.010991 
L 149.386352 117.720809 
L 149.738922 184.68 
L 150.103243 172.665751 
L 150.467565 182.058474 
L 150.820135 176.169075 
L 151.184457 172.00292 
L 151.537026 145.980192 
L 152.26567 120.194125 
L 152.594735 127.369054 
L 152.959056 157.738687 
L 153.311626 155.764004 
L 153.675948 139.365939 
L 154.028517 113.282024 
L 154.392839 143.391994 
L 154.757161 118.7062 
L 155.474052 121.56173 
L 155.826622 147.561235 
L 156.190944 141.249099 
L 156.555265 147.36353 
L 156.88433 148.580503 
L 157.601222 118.552528 
L 157.965543 130.678584 
L 158.318113 125.34302 
L 158.682435 117.869145 
L 159.399326 139.732417 
L 159.763648 135.885278 
L 160.116217 103.594319 
L 160.480539 102.679864 
L 160.844861 85.527301 
L 161.173926 96.902504 
L 161.890817 69.731794 
L 162.255139 48.275211 
L 162.607709 71.736668 
L 162.97203 80.717621 
L 163.336352 62.86969 
L 163.688922 82.532808 
L 164.405813 50.528189 
L 164.770135 56.02072 
L 165.134457 70.926235 
L 165.475274 54.622189 
L 165.839596 66.836592 
L 166.556487 124.402683 
L 166.909056 132.40428 
L 167.273378 126.358005 
L 167.6377 112.05027 
L 167.99027 114.297373 
L 168.354591 119.714273 
L 168.707161 132.461757 
L 169.071483 133.538656 
L 169.435805 113.19551 
L 170.129191 88.768692 
L 170.846083 60.281254 
L 171.198652 109.502262 
L 171.562974 109.156052 
L 171.927296 89.968483 
L 172.279865 106.49018 
L 172.644187 101.527096 
L 172.996757 48.197116 
L 173.361078 81.524654 
L 173.7254 75.338543 
L 174.054465 78.275064 
L 174.418787 72.953292 
L 174.771356 116.247002 
L 175.135678 105.698046 
L 175.488248 106.7169 
L 175.85257 83.640096 
L 176.216891 87.097975 
L 176.569461 80.114911 
L 176.933783 108.511588 
L 177.286352 120.494845 
L 177.650674 145.132159 
L 178.014996 151.030978 
L 178.344061 141.457933 
L 178.708382 148.131874 
L 179.060952 124.270755 
L 179.425274 129.676125 
L 180.142165 90.408485 
L 180.506487 94.502011 
L 180.859056 106.877886 
L 181.223378 129.908938 
L 181.575948 143.263591 
L 181.94027 143.471033 
L 182.304591 159.034209 
L 182.645409 158.291221 
L 183.00973 150.527954 
L 183.3623 125.697969 
L 183.726622 150.226591 
L 184.079191 129.831758 
L 184.443513 129.439841 
L 184.807835 104.368169 
L 185.160404 109.876265 
L 185.524726 127.257002 
L 186.241618 115.061558 
L 186.605939 138.408484 
L 186.935004 140.211331 
L 187.299326 124.791032 
L 187.651896 140.823629 
L 188.016217 125.115345 
L 188.368787 125.819524 
L 189.09743 68.477664 
L 189.45 75.038114 
L 190.166891 114.356811 
L 190.531213 92.20566 
L 190.895535 81.144856 
L 191.2246 100.55383 
L 191.588922 66.1916 
L 191.941491 79.039676 
L 192.305813 82.80411 
L 193.022704 77.658226 
L 193.387026 105.658174 
L 193.739596 107.602904 
L 194.103917 94.894612 
L 194.820809 47.040737 
L 195.514195 148.453425 
L 195.878517 163.118208 
L 196.231087 152.998744 
L 196.595409 145.867352 
L 196.947978 121.686303 
L 197.3123 118.3653 
L 198.029191 104.868755 
L 198.393513 143.349604 
L 198.746083 145.327909 
L 199.110404 105.53902 
L 199.474726 83.50178 
L 199.815543 83.510957 
L 200.179865 75.59434 
L 200.532435 107.739001 
L 200.896757 69.526729 
L 201.249326 58.25335 
L 201.613648 99.38969 
L 201.97797 123.010334 
L 202.330539 102.525373 
L 202.694861 90.07301 
L 203.04743 85.700084 
L 203.776074 110.743371 
L 204.105139 99.609265 
L 204.82203 86.670157 
L 205.186352 83.220878 
L 205.538922 103.179782 
L 205.903243 81.796653 
L 206.267565 108.106426 
L 206.620135 116.954705 
L 206.984457 56.257078 
L 207.337026 62.04936 
L 207.701348 104.345633 
L 208.06567 110.361951 
L 208.759056 57.307055 
L 209.111626 72.544389 
L 209.475948 40.708638 
L 209.828517 36.846503 
L 210.192839 72.462332 
L 210.557161 92.730958 
L 210.90973 94.644222 
L 211.274052 94.786648 
L 211.626622 99.22872 
L 211.990944 105.63092 
L 212.355265 98.692132 
L 212.68433 94.627292 
L 213.048652 86.170404 
L 213.401222 57.762821 
L 213.765543 81.309955 
L 214.118113 84.27808 
L 214.482435 90.302443 
L 214.846757 81.232285 
L 215.199326 63.124958 
L 215.563648 77.74904 
L 215.916217 47.919991 
L 216.280539 50.374556 
L 216.644861 39.754557 
L 216.985678 33.48 
L 217.35 49.776164 
L 217.70257 46.752313 
L 218.066891 58.801923 
L 218.419461 54.28786 
L 218.783783 47.039987 
L 219.500674 55.653761 
L 219.864996 64.337701 
L 220.217565 54.881614 
L 220.946209 66.389183 
L 221.275274 79.346379 
L 221.639596 83.456973 
L 221.992165 53.49239 
L 222.356487 77.055537 
L 222.709056 46.713598 
L 223.073378 98.261537 
L 223.4377 99.520343 
L 223.79027 78.433673 
L 224.154591 103.434595 
L 224.507161 114.940851 
L 224.871483 115.531511 
L 225.235805 106.204852 
L 225.564869 111.032306 
L 225.929191 93.117374 
L 226.281761 58.311739 
L 226.646083 50.992594 
L 226.998652 74.495456 
L 227.362974 87.689274 
L 227.727296 68.254903 
L 228.079865 61.817257 
L 228.444187 80.306531 
L 228.796757 67.949619 
L 229.161078 66.31195 
L 229.5254 96.769085 
L 229.854465 104.579181 
L 230.218787 95.092141 
L 230.571356 62.636891 
L 230.935678 57.279413 
L 231.288248 65.096246 
L 231.65257 57.849462 
L 232.016891 41.147993 
L 232.369461 77.126064 
L 232.733783 69.225068 
L 233.086352 46.538638 
L 233.450674 56.384428 
L 233.814996 61.639336 
L 234.155813 56.711033 
L 234.520135 65.369969 
L 234.872704 63.837807 
L 235.237026 80.840862 
L 235.953917 64.145939 
L 236.318239 64.987164 
L 236.670809 58.001029 
L 237.035131 48.054937 
L 237.3877 65.17801 
L 237.752022 66.743526 
L 238.116344 62.79764 
L 238.445409 90.552434 
L 238.80973 95.106212 
L 239.1623 109.517798 
L 239.526622 132.498631 
L 239.879191 97.117656 
L 240.243513 110.133164 
L 240.607835 108.301053 
L 240.960404 59.639821 
L 241.324726 52.399441 
L 241.677296 62.814558 
L 242.041618 86.495028 
L 242.405939 54.091496 
L 242.735004 66.791455 
L 243.099326 101.332213 
L 243.451896 95.502779 
L 243.816217 102.92379 
L 244.168787 82.727477 
L 244.533109 54.593223 
L 244.89743 50.376091 
L 245.25 74.149902 
L 245.614322 113.195659 
L 245.966891 117.726518 
L 246.331213 101.584673 
L 246.695535 96.831074 
L 247.0246 99.551453 
L 247.388922 95.417998 
L 247.741491 119.23856 
L 248.105813 116.097819 
L 248.458382 62.678261 
L 248.822704 56.312771 
L 249.187026 78.442273 
L 249.539596 71.877025 
L 249.903917 70.464904 
L 250.256487 92.175168 
L 250.620809 73.804094 
L 250.985131 64.642811 
L 251.325948 62.964042 
L 252.042839 153.09006 
L 252.75973 55.956637 
L 253.124052 61.731826 
L 253.488374 87.342227 
L 253.840944 65.335866 
L 254.205265 64.740875 
L 254.922157 46.897293 
L 255.286479 49.45049 
L 255.615543 50.826546 
L 255.979865 69.963691 
L 256.332435 72.517648 
L 256.696757 41.081278 
L 257.049326 64.498419 
L 257.413648 55.019287 
L 257.77797 49.170308 
L 258.130539 35.318872 
L 258.494861 47.576883 
L 258.84743 47.020216 
L 259.211752 37.022214 
L 259.576074 49.221092 
L 259.905139 54.09796 
L 260.269461 68.133438 
L 260.62203 61.952635 
L 260.986352 52.518574 
L 261.338922 58.9568 
L 261.703243 47.161929 
L 262.067565 70.310272 
L 262.067565 70.310272 
" clip-path="url(#p086a3b712b)" style="fill: none; stroke: #4c72b0; stroke-width: 1.5; stroke-linecap: round"/>
   </g>
   <g id="line2d_2">
    <path d="M 74.629865 131.913392 
L 262.067565 72.714253 
L 262.067565 72.714253 
" clip-path="url(#p086a3b712b)" style="fill: none; stroke: #1a1a1a; stroke-width: 1.5; stroke-linecap: round"/>
   </g>
   <g id="patch_3">
    <path d="M 36 192.24 
L 36 25.92 
" style="fill: none; stroke: #ffffff; stroke-width: 1.25; stroke-linejoin: miter; stroke-linecap: square"/>
   </g>
   <g id="patch_4">
    <path d="M 259.2 192.24 
L 259.2 25.92 
" style="fill: none; stroke: #ffffff; stroke-width: 1.25; stroke-linejoin: miter; stroke-linecap: square"/>
   </g>
   <g id="patch_5">
    <path d="M 36 192.24 
L 259.2 192.24 
" style="fill: none; stroke: #ffffff; stroke-width: 1.25; stroke-linejoin: miter; stroke-linecap: square"/>
   </g>
   <g id="patch_6">
    <path d="M 36 25.92 
L 259.2 25.92 
" style="fill: none; stroke: #ffffff; stroke-width: 1.25; stroke-linejoin: miter; stroke-linecap: square"/>
   </g>
   <g id="text_10">
    <!-- $T_{wh}$ anomalies -->
    <g style="fill: #262626" transform="translate(108.6 19.92) scale(0.12 -0.12)">
     <defs>
      <path id="DejaVuSans-Oblique-54" d="M 378 4666 
L 4325 4666 
L 4225 4134 
L 2559 4134 
L 1759 0 
L 1125 0 
L 1925 4134 
L 275 4134 
L 378 4666 
z
" transform="scale(0.015625)"/>
      <path id="DejaVuSans-Oblique-77" d="M 544 3500 
L 1113 3500 
L 1259 684 
L 2566 3500 
L 3231 3500 
L 3425 684 
L 4666 3500 
L 5241 3500 
L 3641 0 
L 2969 0 
L 2797 2900 
L 1459 0 
L 781 0 
L 544 3500 
z
" transform="scale(0.015625)"/>
      <path id="DejaVuSans-Oblique-68" d="M 3566 2113 
L 3156 0 
L 2578 0 
L 2988 2091 
Q 3016 2238 3031 2350 
Q 3047 2463 3047 2528 
Q 3047 2791 2881 2937 
Q 2716 3084 2419 3084 
Q 1956 3084 1617 2771 
Q 1278 2459 1178 1941 
L 800 0 
L 225 0 
L 1172 4863 
L 1747 4863 
L 1375 2950 
Q 1594 3244 1934 3414 
Q 2275 3584 2650 3584 
Q 3113 3584 3367 3334 
Q 3622 3084 3622 2631 
Q 3622 2519 3608 2391 
Q 3594 2263 3566 2113 
z
" transform="scale(0.015625)"/>
      <path id="ArialMT-20" transform="scale(0.015625)"/>
      <path id="ArialMT-61" d="M 2588 409 
Q 2275 144 1986 34 
Q 1697 -75 1366 -75 
Q 819 -75 525 192 
Q 231 459 231 875 
Q 231 1119 342 1320 
Q 453 1522 633 1644 
Q 813 1766 1038 1828 
Q 1203 1872 1538 1913 
Q 2219 1994 2541 2106 
Q 2544 2222 2544 2253 
Q 2544 2597 2384 2738 
Q 2169 2928 1744 2928 
Q 1347 2928 1158 2789 
Q 969 2650 878 2297 
L 328 2372 
Q 403 2725 575 2942 
Q 747 3159 1072 3276 
Q 1397 3394 1825 3394 
Q 2250 3394 2515 3294 
Q 2781 3194 2906 3042 
Q 3031 2891 3081 2659 
Q 3109 2516 3109 2141 
L 3109 1391 
Q 3109 606 3145 398 
Q 3181 191 3288 0 
L 2700 0 
Q 2613 175 2588 409 
z
M 2541 1666 
Q 2234 1541 1622 1453 
Q 1275 1403 1131 1340 
Q 988 1278 909 1158 
Q 831 1038 831 891 
Q 831 666 1001 516 
Q 1172 366 1500 366 
Q 1825 366 2078 508 
Q 2331 650 2450 897 
Q 2541 1088 2541 1459 
L 2541 1666 
z
" transform="scale(0.015625)"/>
      <path id="ArialMT-6e" d="M 422 0 
L 422 3319 
L 928 3319 
L 928 2847 
Q 1294 3394 1984 3394 
Q 2284 3394 2536 3286 
Q 2788 3178 2913 3003 
Q 3038 2828 3088 2588 
Q 3119 2431 3119 2041 
L 3119 0 
L 2556 0 
L 2556 2019 
Q 2556 2363 2490 2533 
Q 2425 2703 2258 2804 
Q 2091 2906 1866 2906 
Q 1506 2906 1245 2678 
Q 984 2450 984 1813 
L 984 0 
L 422 0 
z
" transform="scale(0.015625)"/>
      <path id="ArialMT-6f" d="M 213 1659 
Q 213 2581 725 3025 
Q 1153 3394 1769 3394 
Q 2453 3394 2887 2945 
Q 3322 2497 3322 1706 
Q 3322 1066 3130 698 
Q 2938 331 2570 128 
Q 2203 -75 1769 -75 
Q 1072 -75 642 372 
Q 213 819 213 1659 
z
M 791 1659 
Q 791 1022 1069 705 
Q 1347 388 1769 388 
Q 2188 388 2466 706 
Q 2744 1025 2744 1678 
Q 2744 2294 2464 2611 
Q 2184 2928 1769 2928 
Q 1347 2928 1069 2612 
Q 791 2297 791 1659 
z
" transform="scale(0.015625)"/>
      <path id="ArialMT-6d" d="M 422 0 
L 422 3319 
L 925 3319 
L 925 2853 
Q 1081 3097 1340 3245 
Q 1600 3394 1931 3394 
Q 2300 3394 2536 3241 
Q 2772 3088 2869 2813 
Q 3263 3394 3894 3394 
Q 4388 3394 4653 3120 
Q 4919 2847 4919 2278 
L 4919 0 
L 4359 0 
L 4359 2091 
Q 4359 2428 4304 2576 
Q 4250 2725 4106 2815 
Q 3963 2906 3769 2906 
Q 3419 2906 3187 2673 
Q 2956 2441 2956 1928 
L 2956 0 
L 2394 0 
L 2394 2156 
Q 2394 2531 2256 2718 
Q 2119 2906 1806 2906 
Q 1569 2906 1367 2781 
Q 1166 2656 1075 2415 
Q 984 2175 984 1722 
L 984 0 
L 422 0 
z
" transform="scale(0.015625)"/>
      <path id="ArialMT-6c" d="M 409 0 
L 409 4581 
L 972 4581 
L 972 0 
L 409 0 
z
" transform="scale(0.015625)"/>
      <path id="ArialMT-69" d="M 425 3934 
L 425 4581 
L 988 4581 
L 988 3934 
L 425 3934 
z
M 425 0 
L 425 3319 
L 988 3319 
L 988 0 
L 425 0 
z
" transform="scale(0.015625)"/>
      <path id="ArialMT-65" d="M 2694 1069 
L 3275 997 
Q 3138 488 2766 206 
Q 2394 -75 1816 -75 
Q 1088 -75 661 373 
Q 234 822 234 1631 
Q 234 2469 665 2931 
Q 1097 3394 1784 3394 
Q 2450 3394 2872 2941 
Q 3294 2488 3294 1666 
Q 3294 1616 3291 1516 
L 816 1516 
Q 847 969 1125 678 
Q 1403 388 1819 388 
Q 2128 388 2347 550 
Q 2566 713 2694 1069 
z
M 847 1978 
L 2700 1978 
Q 2663 2397 2488 2606 
Q 2219 2931 1791 2931 
Q 1403 2931 1139 2672 
Q 875 2413 847 1978 
z
" transform="scale(0.015625)"/>
      <path id="ArialMT-73" d="M 197 991 
L 753 1078 
Q 800 744 1014 566 
Q 1228 388 1613 388 
Q 2000 388 2187 545 
Q 2375 703 2375 916 
Q 2375 1106 2209 1216 
Q 2094 1291 1634 1406 
Q 1016 1563 777 1677 
Q 538 1791 414 1992 
Q 291 2194 291 2438 
Q 291 2659 392 2848 
Q 494 3038 669 3163 
Q 800 3259 1026 3326 
Q 1253 3394 1513 3394 
Q 1903 3394 2198 3281 
Q 2494 3169 2634 2976 
Q 2775 2784 2828 2463 
L 2278 2388 
Q 2241 2644 2061 2787 
Q 1881 2931 1553 2931 
Q 1166 2931 1000 2803 
Q 834 2675 834 2503 
Q 834 2394 903 2306 
Q 972 2216 1119 2156 
Q 1203 2125 1616 2013 
Q 2213 1853 2448 1751 
Q 2684 1650 2818 1456 
Q 2953 1263 2953 975 
Q 2953 694 2789 445 
Q 2625 197 2315 61 
Q 2006 -75 1616 -75 
Q 969 -75 630 194 
Q 291 463 197 991 
z
" transform="scale(0.015625)"/>
     </defs>
     <use xlink:href="#DejaVuSans-Oblique-54" transform="translate(0 0.09375)"/>
     <use xlink:href="#DejaVuSans-Oblique-77" transform="translate(61.083984 -16.3125) scale(0.7)"/>
     <use xlink:href="#DejaVuSans-Oblique-68" transform="translate(118.334961 -16.3125) scale(0.7)"/>
     <use xlink:href="#ArialMT-20" transform="translate(165.43457 0.09375)"/>
     <use xlink:href="#ArialMT-61" transform="translate(193.217773 0.09375)"/>
     <use xlink:href="#ArialMT-6e" transform="translate(248.833008 0.09375)"/>
     <use xlink:href="#ArialMT-6f" transform="translate(304.448242 0.09375)"/>
     <use xlink:href="#ArialMT-6d" transform="translate(360.063477 0.09375)"/>
     <use xlink:href="#ArialMT-61" transform="translate(443.364258 0.09375)"/>
     <use xlink:href="#ArialMT-6c" transform="translate(498.979492 0.09375)"/>
     <use xlink:href="#ArialMT-69" transform="translate(521.196289 0.09375)"/>
     <use xlink:href="#ArialMT-65" transform="translate(543.413086 0.09375)"/>
     <use xlink:href="#ArialMT-73" transform="translate(599.02832 0.09375)"/>
    </g>
   </g>
   <g id="legend_1">
    <g id="patch_7">
     <path d="M 43.7 50.279844 
L 103.969687 50.279844 
Q 106.169687 50.279844 106.169687 48.079844 
L 106.169687 33.62 
Q 106.169687 31.42 103.969687 31.42 
L 43.7 31.42 
Q 41.5 31.42 41.5 33.62 
L 41.5 48.079844 
Q 41.5 50.279844 43.7 50.279844 
z
" style="fill: #ffffff; opacity: 0.8; stroke: #cccccc; stroke-linejoin: miter"/>
    </g>
    <g id="line2d_3">
     <path d="M 45.9 39.843594 
L 56.9 39.843594 
L 67.9 39.843594 
" style="fill: none; stroke: #1a1a1a; stroke-width: 1.5; stroke-linecap: round"/>
    </g>
    <g id="text_11">
     <!-- trend -->
     <g style="fill: #262626" transform="translate(76.7 43.693594) scale(0.11 -0.11)">
      <defs>
       <path id="ArialMT-74" d="M 1650 503 
L 1731 6 
Q 1494 -44 1306 -44 
Q 1000 -44 831 53 
Q 663 150 594 308 
Q 525 466 525 972 
L 525 2881 
L 113 2881 
L 113 3319 
L 525 3319 
L 525 4141 
L 1084 4478 
L 1084 3319 
L 1650 3319 
L 1650 2881 
L 1084 2881 
L 1084 941 
Q 1084 700 1114 631 
Q 1144 563 1211 522 
Q 1278 481 1403 481 
Q 1497 481 1650 503 
z
" transform="scale(0.015625)"/>
       <path id="ArialMT-72" d="M 416 0 
L 416 3319 
L 922 3319 
L 922 2816 
Q 1116 3169 1280 3281 
Q 1444 3394 1641 3394 
Q 1925 3394 2219 3213 
L 2025 2691 
Q 1819 2813 1613 2813 
Q 1428 2813 1281 2702 
Q 1134 2591 1072 2394 
Q 978 2094 978 1738 
L 978 0 
L 416 0 
z
" transform="scale(0.015625)"/>
       <path id="ArialMT-64" d="M 2575 0 
L 2575 419 
Q 2259 -75 1647 -75 
Q 1250 -75 917 144 
Q 584 363 401 755 
Q 219 1147 219 1656 
Q 219 2153 384 2558 
Q 550 2963 881 3178 
Q 1213 3394 1622 3394 
Q 1922 3394 2156 3267 
Q 2391 3141 2538 2938 
L 2538 4581 
L 3097 4581 
L 3097 0 
L 2575 0 
z
M 797 1656 
Q 797 1019 1065 703 
Q 1334 388 1700 388 
Q 2069 388 2326 689 
Q 2584 991 2584 1609 
Q 2584 2291 2321 2609 
Q 2059 2928 1675 2928 
Q 1300 2928 1048 2622 
Q 797 2316 797 1656 
z
" transform="scale(0.015625)"/>
      </defs>
      <use xlink:href="#ArialMT-74"/>
      <use xlink:href="#ArialMT-72" transform="translate(27.783203 0)"/>
      <use xlink:href="#ArialMT-65" transform="translate(61.083984 0)"/>
      <use xlink:href="#ArialMT-6e" transform="translate(116.699219 0)"/>
      <use xlink:href="#ArialMT-64" transform="translate(172.314453 0)"/>
     </g>
    </g>
   </g>
  </g>
 </g>
 <defs>
  <clipPath id="p086a3b712b">
   <rect x="36" y="25.92" width="223.2" height="166.32"/>
  </clipPath>
 </defs>
</svg>
