<?xml version="1.0" encoding="utf-8" standalone="no"?>
<!DOCTYPE svg PUBLIC "-//W3C//DTD SVG 1.1//EN"
  "http://www.w3.org/Graphics/SVG/1.1/DTD/svg11.dtd">
<svg xmlns:xlink="http://www.w3.org/1999/xlink" width="504pt" height="216pt" viewBox="0 0 504 216" xmlns="http://www.w3.org/2000/svg" version="1.1">
 <metadata>
  <rdf:RDF xmlns:dc="http://purl.org/dc/elements/1.1/" xmlns:cc="http://creativecommons.org/ns#" xmlns:rdf="http://www.w3.org/1999/02/22-rdf-syntax-ns#">
   <cc:Work>
    <dc:type rdf:resource="http://purl.org/dc/dcmitype/StillImage"/>
    <dc:date>2025-06-29T20:23:54.020752</dc:date>
    <dc:format>image/svg+xml</dc:format>
    <dc:creator>
     <cc:Agent>
      <dc:title>Matplotlib v3.10.3, https://matplotlib.org/</dc:title>
     </cc:Agent>
    </dc:creator>
   </cc:Work>
  </rdf:RDF>
 </metadata>
 <defs>
  <style type="text/css">*{stroke-linejoin: round; stroke-linecap: butt}</style>
 </defs>
 <g id="figure_1">
  <g id="patch_1">
   <path d="M 0 216 
L 504 216 
L 504 0 
L 0 0 
z
" style="fill: #ffffff"/>
  </g>
  <g id="axes_1">
   <g id="patch_2">
    <path d="M 39.708678 178.465541 
L 248.629136 178.465541 
L 248.629136 17.735865 
L 39.708678 17.735865 
z
" style="fill: #ffffff"/>
   </g>
   <g id="matplotlib.axis_1">
    <g id="xtick_1">
     <g id="text_1">
      <!-- 1850 -->
      <g style="fill: #262626" transform="translate(36.970999 195.839135) scale(0.11 -0.11)">
       <defs>
        <path id="ArialMT-31" d="M 2384 0 
L 1822 0 
L 1822 3584 
Q 1619 3391 1289 3197 
Q 959 3003 697 2906 
L 697 3450 
Q 1169 3672 1522 3987 
Q 1875 4303 2022 4600 
L 2384 4600 
L 2384 0 
z
" transform="scale(0.015625)"/>
        <path id="ArialMT-38" d="M 1131 2484 
Q 781 2613 612 2850 
Q 444 3088 444 3419 
Q 444 3919 803 4259 
Q 1163 4600 1759 4600 
Q 2359 4600 2725 4251 
Q 3091 3903 3091 3403 
Q 3091 3084 2923 2848 
Q 2756 2613 2416 2484 
Q 2838 2347 3058 2040 
Q 3278 1734 3278 1309 
Q 3278 722 2862 322 
Q 2447 -78 1769 -78 
Q 1091 -78 675 323 
Q 259 725 259 1325 
Q 259 1772 486 2073 
Q 713 2375 1131 2484 
z
M 1019 3438 
Q 1019 3113 1228 2906 
Q 1438 2700 1772 2700 
Q 2097 2700 2305 2904 
Q 2513 3109 2513 3406 
Q 2513 3716 2298 3927 
Q 2084 4138 1766 4138 
Q 1444 4138 1231 3931 
Q 1019 3725 1019 3438 
z
M 838 1322 
Q 838 1081 952 856 
Q 1066 631 1291 507 
Q 1516 384 1775 384 
Q 2178 384 2440 643 
Q 2703 903 2703 1303 
Q 2703 1709 2433 1975 
Q 2163 2241 1756 2241 
Q 1359 2241 1098 1978 
Q 838 1716 838 1322 
z
" transform="scale(0.015625)"/>
        <path id="ArialMT-35" d="M 266 1200 
L 856 1250 
Q 922 819 1161 601 
Q 1400 384 1738 384 
Q 2144 384 2425 690 
Q 2706 997 2706 1503 
Q 2706 1984 2436 2262 
Q 2166 2541 1728 2541 
Q 1456 2541 1237 2417 
Q 1019 2294 894 2097 
L 366 2166 
L 809 4519 
L 3088 4519 
L 3088 3981 
L 1259 3981 
L 1013 2750 
Q 1425 3038 1878 3038 
Q 2478 3038 2890 2622 
Q 3303 2206 3303 1553 
Q 3303 931 2941 478 
Q 2500 -78 1738 -78 
Q 1113 -78 717 272 
Q 322 622 266 1200 
z
" transform="scale(0.015625)"/>
        <path id="ArialMT-30" d="M 266 2259 
Q 266 3072 433 3567 
Q 600 4063 929 4331 
Q 1259 4600 1759 4600 
Q 2128 4600 2406 4451 
Q 2684 4303 2865 4023 
Q 3047 3744 3150 3342 
Q 3253 2941 3253 2259 
Q 3253 1453 3087 958 
Q 2922 463 2592 192 
Q 2263 -78 1759 -78 
Q 1097 -78 719 397 
Q 266 969 266 2259 
z
M 844 2259 
Q 844 1131 1108 757 
Q 1372 384 1759 384 
Q 2147 384 2411 759 
Q 2675 1134 2675 2259 
Q 2675 3391 2411 3762 
Q 2147 4134 1753 4134 
Q 1366 4134 1134 3806 
Q 844 3388 844 2259 
z
" transform="scale(0.015625)"/>
       </defs>
       <use xlink:href="#ArialMT-31"/>
       <use xlink:href="#ArialMT-38" transform="translate(55.615234 0)"/>
       <use xlink:href="#ArialMT-35" transform="translate(111.230469 0)"/>
       <use xlink:href="#ArialMT-30" transform="translate(166.845703 0)"/>
      </g>
     </g>
    </g>
    <g id="xtick_2">
     <g id="text_2">
      <!-- 1900 -->
      <g style="fill: #262626" transform="translate(100.705124 195.839135) scale(0.11 -0.11)">
       <defs>
        <path id="ArialMT-39" d="M 350 1059 
L 891 1109 
Q 959 728 1153 556 
Q 1347 384 1650 384 
Q 1909 384 2104 503 
Q 2300 622 2425 820 
Q 2550 1019 2634 1356 
Q 2719 1694 2719 2044 
Q 2719 2081 2716 2156 
Q 2547 1888 2255 1720 
Q 1963 1553 1622 1553 
Q 1053 1553 659 1965 
Q 266 2378 266 3053 
Q 266 3750 677 4175 
Q 1088 4600 1706 4600 
Q 2153 4600 2523 4359 
Q 2894 4119 3086 3673 
Q 3278 3228 3278 2384 
Q 3278 1506 3087 986 
Q 2897 466 2520 194 
Q 2144 -78 1638 -78 
Q 1100 -78 759 220 
Q 419 519 350 1059 
z
M 2653 3081 
Q 2653 3566 2395 3850 
Q 2138 4134 1775 4134 
Q 1400 4134 1122 3828 
Q 844 3522 844 3034 
Q 844 2597 1108 2323 
Q 1372 2050 1759 2050 
Q 2150 2050 2401 2323 
Q 2653 2597 2653 3081 
z
" transform="scale(0.015625)"/>
       </defs>
       <use xlink:href="#ArialMT-31"/>
       <use xlink:href="#ArialMT-39" transform="translate(55.615234 0)"/>
       <use xlink:href="#ArialMT-30" transform="translate(111.230469 0)"/>
       <use xlink:href="#ArialMT-30" transform="translate(166.845703 0)"/>
      </g>
     </g>
    </g>
    <g id="xtick_3">
     <g id="text_3">
      <!-- 1950 -->
      <g style="fill: #262626" transform="translate(164.439248 195.839135) scale(0.11 -0.11)">
       <use xlink:href="#ArialMT-31"/>
       <use xlink:href="#ArialMT-39" transform="translate(55.615234 0)"/>
       <use xlink:href="#ArialMT-35" transform="translate(111.230469 0)"/>
       <use xlink:href="#ArialMT-30" transform="translate(166.845703 0)"/>
      </g>
     </g>
    </g>
    <g id="xtick_4">
     <g id="text_4">
      <!-- 2000 -->
      <g style="fill: #262626" transform="translate(228.173372 195.839135) scale(0.11 -0.11)">
       <defs>
        <path id="ArialMT-32" d="M 3222 541 
L 3222 0 
L 194 0 
Q 188 203 259 391 
Q 375 700 629 1000 
Q 884 1300 1366 1694 
Q 2113 2306 2375 2664 
Q 2638 3022 2638 3341 
Q 2638 3675 2398 3904 
Q 2159 4134 1775 4134 
Q 1369 4134 1125 3890 
Q 881 3647 878 3216 
L 300 3275 
Q 359 3922 746 4261 
Q 1134 4600 1788 4600 
Q 2447 4600 2831 4234 
Q 3216 3869 3216 3328 
Q 3216 3053 3103 2787 
Q 2991 2522 2730 2228 
Q 2469 1934 1863 1422 
Q 1356 997 1212 845 
Q 1069 694 975 541 
L 3222 541 
z
" transform="scale(0.015625)"/>
       </defs>
       <use xlink:href="#ArialMT-32"/>
       <use xlink:href="#ArialMT-30" transform="translate(55.615234 0)"/>
       <use xlink:href="#ArialMT-30" transform="translate(111.230469 0)"/>
       <use xlink:href="#ArialMT-30" transform="translate(166.845703 0)"/>
      </g>
     </g>
    </g>
    <g id="text_5">
     <!-- Year -->
     <g style="fill: #262626" transform="translate(132.043282 210.61476) scale(0.12 -0.12)">
      <defs>
       <path id="ArialMT-59" d="M 1784 0 
L 1784 1941 
L 19 4581 
L 756 4581 
L 1659 3200 
Q 1909 2813 2125 2425 
Q 2331 2784 2625 3234 
L 3513 4581 
L 4219 4581 
L 2391 1941 
L 2391 0 
L 1784 0 
z
" transform="scale(0.015625)"/>
       <path id="ArialMT-65" d="M 2694 1069 
L 3275 997 
Q 3138 488 2766 206 
Q 2394 -75 1816 -75 
Q 1088 -75 661 373 
Q 234 822 234 1631 
Q 234 2469 665 2931 
Q 1097 3394 1784 3394 
Q 2450 3394 2872 2941 
Q 3294 2488 3294 1666 
Q 3294 1616 3291 1516 
L 816 1516 
Q 847 969 1125 678 
Q 1403 388 1819 388 
Q 2128 388 2347 550 
Q 2566 713 2694 1069 
z
M 847 1978 
L 2700 1978 
Q 2663 2397 2488 2606 
Q 2219 2931 1791 2931 
Q 1403 2931 1139 2672 
Q 875 2413 847 1978 
z
" transform="scale(0.015625)"/>
       <path id="ArialMT-61" d="M 2588 409 
Q 2275 144 1986 34 
Q 1697 -75 1366 -75 
Q 819 -75 525 192 
Q 231 459 231 875 
Q 231 1119 342 1320 
Q 453 1522 633 1644 
Q 813 1766 1038 1828 
Q 1203 1872 1538 1913 
Q 2219 1994 2541 2106 
Q 2544 2222 2544 2253 
Q 2544 2597 2384 2738 
Q 2169 2928 1744 2928 
Q 1347 2928 1158 2789 
Q 969 2650 878 2297 
L 328 2372 
Q 403 2725 575 2942 
Q 747 3159 1072 3276 
Q 1397 3394 1825 3394 
Q 2250 3394 2515 3294 
Q 2781 3194 2906 3042 
Q 3031 2891 3081 2659 
Q 3109 2516 3109 2141 
L 3109 1391 
Q 3109 606 3145 398 
Q 3181 191 3288 0 
L 2700 0 
Q 2613 175 2588 409 
z
M 2541 1666 
Q 2234 1541 1622 1453 
Q 1275 1403 1131 1340 
Q 988 1278 909 1158 
Q 831 1038 831 891 
Q 831 666 1001 516 
Q 1172 366 1500 366 
Q 1825 366 2078 508 
Q 2331 650 2450 897 
Q 2541 1088 2541 1459 
L 2541 1666 
z
" transform="scale(0.015625)"/>
       <path id="ArialMT-72" d="M 416 0 
L 416 3319 
L 922 3319 
L 922 2816 
Q 1116 3169 1280 3281 
Q 1444 3394 1641 3394 
Q 1925 3394 2219 3213 
L 2025 2691 
Q 1819 2813 1613 2813 
Q 1428 2813 1281 2702 
Q 1134 2591 1072 2394 
Q 978 2094 978 1738 
L 978 0 
L 416 0 
z
" transform="scale(0.015625)"/>
      </defs>
      <use xlink:href="#ArialMT-59"/>
      <use xlink:href="#ArialMT-65" transform="translate(57.574219 0)"/>
      <use xlink:href="#ArialMT-61" transform="translate(113.189453 0)"/>
      <use xlink:href="#ArialMT-72" transform="translate(168.804688 0)"/>
     </g>
    </g>
   </g>
   <g id="matplotlib.axis_2">
    <g id="ytick_1">
     <g id="text_6">
      <!-- 11 -->
      <g style="fill: #262626" transform="translate(18.785865 172.409129) scale(0.11 -0.11)">
       <use xlink:href="#ArialMT-31"/>
       <use xlink:href="#ArialMT-31" transform="translate(48.240234 0)"/>
      </g>
     </g>
    </g>
    <g id="ytick_2">
     <g id="text_7">
      <!-- 16 -->
      <g style="fill: #262626" transform="translate(17.974615 109.455532) scale(0.11 -0.11)">
       <defs>
        <path id="ArialMT-36" d="M 3184 3459 
L 2625 3416 
Q 2550 3747 2413 3897 
Q 2184 4138 1850 4138 
Q 1581 4138 1378 3988 
Q 1113 3794 959 3422 
Q 806 3050 800 2363 
Q 1003 2672 1297 2822 
Q 1591 2972 1913 2972 
Q 2475 2972 2870 2558 
Q 3266 2144 3266 1488 
Q 3266 1056 3080 686 
Q 2894 316 2569 119 
Q 2244 -78 1831 -78 
Q 1128 -78 684 439 
Q 241 956 241 2144 
Q 241 3472 731 4075 
Q 1159 4600 1884 4600 
Q 2425 4600 2770 4297 
Q 3116 3994 3184 3459 
z
M 888 1484 
Q 888 1194 1011 928 
Q 1134 663 1356 523 
Q 1578 384 1822 384 
Q 2178 384 2434 671 
Q 2691 959 2691 1453 
Q 2691 1928 2437 2201 
Q 2184 2475 1800 2475 
Q 1419 2475 1153 2201 
Q 888 1928 888 1484 
z
" transform="scale(0.015625)"/>
       </defs>
       <use xlink:href="#ArialMT-31"/>
       <use xlink:href="#ArialMT-36" transform="translate(55.615234 0)"/>
      </g>
     </g>
    </g>
    <g id="ytick_3">
     <g id="text_8">
      <!-- 21 -->
      <g style="fill: #262626" transform="translate(17.974615 46.501934) scale(0.11 -0.11)">
       <use xlink:href="#ArialMT-32"/>
       <use xlink:href="#ArialMT-31" transform="translate(55.615234 0)"/>
      </g>
     </g>
    </g>
    <g id="text_9">
     <!-- $^{\circ}$C -->
     <g style="fill: #262626" transform="translate(11.589615 105.300703) rotate(-90) scale(0.12 -0.12)">
      <defs>
       <path id="DejaVuSans-2218" d="M 2003 2603 
Q 1753 2603 1581 2429 
Q 1409 2256 1409 2006 
Q 1409 1759 1581 1589 
Q 1753 1419 2003 1419 
Q 2253 1419 2425 1589 
Q 2597 1759 2597 2006 
Q 2597 2253 2423 2428 
Q 2250 2603 2003 2603 
z
M 2003 3006 
Q 2203 3006 2387 2929 
Q 2572 2853 2706 2709 
Q 2850 2569 2922 2390 
Q 2994 2212 2994 2006 
Q 2994 1594 2705 1308 
Q 2416 1022 1997 1022 
Q 1575 1022 1294 1303 
Q 1013 1584 1013 2006 
Q 1013 2425 1300 2715 
Q 1588 3006 2003 3006 
z
" transform="scale(0.015625)"/>
       <path id="ArialMT-43" d="M 3763 1606 
L 4369 1453 
Q 4178 706 3683 314 
Q 3188 -78 2472 -78 
Q 1731 -78 1267 223 
Q 803 525 561 1097 
Q 319 1669 319 2325 
Q 319 3041 592 3573 
Q 866 4106 1370 4382 
Q 1875 4659 2481 4659 
Q 3169 4659 3637 4309 
Q 4106 3959 4291 3325 
L 3694 3184 
Q 3534 3684 3231 3912 
Q 2928 4141 2469 4141 
Q 1941 4141 1586 3887 
Q 1231 3634 1087 3207 
Q 944 2781 944 2328 
Q 944 1744 1114 1308 
Q 1284 872 1643 656 
Q 2003 441 2422 441 
Q 2931 441 3284 734 
Q 3638 1028 3763 1606 
z
" transform="scale(0.015625)"/>
      </defs>
      <use xlink:href="#DejaVuSans-2218" transform="translate(0.957031 38.484375) scale(0.7)"/>
      <use xlink:href="#ArialMT-43" transform="translate(47.509766 0.203125)"/>
     </g>
    </g>
   </g>
   <g id="line2d_1">
    <path d="M 49.205062 82.267661 
L 50.479744 70.217061 
L 51.754427 84.715523 
L 53.029109 79.236021 
L 54.303792 78.503135 
L 55.578474 79.394351 
L 56.853157 73.036289 
L 58.127839 78.374151 
L 59.402522 78.368435 
L 60.677204 69.119028 
L 63.226569 73.9697 
L 64.501252 74.342122 
L 65.775934 69.10923 
L 67.050617 65.120356 
L 68.325299 65.983835 
L 69.599982 73.094069 
L 70.874664 67.676141 
L 72.149347 71.803292 
L 73.424029 72.700248 
L 74.698712 60.689248 
L 75.973394 68.356219 
L 77.248077 73.71896 
L 78.522759 76.217421 
L 79.797442 68.75806 
L 81.072124 70.479231 
L 82.346806 71.808575 
L 83.621489 67.731447 
L 84.896171 65.67767 
L 86.170854 63.133076 
L 87.445536 63.309153 
L 88.720219 60.188754 
L 89.994901 63.170587 
L 91.269584 60.141709 
L 92.544266 59.971659 
L 93.818949 69.369935 
L 95.093631 63.956811 
L 96.368314 57.075944 
L 97.642996 55.14774 
L 98.917679 61.1085 
L 100.192361 61.630032 
L 101.467044 64.981022 
L 102.741726 59.186709 
L 104.016409 58.058489 
L 105.291091 65.907516 
L 106.565774 61.76867 
L 107.840456 60.509401 
L 109.115139 56.619036 
L 110.389821 61.843356 
L 111.664504 55.294759 
L 112.939186 53.935612 
L 114.213869 53.754684 
L 115.488551 60.402967 
L 116.763233 63.83066 
L 118.037916 55.473214 
L 119.312598 55.247162 
L 120.587281 61.899455 
L 121.861963 54.876924 
L 123.136646 53.2448 
L 124.411328 63.16295 
L 125.686011 61.168634 
L 126.960693 58.904582 
L 128.235376 52.429374 
L 129.510058 53.910757 
L 130.784741 58.019273 
L 132.059423 49.820517 
L 133.334106 46.729848 
L 134.608788 52.723077 
L 135.883471 57.436263 
L 137.158153 60.364015 
L 138.432836 44.266593 
L 139.707518 62.524226 
L 140.982201 65.892243 
L 142.256883 67.534069 
L 143.531566 66.12293 
L 144.806248 50.854382 
L 146.080931 50.440533 
L 147.355613 59.638309 
L 148.630296 53.228302 
L 149.904978 52.253105 
L 151.17966 49.154536 
L 152.454343 54.465309 
L 153.729025 51.318614 
L 155.003708 57.340828 
L 156.27839 57.869396 
L 157.553073 54.164546 
L 158.827755 51.849127 
L 160.102438 55.330493 
L 161.37712 55.869003 
L 162.651803 45.965334 
L 163.926485 54.949737 
L 165.201168 57.207641 
L 166.47585 48.245188 
L 167.750533 56.378984 
L 169.025215 52.526298 
L 170.299898 53.704805 
L 171.57458 44.132205 
L 172.849263 43.648089 
L 174.123945 59.148429 
L 175.398628 58.798484 
L 176.67331 58.675912 
L 177.947993 59.989118 
L 179.222675 52.874683 
L 180.497358 57.267366 
L 181.77204 50.208669 
L 183.046723 51.132282 
L 184.321405 39.283575 
L 185.596087 49.559763 
L 186.87077 67.480588 
L 188.145452 68.653931 
L 189.420135 62.599273 
L 190.694817 66.638433 
L 191.9695 61.550518 
L 193.244182 52.402958 
L 194.518865 52.095928 
L 195.793547 51.340299 
L 197.06823 59.577431 
L 198.342912 50.838292 
L 199.617595 62.091166 
L 200.892277 53.114447 
L 202.16696 60.286206 
L 203.441642 61.994266 
L 204.716325 57.095492 
L 205.991007 53.520323 
L 207.26569 41.693373 
L 209.815055 51.274786 
L 211.089737 42.895366 
L 212.36442 56.109056 
L 213.639102 57.532611 
L 214.913785 51.725594 
L 216.188467 51.897421 
L 217.463149 45.20716 
L 218.737832 44.736108 
L 220.012514 52.894183 
L 221.287197 54.949977 
L 222.561879 59.363722 
L 223.836562 58.616043 
L 225.111244 48.61019 
L 226.385927 49.730245 
L 227.660609 50.010426 
L 228.935292 53.234209 
L 230.209974 48.280706 
L 231.484657 44.263951 
L 232.759339 36.012891 
L 234.034022 37.378017 
L 235.308704 49.169785 
L 236.583387 56.090277 
L 237.858069 48.837107 
L 239.132752 39.178245 
L 239.132752 39.178245 
" clip-path="url(#pef1d24729a)" style="fill: none; stroke: #4c72b0; stroke-linecap: round"/>
   </g>
   <g id="line2d_2">
    <path d="M 49.205062 80.662938 
L 50.479744 86.298104 
L 51.754427 83.105012 
L 53.029109 81.395848 
L 54.303792 79.256914 
L 56.853157 78.221176 
L 58.127839 79.024738 
L 60.677204 69.475697 
L 61.951887 71.688021 
L 63.226569 71.076578 
L 64.501252 76.13834 
L 65.775934 74.826335 
L 67.050617 68.869849 
L 68.325299 72.334213 
L 69.599982 74.530111 
L 70.874664 72.479431 
L 72.149347 72.41327 
L 73.424029 68.128245 
L 74.698712 69.433983 
L 75.973394 71.928314 
L 77.248077 64.901748 
L 78.522759 72.670278 
L 79.797442 73.548262 
L 81.072124 71.00936 
L 82.346806 77.264879 
L 83.621489 64.002343 
L 84.896171 64.641355 
L 86.170854 62.566252 
L 87.445536 69.049168 
L 88.720219 65.707664 
L 89.994901 66.132151 
L 91.269584 73.793286 
L 92.544266 64.671398 
L 93.818949 57.135116 
L 95.093631 58.154621 
L 96.368314 59.634971 
L 97.642996 55.077833 
L 98.917679 62.69843 
L 100.192361 63.687532 
L 101.467044 69.7901 
L 102.741726 68.368947 
L 104.016409 64.880255 
L 105.291091 68.127069 
L 106.565774 67.364235 
L 107.840456 61.653999 
L 109.115139 62.868528 
L 110.389821 61.703541 
L 111.664504 63.079282 
L 112.939186 61.21054 
L 114.213869 50.419688 
L 115.488551 64.240571 
L 116.763233 71.507669 
L 118.037916 67.361738 
L 119.312598 76.407355 
L 120.587281 72.782547 
L 121.861963 64.933424 
L 123.136646 66.171128 
L 124.411328 61.165344 
L 125.686011 57.540416 
L 126.960693 64.856937 
L 128.235376 57.550598 
L 129.510058 65.020646 
L 130.784741 60.735717 
L 132.059423 57.408022 
L 133.334106 48.758482 
L 134.608788 56.389982 
L 135.883471 61.518266 
L 137.158153 58.327552 
L 138.432836 54.454958 
L 139.707518 61.189719 
L 140.982201 59.543234 
L 142.256883 65.006958 
L 143.531566 60.699046 
L 144.806248 55.984635 
L 146.080931 59.193433 
L 147.355613 61.691462 
L 148.630296 54.813213 
L 149.904978 51.33223 
L 151.17966 57.538663 
L 152.454343 52.986592 
L 153.729025 49.388945 
L 155.003708 60.866142 
L 156.27839 70.769235 
L 157.553073 59.693279 
L 158.827755 62.199353 
L 160.102438 61.248075 
L 161.37712 64.089973 
L 162.651803 60.263993 
L 163.926485 55.232345 
L 165.201168 66.563099 
L 166.47585 64.072418 
L 167.750533 62.302064 
L 169.025215 62.074908 
L 170.299898 55.019765 
L 171.57458 64.596927 
L 172.849263 56.684909 
L 174.123945 55.565479 
L 175.398628 52.36672 
L 176.67331 57.387297 
L 177.947993 46.466237 
L 179.222675 44.032111 
L 180.497358 50.735772 
L 181.77204 50.404319 
L 183.046723 45.220848 
L 184.321405 48.829734 
L 185.596087 50.489331 
L 186.87077 50.636951 
L 188.145452 59.816475 
L 189.420135 55.873566 
L 190.694817 58.055319 
L 191.9695 51.991367 
L 193.244182 57.7797 
L 194.518865 53.911357 
L 195.793547 60.407097 
L 197.06823 52.216626 
L 198.342912 56.084081 
L 199.617595 50.629458 
L 200.892277 52.726559 
L 202.16696 56.280859 
L 203.441642 52.901363 
L 204.716325 56.543293 
L 205.991007 54.682452 
L 207.26569 46.009666 
L 208.540372 50.949217 
L 209.815055 42.699165 
L 211.089737 44.852172 
L 212.36442 50.001757 
L 213.639102 59.437232 
L 214.913785 46.669379 
L 216.188467 46.793031 
L 217.463149 47.209834 
L 218.737832 48.356569 
L 220.012514 50.456767 
L 221.287197 41.245831 
L 222.561879 49.459213 
L 223.836562 46.96589 
L 225.111244 46.263863 
L 226.385927 51.398703 
L 227.660609 48.545686 
L 228.935292 35.882634 
L 230.209974 40.902106 
L 231.484657 38.337988 
L 232.759339 43.515815 
L 234.034022 47.443523 
L 235.308704 45.003802 
L 236.583387 39.304179 
L 237.858069 38.861081 
L 239.132752 59.42143 
L 239.132752 59.42143 
" clip-path="url(#pef1d24729a)" style="fill: none; stroke: #dd8452; stroke-linecap: round"/>
   </g>
   <g id="line2d_3">
    <path d="M 49.205062 98.191551 
L 50.479744 96.261763 
L 51.754427 95.536249 
L 54.303792 99.640922 
L 55.578474 106.153989 
L 56.853157 105.989619 
L 58.127839 101.22785 
L 59.402522 86.530376 
L 60.677204 82.654469 
L 61.951887 80.424398 
L 63.226569 82.4922 
L 64.501252 79.313373 
L 65.775934 87.085312 
L 68.325299 93.413933 
L 69.599982 94.388961 
L 70.874664 88.701491 
L 72.149347 88.660281 
L 73.424029 89.429334 
L 74.698712 94.429066 
L 75.973394 96.688339 
L 77.248077 95.998896 
L 78.522759 96.456572 
L 79.797442 93.600408 
L 81.072124 85.249662 
L 82.346806 81.485064 
L 83.621489 81.967499 
L 84.896171 85.707146 
L 86.170854 84.754115 
L 88.720219 90.863623 
L 89.994901 80.961059 
L 91.269584 81.784097 
L 92.544266 89.74585 
L 93.818949 91.264048 
L 95.093631 84.530921 
L 96.368314 85.4328 
L 97.642996 85.349876 
L 98.917679 78.372061 
L 100.192361 80.552157 
L 101.467044 78.497179 
L 102.741726 78.749576 
L 104.016409 81.348251 
L 105.291091 81.02148 
L 106.565774 82.130152 
L 107.840456 88.477023 
L 109.115139 79.353262 
L 110.389821 86.60965 
L 111.664504 88.22052 
L 112.939186 80.925733 
L 114.213869 83.661125 
L 115.488551 74.545769 
L 116.763233 72.093128 
L 118.037916 75.183316 
L 119.312598 78.897579 
L 120.587281 76.701105 
L 121.861963 73.097815 
L 123.136646 77.191898 
L 124.411328 74.683158 
L 125.686011 77.524432 
L 126.960693 74.392866 
L 128.235376 77.394007 
L 129.510058 75.914762 
L 130.784741 68.972729 
L 132.059423 76.780619 
L 133.334106 75.575984 
L 134.608788 75.10935 
L 135.883471 72.949955 
L 137.158153 74.029497 
L 138.432836 69.173325 
L 139.707518 63.191504 
L 140.982201 66.941453 
L 142.256883 66.165484 
L 143.531566 67.931443 
L 144.806248 77.158133 
L 146.080931 73.052571 
L 147.355613 70.563091 
L 148.630296 67.080427 
L 149.904978 67.680968 
L 151.17966 68.779457 
L 152.454343 65.927497 
L 153.729025 70.143983 
L 155.003708 64.922329 
L 156.27839 72.119856 
L 157.553073 68.638658 
L 158.827755 61.038161 
L 160.102438 59.683985 
L 161.37712 62.390031 
L 162.651803 58.604059 
L 163.926485 66.262144 
L 165.201168 62.401558 
L 166.47585 69.823432 
L 167.750533 66.34855 
L 169.025215 58.163866 
L 170.299898 64.306443 
L 171.57458 60.33743 
L 172.849263 49.21707 
L 174.123945 59.968585 
L 175.398628 58.961761 
L 176.67331 56.100075 
L 177.947993 65.119131 
L 179.222675 65.50056 
L 180.497358 55.412144 
L 181.77204 59.04418 
L 183.046723 64.530959 
L 184.321405 59.312066 
L 185.596087 63.212973 
L 186.87077 61.536878 
L 188.145452 61.560389 
L 189.420135 54.576978 
L 190.694817 55.436327 
L 191.9695 45.303123 
L 193.244182 48.545254 
L 194.518865 52.671565 
L 195.793547 52.653697 
L 197.06823 42.444559 
L 198.342912 48.039908 
L 199.617595 49.45184 
L 200.892277 48.862635 
L 202.16696 51.938702 
L 203.441642 48.07132 
L 204.716325 42.314638 
L 205.991007 45.927823 
L 207.26569 54.656467 
L 208.540372 44.678016 
L 209.815055 50.998399 
L 211.089737 41.600796 
L 213.639102 49.304773 
L 214.913785 41.032891 
L 216.188467 47.240309 
L 217.463149 51.148324 
L 218.737832 50.555444 
L 220.012514 40.531557 
L 221.287197 52.022874 
L 222.561879 42.2083 
L 223.836562 48.415766 
L 225.111244 39.72456 
L 226.385927 43.840689 
L 227.660609 40.920838 
L 228.935292 42.028021 
L 230.209974 38.187487 
L 231.484657 43.390241 
L 232.759339 35.256734 
L 234.034022 39.984185 
L 235.308704 45.506289 
L 236.583387 33.006586 
L 237.858069 41.177533 
L 239.132752 42.741167 
L 239.132752 42.741167 
" clip-path="url(#pef1d24729a)" style="fill: none; stroke: #55a868; stroke-linecap: round"/>
   </g>
   <g id="line2d_4">
    <path d="M 49.205062 116.061176 
L 50.479744 105.89087 
L 51.754427 103.255716 
L 53.029109 113.801147 
L 54.303792 105.408891 
L 55.578474 102.885238 
L 56.853157 100.725891 
L 58.127839 101.978796 
L 59.402522 109.933056 
L 60.677204 109.731872 
L 61.951887 106.940188 
L 63.226569 110.129666 
L 64.501252 116.350028 
L 65.775934 113.533297 
L 67.050617 112.329995 
L 68.325299 103.816511 
L 69.599982 103.930486 
L 70.874664 102.647178 
L 72.149347 105.785072 
L 73.424029 105.24619 
L 74.698712 97.696677 
L 75.973394 98.167801 
L 77.248077 106.82021 
L 78.522759 106.183311 
L 79.797442 95.127612 
L 81.072124 95.559351 
L 82.346806 88.531753 
L 83.621489 100.322873 
L 84.896171 98.796342 
L 86.170854 101.537786 
L 87.445536 104.761161 
L 88.720219 97.48878 
L 89.994901 97.076972 
L 91.269584 102.185324 
L 92.544266 96.082444 
L 93.818949 98.872998 
L 95.093631 104.230144 
L 96.368314 102.339788 
L 97.642996 102.955241 
L 98.917679 108.711023 
L 100.192361 107.834311 
L 101.467044 108.876713 
L 102.741726 103.36945 
L 104.016409 102.396463 
L 105.291091 112.432947 
L 106.565774 106.201839 
L 107.840456 101.353256 
L 109.115139 95.04416 
L 110.389821 92.150461 
L 111.664504 96.741292 
L 112.939186 93.539771 
L 114.213869 91.735892 
L 115.488551 95.512282 
L 116.763233 92.83527 
L 118.037916 86.645672 
L 119.312598 97.421034 
L 120.587281 93.682371 
L 121.861963 84.675346 
L 123.136646 93.044536 
L 124.411328 86.920474 
L 125.686011 95.865061 
L 126.960693 92.124717 
L 128.235376 93.11598 
L 129.510058 87.76563 
L 130.784741 81.033896 
L 132.059423 84.693381 
L 133.334106 89.328111 
L 134.608788 75.446567 
L 135.883471 79.374395 
L 137.158153 86.518393 
L 138.432836 85.835217 
L 139.707518 82.391002 
L 140.982201 82.370109 
L 142.256883 90.537933 
L 143.531566 87.718153 
L 144.806248 84.226172 
L 146.080931 80.157352 
L 147.355613 80.433596 
L 148.630296 74.501101 
L 149.904978 83.425203 
L 151.17966 68.882073 
L 152.454343 67.918019 
L 153.729025 69.844469 
L 155.003708 78.335054 
L 156.27839 80.214172 
L 157.553073 96.236355 
L 158.827755 91.749965 
L 160.102438 81.589192 
L 161.37712 91.504173 
L 162.651803 92.699298 
L 163.926485 86.305237 
L 165.201168 86.875062 
L 166.47585 86.63597 
L 167.750533 85.623694 
L 169.025215 86.587772 
L 170.299898 87.193596 
L 171.57458 75.654296 
L 172.849263 77.64746 
L 174.123945 78.871091 
L 175.398628 71.617873 
L 176.67331 84.459524 
L 177.947993 74.220919 
L 179.222675 67.087368 
L 180.497358 79.348867 
L 181.77204 96.398311 
L 183.046723 96.087991 
L 184.321405 97.420145 
L 185.596087 92.117009 
L 186.87077 91.107327 
L 188.145452 90.828874 
L 189.420135 104.701028 
L 190.694817 104.069725 
L 191.9695 99.807922 
L 193.244182 92.982097 
L 194.518865 74.08586 
L 195.793547 81.294458 
L 197.06823 78.210345 
L 198.342912 69.471854 
L 199.617595 68.369811 
L 200.892277 66.915325 
L 202.16696 59.033061 
L 203.441642 64.925163 
L 204.716325 68.911995 
L 205.991007 68.691563 
L 207.26569 75.57375 
L 208.540372 74.649369 
L 209.815055 82.272272 
L 211.089737 78.51423 
L 212.36442 74.181343 
L 213.639102 75.82802 
L 214.913785 76.795916 
L 216.188467 76.140261 
L 217.463149 70.759893 
L 218.737832 64.276881 
L 220.012514 64.87454 
L 221.287197 70.68355 
L 222.561879 71.634924 
L 223.836562 76.418522 
L 225.111244 69.721633 
L 226.385927 73.240463 
L 227.660609 72.046443 
L 228.935292 63.736018 
L 230.209974 64.646014 
L 231.484657 58.795698 
L 232.759339 75.366958 
L 234.034022 60.185032 
L 235.308704 75.003276 
L 236.583387 64.109353 
L 237.858069 75.710803 
L 239.132752 71.322922 
L 239.132752 71.322922 
" clip-path="url(#pef1d24729a)" style="fill: none; stroke: #c44e52; stroke-linecap: round"/>
   </g>
   <g id="line2d_5">
    <path d="M 49.205062 137.575181 
L 50.479744 157.820491 
L 51.754427 150.830753 
L 53.029109 156.832206 
L 54.303792 149.760301 
L 55.578474 153.520049 
L 56.853157 137.53743 
L 58.127839 142.052109 
L 59.402522 134.959755 
L 60.677204 145.823792 
L 61.951887 145.056576 
L 63.226569 141.454991 
L 64.501252 148.805937 
L 65.775934 153.129242 
L 67.050617 162.136604 
L 68.325299 165.108783 
L 69.599982 166.80463 
L 70.874664 169.376313 
L 72.149347 171.159647 
L 73.424029 168.398895 
L 74.698712 166.282643 
L 75.973394 159.287945 
L 77.248077 160.148267 
L 78.522759 161.99889 
L 79.797442 150.392025 
L 81.072124 135.207001 
L 82.346806 145.753669 
L 83.621489 141.703821 
L 84.896171 137.192468 
L 86.170854 140.271981 
L 87.445536 138.197155 
L 88.720219 123.733922 
L 89.994901 131.282955 
L 91.269584 130.107547 
L 92.544266 126.523792 
L 93.818949 126.111385 
L 95.093631 138.39822 
L 96.368314 136.433525 
L 97.642996 148.145684 
L 98.917679 150.470013 
L 100.192361 140.498982 
L 101.467044 148.688757 
L 102.741726 158.181099 
L 104.016409 141.600377 
L 105.291091 157.955011 
L 106.565774 158.410417 
L 107.840456 152.715153 
L 109.115139 138.572484 
L 110.389821 147.003296 
L 111.664504 152.139853 
L 112.939186 154.571373 
L 114.213869 142.424388 
L 115.488551 154.752205 
L 116.763233 122.697331 
L 118.037916 126.148944 
L 119.312598 125.940639 
L 120.587281 134.608406 
L 121.861963 133.836615 
L 123.136646 134.323997 
L 124.411328 137.517786 
L 125.686011 142.810716 
L 126.960693 136.207317 
L 128.235376 125.009209 
L 129.510058 135.95133 
L 130.784741 145.428303 
L 132.059423 143.140704 
L 133.334106 152.558793 
L 134.608788 133.988533 
L 135.883471 127.371218 
L 137.158153 130.358562 
L 138.432836 132.412508 
L 139.707518 131.694583 
L 140.982201 121.523111 
L 142.256883 126.274314 
L 143.531566 127.214617 
L 144.806248 138.159692 
L 146.080931 126.54968 
L 147.355613 116.768343 
L 148.630296 118.397885 
L 149.904978 121.428697 
L 151.17966 122.151329 
L 152.454343 123.849974 
L 153.729025 117.024846 
L 155.003708 111.002211 
L 156.27839 114.468617 
L 157.553073 109.302882 
L 158.827755 123.335947 
L 160.102438 123.916399 
L 161.37712 128.410798 
L 162.651803 127.611583 
L 163.926485 120.468846 
L 165.201168 127.513902 
L 166.47585 125.516271 
L 167.750533 124.321711 
L 169.025215 114.867984 
L 170.299898 124.920174 
L 171.57458 107.735033 
L 172.849263 121.561859 
L 174.123945 112.276141 
L 175.398628 112.996384 
L 176.67331 103.921505 
L 177.947993 109.992289 
L 179.222675 102.78572 
L 180.497358 111.071062 
L 181.77204 120.369052 
L 183.046723 119.668009 
L 184.321405 122.968928 
L 185.596087 115.818194 
L 186.87077 105.563415 
L 188.145452 117.954787 
L 189.420135 103.837236 
L 190.694817 109.751096 
L 191.9695 110.679607 
L 193.244182 90.538606 
L 195.793547 121.148575 
L 197.06823 102.835119 
L 198.342912 101.829375 
L 199.617595 96.914127 
L 200.892277 108.297678 
L 202.16696 93.347171 
L 203.441642 96.089264 
L 204.716325 106.182122 
L 205.991007 103.64711 
L 207.26569 88.238388 
L 208.540372 91.155933 
L 209.815055 95.712254 
L 211.089737 91.969605 
L 212.36442 100.981169 
L 213.639102 103.382226 
L 214.913785 107.768114 
L 216.188467 107.185609 
L 217.463149 101.82462 
L 218.737832 106.424529 
L 220.012514 97.910385 
L 221.287197 105.499403 
L 222.561879 108.679755 
L 223.836562 117.29972 
L 225.111244 97.102572 
L 226.385927 95.015294 
L 227.660609 91.609934 
L 228.935292 78.340482 
L 230.209974 86.781356 
L 231.484657 76.111011 
L 232.759339 86.574468 
L 234.034022 78.5436 
L 235.308704 80.513061 
L 236.583387 83.156933 
L 237.858069 85.360347 
L 239.132752 100.63108 
L 239.132752 100.63108 
" clip-path="url(#pef1d24729a)" style="fill: none; stroke: #8172b3; stroke-linecap: round"/>
   </g>
   <g id="line2d_6">
    <path d="M 49.205062 126.542776 
L 50.479744 112.045706 
L 51.754427 117.217085 
L 53.029109 121.026627 
L 54.303792 109.012289 
L 55.578474 102.74977 
L 56.853157 108.543339 
L 58.127839 106.524407 
L 59.402522 124.892941 
L 60.677204 114.434996 
L 61.951887 113.953485 
L 63.226569 103.829648 
L 64.501252 115.244202 
L 65.775934 113.857522 
L 67.050617 124.35544 
L 68.325299 128.624207 
L 69.599982 125.113182 
L 70.874664 127.972863 
L 73.424029 112.57802 
L 74.698712 126.651539 
L 75.973394 114.723199 
L 77.248077 123.712201 
L 78.522759 121.561415 
L 79.797442 97.475163 
L 81.072124 107.457721 
L 82.346806 109.697626 
L 83.621489 99.386004 
L 84.896171 97.674703 
L 86.170854 92.05529 
L 87.445536 95.96381 
L 88.720219 114.565337 
L 89.994901 99.955685 
L 91.269584 119.567218 
L 92.544266 111.310094 
L 93.818949 109.194598 
L 95.093631 104.80362 
L 96.368314 97.058913 
L 97.642996 92.227405 
L 98.917679 110.431858 
L 100.192361 108.796047 
L 101.467044 106.439922 
L 102.741726 106.984748 
L 104.016409 115.768435 
L 105.291091 109.805465 
L 106.565774 102.594274 
L 109.115139 85.692905 
L 110.389821 95.635262 
L 111.664504 112.107797 
L 112.939186 100.892098 
L 114.213869 97.680779 
L 115.488551 102.42127 
L 116.763233 101.361085 
L 118.037916 92.216622 
L 119.312598 93.210911 
L 120.587281 84.697584 
L 121.861963 90.172859 
L 123.136646 91.005311 
L 124.411328 101.70517 
L 125.686011 87.211127 
L 126.960693 79.394111 
L 128.235376 88.954031 
L 129.510058 84.807068 
L 130.784741 85.374684 
L 132.059423 85.711997 
L 133.334106 96.269159 
L 135.883471 74.62826 
L 137.158153 78.46315 
L 138.432836 73.465675 
L 139.707518 78.073869 
L 140.982201 67.485703 
L 142.256883 61.694272 
L 143.531566 75.819062 
L 144.806248 74.724175 
L 146.080931 76.976916 
L 147.355613 90.129728 
L 148.630296 81.756048 
L 149.904978 78.674241 
L 151.17966 88.176381 
L 152.454343 78.896787 
L 153.729025 68.220871 
L 155.003708 66.5332 
L 156.27839 67.42677 
L 157.553073 68.686231 
L 158.827755 74.074837 
L 160.102438 59.593641 
L 161.37712 68.94797 
L 162.651803 87.461146 
L 163.926485 72.755483 
L 165.201168 84.631759 
L 166.47585 80.50773 
L 167.750533 85.853252 
L 169.025215 67.615503 
L 170.299898 73.555779 
L 171.57458 65.004772 
L 172.849263 76.632183 
L 174.123945 70.672767 
L 175.398628 82.506417 
L 176.67331 74.044266 
L 179.222675 61.859326 
L 180.497358 67.131099 
L 181.77204 68.395195 
L 183.046723 58.636215 
L 184.321405 60.888572 
L 185.596087 62.6053 
L 186.87077 78.903319 
L 188.145452 81.812483 
L 189.420135 73.660436 
L 190.694817 70.949419 
L 191.9695 80.992566 
L 193.244182 82.00746 
L 194.518865 75.118236 
L 195.793547 73.49603 
L 197.06823 67.304871 
L 198.342912 51.0447 
L 199.617595 60.196775 
L 200.892277 50.144261 
L 202.16696 41.393571 
L 203.441642 47.635714 
L 205.991007 53.442755 
L 207.26569 38.981972 
L 208.540372 42.878844 
L 209.815055 44.308763 
L 211.089737 49.894386 
L 212.36442 44.437987 
L 213.639102 53.094563 
L 214.913785 40.020256 
L 216.188467 55.252949 
L 217.463149 43.412791 
L 218.737832 43.755964 
L 220.012514 49.160539 
L 221.287197 46.14242 
L 222.561879 34.784265 
L 223.836562 25.041759 
L 225.111244 41.267709 
L 226.385927 44.844247 
L 227.660609 38.677583 
L 228.935292 44.897344 
L 230.209974 35.799086 
L 231.484657 32.126032 
L 232.759339 31.212962 
L 234.034022 30.869933 
L 235.308704 31.193126 
L 236.583387 28.239606 
L 237.858069 28.810921 
L 239.132752 33.118136 
L 239.132752 33.118136 
" clip-path="url(#pef1d24729a)" style="fill: none; stroke: #937860; stroke-linecap: round"/>
   </g>
   <g id="line2d_7">
    <path d="M 49.205062 108.668648 
L 50.479744 108.615359 
L 51.754427 111.395191 
L 53.029109 111.538896 
L 54.303792 101.417736 
L 55.578474 106.180778 
L 56.853157 99.481752 
L 58.127839 103.953949 
L 59.402522 111.30056 
L 60.677204 111.568915 
L 61.951887 106.88182 
L 63.226569 114.288289 
L 64.501252 110.463918 
L 65.775934 102.022623 
L 67.050617 102.749842 
L 68.325299 109.896314 
L 69.599982 114.171096 
L 72.149347 109.865659 
L 73.424029 109.951932 
L 74.698712 114.036565 
L 75.973394 108.519012 
L 77.248077 107.689501 
L 78.522759 111.579121 
L 79.797442 122.078252 
L 81.072124 109.358116 
L 82.346806 100.73456 
L 83.621489 102.316277 
L 84.896171 102.867851 
L 86.170854 104.759888 
L 87.445536 101.364279 
L 88.720219 103.842856 
L 89.994901 94.684801 
L 91.269584 95.830095 
L 92.544266 98.254783 
L 93.818949 95.106406 
L 96.368314 109.034239 
L 97.642996 102.485846 
L 98.917679 103.780057 
L 100.192361 100.063993 
L 101.467044 95.421578 
L 102.741726 98.225917 
L 104.016409 94.924157 
L 105.291091 96.993545 
L 106.565774 95.42871 
L 107.840456 105.690802 
L 110.389821 100.636532 
L 111.664504 103.45672 
L 112.939186 97.230692 
L 114.213869 103.830488 
L 115.488551 100.126455 
L 116.763233 102.85313 
L 118.037916 106.190239 
L 119.312598 105.508721 
L 120.587281 96.537694 
L 121.861963 110.211005 
L 123.136646 103.430952 
L 124.411328 97.367769 
L 125.686011 86.886421 
L 126.960693 82.132649 
L 128.235376 88.047613 
L 129.510058 99.115188 
L 130.784741 96.067795 
L 132.059423 103.657725 
L 133.334106 104.367461 
L 134.608788 100.765492 
L 135.883471 110.297542 
L 137.158153 100.310529 
L 138.432836 108.991625 
L 139.707518 109.629892 
L 140.982201 104.087832 
L 142.256883 104.280311 
L 143.531566 108.34542 
L 144.806248 106.541337 
L 146.080931 116.286004 
L 147.355613 102.54706 
L 148.630296 121.382708 
L 149.904978 110.601967 
L 151.17966 109.940273 
L 152.454343 108.38711 
L 153.729025 96.304125 
L 155.003708 95.295908 
L 156.27839 88.746543 
L 157.553073 90.633032 
L 158.827755 89.521599 
L 160.102438 85.686373 
L 161.37712 92.846461 
L 162.651803 89.798419 
L 163.926485 92.500526 
L 165.201168 97.722445 
L 167.750533 91.831424 
L 169.025215 101.986889 
L 170.299898 95.278257 
L 171.57458 91.252136 
L 172.849263 87.667073 
L 174.123945 95.959487 
L 175.398628 91.68731 
L 176.67331 84.919265 
L 177.947993 93.434514 
L 179.222675 99.604324 
L 180.497358 90.739755 
L 181.77204 90.672129 
L 183.046723 87.214176 
L 184.321405 92.839953 
L 185.596087 97.033073 
L 186.87077 98.552807 
L 188.145452 91.742232 
L 189.420135 91.711685 
L 190.694817 100.305991 
L 191.9695 88.835662 
L 193.244182 82.124004 
L 194.518865 84.40052 
L 195.793547 91.615169 
L 197.06823 89.091084 
L 198.342912 93.102604 
L 199.617595 80.225459 
L 200.892277 91.24205 
L 202.16696 92.345438 
L 203.441642 79.8539 
L 204.716325 96.507483 
L 205.991007 99.932511 
L 207.26569 97.636231 
L 208.540372 84.207848 
L 209.815055 86.052768 
L 211.089737 74.372621 
L 212.36442 79.457751 
L 213.639102 85.772322 
L 214.913785 78.730916 
L 216.188467 82.603774 
L 217.463149 79.570405 
L 218.737832 82.23392 
L 220.012514 76.297751 
L 221.287197 102.953801 
L 222.561879 77.271603 
L 223.836562 75.315998 
L 225.111244 80.511572 
L 226.385927 86.708447 
L 227.660609 73.302878 
L 228.935292 83.532525 
L 230.209974 90.421389 
L 231.484657 77.38637 
L 232.759339 79.823161 
L 234.034022 91.82835 
L 235.308704 84.017794 
L 236.583387 83.083831 
L 237.858069 79.833344 
L 239.132752 82.58545 
L 239.132752 82.58545 
" clip-path="url(#pef1d24729a)" style="fill: none; stroke: #da8bc3; stroke-linecap: round"/>
   </g>
   <g id="patch_3">
    <path d="M 39.708678 178.465541 
L 39.708678 17.735865 
" style="fill: none; stroke: #ffffff; stroke-width: 1.25; stroke-linejoin: miter; stroke-linecap: square"/>
   </g>
   <g id="patch_4">
    <path d="M 248.629136 178.465541 
L 248.629136 17.735865 
" style="fill: none; stroke: #ffffff; stroke-width: 1.25; stroke-linejoin: miter; stroke-linecap: square"/>
   </g>
   <g id="patch_5">
    <path d="M 39.708677 178.465541 
L 248.629136 178.465541 
" style="fill: none; stroke: #ffffff; stroke-width: 1.25; stroke-linejoin: miter; stroke-linecap: square"/>
   </g>
   <g id="patch_6">
    <path d="M 39.708677 17.735865 
L 248.629136 17.735865 
" style="fill: none; stroke: #ffffff; stroke-width: 1.25; stroke-linejoin: miter; stroke-linecap: square"/>
   </g>
   <g id="text_10">
    <!-- Raw index -->
    <g style="fill: #262626" transform="translate(116.156407 11.735865) scale(0.12 -0.12)">
     <defs>
      <path id="ArialMT-52" d="M 503 0 
L 503 4581 
L 2534 4581 
Q 3147 4581 3465 4457 
Q 3784 4334 3975 4021 
Q 4166 3709 4166 3331 
Q 4166 2844 3850 2509 
Q 3534 2175 2875 2084 
Q 3116 1969 3241 1856 
Q 3506 1613 3744 1247 
L 4541 0 
L 3778 0 
L 3172 953 
Q 2906 1366 2734 1584 
Q 2563 1803 2427 1890 
Q 2291 1978 2150 2013 
Q 2047 2034 1813 2034 
L 1109 2034 
L 1109 0 
L 503 0 
z
M 1109 2559 
L 2413 2559 
Q 2828 2559 3062 2645 
Q 3297 2731 3419 2920 
Q 3541 3109 3541 3331 
Q 3541 3656 3305 3865 
Q 3069 4075 2559 4075 
L 1109 4075 
L 1109 2559 
z
" transform="scale(0.015625)"/>
      <path id="ArialMT-77" d="M 1034 0 
L 19 3319 
L 600 3319 
L 1128 1403 
L 1325 691 
Q 1338 744 1497 1375 
L 2025 3319 
L 2603 3319 
L 3100 1394 
L 3266 759 
L 3456 1400 
L 4025 3319 
L 4572 3319 
L 3534 0 
L 2950 0 
L 2422 1988 
L 2294 2553 
L 1622 0 
L 1034 0 
z
" transform="scale(0.015625)"/>
      <path id="ArialMT-20" transform="scale(0.015625)"/>
      <path id="ArialMT-69" d="M 425 3934 
L 425 4581 
L 988 4581 
L 988 3934 
L 425 3934 
z
M 425 0 
L 425 3319 
L 988 3319 
L 988 0 
L 425 0 
z
" transform="scale(0.015625)"/>
      <path id="ArialMT-6e" d="M 422 0 
L 422 3319 
L 928 3319 
L 928 2847 
Q 1294 3394 1984 3394 
Q 2284 3394 2536 3286 
Q 2788 3178 2913 3003 
Q 3038 2828 3088 2588 
Q 3119 2431 3119 2041 
L 3119 0 
L 2556 0 
L 2556 2019 
Q 2556 2363 2490 2533 
Q 2425 2703 2258 2804 
Q 2091 2906 1866 2906 
Q 1506 2906 1245 2678 
Q 984 2450 984 1813 
L 984 0 
L 422 0 
z
" transform="scale(0.015625)"/>
      <path id="ArialMT-64" d="M 2575 0 
L 2575 419 
Q 2259 -75 1647 -75 
Q 1250 -75 917 144 
Q 584 363 401 755 
Q 219 1147 219 1656 
Q 219 2153 384 2558 
Q 550 2963 881 3178 
Q 1213 3394 1622 3394 
Q 1922 3394 2156 3267 
Q 2391 3141 2538 2938 
L 2538 4581 
L 3097 4581 
L 3097 0 
L 2575 0 
z
M 797 1656 
Q 797 1019 1065 703 
Q 1334 388 1700 388 
Q 2069 388 2326 689 
Q 2584 991 2584 1609 
Q 2584 2291 2321 2609 
Q 2059 2928 1675 2928 
Q 1300 2928 1048 2622 
Q 797 2316 797 1656 
z
" transform="scale(0.015625)"/>
      <path id="ArialMT-78" d="M 47 0 
L 1259 1725 
L 138 3319 
L 841 3319 
L 1350 2541 
Q 1494 2319 1581 2169 
Q 1719 2375 1834 2534 
L 2394 3319 
L 3066 3319 
L 1919 1756 
L 3153 0 
L 2463 0 
L 1781 1031 
L 1600 1309 
L 728 0 
L 47 0 
z
" transform="scale(0.015625)"/>
     </defs>
     <use xlink:href="#ArialMT-52"/>
     <use xlink:href="#ArialMT-61" transform="translate(72.216797 0)"/>
     <use xlink:href="#ArialMT-77" transform="translate(127.832031 0)"/>
     <use xlink:href="#ArialMT-20" transform="translate(200.048828 0)"/>
     <use xlink:href="#ArialMT-69" transform="translate(227.832031 0)"/>
     <use xlink:href="#ArialMT-6e" transform="translate(250.048828 0)"/>
     <use xlink:href="#ArialMT-64" transform="translate(305.664062 0)"/>
     <use xlink:href="#ArialMT-65" transform="translate(361.279297 0)"/>
     <use xlink:href="#ArialMT-78" transform="translate(416.894531 0)"/>
    </g>
   </g>
  </g>
  <g id="axes_2">
   <g id="patch_7">
    <path d="M 261.487895 178.465541 
L 470.408354 178.465541 
L 470.408354 17.735865 
L 261.487895 17.735865 
z
" style="fill: #ffffff"/>
   </g>
   <g id="matplotlib.axis_3">
    <g id="xtick_5">
     <g id="text_11">
      <!-- 1850 -->
      <g style="fill: #262626" transform="translate(258.750217 195.839135) scale(0.11 -0.11)">
       <use xlink:href="#ArialMT-31"/>
       <use xlink:href="#ArialMT-38" transform="translate(55.615234 0)"/>
       <use xlink:href="#ArialMT-35" transform="translate(111.230469 0)"/>
       <use xlink:href="#ArialMT-30" transform="translate(166.845703 0)"/>
      </g>
     </g>
    </g>
    <g id="xtick_6">
     <g id="text_12">
      <!-- 1900 -->
      <g style="fill: #262626" transform="translate(322.484341 195.839135) scale(0.11 -0.11)">
       <use xlink:href="#ArialMT-31"/>
       <use xlink:href="#ArialMT-39" transform="translate(55.615234 0)"/>
       <use xlink:href="#ArialMT-30" transform="translate(111.230469 0)"/>
       <use xlink:href="#ArialMT-30" transform="translate(166.845703 0)"/>
      </g>
     </g>
    </g>
    <g id="xtick_7">
     <g id="text_13">
      <!-- 1950 -->
      <g style="fill: #262626" transform="translate(386.218465 195.839135) scale(0.11 -0.11)">
       <use xlink:href="#ArialMT-31"/>
       <use xlink:href="#ArialMT-39" transform="translate(55.615234 0)"/>
       <use xlink:href="#ArialMT-35" transform="translate(111.230469 0)"/>
       <use xlink:href="#ArialMT-30" transform="translate(166.845703 0)"/>
      </g>
     </g>
    </g>
    <g id="xtick_8">
     <g id="text_14">
      <!-- 2000 -->
      <g style="fill: #262626" transform="translate(449.952589 195.839135) scale(0.11 -0.11)">
       <use xlink:href="#ArialMT-32"/>
       <use xlink:href="#ArialMT-30" transform="translate(55.615234 0)"/>
       <use xlink:href="#ArialMT-30" transform="translate(111.230469 0)"/>
       <use xlink:href="#ArialMT-30" transform="translate(166.845703 0)"/>
      </g>
     </g>
    </g>
    <g id="text_15">
     <!-- Year -->
     <g style="fill: #262626" transform="translate(353.822499 210.61476) scale(0.12 -0.12)">
      <use xlink:href="#ArialMT-59"/>
      <use xlink:href="#ArialMT-65" transform="translate(57.574219 0)"/>
      <use xlink:href="#ArialMT-61" transform="translate(113.189453 0)"/>
      <use xlink:href="#ArialMT-72" transform="translate(168.804688 0)"/>
     </g>
    </g>
   </g>
   <g id="matplotlib.axis_4">
    <g id="ytick_4">
     <g id="line2d_8">
      <defs>
       <path id="mcf65341cd5" d="M 0 0 
L 6 0 
" style="stroke: #262626; stroke-width: 1.25"/>
      </defs>
      <g>
       <use xlink:href="#mcf65341cd5" x="470.408354" y="145.123823" style="fill: #262626; stroke: #262626; stroke-width: 1.25"/>
      </g>
     </g>
     <g id="text_16">
      <!-- 0 -->
      <g style="fill: #262626" transform="translate(479.908354 149.06062) scale(0.11 -0.11)">
       <use xlink:href="#ArialMT-30"/>
      </g>
     </g>
    </g>
    <g id="ytick_5">
     <g id="line2d_9">
      <g>
       <use xlink:href="#mcf65341cd5" x="470.408354" y="94.116704" style="fill: #262626; stroke: #262626; stroke-width: 1.25"/>
      </g>
     </g>
     <g id="text_17">
      <!-- 3 -->
      <g style="fill: #262626" transform="translate(479.908354 98.053501) scale(0.11 -0.11)">
       <defs>
        <path id="ArialMT-33" d="M 269 1209 
L 831 1284 
Q 928 806 1161 595 
Q 1394 384 1728 384 
Q 2125 384 2398 659 
Q 2672 934 2672 1341 
Q 2672 1728 2419 1979 
Q 2166 2231 1775 2231 
Q 1616 2231 1378 2169 
L 1441 2663 
Q 1497 2656 1531 2656 
Q 1891 2656 2178 2843 
Q 2466 3031 2466 3422 
Q 2466 3731 2256 3934 
Q 2047 4138 1716 4138 
Q 1388 4138 1169 3931 
Q 950 3725 888 3313 
L 325 3413 
Q 428 3978 793 4289 
Q 1159 4600 1703 4600 
Q 2078 4600 2393 4439 
Q 2709 4278 2876 4000 
Q 3044 3722 3044 3409 
Q 3044 3113 2884 2869 
Q 2725 2625 2413 2481 
Q 2819 2388 3044 2092 
Q 3269 1797 3269 1353 
Q 3269 753 2831 336 
Q 2394 -81 1725 -81 
Q 1122 -81 723 278 
Q 325 638 269 1209 
z
" transform="scale(0.015625)"/>
       </defs>
       <use xlink:href="#ArialMT-33"/>
      </g>
     </g>
    </g>
    <g id="ytick_6">
     <g id="line2d_10">
      <g>
       <use xlink:href="#mcf65341cd5" x="470.408354" y="43.109586" style="fill: #262626; stroke: #262626; stroke-width: 1.25"/>
      </g>
     </g>
     <g id="text_18">
      <!-- 6 -->
      <g style="fill: #262626" transform="translate(479.908354 47.046383) scale(0.11 -0.11)">
       <use xlink:href="#ArialMT-36"/>
      </g>
     </g>
    </g>
    <g id="text_19">
     <!-- $^{\circ}$C -->
     <g style="fill: #262626" transform="translate(498.61476 105.300703) rotate(-90) scale(0.12 -0.12)">
      <use xlink:href="#DejaVuSans-2218" transform="translate(0.957031 38.484375) scale(0.7)"/>
      <use xlink:href="#ArialMT-43" transform="translate(47.509766 0.203125)"/>
     </g>
    </g>
   </g>
   <g id="line2d_11">
    <path d="M 270.98428 158.760959 
L 272.258962 142.487957 
L 273.533645 162.066526 
L 274.808327 154.667065 
L 276.083009 153.677383 
L 277.357692 154.880872 
L 278.632374 146.295013 
L 279.907057 153.503204 
L 281.181739 153.495486 
L 282.456422 141.005185 
L 285.005787 147.555481 
L 286.280469 148.058397 
L 287.555152 140.991954 
L 288.829834 135.605422 
L 290.104517 136.771455 
L 291.379199 146.373038 
L 292.653882 139.056726 
L 293.928564 144.629987 
L 295.203247 145.841227 
L 296.477929 129.621701 
L 297.752612 139.975096 
L 299.027294 147.216885 
L 300.301977 150.59078 
L 301.576659 140.517738 
L 302.851342 142.841989 
L 304.126024 144.637122 
L 305.400707 139.131411 
L 306.675389 136.358012 
L 307.950072 132.92182 
L 309.224754 133.159593 
L 310.499436 128.945839 
L 311.774119 132.972475 
L 313.048801 128.88231 
L 314.323484 128.652677 
L 315.598166 141.344008 
L 316.872849 134.034182 
L 318.147531 124.742334 
L 319.422214 122.138508 
L 320.696896 130.187855 
L 321.971579 130.892125 
L 323.246261 135.417266 
L 324.520944 127.592688 
L 325.795626 126.069152 
L 327.070309 136.668394 
L 328.344991 131.07934 
L 329.619674 129.378837 
L 330.894356 124.125331 
L 332.169039 131.180196 
L 333.443721 122.337041 
L 334.718404 120.501664 
L 335.993086 120.25734 
L 337.267769 129.23511 
L 338.542451 133.863831 
L 339.817134 122.578024 
L 341.091816 122.272766 
L 342.366499 131.255951 
L 343.641181 121.772801 
L 344.915863 119.568798 
L 346.190546 132.962162 
L 347.465228 130.269058 
L 348.739911 127.211707 
L 350.014593 118.467656 
L 351.289276 120.468099 
L 352.563958 126.016195 
L 353.838641 114.944682 
L 355.113323 110.771077 
L 356.388006 118.864268 
L 357.662688 125.228905 
L 358.937371 129.182509 
L 360.212053 107.444723 
L 361.486736 132.099636 
L 362.761418 136.647769 
L 364.036101 138.864874 
L 365.310783 136.959287 
L 366.585466 116.340803 
L 367.860148 115.781946 
L 369.134831 128.202524 
L 370.409513 119.546519 
L 371.684196 118.229624 
L 372.958878 114.045349 
L 374.233561 121.21696 
L 375.508243 116.967697 
L 376.782926 125.10003 
L 378.057608 125.813803 
L 379.33229 120.810814 
L 380.606973 117.684096 
L 381.881655 122.385296 
L 383.156338 123.112494 
L 384.43102 109.738685 
L 385.705703 121.871127 
L 386.980385 124.920177 
L 388.255068 112.817375 
L 389.52975 123.801166 
L 390.804433 118.598541 
L 392.079115 120.189984 
L 393.353798 107.263248 
L 394.62848 106.609502 
L 395.903163 127.540995 
L 397.177845 127.068433 
L 398.452528 126.902913 
L 399.72721 128.676253 
L 401.001893 119.068995 
L 402.276575 125.000829 
L 403.551258 115.46884 
L 404.82594 116.716076 
L 406.100623 100.715709 
L 407.375305 114.592563 
L 408.649988 138.792653 
L 409.92467 140.377124 
L 411.199353 132.200978 
L 412.474035 137.655417 
L 413.748717 130.784751 
L 415.0234 118.431984 
L 416.298082 118.017373 
L 417.572765 116.99698 
L 418.847447 128.120315 
L 420.12213 116.319075 
L 421.396812 131.514836 
L 422.671495 119.392771 
L 423.946177 129.077438 
L 425.22086 131.383983 
L 426.495542 124.768731 
L 427.770225 119.940861 
L 429.044907 103.969875 
L 431.594272 116.908513 
L 432.868955 105.593034 
L 434.143637 123.436659 
L 435.41832 125.359012 
L 436.693002 117.517278 
L 437.967685 117.749311 
L 439.242367 108.714855 
L 440.51705 108.078751 
L 441.791732 119.095328 
L 443.066415 121.871451 
L 444.341097 127.831725 
L 445.615779 126.822067 
L 446.890462 113.31027 
L 448.165144 114.82278 
L 449.439827 115.201135 
L 450.714509 119.554497 
L 451.989192 112.865338 
L 453.263874 107.441156 
L 454.538557 96.299012 
L 455.813239 98.142464 
L 457.087922 114.065942 
L 458.362604 123.411299 
L 459.637287 113.616696 
L 460.911969 100.573473 
L 460.911969 100.573473 
" clip-path="url(#pa9784e4c57)" style="fill: none; stroke: #4c72b0; stroke-linecap: round"/>
   </g>
   <g id="line2d_12">
    <path d="M 270.98428 154.799247 
L 272.258962 162.408916 
L 273.533645 158.096998 
L 274.808327 155.788962 
L 276.083009 152.900568 
L 278.632374 151.501918 
L 279.907057 152.58704 
L 282.456422 139.692117 
L 283.731104 142.679615 
L 285.005787 141.853929 
L 286.280469 148.689279 
L 287.555152 146.917561 
L 288.829834 138.873986 
L 290.104517 143.552227 
L 291.379199 146.517544 
L 292.653882 143.748328 
L 293.928564 143.658985 
L 295.203247 137.872532 
L 296.477929 139.635787 
L 297.752612 143.004104 
L 299.027294 133.515506 
L 300.301977 144.006045 
L 301.576659 145.191665 
L 302.851342 141.763159 
L 304.126024 150.210545 
L 305.400707 132.300958 
L 306.675389 133.163873 
L 307.950072 130.361677 
L 309.224754 139.116137 
L 310.499436 134.603806 
L 311.774119 135.177029 
L 313.048801 145.522543 
L 314.323484 133.204442 
L 315.598166 123.027529 
L 316.872849 124.404256 
L 318.147531 126.403305 
L 319.422214 120.249395 
L 320.696896 130.540168 
L 321.971579 131.87584 
L 323.246261 140.116683 
L 324.520944 138.197573 
L 325.795626 133.486481 
L 327.070309 137.870943 
L 328.344991 136.840822 
L 329.619674 129.129779 
L 330.894356 130.769866 
L 332.169039 129.196681 
L 333.443721 131.054467 
L 334.718404 128.530937 
L 335.993086 113.959087 
L 337.267769 132.622658 
L 338.542451 142.43607 
L 339.817134 136.837449 
L 341.091816 149.052554 
L 342.366499 144.157652 
L 343.641181 133.55828 
L 344.915863 135.229662 
L 346.190546 128.469905 
L 347.465228 123.574841 
L 348.739911 133.454992 
L 350.014593 123.588591 
L 351.289276 133.676064 
L 352.563958 127.889742 
L 353.838641 123.396057 
L 355.113323 111.715812 
L 356.388006 122.021308 
L 357.662688 128.946488 
L 358.937371 124.637781 
L 360.212053 119.408272 
L 361.486736 128.50282 
L 362.761418 126.279425 
L 364.036101 133.657579 
L 365.310783 127.840222 
L 366.585466 121.473931 
L 367.860148 125.807057 
L 369.134831 129.180369 
L 370.409513 119.892055 
L 371.684196 115.191373 
L 372.958878 123.572473 
L 374.233561 117.425406 
L 375.508243 112.567182 
L 376.782926 128.065866 
L 378.057608 141.438897 
L 379.33229 126.482044 
L 380.606973 129.866219 
L 381.881655 128.581624 
L 383.156338 132.419293 
L 384.43102 127.25273 
L 385.705703 120.458046 
L 386.980385 135.758975 
L 388.255068 132.395587 
L 389.52975 130.00492 
L 390.804433 129.69817 
L 392.079115 120.170981 
L 393.353798 133.103879 
L 394.62848 122.419574 
L 395.903163 120.907907 
L 397.177845 116.588337 
L 398.452528 123.368071 
L 399.72721 108.620388 
L 401.001893 105.333371 
L 402.276575 114.385923 
L 403.551258 113.938332 
L 404.82594 106.938629 
L 406.100623 111.81203 
L 407.375305 114.053132 
L 408.649988 114.252476 
L 409.92467 126.648407 
L 411.199353 121.323945 
L 412.474035 124.270161 
L 413.748717 116.081464 
L 415.0234 123.897968 
L 416.298082 118.674199 
L 417.572765 127.445977 
L 418.847447 116.385653 
L 420.12213 121.608222 
L 421.396812 114.242358 
L 422.671495 117.07426 
L 423.946177 121.873948 
L 425.22086 117.310314 
L 426.495542 122.228338 
L 427.770225 119.715477 
L 429.044907 108.003839 
L 430.31959 114.674156 
L 431.594272 103.533374 
L 432.868955 106.440772 
L 434.143637 113.394717 
L 435.41832 126.136281 
L 436.693002 108.894709 
L 437.967685 109.061688 
L 439.242367 109.624533 
L 440.51705 111.173072 
L 441.791732 114.009158 
L 443.066415 101.570809 
L 444.341097 112.662071 
L 445.615779 109.295115 
L 446.890462 108.347105 
L 448.165144 115.281138 
L 449.439827 111.428454 
L 450.714509 94.328404 
L 451.989192 101.106646 
L 453.263874 97.644088 
L 454.538557 104.63617 
L 455.813239 109.940104 
L 457.087922 106.645531 
L 458.362604 98.948822 
L 459.637287 98.350467 
L 460.911969 126.114943 
L 460.911969 126.114943 
" clip-path="url(#pa9784e4c57)" style="fill: none; stroke: #dd8452; stroke-linecap: round"/>
   </g>
   <g id="line2d_13">
    <path d="M 270.98428 154.373611 
L 272.258962 151.767645 
L 273.533645 150.787919 
L 276.083009 156.330826 
L 277.357692 165.126001 
L 278.632374 164.904038 
L 279.907057 158.473796 
L 281.181739 138.626485 
L 282.456422 133.392501 
L 283.731104 130.381037 
L 285.005787 133.173375 
L 286.280469 128.880721 
L 287.555152 139.375865 
L 290.104517 147.921966 
L 291.379199 149.238634 
L 292.653882 141.558334 
L 293.928564 141.502685 
L 295.203247 142.541206 
L 296.477929 149.292791 
L 297.752612 152.343689 
L 299.027294 151.412672 
L 300.301977 152.030713 
L 301.576659 148.173781 
L 302.851342 136.897022 
L 304.126024 131.813349 
L 305.400707 132.464824 
L 306.675389 137.514803 
L 307.950072 136.22784 
L 310.499436 144.478055 
L 311.774119 131.105738 
L 313.048801 132.21716 
L 314.323484 142.968626 
L 315.598166 145.018784 
L 316.872849 135.926441 
L 318.147531 137.144329 
L 319.422214 137.03235 
L 320.696896 127.609584 
L 321.971579 130.553562 
L 323.246261 127.778541 
L 324.520944 128.119375 
L 325.795626 131.628598 
L 327.070309 131.187331 
L 328.344991 132.684469 
L 329.619674 141.255216 
L 330.894356 128.934586 
L 332.169039 138.733534 
L 333.443721 140.908837 
L 334.718404 131.058034 
L 335.993086 134.751879 
L 337.267769 122.442599 
L 338.542451 119.130579 
L 339.817134 123.303536 
L 341.091816 128.319237 
L 342.366499 125.353142 
L 343.641181 120.487297 
L 344.915863 126.015903 
L 346.190546 122.628128 
L 347.465228 126.464954 
L 348.739911 122.236121 
L 350.014593 126.288829 
L 351.289276 124.291272 
L 352.563958 114.916826 
L 353.838641 125.460516 
L 355.113323 123.83379 
L 356.388006 123.203653 
L 357.662688 120.287629 
L 358.937371 121.745431 
L 360.212053 115.187709 
L 361.486736 107.109921 
L 362.761418 112.173813 
L 364.036101 111.125952 
L 365.310783 113.510684 
L 366.585466 125.970307 
L 367.860148 120.4262 
L 369.134831 117.064434 
L 370.409513 112.361482 
L 371.684196 113.172445 
L 372.958878 114.655833 
L 374.233561 110.804576 
L 375.508243 116.498475 
L 376.782926 109.447209 
L 378.057608 119.166673 
L 379.33229 114.465699 
L 380.606973 104.20207 
L 381.881655 102.373405 
L 383.156338 106.027621 
L 384.43102 100.915085 
L 385.705703 111.256481 
L 386.980385 106.043187 
L 388.255068 116.065606 
L 389.52975 111.373162 
L 390.804433 100.320653 
L 392.079115 108.615523 
L 393.353798 103.255811 
L 394.62848 88.238996 
L 395.903163 102.757727 
L 397.177845 101.398122 
L 398.452528 97.533731 
L 399.72721 109.712969 
L 401.001893 110.228046 
L 402.276575 96.604757 
L 403.551258 101.50942 
L 404.82594 108.918706 
L 406.100623 101.87117 
L 407.375305 107.138913 
L 408.649988 104.875532 
L 409.92467 104.90728 
L 411.199353 95.476958 
L 412.474035 96.637413 
L 413.748717 82.953644 
L 415.0234 87.331782 
L 416.298082 92.903908 
L 417.572765 92.87978 
L 418.847447 79.093469 
L 420.12213 86.649369 
L 421.396812 88.556026 
L 422.671495 87.760369 
L 423.946177 91.914258 
L 425.22086 86.691787 
L 426.495542 78.918025 
L 427.770225 83.797231 
L 429.044907 95.584299 
L 430.31959 82.109505 
L 431.594272 90.644483 
L 432.868955 77.95406 
L 435.41832 88.357428 
L 436.693002 77.187168 
L 437.967685 85.569598 
L 439.242367 90.84694 
L 440.51705 90.046322 
L 441.791732 76.510171 
L 443.066415 92.027923 
L 444.341097 78.774428 
L 445.615779 87.156922 
L 446.890462 75.420411 
L 448.165144 80.978787 
L 449.439827 77.035852 
L 450.714509 78.53098 
L 451.989192 73.344764 
L 453.263874 80.370508 
L 454.538557 69.387106 
L 455.813239 75.771006 
L 457.087922 83.227997 
L 458.362604 66.348531 
L 459.637287 77.382491 
L 460.911969 79.494005 
L 460.911969 79.494005 
" clip-path="url(#pa9784e4c57)" style="fill: none; stroke: #55a868; stroke-linecap: round"/>
   </g>
   <g id="line2d_14">
    <path d="M 270.98428 160.550189 
L 272.258962 146.816316 
L 273.533645 143.257832 
L 274.808327 157.49827 
L 276.083009 146.165457 
L 277.357692 142.757543 
L 278.632374 139.841584 
L 279.907057 141.533493 
L 281.181739 152.274842 
L 282.456422 152.003164 
L 283.731104 148.233305 
L 285.005787 152.540341 
L 286.280469 160.940251 
L 287.555152 157.136568 
L 288.829834 155.511641 
L 290.104517 144.015125 
L 291.379199 144.169035 
L 292.653882 142.43607 
L 293.928564 146.673448 
L 295.203247 145.945747 
L 296.477929 135.750965 
L 297.752612 136.387166 
L 299.027294 148.071287 
L 300.301977 147.211226 
L 301.576659 132.281727 
L 302.851342 132.864744 
L 304.126024 123.374751 
L 305.400707 139.297353 
L 306.675389 137.235942 
L 307.950072 140.937959 
L 309.224754 145.29077 
L 310.499436 135.470223 
L 311.774119 134.914123 
L 313.048801 141.812387 
L 314.323484 133.571122 
L 315.598166 137.339457 
L 316.872849 144.57369 
L 318.147531 142.020973 
L 319.422214 142.852075 
L 320.696896 150.62462 
L 321.971579 149.440718 
L 323.246261 150.848367 
L 324.520944 143.411418 
L 325.795626 142.097506 
L 327.070309 155.650667 
L 328.344991 147.236245 
L 329.619674 140.688771 
L 330.894356 132.169035 
L 332.169039 128.261416 
L 333.443721 134.460824 
L 334.718404 130.137524 
L 335.993086 127.701586 
L 337.267769 132.801182 
L 338.542451 129.186174 
L 339.817134 120.827807 
L 341.091816 135.37874 
L 342.366499 130.33009 
L 343.641181 118.1671 
L 344.915863 129.468764 
L 346.190546 121.198897 
L 347.465228 133.277571 
L 348.739911 128.226651 
L 350.014593 129.565242 
L 351.289276 122.340187 
L 352.563958 113.249725 
L 353.838641 118.191454 
L 355.113323 124.450144 
L 356.388006 105.704656 
L 357.662688 111.008752 
L 358.937371 120.655931 
L 360.212053 119.733378 
L 361.486736 115.082345 
L 362.761418 115.054132 
L 364.036101 126.083875 
L 365.310783 122.276074 
L 366.585466 117.560539 
L 367.860148 112.06605 
L 369.134831 112.439086 
L 370.409513 104.427908 
L 371.684196 116.47892 
L 372.958878 96.840032 
L 374.233561 95.538185 
L 375.508243 98.139643 
L 376.782926 109.605238 
L 378.057608 112.142778 
L 379.33229 133.778963 
L 380.606973 127.72059 
L 381.881655 113.999591 
L 383.156338 127.388674 
L 384.43102 129.002558 
L 385.705703 120.368087 
L 386.980385 121.137573 
L 388.255068 120.814705 
L 389.52975 119.447739 
L 390.804433 120.749619 
L 392.079115 121.567717 
L 393.353798 105.985171 
L 394.62848 108.676718 
L 395.903163 110.329096 
L 397.177845 100.534428 
L 398.452528 117.875656 
L 399.72721 104.049554 
L 401.001893 94.416482 
L 402.276575 110.97428 
L 403.551258 133.997667 
L 404.82594 133.578614 
L 406.100623 135.37754 
L 407.375305 128.216241 
L 408.649988 126.852777 
L 409.92467 126.476758 
L 411.199353 145.209566 
L 412.474035 144.357061 
L 413.748717 138.601968 
L 415.0234 129.384448 
L 416.298082 103.867171 
L 417.572765 113.601584 
L 418.847447 109.436832 
L 420.12213 97.636467 
L 421.396812 96.14828 
L 422.671495 94.184158 
L 423.946177 83.540033 
L 425.22086 91.496664 
L 426.495542 96.88044 
L 427.770225 96.58277 
L 429.044907 105.876402 
L 430.31959 104.628128 
L 431.594272 114.922014 
L 432.868955 109.847194 
L 434.143637 103.99611 
L 435.41832 106.219765 
L 436.693002 107.526802 
L 437.967685 106.641413 
L 439.242367 99.375821 
L 440.51705 90.621231 
L 441.791732 91.428303 
L 443.066415 99.272728 
L 444.341097 100.557453 
L 445.615779 107.017173 
L 446.890462 97.973766 
L 448.165144 102.725557 
L 449.439827 101.113164 
L 450.714509 89.890855 
L 451.989192 91.119704 
L 453.263874 83.2195 
L 454.538557 105.597152 
L 455.813239 85.095641 
L 457.087922 105.106041 
L 458.362604 90.395003 
L 459.637287 106.061477 
L 460.911969 100.13613 
L 460.911969 100.13613 
" clip-path="url(#pa9784e4c57)" style="fill: none; stroke: #c44e52; stroke-linecap: round"/>
   </g>
   <g id="line2d_15">
    <path d="M 270.98428 125.807544 
L 272.258962 153.146594 
L 273.533645 143.707726 
L 274.808327 151.812025 
L 276.083009 142.262199 
L 277.357692 147.339322 
L 278.632374 125.756565 
L 279.907057 131.85314 
L 281.181739 122.275701 
L 282.456422 136.94638 
L 283.731104 135.91034 
L 285.005787 131.046798 
L 286.280469 140.973437 
L 287.555152 146.811581 
L 288.829834 158.975026 
L 290.104517 162.988625 
L 291.379199 165.278679 
L 292.653882 168.751452 
L 293.928564 171.159647 
L 295.203247 167.431557 
L 296.477929 164.573793 
L 297.752612 155.128228 
L 299.027294 156.289997 
L 300.301977 158.789059 
L 301.576659 143.115272 
L 302.851342 122.609578 
L 304.126024 136.851686 
L 305.400707 131.382815 
L 306.675389 125.290732 
L 307.950072 129.449274 
L 309.224754 126.64745 
L 310.499436 107.116456 
L 311.774119 117.310589 
L 313.048801 115.72333 
L 314.323484 110.883866 
L 315.598166 110.326955 
L 316.872849 126.918966 
L 318.147531 124.265864 
L 319.422214 140.081838 
L 320.696896 143.220587 
L 321.971579 129.755813 
L 323.246261 140.815197 
L 324.520944 153.633555 
L 325.795626 131.243125 
L 327.070309 153.328247 
L 328.344991 153.943223 
L 329.619674 146.2524 
L 330.894356 127.15429 
L 332.169039 138.539169 
L 333.443721 145.47552 
L 334.718404 148.759019 
L 335.993086 132.355861 
L 337.267769 149.003212 
L 338.542451 105.716655 
L 339.817134 110.377675 
L 341.091816 110.096382 
L 342.366499 121.801242 
L 343.641181 120.759024 
L 344.915863 121.41718 
L 346.190546 125.730037 
L 347.465228 132.877554 
L 348.739911 123.960395 
L 350.014593 108.838589 
L 351.289276 123.614713 
L 352.563958 136.412315 
L 353.838641 133.323167 
L 355.113323 146.041252 
L 356.388006 120.964173 
L 357.662688 112.028221 
L 358.937371 116.062299 
L 360.212053 118.835925 
L 361.486736 117.866446 
L 362.761418 104.131 
L 364.036101 110.546973 
L 365.310783 111.816748 
L 366.585466 126.59686 
L 367.860148 110.918825 
L 369.134831 97.710212 
L 370.409513 99.910729 
L 371.684196 104.003504 
L 372.958878 104.979339 
L 374.233561 107.273171 
L 375.508243 98.056591 
L 376.782926 89.92369 
L 378.057608 94.604687 
L 379.33229 87.628933 
L 380.606973 106.579035 
L 381.881655 107.362871 
L 383.156338 113.432059 
L 384.43102 112.352807 
L 385.705703 102.707331 
L 386.980385 112.2209 
L 388.255068 109.523321 
L 389.52975 107.910199 
L 390.804433 95.143988 
L 392.079115 108.718357 
L 393.353798 85.511727 
L 394.62848 104.183325 
L 395.903163 91.643991 
L 397.177845 92.616599 
L 398.452528 80.361979 
L 399.72721 88.559901 
L 401.001893 78.828228 
L 402.276575 90.016665 
L 403.551258 102.572571 
L 404.82594 101.62589 
L 406.100623 106.083416 
L 407.375305 96.427141 
L 408.649988 82.579197 
L 409.92467 99.312373 
L 411.199353 80.248184 
L 412.474035 88.234196 
L 413.748717 89.488049 
L 415.0234 62.289856 
L 417.572765 103.625231 
L 418.847447 78.894935 
L 420.12213 77.53679 
L 421.396812 70.899292 
L 422.671495 86.271517 
L 423.946177 66.082513 
L 425.22086 69.785405 
L 426.495542 83.414693 
L 427.770225 79.99144 
L 429.044907 59.183665 
L 430.31959 63.123487 
L 431.594272 69.276295 
L 432.868955 64.222262 
L 434.143637 76.391382 
L 435.41832 79.633743 
L 436.693002 85.556399 
L 437.967685 84.76979 
L 439.242367 77.530369 
L 440.51705 83.742036 
L 441.791732 72.244628 
L 443.066415 82.492756 
L 444.341097 86.78747 
L 445.615779 98.427778 
L 446.890462 71.153766 
L 448.165144 68.335127 
L 449.439827 63.736566 
L 450.714509 45.81764 
L 451.989192 57.216106 
L 453.263874 42.806986 
L 454.538557 56.936726 
L 455.813239 46.091928 
L 457.087922 48.751467 
L 458.362604 52.321723 
L 459.637287 55.29719 
L 460.911969 75.918625 
L 460.911969 75.918625 
" clip-path="url(#pa9784e4c57)" style="fill: none; stroke: #8172b3; stroke-linecap: round"/>
   </g>
   <g id="line2d_16">
    <path d="M 270.98428 162.107646 
L 272.258962 142.530958 
L 273.533645 149.514333 
L 274.808327 154.658698 
L 276.083009 138.434665 
L 277.357692 129.977825 
L 278.632374 137.801398 
L 279.907057 135.075054 
L 281.181739 159.879727 
L 282.456422 145.75743 
L 283.731104 145.107203 
L 285.005787 131.436081 
L 286.280469 146.850172 
L 287.555152 144.977615 
L 288.829834 159.153891 
L 290.104517 164.918388 
L 291.379199 160.177137 
L 292.653882 164.03882 
L 295.203247 143.24979 
L 296.477929 162.254519 
L 297.752612 146.146615 
L 299.027294 158.285268 
L 300.301977 155.38087 
L 301.576659 122.855053 
L 302.851342 136.335393 
L 304.126024 139.360136 
L 305.400707 125.435432 
L 306.675389 123.124509 
L 307.950072 115.536115 
L 309.224754 120.814138 
L 310.499436 145.93344 
L 311.774119 126.204723 
L 313.048801 152.687928 
L 314.323484 141.537596 
L 315.598166 138.680853 
L 316.872849 132.751322 
L 318.147531 122.292953 
L 319.422214 115.768536 
L 320.696896 140.351634 
L 321.971579 138.142654 
L 323.246261 134.960968 
L 324.520944 135.696695 
L 325.795626 147.558091 
L 327.070309 139.505761 
L 328.344991 129.767845 
L 330.894356 106.944418 
L 332.169039 120.37047 
L 333.443721 142.614805 
L 334.718404 127.469245 
L 335.993086 123.132714 
L 337.267769 129.534223 
L 338.542451 128.10256 
L 339.817134 115.753976 
L 341.091816 117.096652 
L 342.366499 105.600346 
L 343.641181 112.9941 
L 344.915863 114.118234 
L 346.190546 128.567209 
L 347.465228 108.994608 
L 348.739911 98.438594 
L 350.014593 111.348208 
L 351.289276 105.748192 
L 352.563958 106.514695 
L 353.838641 106.970199 
L 355.113323 121.226478 
L 357.662688 92.002839 
L 358.937371 97.181434 
L 360.212053 90.432897 
L 361.486736 96.655752 
L 362.761418 82.357606 
L 364.036101 74.53692 
L 365.310783 93.610886 
L 366.585466 92.132362 
L 367.860148 95.17444 
L 369.134831 112.935856 
L 370.409513 101.628128 
L 371.684196 97.466488 
L 372.958878 110.298077 
L 374.233561 97.767012 
L 375.508243 83.350369 
L 376.782926 81.071357 
L 378.057608 82.278025 
L 379.33229 83.978787 
L 380.606973 91.255502 
L 381.881655 71.700251 
L 383.156338 84.332236 
L 384.43102 109.332231 
L 385.705703 89.473861 
L 386.980385 105.511457 
L 388.255068 99.942412 
L 389.52975 107.160949 
L 390.804433 82.532888 
L 392.079115 90.554572 
L 393.353798 79.007385 
L 394.62848 94.708915 
L 395.903163 86.661384 
L 397.177845 102.641418 
L 398.452528 91.21422 
L 401.001893 74.759807 
L 402.276575 81.878753 
L 403.551258 83.585775 
L 404.82594 70.407353 
L 406.100623 73.448911 
L 407.375305 75.767163 
L 408.649988 97.775833 
L 409.92467 101.704337 
L 411.199353 90.6959 
L 412.474035 87.034971 
L 413.748717 100.59713 
L 415.0234 101.967632 
L 416.298082 92.664497 
L 417.572765 90.473888 
L 418.847447 82.113413 
L 420.12213 60.155852 
L 421.396812 72.514716 
L 422.671495 58.93991 
L 423.946177 47.123071 
L 425.22086 55.552394 
L 427.770225 63.39416 
L 429.044907 43.866473 
L 430.31959 49.128768 
L 431.594272 51.059715 
L 432.868955 58.602481 
L 434.143637 51.234218 
L 435.41832 62.923965 
L 436.693002 45.26856 
L 437.967685 65.838627 
L 439.242367 49.849804 
L 440.51705 50.313221 
L 441.791732 57.611502 
L 443.066415 53.535866 
L 444.341097 38.197934 
L 445.615779 25.041759 
L 446.890462 46.953108 
L 448.165144 51.782827 
L 449.439827 43.45543 
L 450.714509 51.854528 
L 451.989192 39.568338 
L 453.263874 34.608286 
L 454.538557 33.375286 
L 455.813239 32.912063 
L 457.087922 33.348499 
L 458.362604 29.360098 
L 459.637287 30.131594 
L 460.911969 35.948011 
L 460.911969 35.948011 
" clip-path="url(#pa9784e4c57)" style="fill: none; stroke: #937860; stroke-linecap: round"/>
   </g>
   <g id="line2d_17">
    <path d="M 270.98428 145.560729 
L 272.258962 145.488768 
L 273.533645 149.242623 
L 274.808327 149.436681 
L 276.083009 135.769174 
L 277.357692 142.201135 
L 278.632374 133.154842 
L 279.907057 139.194049 
L 281.181739 149.114835 
L 282.456422 149.477218 
L 283.731104 143.147815 
L 285.005787 153.149431 
L 286.280469 147.985041 
L 287.555152 136.586007 
L 288.829834 137.568036 
L 290.104517 147.218555 
L 291.379199 152.991176 
L 293.928564 147.177159 
L 295.203247 147.293661 
L 296.477929 152.809506 
L 297.752612 145.358661 
L 299.027294 144.238499 
L 300.301977 149.491 
L 301.576659 163.668914 
L 302.851342 146.491778 
L 304.126024 134.846621 
L 305.400707 136.982555 
L 306.675389 137.727394 
L 307.950072 140.282381 
L 309.224754 135.696986 
L 310.499436 139.04403 
L 311.774119 126.677091 
L 313.048801 128.223684 
L 314.323484 131.497956 
L 315.598166 127.246422 
L 318.147531 146.054419 
L 319.422214 137.211539 
L 320.696896 138.959227 
L 321.971579 133.941094 
L 323.246261 127.672027 
L 324.520944 131.458976 
L 325.795626 127.000315 
L 327.070309 129.794794 
L 328.344991 127.681658 
L 329.619674 141.539477 
L 332.169039 134.714244 
L 333.443721 138.522597 
L 334.718404 130.115034 
L 335.993086 139.027329 
L 337.267769 134.025443 
L 338.542451 137.707515 
L 339.817134 142.213912 
L 341.091816 141.293597 
L 342.366499 129.179218 
L 343.641181 147.64351 
L 344.915863 138.4878 
L 346.190546 130.300142 
L 347.465228 116.146242 
L 348.739911 109.7268 
L 350.014593 117.714304 
L 351.289276 132.659838 
L 352.563958 128.544671 
L 353.838641 138.794032 
L 355.113323 139.752452 
L 356.388006 134.88839 
L 357.662688 147.76037 
L 358.937371 134.274014 
L 360.212053 145.996872 
L 361.486736 146.858782 
L 362.761418 139.374843 
L 364.036101 139.634765 
L 365.310783 145.124245 
L 366.585466 142.688031 
L 367.860148 155.847124 
L 369.134831 137.294202 
L 370.409513 162.729659 
L 371.684196 148.171462 
L 372.958878 147.277917 
L 374.233561 145.180542 
L 375.508243 128.863809 
L 376.782926 127.502323 
L 378.057608 118.65813 
L 379.33229 121.205626 
L 380.606973 119.704759 
L 381.881655 114.52571 
L 383.156338 124.194616 
L 384.43102 120.078573 
L 385.705703 123.72747 
L 386.980385 130.779092 
L 389.52975 122.823921 
L 390.804433 136.537752 
L 392.079115 127.478488 
L 393.353798 122.041657 
L 394.62848 117.200427 
L 395.903163 128.398414 
L 397.177845 122.629311 
L 398.452528 113.489816 
L 399.72721 124.988716 
L 401.001893 133.320362 
L 402.276575 121.349743 
L 403.551258 121.258421 
L 404.82594 116.588839 
L 406.100623 124.185828 
L 407.375305 129.848173 
L 408.649988 131.900406 
L 409.92467 122.703478 
L 411.199353 122.662227 
L 412.474035 134.267885 
L 413.748717 118.778476 
L 415.0234 109.715125 
L 416.298082 112.789308 
L 417.572765 122.531893 
L 418.847447 119.123396 
L 420.12213 124.540509 
L 421.396812 107.15135 
L 422.671495 122.028037 
L 423.946177 123.518041 
L 425.22086 106.649601 
L 426.495542 129.138422 
L 427.770225 133.763542 
L 429.044907 130.662671 
L 430.31959 112.529126 
L 431.594272 115.020486 
L 432.868955 99.247741 
L 434.143637 106.114645 
L 435.41832 114.641775 
L 436.693002 105.133135 
L 437.967685 110.363001 
L 439.242367 106.266772 
L 440.51705 109.863555 
L 441.791732 101.847416 
L 443.066415 137.843459 
L 444.341097 103.162495 
L 445.615779 100.521667 
L 446.890462 107.537714 
L 448.165144 115.905908 
L 449.439827 97.803171 
L 450.714509 111.617177 
L 451.989192 120.919825 
L 453.263874 103.317475 
L 454.538557 106.608092 
L 455.813239 122.81977 
L 457.087922 112.272479 
L 458.362604 111.011265 
L 459.637287 106.621842 
L 460.911969 110.338257 
L 460.911969 110.338257 
" clip-path="url(#pa9784e4c57)" style="fill: none; stroke: #da8bc3; stroke-linecap: round"/>
   </g>
   <g id="line2d_18">
    <path d="M 270.98428 151.708561 
L 272.258962 149.235308 
L 273.533645 150.953422 
L 274.808327 153.918209 
L 276.083009 146.505753 
L 277.357692 147.78774 
L 278.632374 142.750765 
L 279.907057 144.602825 
L 281.181739 145.97968 
L 282.456422 142.610571 
L 283.731104 141.376794 
L 285.005787 141.536491 
L 286.280469 146.0539 
L 287.555152 144.685307 
L 290.104517 149.62662 
L 291.379199 152.106463 
L 292.653882 149.950044 
L 293.928564 149.736674 
L 295.203247 147.16796 
L 296.477929 147.70558 
L 297.752612 145.477651 
L 299.027294 148.432873 
L 300.301977 151.071385 
L 301.576659 142.257736 
L 302.851342 137.114809 
L 304.126024 137.299173 
L 305.400707 133.856478 
L 306.675389 132.916467 
L 307.950072 132.245295 
L 309.224754 134.442995 
L 310.499436 133.655979 
L 311.774119 129.194539 
L 313.048801 135.009906 
L 314.323484 131.759469 
L 315.598166 131.854858 
L 316.872849 133.656374 
L 318.147531 131.846311 
L 319.422214 130.762034 
L 320.696896 137.356239 
L 321.971579 134.943115 
L 323.246261 136.801293 
L 324.520944 136.872897 
L 325.795626 134.154753 
L 327.070309 140.572305 
L 328.344991 137.033372 
L 329.619674 135.279733 
L 330.894356 126.90707 
L 333.443721 136.482013 
L 334.718404 130.93878 
L 335.993086 127.312256 
L 337.267769 132.809203 
L 338.542451 128.020483 
L 339.817134 124.556055 
L 341.091816 129.072847 
L 342.366499 126.811091 
L 343.641181 125.054587 
L 344.915863 126.329478 
L 346.190546 127.122353 
L 347.465228 124.514975 
L 348.739911 120.465037 
L 350.014593 119.40163 
L 351.289276 123.256909 
L 352.563958 121.934881 
L 353.838641 123.011444 
L 355.113323 125.398716 
L 356.388006 118.877439 
L 357.662688 119.609029 
L 358.937371 120.534201 
L 360.212053 116.719968 
L 361.486736 120.59653 
L 362.761418 116.574084 
L 365.310783 121.591164 
L 366.585466 120.394691 
L 367.860148 119.431664 
L 369.134831 119.260955 
L 370.409513 117.213783 
L 371.684196 116.101974 
L 372.958878 115.952718 
L 374.233561 113.600836 
L 375.508243 107.77768 
L 376.782926 110.102244 
L 378.057608 113.443284 
L 379.33229 112.621552 
L 380.606973 113.858896 
L 381.881655 108.704109 
L 383.156338 115.843856 
L 384.43102 115.524667 
L 385.705703 112.837486 
L 386.980385 119.481624 
L 388.255068 116.90286 
L 389.52975 117.503151 
L 390.804433 111.940229 
L 392.079115 113.899374 
L 393.353798 105.166984 
L 394.62848 106.00535 
L 395.903163 109.748503 
L 397.177845 109.068093 
L 398.452528 107.249485 
L 399.72721 106.754904 
L 401.001893 102.279327 
L 402.276575 105.744422 
L 403.551258 110.333003 
L 404.82594 107.824873 
L 406.100623 107.642085 
L 407.375305 109.43476 
L 408.649988 113.861267 
L 409.92467 117.447107 
L 411.199353 112.545393 
L 412.474035 116.0653 
L 413.748717 111.040784 
L 415.0234 104.716972 
L 416.298082 103.037106 
L 417.572765 109.650761 
L 418.847447 101.881138 
L 420.12213 97.778046 
L 421.396812 97.289545 
L 422.671495 97.950145 
L 423.946177 94.732754 
L 425.22086 94.124301 
L 426.495542 99.272339 
L 427.770225 99.597922 
L 429.044907 92.449608 
L 430.31959 90.979609 
L 431.594272 94.480693 
L 432.868955 88.843935 
L 434.143637 93.985929 
L 435.41832 100.467421 
L 436.693002 92.440576 
L 437.967685 97.141918 
L 439.242367 91.744157 
L 440.51705 91.976879 
L 441.791732 90.392356 
L 443.066415 98.373569 
L 444.341097 92.567651 
L 445.615779 93.468922 
L 446.890462 88.670871 
L 448.165144 92.833167 
L 449.439827 87.110536 
L 450.714509 84.513443 
L 451.989192 85.162961 
L 453.263874 78.486855 
L 454.538557 81.834215 
L 455.813239 81.538998 
L 457.087922 86.202564 
L 458.362604 81.685255 
L 459.637287 83.92311 
L 460.911969 89.789059 
L 460.911969 89.789059 
" clip-path="url(#pa9784e4c57)" style="fill: none; stroke: #1a1a1a; stroke-width: 2; stroke-linecap: round"/>
   </g>
   <g id="patch_8">
    <path d="M 261.487895 178.465541 
L 261.487895 17.735865 
" style="fill: none; stroke: #ffffff; stroke-width: 1.25; stroke-linejoin: miter; stroke-linecap: square"/>
   </g>
   <g id="patch_9">
    <path d="M 470.408354 178.465541 
L 470.408354 17.735865 
" style="fill: none; stroke: #ffffff; stroke-width: 1.25; stroke-linejoin: miter; stroke-linecap: square"/>
   </g>
   <g id="patch_10">
    <path d="M 261.487895 178.465541 
L 470.408354 178.465541 
" style="fill: none; stroke: #ffffff; stroke-width: 1.25; stroke-linejoin: miter; stroke-linecap: square"/>
   </g>
   <g id="patch_11">
    <path d="M 261.487895 17.735865 
L 470.408354 17.735865 
" style="fill: none; stroke: #ffffff; stroke-width: 1.25; stroke-linejoin: miter; stroke-linecap: square"/>
   </g>
   <g id="text_20">
    <!-- Change from first 30 yrs -->
    <g style="fill: #262626" transform="translate(301.929999 11.735865) scale(0.12 -0.12)">
     <defs>
      <path id="ArialMT-68" d="M 422 0 
L 422 4581 
L 984 4581 
L 984 2938 
Q 1378 3394 1978 3394 
Q 2347 3394 2619 3248 
Q 2891 3103 3008 2847 
Q 3125 2591 3125 2103 
L 3125 0 
L 2563 0 
L 2563 2103 
Q 2563 2525 2380 2717 
Q 2197 2909 1863 2909 
Q 1613 2909 1392 2779 
Q 1172 2650 1078 2428 
Q 984 2206 984 1816 
L 984 0 
L 422 0 
z
" transform="scale(0.015625)"/>
      <path id="ArialMT-67" d="M 319 -275 
L 866 -356 
Q 900 -609 1056 -725 
Q 1266 -881 1628 -881 
Q 2019 -881 2231 -725 
Q 2444 -569 2519 -288 
Q 2563 -116 2559 434 
Q 2191 0 1641 0 
Q 956 0 581 494 
Q 206 988 206 1678 
Q 206 2153 378 2554 
Q 550 2956 876 3175 
Q 1203 3394 1644 3394 
Q 2231 3394 2613 2919 
L 2613 3319 
L 3131 3319 
L 3131 450 
Q 3131 -325 2973 -648 
Q 2816 -972 2473 -1159 
Q 2131 -1347 1631 -1347 
Q 1038 -1347 672 -1080 
Q 306 -813 319 -275 
z
M 784 1719 
Q 784 1066 1043 766 
Q 1303 466 1694 466 
Q 2081 466 2343 764 
Q 2606 1063 2606 1700 
Q 2606 2309 2336 2618 
Q 2066 2928 1684 2928 
Q 1309 2928 1046 2623 
Q 784 2319 784 1719 
z
" transform="scale(0.015625)"/>
      <path id="ArialMT-66" d="M 556 0 
L 556 2881 
L 59 2881 
L 59 3319 
L 556 3319 
L 556 3672 
Q 556 4006 616 4169 
Q 697 4388 901 4523 
Q 1106 4659 1475 4659 
Q 1713 4659 2000 4603 
L 1916 4113 
Q 1741 4144 1584 4144 
Q 1328 4144 1222 4034 
Q 1116 3925 1116 3625 
L 1116 3319 
L 1763 3319 
L 1763 2881 
L 1116 2881 
L 1116 0 
L 556 0 
z
" transform="scale(0.015625)"/>
      <path id="ArialMT-6f" d="M 213 1659 
Q 213 2581 725 3025 
Q 1153 3394 1769 3394 
Q 2453 3394 2887 2945 
Q 3322 2497 3322 1706 
Q 3322 1066 3130 698 
Q 2938 331 2570 128 
Q 2203 -75 1769 -75 
Q 1072 -75 642 372 
Q 213 819 213 1659 
z
M 791 1659 
Q 791 1022 1069 705 
Q 1347 388 1769 388 
Q 2188 388 2466 706 
Q 2744 1025 2744 1678 
Q 2744 2294 2464 2611 
Q 2184 2928 1769 2928 
Q 1347 2928 1069 2612 
Q 791 2297 791 1659 
z
" transform="scale(0.015625)"/>
      <path id="ArialMT-6d" d="M 422 0 
L 422 3319 
L 925 3319 
L 925 2853 
Q 1081 3097 1340 3245 
Q 1600 3394 1931 3394 
Q 2300 3394 2536 3241 
Q 2772 3088 2869 2813 
Q 3263 3394 3894 3394 
Q 4388 3394 4653 3120 
Q 4919 2847 4919 2278 
L 4919 0 
L 4359 0 
L 4359 2091 
Q 4359 2428 4304 2576 
Q 4250 2725 4106 2815 
Q 3963 2906 3769 2906 
Q 3419 2906 3187 2673 
Q 2956 2441 2956 1928 
L 2956 0 
L 2394 0 
L 2394 2156 
Q 2394 2531 2256 2718 
Q 2119 2906 1806 2906 
Q 1569 2906 1367 2781 
Q 1166 2656 1075 2415 
Q 984 2175 984 1722 
L 984 0 
L 422 0 
z
" transform="scale(0.015625)"/>
      <path id="ArialMT-73" d="M 197 991 
L 753 1078 
Q 800 744 1014 566 
Q 1228 388 1613 388 
Q 2000 388 2187 545 
Q 2375 703 2375 916 
Q 2375 1106 2209 1216 
Q 2094 1291 1634 1406 
Q 1016 1563 777 1677 
Q 538 1791 414 1992 
Q 291 2194 291 2438 
Q 291 2659 392 2848 
Q 494 3038 669 3163 
Q 800 3259 1026 3326 
Q 1253 3394 1513 3394 
Q 1903 3394 2198 3281 
Q 2494 3169 2634 2976 
Q 2775 2784 2828 2463 
L 2278 2388 
Q 2241 2644 2061 2787 
Q 1881 2931 1553 2931 
Q 1166 2931 1000 2803 
Q 834 2675 834 2503 
Q 834 2394 903 2306 
Q 972 2216 1119 2156 
Q 1203 2125 1616 2013 
Q 2213 1853 2448 1751 
Q 2684 1650 2818 1456 
Q 2953 1263 2953 975 
Q 2953 694 2789 445 
Q 2625 197 2315 61 
Q 2006 -75 1616 -75 
Q 969 -75 630 194 
Q 291 463 197 991 
z
" transform="scale(0.015625)"/>
      <path id="ArialMT-74" d="M 1650 503 
L 1731 6 
Q 1494 -44 1306 -44 
Q 1000 -44 831 53 
Q 663 150 594 308 
Q 525 466 525 972 
L 525 2881 
L 113 2881 
L 113 3319 
L 525 3319 
L 525 4141 
L 1084 4478 
L 1084 3319 
L 1650 3319 
L 1650 2881 
L 1084 2881 
L 1084 941 
Q 1084 700 1114 631 
Q 1144 563 1211 522 
Q 1278 481 1403 481 
Q 1497 481 1650 503 
z
" transform="scale(0.015625)"/>
      <path id="ArialMT-79" d="M 397 -1278 
L 334 -750 
Q 519 -800 656 -800 
Q 844 -800 956 -737 
Q 1069 -675 1141 -563 
Q 1194 -478 1313 -144 
Q 1328 -97 1363 -6 
L 103 3319 
L 709 3319 
L 1400 1397 
Q 1534 1031 1641 628 
Q 1738 1016 1872 1384 
L 2581 3319 
L 3144 3319 
L 1881 -56 
Q 1678 -603 1566 -809 
Q 1416 -1088 1222 -1217 
Q 1028 -1347 759 -1347 
Q 597 -1347 397 -1278 
z
" transform="scale(0.015625)"/>
     </defs>
     <use xlink:href="#ArialMT-43"/>
     <use xlink:href="#ArialMT-68" transform="translate(72.216797 0)"/>
     <use xlink:href="#ArialMT-61" transform="translate(127.832031 0)"/>
     <use xlink:href="#ArialMT-6e" transform="translate(183.447266 0)"/>
     <use xlink:href="#ArialMT-67" transform="translate(239.0625 0)"/>
     <use xlink:href="#ArialMT-65" transform="translate(294.677734 0)"/>
     <use xlink:href="#ArialMT-20" transform="translate(350.292969 0)"/>
     <use xlink:href="#ArialMT-66" transform="translate(378.076172 0)"/>
     <use xlink:href="#ArialMT-72" transform="translate(405.859375 0)"/>
     <use xlink:href="#ArialMT-6f" transform="translate(439.160156 0)"/>
     <use xlink:href="#ArialMT-6d" transform="translate(494.775391 0)"/>
     <use xlink:href="#ArialMT-20" transform="translate(578.076172 0)"/>
     <use xlink:href="#ArialMT-66" transform="translate(605.859375 0)"/>
     <use xlink:href="#ArialMT-69" transform="translate(633.642578 0)"/>
     <use xlink:href="#ArialMT-72" transform="translate(655.859375 0)"/>
     <use xlink:href="#ArialMT-73" transform="translate(689.160156 0)"/>
     <use xlink:href="#ArialMT-74" transform="translate(739.160156 0)"/>
     <use xlink:href="#ArialMT-20" transform="translate(766.943359 0)"/>
     <use xlink:href="#ArialMT-33" transform="translate(794.726562 0)"/>
     <use xlink:href="#ArialMT-30" transform="translate(850.341797 0)"/>
     <use xlink:href="#ArialMT-20" transform="translate(905.957031 0)"/>
     <use xlink:href="#ArialMT-79" transform="translate(933.740234 0)"/>
     <use xlink:href="#ArialMT-72" transform="translate(983.740234 0)"/>
     <use xlink:href="#ArialMT-73" transform="translate(1017.041016 0)"/>
    </g>
   </g>
   <g id="legend_1">
    <g id="patch_12">
     <path d="M 266.387895 102.549615 
L 345.191489 102.549615 
Q 346.591489 102.549615 346.591489 101.149615 
L 346.591489 22.635865 
Q 346.591489 21.235865 345.191489 21.235865 
L 266.387895 21.235865 
Q 264.987895 21.235865 264.987895 22.635865 
L 264.987895 101.149615 
Q 264.987895 102.549615 266.387895 102.549615 
z
" style="fill: #ffffff; opacity: 0.8; stroke: #cccccc; stroke-linejoin: miter"/>
    </g>
    <g id="line2d_19">
     <path d="M 267.787895 26.596334 
L 274.787895 26.596334 
L 281.787895 26.596334 
" style="fill: none; stroke: #4c72b0; stroke-linecap: round"/>
    </g>
    <g id="text_21">
     <!-- CESM2 -->
     <g style="fill: #262626" transform="translate(287.387895 29.046334) scale(0.07 -0.07)">
      <defs>
       <path id="ArialMT-45" d="M 506 0 
L 506 4581 
L 3819 4581 
L 3819 4041 
L 1113 4041 
L 1113 2638 
L 3647 2638 
L 3647 2100 
L 1113 2100 
L 1113 541 
L 3925 541 
L 3925 0 
L 506 0 
z
" transform="scale(0.015625)"/>
       <path id="ArialMT-53" d="M 288 1472 
L 859 1522 
Q 900 1178 1048 958 
Q 1197 738 1509 602 
Q 1822 466 2213 466 
Q 2559 466 2825 569 
Q 3091 672 3220 851 
Q 3350 1031 3350 1244 
Q 3350 1459 3225 1620 
Q 3100 1781 2813 1891 
Q 2628 1963 1997 2114 
Q 1366 2266 1113 2400 
Q 784 2572 623 2826 
Q 463 3081 463 3397 
Q 463 3744 659 4045 
Q 856 4347 1234 4503 
Q 1613 4659 2075 4659 
Q 2584 4659 2973 4495 
Q 3363 4331 3572 4012 
Q 3781 3694 3797 3291 
L 3216 3247 
Q 3169 3681 2898 3903 
Q 2628 4125 2100 4125 
Q 1550 4125 1298 3923 
Q 1047 3722 1047 3438 
Q 1047 3191 1225 3031 
Q 1400 2872 2139 2705 
Q 2878 2538 3153 2413 
Q 3553 2228 3743 1945 
Q 3934 1663 3934 1294 
Q 3934 928 3725 604 
Q 3516 281 3123 101 
Q 2731 -78 2241 -78 
Q 1619 -78 1198 103 
Q 778 284 539 648 
Q 300 1013 288 1472 
z
" transform="scale(0.015625)"/>
       <path id="ArialMT-4d" d="M 475 0 
L 475 4581 
L 1388 4581 
L 2472 1338 
Q 2622 884 2691 659 
Q 2769 909 2934 1394 
L 4031 4581 
L 4847 4581 
L 4847 0 
L 4263 0 
L 4263 3834 
L 2931 0 
L 2384 0 
L 1059 3900 
L 1059 0 
L 475 0 
z
" transform="scale(0.015625)"/>
      </defs>
      <use xlink:href="#ArialMT-43"/>
      <use xlink:href="#ArialMT-45" transform="translate(72.216797 0)"/>
      <use xlink:href="#ArialMT-53" transform="translate(138.916016 0)"/>
      <use xlink:href="#ArialMT-4d" transform="translate(205.615234 0)"/>
      <use xlink:href="#ArialMT-32" transform="translate(288.916016 0)"/>
     </g>
    </g>
    <g id="line2d_20">
     <path d="M 267.787895 36.498052 
L 274.787895 36.498052 
L 281.787895 36.498052 
" style="fill: none; stroke: #dd8452; stroke-linecap: round"/>
    </g>
    <g id="text_22">
     <!-- CESM2-WACCM -->
     <g style="fill: #262626" transform="translate(287.387895 38.948052) scale(0.07 -0.07)">
      <defs>
       <path id="ArialMT-2d" d="M 203 1375 
L 203 1941 
L 1931 1941 
L 1931 1375 
L 203 1375 
z
" transform="scale(0.015625)"/>
       <path id="ArialMT-57" d="M 1294 0 
L 78 4581 
L 700 4581 
L 1397 1578 
Q 1509 1106 1591 641 
Q 1766 1375 1797 1488 
L 2669 4581 
L 3400 4581 
L 4056 2263 
Q 4303 1400 4413 641 
Q 4500 1075 4641 1638 
L 5359 4581 
L 5969 4581 
L 4713 0 
L 4128 0 
L 3163 3491 
Q 3041 3928 3019 4028 
Q 2947 3713 2884 3491 
L 1913 0 
L 1294 0 
z
" transform="scale(0.015625)"/>
       <path id="ArialMT-41" d="M -9 0 
L 1750 4581 
L 2403 4581 
L 4278 0 
L 3588 0 
L 3053 1388 
L 1138 1388 
L 634 0 
L -9 0 
z
M 1313 1881 
L 2866 1881 
L 2388 3150 
Q 2169 3728 2063 4100 
Q 1975 3659 1816 3225 
L 1313 1881 
z
" transform="scale(0.015625)"/>
      </defs>
      <use xlink:href="#ArialMT-43"/>
      <use xlink:href="#ArialMT-45" transform="translate(72.216797 0)"/>
      <use xlink:href="#ArialMT-53" transform="translate(138.916016 0)"/>
      <use xlink:href="#ArialMT-4d" transform="translate(205.615234 0)"/>
      <use xlink:href="#ArialMT-32" transform="translate(288.916016 0)"/>
      <use xlink:href="#ArialMT-2d" transform="translate(344.53125 0)"/>
      <use xlink:href="#ArialMT-57" transform="translate(377.832031 0)"/>
      <use xlink:href="#ArialMT-41" transform="translate(468.466797 0)"/>
      <use xlink:href="#ArialMT-43" transform="translate(535.166016 0)"/>
      <use xlink:href="#ArialMT-43" transform="translate(607.382812 0)"/>
      <use xlink:href="#ArialMT-4d" transform="translate(679.599609 0)"/>
     </g>
    </g>
    <g id="line2d_21">
     <path d="M 267.787895 46.399771 
L 274.787895 46.399771 
L 281.787895 46.399771 
" style="fill: none; stroke: #55a868; stroke-linecap: round"/>
    </g>
    <g id="text_23">
     <!-- ACCESS-ESM1-5 -->
     <g style="fill: #262626" transform="translate(287.387895 48.849771) scale(0.07 -0.07)">
      <use xlink:href="#ArialMT-41"/>
      <use xlink:href="#ArialMT-43" transform="translate(66.699219 0)"/>
      <use xlink:href="#ArialMT-43" transform="translate(138.916016 0)"/>
      <use xlink:href="#ArialMT-45" transform="translate(211.132812 0)"/>
      <use xlink:href="#ArialMT-53" transform="translate(277.832031 0)"/>
      <use xlink:href="#ArialMT-53" transform="translate(344.53125 0)"/>
      <use xlink:href="#ArialMT-2d" transform="translate(411.230469 0)"/>
      <use xlink:href="#ArialMT-45" transform="translate(444.53125 0)"/>
      <use xlink:href="#ArialMT-53" transform="translate(511.230469 0)"/>
      <use xlink:href="#ArialMT-4d" transform="translate(577.929688 0)"/>
      <use xlink:href="#ArialMT-31" transform="translate(661.230469 0)"/>
      <use xlink:href="#ArialMT-2d" transform="translate(716.845703 0)"/>
      <use xlink:href="#ArialMT-35" transform="translate(750.146484 0)"/>
     </g>
    </g>
    <g id="line2d_22">
     <path d="M 267.787895 56.30149 
L 274.787895 56.30149 
L 281.787895 56.30149 
" style="fill: none; stroke: #c44e52; stroke-linecap: round"/>
    </g>
    <g id="text_24">
     <!-- MIROC6 -->
     <g style="fill: #262626" transform="translate(287.387895 58.75149) scale(0.07 -0.07)">
      <defs>
       <path id="ArialMT-49" d="M 597 0 
L 597 4581 
L 1203 4581 
L 1203 0 
L 597 0 
z
" transform="scale(0.015625)"/>
       <path id="ArialMT-4f" d="M 309 2231 
Q 309 3372 921 4017 
Q 1534 4663 2503 4663 
Q 3138 4663 3647 4359 
Q 4156 4056 4423 3514 
Q 4691 2972 4691 2284 
Q 4691 1588 4409 1038 
Q 4128 488 3612 205 
Q 3097 -78 2500 -78 
Q 1853 -78 1343 234 
Q 834 547 571 1087 
Q 309 1628 309 2231 
z
M 934 2222 
Q 934 1394 1379 917 
Q 1825 441 2497 441 
Q 3181 441 3623 922 
Q 4066 1403 4066 2288 
Q 4066 2847 3877 3264 
Q 3688 3681 3323 3911 
Q 2959 4141 2506 4141 
Q 1863 4141 1398 3698 
Q 934 3256 934 2222 
z
" transform="scale(0.015625)"/>
      </defs>
      <use xlink:href="#ArialMT-4d"/>
      <use xlink:href="#ArialMT-49" transform="translate(83.300781 0)"/>
      <use xlink:href="#ArialMT-52" transform="translate(111.083984 0)"/>
      <use xlink:href="#ArialMT-4f" transform="translate(183.300781 0)"/>
      <use xlink:href="#ArialMT-43" transform="translate(261.083984 0)"/>
      <use xlink:href="#ArialMT-36" transform="translate(333.300781 0)"/>
     </g>
    </g>
    <g id="line2d_23">
     <path d="M 267.787895 66.203209 
L 274.787895 66.203209 
L 281.787895 66.203209 
" style="fill: none; stroke: #8172b3; stroke-linecap: round"/>
    </g>
    <g id="text_25">
     <!-- MPI-ESM1-2-LR -->
     <g style="fill: #262626" transform="translate(287.387895 68.653209) scale(0.07 -0.07)">
      <defs>
       <path id="ArialMT-50" d="M 494 0 
L 494 4581 
L 2222 4581 
Q 2678 4581 2919 4538 
Q 3256 4481 3484 4323 
Q 3713 4166 3852 3881 
Q 3991 3597 3991 3256 
Q 3991 2672 3619 2267 
Q 3247 1863 2275 1863 
L 1100 1863 
L 1100 0 
L 494 0 
z
M 1100 2403 
L 2284 2403 
Q 2872 2403 3119 2622 
Q 3366 2841 3366 3238 
Q 3366 3525 3220 3729 
Q 3075 3934 2838 4000 
Q 2684 4041 2272 4041 
L 1100 4041 
L 1100 2403 
z
" transform="scale(0.015625)"/>
       <path id="ArialMT-4c" d="M 469 0 
L 469 4581 
L 1075 4581 
L 1075 541 
L 3331 541 
L 3331 0 
L 469 0 
z
" transform="scale(0.015625)"/>
      </defs>
      <use xlink:href="#ArialMT-4d"/>
      <use xlink:href="#ArialMT-50" transform="translate(83.300781 0)"/>
      <use xlink:href="#ArialMT-49" transform="translate(150 0)"/>
      <use xlink:href="#ArialMT-2d" transform="translate(177.783203 0)"/>
      <use xlink:href="#ArialMT-45" transform="translate(211.083984 0)"/>
      <use xlink:href="#ArialMT-53" transform="translate(277.783203 0)"/>
      <use xlink:href="#ArialMT-4d" transform="translate(344.482422 0)"/>
      <use xlink:href="#ArialMT-31" transform="translate(427.783203 0)"/>
      <use xlink:href="#ArialMT-2d" transform="translate(483.398438 0)"/>
      <use xlink:href="#ArialMT-32" transform="translate(516.699219 0)"/>
      <use xlink:href="#ArialMT-2d" transform="translate(572.314453 0)"/>
      <use xlink:href="#ArialMT-4c" transform="translate(605.615234 0)"/>
      <use xlink:href="#ArialMT-52" transform="translate(661.230469 0)"/>
     </g>
    </g>
    <g id="line2d_24">
     <path d="M 267.787895 76.104927 
L 274.787895 76.104927 
L 281.787895 76.104927 
" style="fill: none; stroke: #937860; stroke-linecap: round"/>
    </g>
    <g id="text_26">
     <!-- IPSL-CM6A-LR -->
     <g style="fill: #262626" transform="translate(287.387895 78.554927) scale(0.07 -0.07)">
      <use xlink:href="#ArialMT-49"/>
      <use xlink:href="#ArialMT-50" transform="translate(27.783203 0)"/>
      <use xlink:href="#ArialMT-53" transform="translate(94.482422 0)"/>
      <use xlink:href="#ArialMT-4c" transform="translate(161.181641 0)"/>
      <use xlink:href="#ArialMT-2d" transform="translate(216.796875 0)"/>
      <use xlink:href="#ArialMT-43" transform="translate(250.097656 0)"/>
      <use xlink:href="#ArialMT-4d" transform="translate(322.314453 0)"/>
      <use xlink:href="#ArialMT-36" transform="translate(405.615234 0)"/>
      <use xlink:href="#ArialMT-41" transform="translate(461.230469 0)"/>
      <use xlink:href="#ArialMT-2d" transform="translate(527.929688 0)"/>
      <use xlink:href="#ArialMT-4c" transform="translate(561.230469 0)"/>
      <use xlink:href="#ArialMT-52" transform="translate(616.845703 0)"/>
     </g>
    </g>
    <g id="line2d_25">
     <path d="M 267.787895 86.006646 
L 274.787895 86.006646 
L 281.787895 86.006646 
" style="fill: none; stroke: #da8bc3; stroke-linecap: round"/>
    </g>
    <g id="text_27">
     <!-- GISS-E2-2-G -->
     <g style="fill: #262626" transform="translate(287.387895 88.456646) scale(0.07 -0.07)">
      <defs>
       <path id="ArialMT-47" d="M 2638 1797 
L 2638 2334 
L 4578 2338 
L 4578 638 
Q 4131 281 3656 101 
Q 3181 -78 2681 -78 
Q 2006 -78 1454 211 
Q 903 500 622 1047 
Q 341 1594 341 2269 
Q 341 2938 620 3517 
Q 900 4097 1425 4378 
Q 1950 4659 2634 4659 
Q 3131 4659 3532 4498 
Q 3934 4338 4162 4050 
Q 4391 3763 4509 3300 
L 3963 3150 
Q 3859 3500 3706 3700 
Q 3553 3900 3268 4020 
Q 2984 4141 2638 4141 
Q 2222 4141 1919 4014 
Q 1616 3888 1430 3681 
Q 1244 3475 1141 3228 
Q 966 2803 966 2306 
Q 966 1694 1177 1281 
Q 1388 869 1791 669 
Q 2194 469 2647 469 
Q 3041 469 3416 620 
Q 3791 772 3984 944 
L 3984 1797 
L 2638 1797 
z
" transform="scale(0.015625)"/>
      </defs>
      <use xlink:href="#ArialMT-47"/>
      <use xlink:href="#ArialMT-49" transform="translate(77.783203 0)"/>
      <use xlink:href="#ArialMT-53" transform="translate(105.566406 0)"/>
      <use xlink:href="#ArialMT-53" transform="translate(172.265625 0)"/>
      <use xlink:href="#ArialMT-2d" transform="translate(238.964844 0)"/>
      <use xlink:href="#ArialMT-45" transform="translate(272.265625 0)"/>
      <use xlink:href="#ArialMT-32" transform="translate(338.964844 0)"/>
      <use xlink:href="#ArialMT-2d" transform="translate(394.580078 0)"/>
      <use xlink:href="#ArialMT-32" transform="translate(427.880859 0)"/>
      <use xlink:href="#ArialMT-2d" transform="translate(483.496094 0)"/>
      <use xlink:href="#ArialMT-47" transform="translate(516.796875 0)"/>
     </g>
    </g>
    <g id="line2d_26">
     <path d="M 267.787895 95.908365 
L 274.787895 95.908365 
L 281.787895 95.908365 
" style="fill: none; stroke: #1a1a1a; stroke-width: 2; stroke-linecap: round"/>
    </g>
    <g id="text_28">
     <!-- mean -->
     <g style="fill: #262626" transform="translate(287.387895 98.358365) scale(0.07 -0.07)">
      <use xlink:href="#ArialMT-6d"/>
      <use xlink:href="#ArialMT-65" transform="translate(83.300781 0)"/>
      <use xlink:href="#ArialMT-61" transform="translate(138.916016 0)"/>
      <use xlink:href="#ArialMT-6e" transform="translate(194.53125 0)"/>
     </g>
    </g>
   </g>
  </g>
 </g>
 <defs>
  <clipPath id="pef1d24729a">
   <rect x="39.708678" y="17.735865" width="208.920459" height="160.729676"/>
  </clipPath>
  <clipPath id="pa9784e4c57">
   <rect x="261.487895" y="17.735865" width="208.920459" height="160.729676"/>
  </clipPath>
 </defs>
</svg>
