<?xml version="1.0" encoding="utf-8" standalone="no"?>
<!DOCTYPE svg PUBLIC "-//W3C//DTD SVG 1.1//EN"
  "http://www.w3.org/Graphics/SVG/1.1/DTD/svg11.dtd">
<svg xmlns:xlink="http://www.w3.org/1999/xlink" width="324pt" height="216pt" viewBox="0 0 324 216" xmlns="http://www.w3.org/2000/svg" version="1.1">
 <metadata>
  <rdf:RDF xmlns:dc="http://purl.org/dc/elements/1.1/" xmlns:cc="http://creativecommons.org/ns#" xmlns:rdf="http://www.w3.org/1999/02/22-rdf-syntax-ns#">
   <cc:Work>
    <dc:type rdf:resource="http://purl.org/dc/dcmitype/StillImage"/>
    <dc:date>2025-06-29T19:50:47.402392</dc:date>
    <dc:format>image/svg+xml</dc:format>
    <dc:creator>
     <cc:Agent>
      <dc:title>Matplotlib v3.10.3, https://matplotlib.org/</dc:title>
     </cc:Agent>
    </dc:creator>
   </cc:Work>
  </rdf:RDF>
 </metadata>
 <defs>
  <style type="text/css">*{stroke-linejoin: round; stroke-linecap: butt}</style>
 </defs>
 <g id="figure_1">
  <g id="patch_1">
   <path d="M 0 216 
L 324 216 
L 324 0 
L 0 0 
z
" style="fill: #ffffff"/>
  </g>
  <g id="axes_1">
   <g id="patch_2">
    <path d="M 34.017271 178.039916 
L 199.038262 178.039916 
L 199.038262 6.507291 
L 34.017271 6.507291 
z
" style="fill: #ffffff"/>
   </g>
   <g id="matplotlib.axis_1">
    <g id="xtick_1">
     <g id="text_1">
      <!-- 12 -->
      <g style="fill: #262626" transform="translate(27.90024 195.41351) scale(0.11 -0.11)">
       <defs>
        <path id="ArialMT-31" d="M 2384 0 
L 1822 0 
L 1822 3584 
Q 1619 3391 1289 3197 
Q 959 3003 697 2906 
L 697 3450 
Q 1169 3672 1522 3987 
Q 1875 4303 2022 4600 
L 2384 4600 
L 2384 0 
z
" transform="scale(0.015625)"/>
        <path id="ArialMT-32" d="M 3222 541 
L 3222 0 
L 194 0 
Q 188 203 259 391 
Q 375 700 629 1000 
Q 884 1300 1366 1694 
Q 2113 2306 2375 2664 
Q 2638 3022 2638 3341 
Q 2638 3675 2398 3904 
Q 2159 4134 1775 4134 
Q 1369 4134 1125 3890 
Q 881 3647 878 3216 
L 300 3275 
Q 359 3922 746 4261 
Q 1134 4600 1788 4600 
Q 2447 4600 2831 4234 
Q 3216 3869 3216 3328 
Q 3216 3053 3103 2787 
Q 2991 2522 2730 2228 
Q 2469 1934 1863 1422 
Q 1356 997 1212 845 
Q 1069 694 975 541 
L 3222 541 
z
" transform="scale(0.015625)"/>
       </defs>
       <use xlink:href="#ArialMT-31"/>
       <use xlink:href="#ArialMT-32" transform="translate(55.615234 0)"/>
      </g>
     </g>
    </g>
    <g id="xtick_2">
     <g id="text_2">
      <!-- 15 -->
      <g style="fill: #262626" transform="translate(98.97585 195.41351) scale(0.11 -0.11)">
       <defs>
        <path id="ArialMT-35" d="M 266 1200 
L 856 1250 
Q 922 819 1161 601 
Q 1400 384 1738 384 
Q 2144 384 2425 690 
Q 2706 997 2706 1503 
Q 2706 1984 2436 2262 
Q 2166 2541 1728 2541 
Q 1456 2541 1237 2417 
Q 1019 2294 894 2097 
L 366 2166 
L 809 4519 
L 3088 4519 
L 3088 3981 
L 1259 3981 
L 1013 2750 
Q 1425 3038 1878 3038 
Q 2478 3038 2890 2622 
Q 3303 2206 3303 1553 
Q 3303 931 2941 478 
Q 2500 -78 1738 -78 
Q 1113 -78 717 272 
Q 322 622 266 1200 
z
" transform="scale(0.015625)"/>
       </defs>
       <use xlink:href="#ArialMT-31"/>
       <use xlink:href="#ArialMT-35" transform="translate(55.615234 0)"/>
      </g>
     </g>
    </g>
    <g id="xtick_3">
     <g id="text_3">
      <!-- 18 -->
      <g style="fill: #262626" transform="translate(170.05146 195.41351) scale(0.11 -0.11)">
       <defs>
        <path id="ArialMT-38" d="M 1131 2484 
Q 781 2613 612 2850 
Q 444 3088 444 3419 
Q 444 3919 803 4259 
Q 1163 4600 1759 4600 
Q 2359 4600 2725 4251 
Q 3091 3903 3091 3403 
Q 3091 3084 2923 2848 
Q 2756 2613 2416 2484 
Q 2838 2347 3058 2040 
Q 3278 1734 3278 1309 
Q 3278 722 2862 322 
Q 2447 -78 1769 -78 
Q 1091 -78 675 323 
Q 259 725 259 1325 
Q 259 1772 486 2073 
Q 713 2375 1131 2484 
z
M 1019 3438 
Q 1019 3113 1228 2906 
Q 1438 2700 1772 2700 
Q 2097 2700 2305 2904 
Q 2513 3109 2513 3406 
Q 2513 3716 2298 3927 
Q 2084 4138 1766 4138 
Q 1444 4138 1231 3931 
Q 1019 3725 1019 3438 
z
M 838 1322 
Q 838 1081 952 856 
Q 1066 631 1291 507 
Q 1516 384 1775 384 
Q 2178 384 2440 643 
Q 2703 903 2703 1303 
Q 2703 1709 2433 1975 
Q 2163 2241 1756 2241 
Q 1359 2241 1098 1978 
Q 838 1716 838 1322 
z
" transform="scale(0.015625)"/>
       </defs>
       <use xlink:href="#ArialMT-31"/>
       <use xlink:href="#ArialMT-38" transform="translate(55.615234 0)"/>
      </g>
     </g>
    </g>
    <g id="text_4">
     <!-- SST$_{1850}$ ($^{\circ}$C) -->
     <g style="fill: #262626" transform="translate(81.067767 210.35976) scale(0.12 -0.12)">
      <defs>
       <path id="ArialMT-53" d="M 288 1472 
L 859 1522 
Q 900 1178 1048 958 
Q 1197 738 1509 602 
Q 1822 466 2213 466 
Q 2559 466 2825 569 
Q 3091 672 3220 851 
Q 3350 1031 3350 1244 
Q 3350 1459 3225 1620 
Q 3100 1781 2813 1891 
Q 2628 1963 1997 2114 
Q 1366 2266 1113 2400 
Q 784 2572 623 2826 
Q 463 3081 463 3397 
Q 463 3744 659 4045 
Q 856 4347 1234 4503 
Q 1613 4659 2075 4659 
Q 2584 4659 2973 4495 
Q 3363 4331 3572 4012 
Q 3781 3694 3797 3291 
L 3216 3247 
Q 3169 3681 2898 3903 
Q 2628 4125 2100 4125 
Q 1550 4125 1298 3923 
Q 1047 3722 1047 3438 
Q 1047 3191 1225 3031 
Q 1400 2872 2139 2705 
Q 2878 2538 3153 2413 
Q 3553 2228 3743 1945 
Q 3934 1663 3934 1294 
Q 3934 928 3725 604 
Q 3516 281 3123 101 
Q 2731 -78 2241 -78 
Q 1619 -78 1198 103 
Q 778 284 539 648 
Q 300 1013 288 1472 
z
" transform="scale(0.015625)"/>
       <path id="ArialMT-54" d="M 1659 0 
L 1659 4041 
L 150 4041 
L 150 4581 
L 3781 4581 
L 3781 4041 
L 2266 4041 
L 2266 0 
L 1659 0 
z
" transform="scale(0.015625)"/>
       <path id="DejaVuSans-31" d="M 794 531 
L 1825 531 
L 1825 4091 
L 703 3866 
L 703 4441 
L 1819 4666 
L 2450 4666 
L 2450 531 
L 3481 531 
L 3481 0 
L 794 0 
L 794 531 
z
" transform="scale(0.015625)"/>
       <path id="DejaVuSans-38" d="M 2034 2216 
Q 1584 2216 1326 1975 
Q 1069 1734 1069 1313 
Q 1069 891 1326 650 
Q 1584 409 2034 409 
Q 2484 409 2743 651 
Q 3003 894 3003 1313 
Q 3003 1734 2745 1975 
Q 2488 2216 2034 2216 
z
M 1403 2484 
Q 997 2584 770 2862 
Q 544 3141 544 3541 
Q 544 4100 942 4425 
Q 1341 4750 2034 4750 
Q 2731 4750 3128 4425 
Q 3525 4100 3525 3541 
Q 3525 3141 3298 2862 
Q 3072 2584 2669 2484 
Q 3125 2378 3379 2068 
Q 3634 1759 3634 1313 
Q 3634 634 3220 271 
Q 2806 -91 2034 -91 
Q 1263 -91 848 271 
Q 434 634 434 1313 
Q 434 1759 690 2068 
Q 947 2378 1403 2484 
z
M 1172 3481 
Q 1172 3119 1398 2916 
Q 1625 2713 2034 2713 
Q 2441 2713 2670 2916 
Q 2900 3119 2900 3481 
Q 2900 3844 2670 4047 
Q 2441 4250 2034 4250 
Q 1625 4250 1398 4047 
Q 1172 3844 1172 3481 
z
" transform="scale(0.015625)"/>
       <path id="DejaVuSans-35" d="M 691 4666 
L 3169 4666 
L 3169 4134 
L 1269 4134 
L 1269 2991 
Q 1406 3038 1543 3061 
Q 1681 3084 1819 3084 
Q 2600 3084 3056 2656 
Q 3513 2228 3513 1497 
Q 3513 744 3044 326 
Q 2575 -91 1722 -91 
Q 1428 -91 1123 -41 
Q 819 9 494 109 
L 494 744 
Q 775 591 1075 516 
Q 1375 441 1709 441 
Q 2250 441 2565 725 
Q 2881 1009 2881 1497 
Q 2881 1984 2565 2268 
Q 2250 2553 1709 2553 
Q 1456 2553 1204 2497 
Q 953 2441 691 2322 
L 691 4666 
z
" transform="scale(0.015625)"/>
       <path id="DejaVuSans-30" d="M 2034 4250 
Q 1547 4250 1301 3770 
Q 1056 3291 1056 2328 
Q 1056 1369 1301 889 
Q 1547 409 2034 409 
Q 2525 409 2770 889 
Q 3016 1369 3016 2328 
Q 3016 3291 2770 3770 
Q 2525 4250 2034 4250 
z
M 2034 4750 
Q 2819 4750 3233 4129 
Q 3647 3509 3647 2328 
Q 3647 1150 3233 529 
Q 2819 -91 2034 -91 
Q 1250 -91 836 529 
Q 422 1150 422 2328 
Q 422 3509 836 4129 
Q 1250 4750 2034 4750 
z
" transform="scale(0.015625)"/>
       <path id="ArialMT-20" transform="scale(0.015625)"/>
       <path id="ArialMT-28" d="M 1497 -1347 
Q 1031 -759 709 28 
Q 388 816 388 1659 
Q 388 2403 628 3084 
Q 909 3875 1497 4659 
L 1900 4659 
Q 1522 4009 1400 3731 
Q 1209 3300 1100 2831 
Q 966 2247 966 1656 
Q 966 153 1900 -1347 
L 1497 -1347 
z
" transform="scale(0.015625)"/>
       <path id="DejaVuSans-2218" d="M 2003 2603 
Q 1753 2603 1581 2429 
Q 1409 2256 1409 2006 
Q 1409 1759 1581 1589 
Q 1753 1419 2003 1419 
Q 2253 1419 2425 1589 
Q 2597 1759 2597 2006 
Q 2597 2253 2423 2428 
Q 2250 2603 2003 2603 
z
M 2003 3006 
Q 2203 3006 2387 2929 
Q 2572 2853 2706 2709 
Q 2850 2569 2922 2390 
Q 2994 2212 2994 2006 
Q 2994 1594 2705 1308 
Q 2416 1022 1997 1022 
Q 1575 1022 1294 1303 
Q 1013 1584 1013 2006 
Q 1013 2425 1300 2715 
Q 1588 3006 2003 3006 
z
" transform="scale(0.015625)"/>
       <path id="ArialMT-43" d="M 3763 1606 
L 4369 1453 
Q 4178 706 3683 314 
Q 3188 -78 2472 -78 
Q 1731 -78 1267 223 
Q 803 525 561 1097 
Q 319 1669 319 2325 
Q 319 3041 592 3573 
Q 866 4106 1370 4382 
Q 1875 4659 2481 4659 
Q 3169 4659 3637 4309 
Q 4106 3959 4291 3325 
L 3694 3184 
Q 3534 3684 3231 3912 
Q 2928 4141 2469 4141 
Q 1941 4141 1586 3887 
Q 1231 3634 1087 3207 
Q 944 2781 944 2328 
Q 944 1744 1114 1308 
Q 1284 872 1643 656 
Q 2003 441 2422 441 
Q 2931 441 3284 734 
Q 3638 1028 3763 1606 
z
" transform="scale(0.015625)"/>
       <path id="ArialMT-29" d="M 791 -1347 
L 388 -1347 
Q 1322 153 1322 1656 
Q 1322 2244 1188 2822 
Q 1081 3291 891 3722 
Q 769 4003 388 4659 
L 791 4659 
Q 1378 3875 1659 3084 
Q 1900 2403 1900 1659 
Q 1900 816 1576 28 
Q 1253 -759 791 -1347 
z
" transform="scale(0.015625)"/>
      </defs>
      <use xlink:href="#ArialMT-53" transform="translate(0 0.203125)"/>
      <use xlink:href="#ArialMT-53" transform="translate(66.699219 0.203125)"/>
      <use xlink:href="#ArialMT-54" transform="translate(133.398438 0.203125)"/>
      <use xlink:href="#DejaVuSans-31" transform="translate(195.439453 -16.203125) scale(0.7)"/>
      <use xlink:href="#DejaVuSans-38" transform="translate(239.975586 -16.203125) scale(0.7)"/>
      <use xlink:href="#DejaVuSans-35" transform="translate(284.511719 -16.203125) scale(0.7)"/>
      <use xlink:href="#DejaVuSans-30" transform="translate(329.047852 -16.203125) scale(0.7)"/>
      <use xlink:href="#ArialMT-20" transform="translate(376.318359 0.203125)"/>
      <use xlink:href="#ArialMT-28" transform="translate(404.101562 0.203125)"/>
      <use xlink:href="#DejaVuSans-2218" transform="translate(438.359375 38.484375) scale(0.7)"/>
      <use xlink:href="#ArialMT-43" transform="translate(484.912109 0.203125)"/>
      <use xlink:href="#ArialMT-29" transform="translate(557.128906 0.203125)"/>
     </g>
    </g>
   </g>
   <g id="matplotlib.axis_2">
    <g id="ytick_1">
     <g id="text_5">
      <!-- 2 -->
      <g style="fill: #262626" transform="translate(18.40024 164.079048) scale(0.11 -0.11)">
       <use xlink:href="#ArialMT-32"/>
      </g>
     </g>
    </g>
    <g id="ytick_2">
     <g id="text_6">
      <!-- 4 -->
      <g style="fill: #262626" transform="translate(18.40024 87.476457) scale(0.11 -0.11)">
       <defs>
        <path id="ArialMT-34" d="M 2069 0 
L 2069 1097 
L 81 1097 
L 81 1613 
L 2172 4581 
L 2631 4581 
L 2631 1613 
L 3250 1613 
L 3250 1097 
L 2631 1097 
L 2631 0 
L 2069 0 
z
M 2069 1613 
L 2069 3678 
L 634 1613 
L 2069 1613 
z
" transform="scale(0.015625)"/>
       </defs>
       <use xlink:href="#ArialMT-34"/>
      </g>
     </g>
    </g>
    <g id="ytick_3">
     <g id="text_7">
      <!-- 6 -->
      <g style="fill: #262626" transform="translate(18.40024 10.873866) scale(0.11 -0.11)">
       <defs>
        <path id="ArialMT-36" d="M 3184 3459 
L 2625 3416 
Q 2550 3747 2413 3897 
Q 2184 4138 1850 4138 
Q 1581 4138 1378 3988 
Q 1113 3794 959 3422 
Q 806 3050 800 2363 
Q 1003 2672 1297 2822 
Q 1591 2972 1913 2972 
Q 2475 2972 2870 2558 
Q 3266 2144 3266 1488 
Q 3266 1056 3080 686 
Q 2894 316 2569 119 
Q 2244 -78 1831 -78 
Q 1128 -78 684 439 
Q 241 956 241 2144 
Q 241 3472 731 4075 
Q 1159 4600 1884 4600 
Q 2425 4600 2770 4297 
Q 3116 3994 3184 3459 
z
M 888 1484 
Q 888 1194 1011 928 
Q 1134 663 1356 523 
Q 1578 384 1822 384 
Q 2178 384 2434 671 
Q 2691 959 2691 1453 
Q 2691 1928 2437 2201 
Q 2184 2475 1800 2475 
Q 1419 2475 1153 2201 
Q 888 1928 888 1484 
z
" transform="scale(0.015625)"/>
       </defs>
       <use xlink:href="#ArialMT-36"/>
      </g>
     </g>
    </g>
    <g id="text_8">
     <!-- $\Delta$ SST ($^{\circ}$C) -->
     <g style="fill: #262626" transform="translate(11.76024 122.573604) rotate(-90) scale(0.12 -0.12)">
      <defs>
       <path id="DejaVuSans-394" d="M 2188 4044 
L 906 525 
L 3472 525 
L 2188 4044 
z
M 50 0 
L 1831 4666 
L 2547 4666 
L 4325 0 
L 50 0 
z
" transform="scale(0.015625)"/>
      </defs>
      <use xlink:href="#DejaVuSans-394" transform="translate(0 0.09375)"/>
      <use xlink:href="#ArialMT-20" transform="translate(68.408203 0.09375)"/>
      <use xlink:href="#ArialMT-53" transform="translate(96.191406 0.09375)"/>
      <use xlink:href="#ArialMT-53" transform="translate(162.890625 0.09375)"/>
      <use xlink:href="#ArialMT-54" transform="translate(229.589844 0.09375)"/>
      <use xlink:href="#ArialMT-20" transform="translate(290.673828 0.09375)"/>
      <use xlink:href="#ArialMT-28" transform="translate(318.457031 0.09375)"/>
      <use xlink:href="#DejaVuSans-2218" transform="translate(352.714844 38.375) scale(0.7)"/>
      <use xlink:href="#ArialMT-43" transform="translate(399.267578 0.09375)"/>
      <use xlink:href="#ArialMT-29" transform="translate(471.484375 0.09375)"/>
     </g>
    </g>
   </g>
   <g id="PathCollection_1">
    <defs>
     <path id="m68560dc156" d="M 0 -5 
L -1.12257 -1.545085 
L -4.755283 -1.545085 
L -1.816356 0.59017 
L -2.938926 4.045085 
L -0 1.90983 
L 2.938926 4.045085 
L 1.816356 0.59017 
L 4.755283 -1.545085 
L 1.12257 -1.545085 
z
" style="stroke: #4c72b0"/>
    </defs>
    <g clip-path="url(#p472ab70e4b)">
     <use xlink:href="#m68560dc156" x="191.538735" y="170.242979" style="fill: #4c72b0; stroke: #4c72b0"/>
    </g>
   </g>
   <g id="PathCollection_2">
    <defs>
     <path id="m2272f792ba" d="M -5 0 
L 5 0 
M 0 5 
L 0 -5 
" style="stroke: #dd8452; stroke-width: 1.5"/>
    </defs>
    <g clip-path="url(#p472ab70e4b)">
     <use xlink:href="#m2272f792ba" x="189.037904" y="157.799558" style="fill: #dd8452; stroke: #dd8452; stroke-width: 1.5"/>
    </g>
   </g>
   <g id="PathCollection_3">
    <defs>
     <path id="m2bd4648bd1" d="M -5 5 
L 5 5 
L 5 -5 
L -5 -5 
z
" style="stroke: #55a868"/>
    </defs>
    <g clip-path="url(#p472ab70e4b)">
     <use xlink:href="#m2bd4648bd1" x="155.461332" y="94.148843" style="fill: #55a868; stroke: #55a868"/>
    </g>
   </g>
   <g id="PathCollection_4">
    <defs>
     <path id="m3b58d50b31" d="M -5 -0 
L 5 5 
L 5 -5 
z
" style="stroke: #c44e52"/>
    </defs>
    <g clip-path="url(#p472ab70e4b)">
     <use xlink:href="#m3b58d50b31" x="130.442904" y="133.206904" style="fill: #c44e52; stroke: #c44e52"/>
    </g>
   </g>
   <g id="PathCollection_5">
    <defs>
     <path id="m40a634a05d" d="M -0 5 
L 5 -5 
L -5 -5 
z
" style="stroke: #8172b3"/>
    </defs>
    <g clip-path="url(#p472ab70e4b)">
     <use xlink:href="#m40a634a05d" x="41.548187" y="65.038316" style="fill: #8172b3; stroke: #8172b3"/>
    </g>
   </g>
   <g id="PathCollection_6">
    <defs>
     <path id="m8c5b7e18d6" d="M 0 5 
C 1.326016 5 2.597899 4.473168 3.535534 3.535534 
C 4.473168 2.597899 5 1.326016 5 0 
C 5 -1.326016 4.473168 -2.597899 3.535534 -3.535534 
C 2.597899 -4.473168 1.326016 -5 0 -5 
C -1.326016 -5 -2.597899 -4.473168 -3.535534 -3.535534 
C -4.473168 -2.597899 -5 -1.326016 -5 0 
C -5 1.326016 -4.473168 2.597899 -3.535534 3.535534 
C -2.597899 4.473168 -1.326016 5 0 5 
z
" style="stroke: #937860"/>
    </defs>
    <g clip-path="url(#p472ab70e4b)">
     <use xlink:href="#m8c5b7e18d6" x="112.889981" y="14.304229" style="fill: #937860; stroke: #937860"/>
    </g>
   </g>
   <g id="PathCollection_7">
    <defs>
     <path id="mecc9434293" d="M -1.666667 5 
L 1.666667 5 
L 1.666667 1.666667 
L 5 1.666667 
L 5 -1.666667 
L 1.666667 -1.666667 
L 1.666667 -5 
L -1.666667 -5 
L -1.666667 -1.666667 
L -5 -1.666667 
L -5 1.666667 
L -1.666667 1.666667 
z
" style="stroke: #da8bc3"/>
    </defs>
    <g clip-path="url(#p472ab70e4b)">
     <use xlink:href="#mecc9434293" x="123.466385" y="163.107473" style="fill: #da8bc3; stroke: #da8bc3"/>
    </g>
   </g>
   <g id="patch_3">
    <path d="M 34.017271 178.039916 
L 34.017271 6.507291 
" style="fill: none; stroke: #ffffff; stroke-width: 1.25; stroke-linejoin: miter; stroke-linecap: square"/>
   </g>
   <g id="patch_4">
    <path d="M 199.038262 178.039916 
L 199.038262 6.507291 
" style="fill: none; stroke: #ffffff; stroke-width: 1.25; stroke-linejoin: miter; stroke-linecap: square"/>
   </g>
   <g id="patch_5">
    <path d="M 34.017271 178.039916 
L 199.038262 178.039916 
" style="fill: none; stroke: #ffffff; stroke-width: 1.25; stroke-linejoin: miter; stroke-linecap: square"/>
   </g>
   <g id="patch_6">
    <path d="M 34.017271 6.507291 
L 199.038262 6.507291 
" style="fill: none; stroke: #ffffff; stroke-width: 1.25; stroke-linejoin: miter; stroke-linecap: square"/>
   </g>
   <g id="legend_1">
    <g id="patch_7">
     <path d="M 233.64246 143.733391 
L 323.70371 143.733391 
Q 325.30371 143.733391 325.30371 142.133391 
L 325.30371 63.719641 
Q 325.30371 62.119641 323.70371 62.119641 
L 233.64246 62.119641 
Q 232.04246 62.119641 232.04246 63.719641 
L 232.04246 142.133391 
Q 232.04246 143.733391 233.64246 143.733391 
z
" style="fill: #ffffff; opacity: 0.8; stroke: #cccccc; stroke-linejoin: miter"/>
    </g>
    <g id="PathCollection_8">
     <g>
      <use xlink:href="#m68560dc156" x="243.24246" y="68.945891" style="fill: #4c72b0; stroke: #4c72b0"/>
     </g>
    </g>
    <g id="text_9">
     <!-- CESM2 -->
     <g style="fill: #262626" transform="translate(257.64246 71.045891) scale(0.08 -0.08)">
      <defs>
       <path id="ArialMT-45" d="M 506 0 
L 506 4581 
L 3819 4581 
L 3819 4041 
L 1113 4041 
L 1113 2638 
L 3647 2638 
L 3647 2100 
L 1113 2100 
L 1113 541 
L 3925 541 
L 3925 0 
L 506 0 
z
" transform="scale(0.015625)"/>
       <path id="ArialMT-4d" d="M 475 0 
L 475 4581 
L 1388 4581 
L 2472 1338 
Q 2622 884 2691 659 
Q 2769 909 2934 1394 
L 4031 4581 
L 4847 4581 
L 4847 0 
L 4263 0 
L 4263 3834 
L 2931 0 
L 2384 0 
L 1059 3900 
L 1059 0 
L 475 0 
z
" transform="scale(0.015625)"/>
      </defs>
      <use xlink:href="#ArialMT-43"/>
      <use xlink:href="#ArialMT-45" transform="translate(72.216797 0)"/>
      <use xlink:href="#ArialMT-53" transform="translate(138.916016 0)"/>
      <use xlink:href="#ArialMT-4d" transform="translate(205.615234 0)"/>
      <use xlink:href="#ArialMT-32" transform="translate(288.916016 0)"/>
     </g>
    </g>
    <g id="PathCollection_9">
     <g>
      <use xlink:href="#m2272f792ba" x="243.24246" y="80.262141" style="fill: #dd8452; stroke: #dd8452; stroke-width: 1.5"/>
     </g>
    </g>
    <g id="text_10">
     <!-- CESM2-WACCM -->
     <g style="fill: #262626" transform="translate(257.64246 82.362141) scale(0.08 -0.08)">
      <defs>
       <path id="ArialMT-2d" d="M 203 1375 
L 203 1941 
L 1931 1941 
L 1931 1375 
L 203 1375 
z
" transform="scale(0.015625)"/>
       <path id="ArialMT-57" d="M 1294 0 
L 78 4581 
L 700 4581 
L 1397 1578 
Q 1509 1106 1591 641 
Q 1766 1375 1797 1488 
L 2669 4581 
L 3400 4581 
L 4056 2263 
Q 4303 1400 4413 641 
Q 4500 1075 4641 1638 
L 5359 4581 
L 5969 4581 
L 4713 0 
L 4128 0 
L 3163 3491 
Q 3041 3928 3019 4028 
Q 2947 3713 2884 3491 
L 1913 0 
L 1294 0 
z
" transform="scale(0.015625)"/>
       <path id="ArialMT-41" d="M -9 0 
L 1750 4581 
L 2403 4581 
L 4278 0 
L 3588 0 
L 3053 1388 
L 1138 1388 
L 634 0 
L -9 0 
z
M 1313 1881 
L 2866 1881 
L 2388 3150 
Q 2169 3728 2063 4100 
Q 1975 3659 1816 3225 
L 1313 1881 
z
" transform="scale(0.015625)"/>
      </defs>
      <use xlink:href="#ArialMT-43"/>
      <use xlink:href="#ArialMT-45" transform="translate(72.216797 0)"/>
      <use xlink:href="#ArialMT-53" transform="translate(138.916016 0)"/>
      <use xlink:href="#ArialMT-4d" transform="translate(205.615234 0)"/>
      <use xlink:href="#ArialMT-32" transform="translate(288.916016 0)"/>
      <use xlink:href="#ArialMT-2d" transform="translate(344.53125 0)"/>
      <use xlink:href="#ArialMT-57" transform="translate(377.832031 0)"/>
      <use xlink:href="#ArialMT-41" transform="translate(468.466797 0)"/>
      <use xlink:href="#ArialMT-43" transform="translate(535.166016 0)"/>
      <use xlink:href="#ArialMT-43" transform="translate(607.382812 0)"/>
      <use xlink:href="#ArialMT-4d" transform="translate(679.599609 0)"/>
     </g>
    </g>
    <g id="PathCollection_10">
     <g>
      <use xlink:href="#m2bd4648bd1" x="243.24246" y="91.578391" style="fill: #55a868; stroke: #55a868"/>
     </g>
    </g>
    <g id="text_11">
     <!-- ACCESS-ESM1-5 -->
     <g style="fill: #262626" transform="translate(257.64246 93.678391) scale(0.08 -0.08)">
      <use xlink:href="#ArialMT-41"/>
      <use xlink:href="#ArialMT-43" transform="translate(66.699219 0)"/>
      <use xlink:href="#ArialMT-43" transform="translate(138.916016 0)"/>
      <use xlink:href="#ArialMT-45" transform="translate(211.132812 0)"/>
      <use xlink:href="#ArialMT-53" transform="translate(277.832031 0)"/>
      <use xlink:href="#ArialMT-53" transform="translate(344.53125 0)"/>
      <use xlink:href="#ArialMT-2d" transform="translate(411.230469 0)"/>
      <use xlink:href="#ArialMT-45" transform="translate(444.53125 0)"/>
      <use xlink:href="#ArialMT-53" transform="translate(511.230469 0)"/>
      <use xlink:href="#ArialMT-4d" transform="translate(577.929688 0)"/>
      <use xlink:href="#ArialMT-31" transform="translate(661.230469 0)"/>
      <use xlink:href="#ArialMT-2d" transform="translate(716.845703 0)"/>
      <use xlink:href="#ArialMT-35" transform="translate(750.146484 0)"/>
     </g>
    </g>
    <g id="PathCollection_11">
     <g>
      <use xlink:href="#m3b58d50b31" x="243.24246" y="102.894641" style="fill: #c44e52; stroke: #c44e52"/>
     </g>
    </g>
    <g id="text_12">
     <!-- MIROC6 -->
     <g style="fill: #262626" transform="translate(257.64246 104.994641) scale(0.08 -0.08)">
      <defs>
       <path id="ArialMT-49" d="M 597 0 
L 597 4581 
L 1203 4581 
L 1203 0 
L 597 0 
z
" transform="scale(0.015625)"/>
       <path id="ArialMT-52" d="M 503 0 
L 503 4581 
L 2534 4581 
Q 3147 4581 3465 4457 
Q 3784 4334 3975 4021 
Q 4166 3709 4166 3331 
Q 4166 2844 3850 2509 
Q 3534 2175 2875 2084 
Q 3116 1969 3241 1856 
Q 3506 1613 3744 1247 
L 4541 0 
L 3778 0 
L 3172 953 
Q 2906 1366 2734 1584 
Q 2563 1803 2427 1890 
Q 2291 1978 2150 2013 
Q 2047 2034 1813 2034 
L 1109 2034 
L 1109 0 
L 503 0 
z
M 1109 2559 
L 2413 2559 
Q 2828 2559 3062 2645 
Q 3297 2731 3419 2920 
Q 3541 3109 3541 3331 
Q 3541 3656 3305 3865 
Q 3069 4075 2559 4075 
L 1109 4075 
L 1109 2559 
z
" transform="scale(0.015625)"/>
       <path id="ArialMT-4f" d="M 309 2231 
Q 309 3372 921 4017 
Q 1534 4663 2503 4663 
Q 3138 4663 3647 4359 
Q 4156 4056 4423 3514 
Q 4691 2972 4691 2284 
Q 4691 1588 4409 1038 
Q 4128 488 3612 205 
Q 3097 -78 2500 -78 
Q 1853 -78 1343 234 
Q 834 547 571 1087 
Q 309 1628 309 2231 
z
M 934 2222 
Q 934 1394 1379 917 
Q 1825 441 2497 441 
Q 3181 441 3623 922 
Q 4066 1403 4066 2288 
Q 4066 2847 3877 3264 
Q 3688 3681 3323 3911 
Q 2959 4141 2506 4141 
Q 1863 4141 1398 3698 
Q 934 3256 934 2222 
z
" transform="scale(0.015625)"/>
      </defs>
      <use xlink:href="#ArialMT-4d"/>
      <use xlink:href="#ArialMT-49" transform="translate(83.300781 0)"/>
      <use xlink:href="#ArialMT-52" transform="translate(111.083984 0)"/>
      <use xlink:href="#ArialMT-4f" transform="translate(183.300781 0)"/>
      <use xlink:href="#ArialMT-43" transform="translate(261.083984 0)"/>
      <use xlink:href="#ArialMT-36" transform="translate(333.300781 0)"/>
     </g>
    </g>
    <g id="PathCollection_12">
     <g>
      <use xlink:href="#m40a634a05d" x="243.24246" y="114.210891" style="fill: #8172b3; stroke: #8172b3"/>
     </g>
    </g>
    <g id="text_13">
     <!-- MPI-ESM1-2-LR -->
     <g style="fill: #262626" transform="translate(257.64246 116.310891) scale(0.08 -0.08)">
      <defs>
       <path id="ArialMT-50" d="M 494 0 
L 494 4581 
L 2222 4581 
Q 2678 4581 2919 4538 
Q 3256 4481 3484 4323 
Q 3713 4166 3852 3881 
Q 3991 3597 3991 3256 
Q 3991 2672 3619 2267 
Q 3247 1863 2275 1863 
L 1100 1863 
L 1100 0 
L 494 0 
z
M 1100 2403 
L 2284 2403 
Q 2872 2403 3119 2622 
Q 3366 2841 3366 3238 
Q 3366 3525 3220 3729 
Q 3075 3934 2838 4000 
Q 2684 4041 2272 4041 
L 1100 4041 
L 1100 2403 
z
" transform="scale(0.015625)"/>
       <path id="ArialMT-4c" d="M 469 0 
L 469 4581 
L 1075 4581 
L 1075 541 
L 3331 541 
L 3331 0 
L 469 0 
z
" transform="scale(0.015625)"/>
      </defs>
      <use xlink:href="#ArialMT-4d"/>
      <use xlink:href="#ArialMT-50" transform="translate(83.300781 0)"/>
      <use xlink:href="#ArialMT-49" transform="translate(150 0)"/>
      <use xlink:href="#ArialMT-2d" transform="translate(177.783203 0)"/>
      <use xlink:href="#ArialMT-45" transform="translate(211.083984 0)"/>
      <use xlink:href="#ArialMT-53" transform="translate(277.783203 0)"/>
      <use xlink:href="#ArialMT-4d" transform="translate(344.482422 0)"/>
      <use xlink:href="#ArialMT-31" transform="translate(427.783203 0)"/>
      <use xlink:href="#ArialMT-2d" transform="translate(483.398438 0)"/>
      <use xlink:href="#ArialMT-32" transform="translate(516.699219 0)"/>
      <use xlink:href="#ArialMT-2d" transform="translate(572.314453 0)"/>
      <use xlink:href="#ArialMT-4c" transform="translate(605.615234 0)"/>
      <use xlink:href="#ArialMT-52" transform="translate(661.230469 0)"/>
     </g>
    </g>
    <g id="PathCollection_13">
     <g>
      <use xlink:href="#m8c5b7e18d6" x="243.24246" y="125.527141" style="fill: #937860; stroke: #937860"/>
     </g>
    </g>
    <g id="text_14">
     <!-- IPSL-CM6A-LR -->
     <g style="fill: #262626" transform="translate(257.64246 127.627141) scale(0.08 -0.08)">
      <use xlink:href="#ArialMT-49"/>
      <use xlink:href="#ArialMT-50" transform="translate(27.783203 0)"/>
      <use xlink:href="#ArialMT-53" transform="translate(94.482422 0)"/>
      <use xlink:href="#ArialMT-4c" transform="translate(161.181641 0)"/>
      <use xlink:href="#ArialMT-2d" transform="translate(216.796875 0)"/>
      <use xlink:href="#ArialMT-43" transform="translate(250.097656 0)"/>
      <use xlink:href="#ArialMT-4d" transform="translate(322.314453 0)"/>
      <use xlink:href="#ArialMT-36" transform="translate(405.615234 0)"/>
      <use xlink:href="#ArialMT-41" transform="translate(461.230469 0)"/>
      <use xlink:href="#ArialMT-2d" transform="translate(527.929688 0)"/>
      <use xlink:href="#ArialMT-4c" transform="translate(561.230469 0)"/>
      <use xlink:href="#ArialMT-52" transform="translate(616.845703 0)"/>
     </g>
    </g>
    <g id="PathCollection_14">
     <g>
      <use xlink:href="#mecc9434293" x="243.24246" y="136.843391" style="fill: #da8bc3; stroke: #da8bc3"/>
     </g>
    </g>
    <g id="text_15">
     <!-- GISS-E2-2-G -->
     <g style="fill: #262626" transform="translate(257.64246 138.943391) scale(0.08 -0.08)">
      <defs>
       <path id="ArialMT-47" d="M 2638 1797 
L 2638 2334 
L 4578 2338 
L 4578 638 
Q 4131 281 3656 101 
Q 3181 -78 2681 -78 
Q 2006 -78 1454 211 
Q 903 500 622 1047 
Q 341 1594 341 2269 
Q 341 2938 620 3517 
Q 900 4097 1425 4378 
Q 1950 4659 2634 4659 
Q 3131 4659 3532 4498 
Q 3934 4338 4162 4050 
Q 4391 3763 4509 3300 
L 3963 3150 
Q 3859 3500 3706 3700 
Q 3553 3900 3268 4020 
Q 2984 4141 2638 4141 
Q 2222 4141 1919 4014 
Q 1616 3888 1430 3681 
Q 1244 3475 1141 3228 
Q 966 2803 966 2306 
Q 966 1694 1177 1281 
Q 1388 869 1791 669 
Q 2194 469 2647 469 
Q 3041 469 3416 620 
Q 3791 772 3984 944 
L 3984 1797 
L 2638 1797 
z
" transform="scale(0.015625)"/>
      </defs>
      <use xlink:href="#ArialMT-47"/>
      <use xlink:href="#ArialMT-49" transform="translate(77.783203 0)"/>
      <use xlink:href="#ArialMT-53" transform="translate(105.566406 0)"/>
      <use xlink:href="#ArialMT-53" transform="translate(172.265625 0)"/>
      <use xlink:href="#ArialMT-2d" transform="translate(238.964844 0)"/>
      <use xlink:href="#ArialMT-45" transform="translate(272.265625 0)"/>
      <use xlink:href="#ArialMT-32" transform="translate(338.964844 0)"/>
      <use xlink:href="#ArialMT-2d" transform="translate(394.580078 0)"/>
      <use xlink:href="#ArialMT-32" transform="translate(427.880859 0)"/>
      <use xlink:href="#ArialMT-2d" transform="translate(483.496094 0)"/>
      <use xlink:href="#ArialMT-47" transform="translate(516.796875 0)"/>
     </g>
    </g>
   </g>
  </g>
 </g>
 <defs>
  <clipPath id="p472ab70e4b">
   <rect x="34.017271" y="6.507291" width="165.020991" height="171.532625"/>
  </clipPath>
 </defs>
</svg>
