<?xml version="1.0" encoding="utf-8" standalone="no"?>
<!DOCTYPE svg PUBLIC "-//W3C//DTD SVG 1.1//EN"
  "http://www.w3.org/Graphics/SVG/1.1/DTD/svg11.dtd">
<svg xmlns:xlink="http://www.w3.org/1999/xlink" width="504pt" height="198pt" viewBox="0 0 504 198" xmlns="http://www.w3.org/2000/svg" version="1.1">
 <metadata>
  <rdf:RDF xmlns:dc="http://purl.org/dc/elements/1.1/" xmlns:cc="http://creativecommons.org/ns#" xmlns:rdf="http://www.w3.org/1999/02/22-rdf-syntax-ns#">
   <cc:Work>
    <dc:type rdf:resource="http://purl.org/dc/dcmitype/StillImage"/>
    <dc:date>2025-06-15T17:25:04.585339</dc:date>
    <dc:format>image/svg+xml</dc:format>
    <dc:creator>
     <cc:Agent>
      <dc:title>Matplotlib v3.10.3, https://matplotlib.org/</dc:title>
     </cc:Agent>
    </dc:creator>
   </cc:Work>
  </rdf:RDF>
 </metadata>
 <defs>
  <style type="text/css">*{stroke-linejoin: round; stroke-linecap: butt}</style>
 </defs>
 <g id="figure_1">
  <g id="patch_1">
   <path d="M 0 198 
L 504 198 
L 504 0 
L 0 0 
z
" style="fill: #ffffff"/>
  </g>
  <g id="axes_1">
   <g id="patch_2">
    <path d="M 39.708678 160.465541 
L 245.928844 160.465541 
L 245.928844 17.735865 
L 39.708678 17.735865 
z
" style="fill: #ffffff"/>
   </g>
   <g id="matplotlib.axis_1">
    <g id="xtick_1">
     <g id="text_1">
      <!-- 1920 -->
      <g style="fill: #262626" transform="translate(36.848259 177.839135) scale(0.11 -0.11)">
       <defs>
        <path id="ArialMT-31" d="M 2384 0 
L 1822 0 
L 1822 3584 
Q 1619 3391 1289 3197 
Q 959 3003 697 2906 
L 697 3450 
Q 1169 3672 1522 3987 
Q 1875 4303 2022 4600 
L 2384 4600 
L 2384 0 
z
" transform="scale(0.015625)"/>
        <path id="ArialMT-39" d="M 350 1059 
L 891 1109 
Q 959 728 1153 556 
Q 1347 384 1650 384 
Q 1909 384 2104 503 
Q 2300 622 2425 820 
Q 2550 1019 2634 1356 
Q 2719 1694 2719 2044 
Q 2719 2081 2716 2156 
Q 2547 1888 2255 1720 
Q 1963 1553 1622 1553 
Q 1053 1553 659 1965 
Q 266 2378 266 3053 
Q 266 3750 677 4175 
Q 1088 4600 1706 4600 
Q 2153 4600 2523 4359 
Q 2894 4119 3086 3673 
Q 3278 3228 3278 2384 
Q 3278 1506 3087 986 
Q 2897 466 2520 194 
Q 2144 -78 1638 -78 
Q 1100 -78 759 220 
Q 419 519 350 1059 
z
M 2653 3081 
Q 2653 3566 2395 3850 
Q 2138 4134 1775 4134 
Q 1400 4134 1122 3828 
Q 844 3522 844 3034 
Q 844 2597 1108 2323 
Q 1372 2050 1759 2050 
Q 2150 2050 2401 2323 
Q 2653 2597 2653 3081 
z
" transform="scale(0.015625)"/>
        <path id="ArialMT-32" d="M 3222 541 
L 3222 0 
L 194 0 
Q 188 203 259 391 
Q 375 700 629 1000 
Q 884 1300 1366 1694 
Q 2113 2306 2375 2664 
Q 2638 3022 2638 3341 
Q 2638 3675 2398 3904 
Q 2159 4134 1775 4134 
Q 1369 4134 1125 3890 
Q 881 3647 878 3216 
L 300 3275 
Q 359 3922 746 4261 
Q 1134 4600 1788 4600 
Q 2447 4600 2831 4234 
Q 3216 3869 3216 3328 
Q 3216 3053 3103 2787 
Q 2991 2522 2730 2228 
Q 2469 1934 1863 1422 
Q 1356 997 1212 845 
Q 1069 694 975 541 
L 3222 541 
z
" transform="scale(0.015625)"/>
        <path id="ArialMT-30" d="M 266 2259 
Q 266 3072 433 3567 
Q 600 4063 929 4331 
Q 1259 4600 1759 4600 
Q 2128 4600 2406 4451 
Q 2684 4303 2865 4023 
Q 3047 3744 3150 3342 
Q 3253 2941 3253 2259 
Q 3253 1453 3087 958 
Q 2922 463 2592 192 
Q 2263 -78 1759 -78 
Q 1097 -78 719 397 
Q 266 969 266 2259 
z
M 844 2259 
Q 844 1131 1108 757 
Q 1372 384 1759 384 
Q 2147 384 2411 759 
Q 2675 1134 2675 2259 
Q 2675 3391 2411 3762 
Q 2147 4134 1753 4134 
Q 1366 4134 1134 3806 
Q 844 3388 844 2259 
z
" transform="scale(0.015625)"/>
       </defs>
       <use xlink:href="#ArialMT-31"/>
       <use xlink:href="#ArialMT-39" transform="translate(55.615234 0)"/>
       <use xlink:href="#ArialMT-32" transform="translate(111.230469 0)"/>
       <use xlink:href="#ArialMT-30" transform="translate(166.845703 0)"/>
      </g>
     </g>
    </g>
    <g id="xtick_2">
     <g id="text_2">
      <!-- 2000 -->
      <g style="fill: #262626" transform="translate(130.584698 177.839135) scale(0.11 -0.11)">
       <use xlink:href="#ArialMT-32"/>
       <use xlink:href="#ArialMT-30" transform="translate(55.615234 0)"/>
       <use xlink:href="#ArialMT-30" transform="translate(111.230469 0)"/>
       <use xlink:href="#ArialMT-30" transform="translate(166.845703 0)"/>
      </g>
     </g>
    </g>
    <g id="xtick_3">
     <g id="text_3">
      <!-- 2080 -->
      <g style="fill: #262626" transform="translate(224.321137 177.839135) scale(0.11 -0.11)">
       <defs>
        <path id="ArialMT-38" d="M 1131 2484 
Q 781 2613 612 2850 
Q 444 3088 444 3419 
Q 444 3919 803 4259 
Q 1163 4600 1759 4600 
Q 2359 4600 2725 4251 
Q 3091 3903 3091 3403 
Q 3091 3084 2923 2848 
Q 2756 2613 2416 2484 
Q 2838 2347 3058 2040 
Q 3278 1734 3278 1309 
Q 3278 722 2862 322 
Q 2447 -78 1769 -78 
Q 1091 -78 675 323 
Q 259 725 259 1325 
Q 259 1772 486 2073 
Q 713 2375 1131 2484 
z
M 1019 3438 
Q 1019 3113 1228 2906 
Q 1438 2700 1772 2700 
Q 2097 2700 2305 2904 
Q 2513 3109 2513 3406 
Q 2513 3716 2298 3927 
Q 2084 4138 1766 4138 
Q 1444 4138 1231 3931 
Q 1019 3725 1019 3438 
z
M 838 1322 
Q 838 1081 952 856 
Q 1066 631 1291 507 
Q 1516 384 1775 384 
Q 2178 384 2440 643 
Q 2703 903 2703 1303 
Q 2703 1709 2433 1975 
Q 2163 2241 1756 2241 
Q 1359 2241 1098 1978 
Q 838 1716 838 1322 
z
" transform="scale(0.015625)"/>
       </defs>
       <use xlink:href="#ArialMT-32"/>
       <use xlink:href="#ArialMT-30" transform="translate(55.615234 0)"/>
       <use xlink:href="#ArialMT-38" transform="translate(111.230469 0)"/>
       <use xlink:href="#ArialMT-30" transform="translate(166.845703 0)"/>
      </g>
     </g>
    </g>
    <g id="text_4">
     <!-- Year -->
     <g style="fill: #262626" transform="translate(130.693136 192.61476) scale(0.12 -0.12)">
      <defs>
       <path id="ArialMT-59" d="M 1784 0 
L 1784 1941 
L 19 4581 
L 756 4581 
L 1659 3200 
Q 1909 2813 2125 2425 
Q 2331 2784 2625 3234 
L 3513 4581 
L 4219 4581 
L 2391 1941 
L 2391 0 
L 1784 0 
z
" transform="scale(0.015625)"/>
       <path id="ArialMT-65" d="M 2694 1069 
L 3275 997 
Q 3138 488 2766 206 
Q 2394 -75 1816 -75 
Q 1088 -75 661 373 
Q 234 822 234 1631 
Q 234 2469 665 2931 
Q 1097 3394 1784 3394 
Q 2450 3394 2872 2941 
Q 3294 2488 3294 1666 
Q 3294 1616 3291 1516 
L 816 1516 
Q 847 969 1125 678 
Q 1403 388 1819 388 
Q 2128 388 2347 550 
Q 2566 713 2694 1069 
z
M 847 1978 
L 2700 1978 
Q 2663 2397 2488 2606 
Q 2219 2931 1791 2931 
Q 1403 2931 1139 2672 
Q 875 2413 847 1978 
z
" transform="scale(0.015625)"/>
       <path id="ArialMT-61" d="M 2588 409 
Q 2275 144 1986 34 
Q 1697 -75 1366 -75 
Q 819 -75 525 192 
Q 231 459 231 875 
Q 231 1119 342 1320 
Q 453 1522 633 1644 
Q 813 1766 1038 1828 
Q 1203 1872 1538 1913 
Q 2219 1994 2541 2106 
Q 2544 2222 2544 2253 
Q 2544 2597 2384 2738 
Q 2169 2928 1744 2928 
Q 1347 2928 1158 2789 
Q 969 2650 878 2297 
L 328 2372 
Q 403 2725 575 2942 
Q 747 3159 1072 3276 
Q 1397 3394 1825 3394 
Q 2250 3394 2515 3294 
Q 2781 3194 2906 3042 
Q 3031 2891 3081 2659 
Q 3109 2516 3109 2141 
L 3109 1391 
Q 3109 606 3145 398 
Q 3181 191 3288 0 
L 2700 0 
Q 2613 175 2588 409 
z
M 2541 1666 
Q 2234 1541 1622 1453 
Q 1275 1403 1131 1340 
Q 988 1278 909 1158 
Q 831 1038 831 891 
Q 831 666 1001 516 
Q 1172 366 1500 366 
Q 1825 366 2078 508 
Q 2331 650 2450 897 
Q 2541 1088 2541 1459 
L 2541 1666 
z
" transform="scale(0.015625)"/>
       <path id="ArialMT-72" d="M 416 0 
L 416 3319 
L 922 3319 
L 922 2816 
Q 1116 3169 1280 3281 
Q 1444 3394 1641 3394 
Q 1925 3394 2219 3213 
L 2025 2691 
Q 1819 2813 1613 2813 
Q 1428 2813 1281 2702 
Q 1134 2591 1072 2394 
Q 978 2094 978 1738 
L 978 0 
L 416 0 
z
" transform="scale(0.015625)"/>
      </defs>
      <use xlink:href="#ArialMT-59"/>
      <use xlink:href="#ArialMT-65" transform="translate(57.574219 0)"/>
      <use xlink:href="#ArialMT-61" transform="translate(113.189453 0)"/>
      <use xlink:href="#ArialMT-72" transform="translate(168.804688 0)"/>
     </g>
    </g>
   </g>
   <g id="matplotlib.axis_2">
    <g id="ytick_1">
     <g id="text_5">
      <!-- 18 -->
      <g style="fill: #262626" transform="translate(17.974615 145.298087) scale(0.11 -0.11)">
       <use xlink:href="#ArialMT-31"/>
       <use xlink:href="#ArialMT-38" transform="translate(55.615234 0)"/>
      </g>
     </g>
    </g>
    <g id="ytick_2">
     <g id="text_6">
      <!-- 20 -->
      <g style="fill: #262626" transform="translate(17.974615 90.393605) scale(0.11 -0.11)">
       <use xlink:href="#ArialMT-32"/>
       <use xlink:href="#ArialMT-30" transform="translate(55.615234 0)"/>
      </g>
     </g>
    </g>
    <g id="ytick_3">
     <g id="text_7">
      <!-- 22 -->
      <g style="fill: #262626" transform="translate(17.974615 35.489123) scale(0.11 -0.11)">
       <use xlink:href="#ArialMT-32"/>
       <use xlink:href="#ArialMT-32" transform="translate(55.615234 0)"/>
      </g>
     </g>
    </g>
    <g id="text_8">
     <!-- $^{\circ}$C -->
     <g style="fill: #262626" transform="translate(11.589615 96.300703) rotate(-90) scale(0.12 -0.12)">
      <defs>
       <path id="DejaVuSans-2218" d="M 2003 2603 
Q 1753 2603 1581 2429 
Q 1409 2256 1409 2006 
Q 1409 1759 1581 1589 
Q 1753 1419 2003 1419 
Q 2253 1419 2425 1589 
Q 2597 1759 2597 2006 
Q 2597 2253 2423 2428 
Q 2250 2603 2003 2603 
z
M 2003 3006 
Q 2203 3006 2387 2929 
Q 2572 2853 2706 2709 
Q 2850 2569 2922 2390 
Q 2994 2212 2994 2006 
Q 2994 1594 2705 1308 
Q 2416 1022 1997 1022 
Q 1575 1022 1294 1303 
Q 1013 1584 1013 2006 
Q 1013 2425 1300 2715 
Q 1588 3006 2003 3006 
z
" transform="scale(0.015625)"/>
       <path id="ArialMT-43" d="M 3763 1606 
L 4369 1453 
Q 4178 706 3683 314 
Q 3188 -78 2472 -78 
Q 1731 -78 1267 223 
Q 803 525 561 1097 
Q 319 1669 319 2325 
Q 319 3041 592 3573 
Q 866 4106 1370 4382 
Q 1875 4659 2481 4659 
Q 3169 4659 3637 4309 
Q 4106 3959 4291 3325 
L 3694 3184 
Q 3534 3684 3231 3912 
Q 2928 4141 2469 4141 
Q 1941 4141 1586 3887 
Q 1231 3634 1087 3207 
Q 944 2781 944 2328 
Q 944 1744 1114 1308 
Q 1284 872 1643 656 
Q 2003 441 2422 441 
Q 2931 441 3284 734 
Q 3638 1028 3763 1606 
z
" transform="scale(0.015625)"/>
      </defs>
      <use xlink:href="#DejaVuSans-2218" transform="translate(0.957031 38.484375) scale(0.7)"/>
      <use xlink:href="#ArialMT-43" transform="translate(47.509766 0.203125)"/>
     </g>
    </g>
   </g>
   <g id="line2d_1">
    <path d="M 49.082321 135.722011 
L 50.254027 142.739065 
L 51.425732 139.462052 
L 52.597438 137.002499 
L 53.769143 137.308706 
L 54.940849 133.994988 
L 56.112554 136.105817 
L 57.28426 135.16023 
L 58.455965 132.386982 
L 59.627671 135.954651 
L 60.799376 136.829184 
L 61.971082 132.453481 
L 63.142787 129.448274 
L 64.314493 131.227029 
L 65.486198 131.807241 
L 66.657904 132.054909 
L 67.829609 129.614625 
L 69.001315 126.871537 
L 70.17302 128.663644 
L 71.344726 129.39675 
L 72.516431 129.737673 
L 73.688137 128.112231 
L 74.859842 131.346831 
L 76.031548 130.276101 
L 77.203253 128.249416 
L 78.374959 129.397902 
L 79.546664 128.54269 
L 80.71837 128.936811 
L 83.061781 129.075935 
L 84.233486 129.608394 
L 85.405192 128.603796 
L 86.576897 130.022569 
L 87.748603 127.970751 
L 88.920308 128.778995 
L 90.092014 126.198646 
L 91.263719 126.350388 
L 92.435425 125.495699 
L 93.60713 125.083147 
L 94.778836 128.161136 
L 95.950541 127.496675 
L 97.122247 131.312273 
L 98.293952 129.929524 
L 99.465658 128.37236 
L 100.637363 133.683912 
L 101.809069 129.747674 
L 104.15248 131.409926 
L 105.324185 131.388196 
L 106.49589 129.62206 
L 107.667596 132.020769 
L 108.839301 128.733546 
L 110.011007 129.53645 
L 111.182712 127.866082 
L 112.354418 129.756156 
L 113.526123 131.170427 
L 114.697829 132.774977 
L 117.04124 128.849421 
L 118.212945 126.469509 
L 119.384651 131.914791 
L 120.556356 125.139906 
L 121.728062 126.941386 
L 122.899767 131.21619 
L 124.071473 127.607994 
L 125.243178 124.84768 
L 126.414884 125.995276 
L 127.586589 122.32676 
L 128.758295 121.783933 
L 129.93 124.220761 
L 131.101706 121.937403 
L 132.273411 122.078673 
L 133.445117 130.801282 
L 134.616822 128.885655 
L 135.788528 123.060232 
L 136.960233 121.871428 
L 138.131939 124.529639 
L 139.303644 121.217492 
L 140.47535 122.215231 
L 141.647055 121.357872 
L 143.990466 117.640974 
L 145.162172 116.377503 
L 146.333877 116.770682 
L 147.505583 119.168135 
L 149.848994 111.647578 
L 151.020699 110.502495 
L 152.192405 114.131217 
L 153.36411 111.771569 
L 154.535816 111.631817 
L 155.707521 106.052334 
L 156.879227 108.135045 
L 158.050932 104.427468 
L 159.222638 105.691881 
L 160.394343 104.071204 
L 161.566049 107.375706 
L 162.737754 104.226087 
L 163.90946 104.450821 
L 165.081165 99.229173 
L 166.252871 99.993853 
L 167.424576 99.021719 
L 168.596282 99.070938 
L 169.767987 98.535704 
L 170.939692 97.379259 
L 172.111398 95.05286 
L 173.283103 97.743796 
L 174.454809 96.838841 
L 175.626514 92.97727 
L 176.79822 94.026689 
L 177.969925 89.754713 
L 179.141631 92.83244 
L 180.313336 90.750986 
L 181.485042 88.950657 
L 182.656747 85.261982 
L 183.828453 88.743151 
L 185.000158 91.17888 
L 186.171864 86.422878 
L 187.343569 83.135812 
L 188.515275 85.943775 
L 189.68698 81.935017 
L 190.858686 81.277416 
L 192.030391 78.358866 
L 193.202097 81.1684 
L 195.545508 75.24145 
L 196.717213 74.636418 
L 197.888919 76.035871 
L 199.060624 72.264203 
L 200.23233 72.342535 
L 201.404035 68.466042 
L 202.575741 69.650238 
L 203.747446 65.794845 
L 204.919152 66.27798 
L 206.090857 66.243998 
L 207.262563 66.50685 
L 208.434268 62.968818 
L 209.605974 62.014696 
L 210.777679 58.036726 
L 211.949385 59.130495 
L 213.12109 57.304563 
L 214.292796 58.419642 
L 215.464501 59.119395 
L 216.636207 57.378968 
L 217.807912 56.265302 
L 218.979618 53.742968 
L 220.151323 54.491416 
L 221.323029 51.292683 
L 222.494734 52.674908 
L 223.66644 49.509791 
L 224.838145 47.66993 
L 226.009851 44.296521 
L 227.181556 47.906602 
L 228.353262 43.762229 
L 229.524967 41.893884 
L 230.696673 41.634278 
L 231.868378 44.179075 
L 233.040084 42.689091 
L 234.211789 37.203543 
L 235.383494 36.512431 
L 236.5552 33.813117 
L 236.5552 33.813117 
" clip-path="url(#pe10480d158)" style="fill: none; stroke: #1a1a1a; stroke-width: 2; stroke-linecap: round"/>
   </g>
   <g id="line2d_2">
    <path d="M 49.082321 143.976931 
L 50.254027 153.977829 
L 51.425732 151.048797 
L 52.597438 146.911042 
L 53.769143 150.244574 
L 54.940849 145.996683 
L 56.112554 152.504506 
L 57.28426 149.147276 
L 58.455965 147.165527 
L 59.627671 148.867448 
L 61.971082 143.046319 
L 63.142787 141.962572 
L 64.314493 140.082237 
L 65.486198 137.612861 
L 66.657904 140.79799 
L 67.829609 140.767579 
L 69.001315 138.254367 
L 70.17302 138.099347 
L 71.344726 142.251584 
L 72.516431 139.51944 
L 73.688137 135.33744 
L 74.859842 138.448333 
L 76.031548 140.691331 
L 77.203253 136.912438 
L 78.374959 136.586062 
L 79.546664 140.962833 
L 80.71837 136.351579 
L 81.890075 137.114698 
L 83.061781 137.602535 
L 84.233486 142.432753 
L 85.405192 137.401762 
L 86.576897 138.762331 
L 87.748603 138.503092 
L 88.920308 144.089706 
L 90.092014 138.853104 
L 91.263719 135.330906 
L 92.435425 139.403649 
L 93.60713 133.36651 
L 94.778836 136.627196 
L 95.950541 138.102803 
L 97.122247 140.173313 
L 98.293952 139.740225 
L 99.465658 137.848799 
L 100.637363 143.347353 
L 101.809069 143.104021 
L 102.980774 139.823469 
L 104.15248 142.268706 
L 105.324185 141.037144 
L 106.49589 139.607479 
L 107.667596 141.206427 
L 108.839301 143.387189 
L 110.011007 141.647736 
L 111.182712 136.209418 
L 112.354418 140.516194 
L 113.526123 141.439821 
L 115.869534 138.83771 
L 117.04124 139.782407 
L 118.212945 141.038652 
L 119.384651 140.92284 
L 120.556356 137.049854 
L 121.728062 134.704082 
L 122.899767 141.876585 
L 124.071473 139.694085 
L 125.243178 135.842022 
L 126.414884 132.584928 
L 127.586589 130.387766 
L 128.758295 132.004778 
L 129.93 133.420944 
L 131.101706 132.025073 
L 132.273411 133.147379 
L 133.445117 139.471812 
L 134.616822 138.678281 
L 135.788528 135.085406 
L 136.960233 130.861308 
L 138.131939 130.976775 
L 140.47535 129.718289 
L 141.647055 126.536782 
L 142.818761 131.661887 
L 145.162172 121.250469 
L 146.333877 122.180767 
L 147.505583 128.282529 
L 148.677288 127.780681 
L 149.848994 121.796343 
L 151.020699 120.809055 
L 152.192405 123.058829 
L 153.36411 120.128331 
L 154.535816 121.838985 
L 155.707521 119.665104 
L 156.879227 116.761205 
L 158.050932 115.857182 
L 159.222638 114.456127 
L 160.394343 111.634948 
L 161.566049 113.398519 
L 162.737754 113.710716 
L 163.90946 109.084905 
L 165.081165 109.88407 
L 166.252871 109.008678 
L 167.424576 108.915601 
L 168.596282 111.04352 
L 169.767987 112.221046 
L 170.939692 108.025904 
L 172.111398 107.401667 
L 173.283103 105.942491 
L 174.454809 107.927172 
L 175.626514 100.689971 
L 176.79822 104.673606 
L 177.969925 97.785999 
L 179.141631 102.013259 
L 180.313336 97.990071 
L 181.485042 98.818673 
L 182.656747 92.321271 
L 183.828453 97.835439 
L 185.000158 97.091012 
L 186.171864 94.825886 
L 187.343569 90.861132 
L 188.515275 91.040835 
L 189.68698 93.753114 
L 190.858686 91.853708 
L 192.030391 87.689281 
L 193.202097 90.817484 
L 194.373802 89.5098 
L 195.545508 87.397306 
L 196.717213 88.736951 
L 197.888919 87.059117 
L 199.060624 86.315632 
L 200.23233 83.816432 
L 201.404035 76.56524 
L 202.575741 80.821006 
L 203.747446 77.168711 
L 204.919152 78.284053 
L 206.090857 80.364303 
L 207.262563 72.861663 
L 208.434268 76.0281 
L 209.605974 71.453519 
L 210.777679 70.968552 
L 211.949385 71.974124 
L 213.12109 66.430058 
L 214.292796 67.905852 
L 215.464501 66.825394 
L 216.636207 69.820327 
L 217.807912 69.412938 
L 218.979618 66.833384 
L 220.151323 61.811001 
L 221.323029 61.766986 
L 222.494734 61.123103 
L 223.66644 59.890965 
L 226.009851 54.655767 
L 227.181556 56.484422 
L 228.353262 52.160064 
L 229.524967 51.980989 
L 230.696673 52.549933 
L 233.040084 51.115933 
L 234.211789 49.118361 
L 235.383494 46.078742 
L 236.5552 44.823346 
L 236.5552 44.823346 
" clip-path="url(#pe10480d158)" style="fill: none; stroke: #1a1a1a; stroke-opacity: 0.5; stroke-linecap: round"/>
   </g>
   <g id="line2d_3">
    <path d="M 49.082321 127.583018 
L 50.254027 131.64798 
L 51.425732 130.951327 
L 52.597438 126.702861 
L 53.769143 123.773808 
L 54.940849 125.957544 
L 56.112554 126.700138 
L 57.28426 126.184529 
L 58.455965 123.218122 
L 59.627671 128.120797 
L 60.799376 128.645412 
L 61.971082 123.701466 
L 63.142787 123.164295 
L 64.314493 121.895054 
L 65.486198 121.821842 
L 66.657904 123.886059 
L 67.829609 116.534513 
L 69.001315 118.329364 
L 70.17302 118.999595 
L 71.344726 120.570059 
L 72.516431 120.992382 
L 73.688137 120.547365 
L 74.859842 115.486476 
L 76.031548 117.10529 
L 77.203253 113.909813 
L 78.374959 117.649467 
L 79.546664 122.246103 
L 80.71837 115.791228 
L 81.890075 117.538766 
L 83.061781 119.554905 
L 84.233486 120.116183 
L 85.405192 119.037285 
L 86.576897 119.193876 
L 87.748603 120.574635 
L 88.920308 121.392409 
L 90.092014 116.023323 
L 91.263719 117.987374 
L 92.435425 116.199528 
L 94.778836 119.958817 
L 95.950541 116.50828 
L 97.122247 120.398199 
L 98.293952 121.406756 
L 99.465658 118.298084 
L 100.637363 120.149746 
L 101.809069 124.148744 
L 104.15248 120.207176 
L 105.324185 124.19877 
L 106.49589 119.481379 
L 107.667596 123.3436 
L 108.839301 118.180753 
L 110.011007 118.683733 
L 111.182712 123.417596 
L 112.354418 117.851926 
L 113.526123 122.748402 
L 114.697829 122.01938 
L 115.869534 120.551523 
L 117.04124 118.309383 
L 118.212945 118.305247 
L 119.384651 120.990161 
L 120.556356 118.274333 
L 121.728062 119.433836 
L 122.899767 118.711893 
L 124.071473 119.682812 
L 125.243178 115.922162 
L 126.414884 113.534092 
L 127.586589 116.177149 
L 128.758295 112.241864 
L 129.93 114.919543 
L 131.101706 110.23027 
L 132.273411 112.058936 
L 134.616822 119.855499 
L 135.788528 115.074867 
L 136.960233 111.333956 
L 138.131939 111.654584 
L 139.303644 114.248484 
L 140.47535 111.642813 
L 141.647055 107.727163 
L 142.818761 110.437337 
L 143.990466 109.904742 
L 145.162172 108.374293 
L 146.333877 103.244727 
L 147.505583 105.753772 
L 148.677288 106.03805 
L 151.020699 98.602956 
L 152.192405 105.307489 
L 153.36411 103.858806 
L 154.535816 99.696631 
L 155.707521 96.080434 
L 156.879227 96.185816 
L 158.050932 97.51256 
L 159.222638 96.865305 
L 160.394343 93.188798 
L 161.566049 99.424752 
L 162.737754 97.821584 
L 163.90946 93.157832 
L 165.081165 91.625739 
L 166.252871 93.115084 
L 167.424576 86.664357 
L 168.596282 91.046825 
L 169.767987 86.908767 
L 170.939692 89.486426 
L 172.111398 85.629672 
L 173.283103 85.237153 
L 174.454809 88.623736 
L 175.626514 85.658942 
L 176.79822 81.554395 
L 177.969925 83.870342 
L 179.141631 79.942085 
L 180.313336 81.732077 
L 181.485042 79.775723 
L 182.656747 74.778673 
L 183.828453 76.682026 
L 185.000158 77.183016 
L 186.171864 78.582961 
L 187.343569 73.871047 
L 188.515275 77.151013 
L 189.68698 70.819197 
L 190.858686 75.022371 
L 192.030391 68.889443 
L 193.202097 72.184028 
L 194.373802 70.174528 
L 195.545508 65.058461 
L 196.717213 63.555156 
L 197.888919 69.389229 
L 199.060624 62.08887 
L 200.23233 59.910705 
L 201.404035 61.84535 
L 202.575741 59.170153 
L 203.747446 58.53801 
L 204.919152 55.71349 
L 206.090857 55.718171 
L 207.262563 56.968845 
L 208.434268 54.494421 
L 213.12109 48.254122 
L 214.292796 50.265276 
L 215.464501 47.905733 
L 216.636207 46.638272 
L 217.807912 47.3641 
L 218.979618 41.984238 
L 220.151323 43.618383 
L 221.323029 38.725342 
L 222.494734 38.598828 
L 223.66644 39.681737 
L 224.838145 35.730451 
L 226.009851 33.01191 
L 227.181556 40.082571 
L 228.353262 32.598897 
L 229.524967 32.683428 
L 230.696673 28.404331 
L 231.868378 31.426136 
L 233.040084 30.961526 
L 234.211789 30.246013 
L 236.5552 24.223578 
L 236.5552 24.223578 
" clip-path="url(#pe10480d158)" style="fill: none; stroke: #1a1a1a; stroke-opacity: 0.5; stroke-linecap: round"/>
   </g>
   <g id="line2d_4">
    <path d="M 49.082321 136.002614 
L 50.254027 143.201412 
L 51.425732 140.762542 
L 52.597438 136.211639 
L 53.769143 136.969407 
L 54.940849 134.846954 
L 56.112554 137.408925 
L 57.28426 136.276147 
L 58.455965 134.006874 
L 59.627671 138.275081 
L 60.799376 137.08235 
L 61.971082 133.677105 
L 63.142787 130.818561 
L 64.314493 130.239762 
L 65.486198 130.387316 
L 66.657904 131.956575 
L 67.829609 129.531842 
L 69.001315 128.470275 
L 70.17302 128.588716 
L 71.344726 130.27919 
L 72.516431 130.977581 
L 73.688137 128.043847 
L 76.031548 129.554566 
L 77.203253 127.107528 
L 78.374959 128.333299 
L 79.546664 129.887373 
L 80.71837 126.702254 
L 81.890075 128.184332 
L 83.061781 128.715272 
L 84.233486 130.664515 
L 85.405192 128.67553 
L 87.748603 130.049692 
L 88.920308 130.373492 
L 90.092014 126.250012 
L 91.263719 126.720371 
L 92.435425 126.562136 
L 93.60713 125.799655 
L 94.778836 127.578148 
L 95.950541 127.508089 
L 97.122247 130.701063 
L 98.293952 129.879309 
L 99.465658 128.386288 
L 100.637363 133.5761 
L 101.809069 131.281484 
L 102.980774 131.766714 
L 104.15248 131.808864 
L 105.324185 132.56501 
L 106.49589 130.066343 
L 107.667596 131.709954 
L 108.839301 129.635674 
L 110.011007 129.254014 
L 111.182712 128.735012 
L 112.354418 129.885383 
L 113.526123 131.428252 
L 114.697829 131.857822 
L 115.869534 129.682327 
L 117.04124 129.549854 
L 118.212945 128.089611 
L 119.384651 131.079895 
L 120.556356 126.607585 
L 121.728062 126.912117 
L 122.899767 131.411497 
L 124.071473 128.548293 
L 125.243178 125.275312 
L 126.414884 124.504139 
L 127.586589 123.215902 
L 128.758295 122.656896 
L 129.93 124.766572 
L 131.101706 121.733614 
L 132.273411 122.343934 
L 133.445117 129.473407 
L 134.616822 129.08604 
L 135.788528 124.570376 
L 136.960233 120.90097 
L 138.131939 123.059918 
L 139.303644 121.828806 
L 140.47535 121.381958 
L 141.647055 118.679502 
L 142.818761 120.033872 
L 143.990466 118.91586 
L 145.162172 115.723776 
L 146.333877 114.945535 
L 147.505583 117.435091 
L 148.677288 116.254141 
L 149.848994 112.122335 
L 151.020699 110.856403 
L 152.192405 113.873444 
L 153.36411 111.981274 
L 154.535816 110.364262 
L 155.707521 107.130081 
L 156.879227 106.278534 
L 158.050932 106.206118 
L 159.222638 105.382166 
L 160.394343 103.560893 
L 161.566049 106.683755 
L 162.737754 105.129576 
L 163.90946 103.146299 
L 165.081165 99.937931 
L 166.252871 101.007352 
L 167.424576 98.856782 
L 168.596282 100.067787 
L 169.767987 99.43202 
L 170.939692 98.069272 
L 172.111398 95.986876 
L 173.283103 96.663903 
L 174.454809 98.024608 
L 175.626514 93.632987 
L 176.79822 93.504441 
L 177.969925 90.653908 
L 179.141631 91.564885 
L 181.485042 89.262677 
L 182.656747 84.199107 
L 183.828453 88.057431 
L 185.000158 89.395883 
L 186.171864 87.066028 
L 187.343569 83.15728 
L 188.515275 84.501858 
L 189.68698 81.843647 
L 190.858686 82.448836 
L 192.030391 78.636065 
L 193.202097 81.167039 
L 194.373802 79.037046 
L 195.545508 76.167297 
L 196.717213 75.563313 
L 197.888919 77.494962 
L 199.060624 74.297381 
L 201.404035 69.022063 
L 202.575741 70.537181 
L 203.747446 67.127276 
L 204.919152 67.210111 
L 206.090857 67.168431 
L 207.262563 65.153057 
L 208.434268 64.421678 
L 210.777679 59.244119 
L 211.949385 59.69259 
L 213.12109 56.640416 
L 214.292796 58.404615 
L 215.464501 57.70214 
L 216.636207 58.16632 
L 217.807912 56.863578 
L 218.979618 54.224846 
L 220.151323 53.335023 
L 221.323029 51.016636 
L 222.494734 50.785724 
L 223.66644 49.730388 
L 224.838145 46.404627 
L 226.009851 44.511096 
L 227.181556 47.974148 
L 228.353262 43.435758 
L 229.524967 41.404099 
L 230.696673 40.590462 
L 231.868378 42.144746 
L 233.040084 42.020703 
L 234.211789 38.842495 
L 236.5552 34.975007 
L 236.5552 34.975007 
" clip-path="url(#pe10480d158)" style="fill: none; stroke: #c44e52; stroke-width: 2; stroke-linecap: round"/>
   </g>
   <g id="patch_3">
    <path d="M 39.708678 160.465541 
L 39.708678 17.735865 
" style="fill: none; stroke: #ffffff; stroke-width: 1.25; stroke-linejoin: miter; stroke-linecap: square"/>
   </g>
   <g id="patch_4">
    <path d="M 245.928844 160.465541 
L 245.928844 17.735865 
" style="fill: none; stroke: #ffffff; stroke-width: 1.25; stroke-linejoin: miter; stroke-linecap: square"/>
   </g>
   <g id="patch_5">
    <path d="M 39.708677 160.465541 
L 245.928844 160.465541 
" style="fill: none; stroke: #ffffff; stroke-width: 1.25; stroke-linejoin: miter; stroke-linecap: square"/>
   </g>
   <g id="patch_6">
    <path d="M 39.708677 17.735865 
L 245.928844 17.735865 
" style="fill: none; stroke: #ffffff; stroke-width: 1.25; stroke-linejoin: miter; stroke-linecap: square"/>
   </g>
   <g id="text_9">
    <!-- Forced response -->
    <g style="fill: #262626" transform="translate(97.799073 11.735865) scale(0.12 -0.12)">
     <defs>
      <path id="ArialMT-46" d="M 525 0 
L 525 4581 
L 3616 4581 
L 3616 4041 
L 1131 4041 
L 1131 2622 
L 3281 2622 
L 3281 2081 
L 1131 2081 
L 1131 0 
L 525 0 
z
" transform="scale(0.015625)"/>
      <path id="ArialMT-6f" d="M 213 1659 
Q 213 2581 725 3025 
Q 1153 3394 1769 3394 
Q 2453 3394 2887 2945 
Q 3322 2497 3322 1706 
Q 3322 1066 3130 698 
Q 2938 331 2570 128 
Q 2203 -75 1769 -75 
Q 1072 -75 642 372 
Q 213 819 213 1659 
z
M 791 1659 
Q 791 1022 1069 705 
Q 1347 388 1769 388 
Q 2188 388 2466 706 
Q 2744 1025 2744 1678 
Q 2744 2294 2464 2611 
Q 2184 2928 1769 2928 
Q 1347 2928 1069 2612 
Q 791 2297 791 1659 
z
" transform="scale(0.015625)"/>
      <path id="ArialMT-63" d="M 2588 1216 
L 3141 1144 
Q 3050 572 2676 248 
Q 2303 -75 1759 -75 
Q 1078 -75 664 370 
Q 250 816 250 1647 
Q 250 2184 428 2587 
Q 606 2991 970 3192 
Q 1334 3394 1763 3394 
Q 2303 3394 2647 3120 
Q 2991 2847 3088 2344 
L 2541 2259 
Q 2463 2594 2264 2762 
Q 2066 2931 1784 2931 
Q 1359 2931 1093 2626 
Q 828 2322 828 1663 
Q 828 994 1084 691 
Q 1341 388 1753 388 
Q 2084 388 2306 591 
Q 2528 794 2588 1216 
z
" transform="scale(0.015625)"/>
      <path id="ArialMT-64" d="M 2575 0 
L 2575 419 
Q 2259 -75 1647 -75 
Q 1250 -75 917 144 
Q 584 363 401 755 
Q 219 1147 219 1656 
Q 219 2153 384 2558 
Q 550 2963 881 3178 
Q 1213 3394 1622 3394 
Q 1922 3394 2156 3267 
Q 2391 3141 2538 2938 
L 2538 4581 
L 3097 4581 
L 3097 0 
L 2575 0 
z
M 797 1656 
Q 797 1019 1065 703 
Q 1334 388 1700 388 
Q 2069 388 2326 689 
Q 2584 991 2584 1609 
Q 2584 2291 2321 2609 
Q 2059 2928 1675 2928 
Q 1300 2928 1048 2622 
Q 797 2316 797 1656 
z
" transform="scale(0.015625)"/>
      <path id="ArialMT-20" transform="scale(0.015625)"/>
      <path id="ArialMT-73" d="M 197 991 
L 753 1078 
Q 800 744 1014 566 
Q 1228 388 1613 388 
Q 2000 388 2187 545 
Q 2375 703 2375 916 
Q 2375 1106 2209 1216 
Q 2094 1291 1634 1406 
Q 1016 1563 777 1677 
Q 538 1791 414 1992 
Q 291 2194 291 2438 
Q 291 2659 392 2848 
Q 494 3038 669 3163 
Q 800 3259 1026 3326 
Q 1253 3394 1513 3394 
Q 1903 3394 2198 3281 
Q 2494 3169 2634 2976 
Q 2775 2784 2828 2463 
L 2278 2388 
Q 2241 2644 2061 2787 
Q 1881 2931 1553 2931 
Q 1166 2931 1000 2803 
Q 834 2675 834 2503 
Q 834 2394 903 2306 
Q 972 2216 1119 2156 
Q 1203 2125 1616 2013 
Q 2213 1853 2448 1751 
Q 2684 1650 2818 1456 
Q 2953 1263 2953 975 
Q 2953 694 2789 445 
Q 2625 197 2315 61 
Q 2006 -75 1616 -75 
Q 969 -75 630 194 
Q 291 463 197 991 
z
" transform="scale(0.015625)"/>
      <path id="ArialMT-70" d="M 422 -1272 
L 422 3319 
L 934 3319 
L 934 2888 
Q 1116 3141 1344 3267 
Q 1572 3394 1897 3394 
Q 2322 3394 2647 3175 
Q 2972 2956 3137 2557 
Q 3303 2159 3303 1684 
Q 3303 1175 3120 767 
Q 2938 359 2589 142 
Q 2241 -75 1856 -75 
Q 1575 -75 1351 44 
Q 1128 163 984 344 
L 984 -1272 
L 422 -1272 
z
M 931 1641 
Q 931 1000 1190 694 
Q 1450 388 1819 388 
Q 2194 388 2461 705 
Q 2728 1022 2728 1688 
Q 2728 2322 2467 2637 
Q 2206 2953 1844 2953 
Q 1484 2953 1207 2617 
Q 931 2281 931 1641 
z
" transform="scale(0.015625)"/>
      <path id="ArialMT-6e" d="M 422 0 
L 422 3319 
L 928 3319 
L 928 2847 
Q 1294 3394 1984 3394 
Q 2284 3394 2536 3286 
Q 2788 3178 2913 3003 
Q 3038 2828 3088 2588 
Q 3119 2431 3119 2041 
L 3119 0 
L 2556 0 
L 2556 2019 
Q 2556 2363 2490 2533 
Q 2425 2703 2258 2804 
Q 2091 2906 1866 2906 
Q 1506 2906 1245 2678 
Q 984 2450 984 1813 
L 984 0 
L 422 0 
z
" transform="scale(0.015625)"/>
     </defs>
     <use xlink:href="#ArialMT-46"/>
     <use xlink:href="#ArialMT-6f" transform="translate(61.083984 0)"/>
     <use xlink:href="#ArialMT-72" transform="translate(116.699219 0)"/>
     <use xlink:href="#ArialMT-63" transform="translate(150 0)"/>
     <use xlink:href="#ArialMT-65" transform="translate(200 0)"/>
     <use xlink:href="#ArialMT-64" transform="translate(255.615234 0)"/>
     <use xlink:href="#ArialMT-20" transform="translate(311.230469 0)"/>
     <use xlink:href="#ArialMT-72" transform="translate(339.013672 0)"/>
     <use xlink:href="#ArialMT-65" transform="translate(372.314453 0)"/>
     <use xlink:href="#ArialMT-73" transform="translate(427.929688 0)"/>
     <use xlink:href="#ArialMT-70" transform="translate(477.929688 0)"/>
     <use xlink:href="#ArialMT-6f" transform="translate(533.544922 0)"/>
     <use xlink:href="#ArialMT-6e" transform="translate(589.160156 0)"/>
     <use xlink:href="#ArialMT-73" transform="translate(644.775391 0)"/>
     <use xlink:href="#ArialMT-65" transform="translate(694.775391 0)"/>
    </g>
   </g>
   <g id="legend_1">
    <g id="patch_7">
     <path d="M 45.308678 46.768365 
L 134.939928 46.768365 
Q 136.539928 46.768365 136.539928 45.168365 
L 136.539928 23.335865 
Q 136.539928 21.735865 134.939928 21.735865 
L 45.308678 21.735865 
Q 43.708678 21.735865 43.708678 23.335865 
L 43.708678 45.168365 
Q 43.708678 46.768365 45.308678 46.768365 
z
" style="fill: #ffffff; opacity: 0.8; stroke: #cccccc; stroke-linejoin: miter"/>
    </g>
    <g id="line2d_5">
     <path d="M 46.908678 27.862115 
L 54.908678 27.862115 
L 62.908678 27.862115 
" style="fill: none; stroke: #1a1a1a; stroke-width: 2; stroke-linecap: round"/>
    </g>
    <g id="text_10">
     <!-- Ensemble median -->
     <g style="fill: #262626" transform="translate(69.308678 30.662115) scale(0.08 -0.08)">
      <defs>
       <path id="ArialMT-45" d="M 506 0 
L 506 4581 
L 3819 4581 
L 3819 4041 
L 1113 4041 
L 1113 2638 
L 3647 2638 
L 3647 2100 
L 1113 2100 
L 1113 541 
L 3925 541 
L 3925 0 
L 506 0 
z
" transform="scale(0.015625)"/>
       <path id="ArialMT-6d" d="M 422 0 
L 422 3319 
L 925 3319 
L 925 2853 
Q 1081 3097 1340 3245 
Q 1600 3394 1931 3394 
Q 2300 3394 2536 3241 
Q 2772 3088 2869 2813 
Q 3263 3394 3894 3394 
Q 4388 3394 4653 3120 
Q 4919 2847 4919 2278 
L 4919 0 
L 4359 0 
L 4359 2091 
Q 4359 2428 4304 2576 
Q 4250 2725 4106 2815 
Q 3963 2906 3769 2906 
Q 3419 2906 3187 2673 
Q 2956 2441 2956 1928 
L 2956 0 
L 2394 0 
L 2394 2156 
Q 2394 2531 2256 2718 
Q 2119 2906 1806 2906 
Q 1569 2906 1367 2781 
Q 1166 2656 1075 2415 
Q 984 2175 984 1722 
L 984 0 
L 422 0 
z
" transform="scale(0.015625)"/>
       <path id="ArialMT-62" d="M 941 0 
L 419 0 
L 419 4581 
L 981 4581 
L 981 2947 
Q 1338 3394 1891 3394 
Q 2197 3394 2470 3270 
Q 2744 3147 2920 2923 
Q 3097 2700 3197 2384 
Q 3297 2069 3297 1709 
Q 3297 856 2875 390 
Q 2453 -75 1863 -75 
Q 1275 -75 941 416 
L 941 0 
z
M 934 1684 
Q 934 1088 1097 822 
Q 1363 388 1816 388 
Q 2184 388 2453 708 
Q 2722 1028 2722 1663 
Q 2722 2313 2464 2622 
Q 2206 2931 1841 2931 
Q 1472 2931 1203 2611 
Q 934 2291 934 1684 
z
" transform="scale(0.015625)"/>
       <path id="ArialMT-6c" d="M 409 0 
L 409 4581 
L 972 4581 
L 972 0 
L 409 0 
z
" transform="scale(0.015625)"/>
       <path id="ArialMT-69" d="M 425 3934 
L 425 4581 
L 988 4581 
L 988 3934 
L 425 3934 
z
M 425 0 
L 425 3319 
L 988 3319 
L 988 0 
L 425 0 
z
" transform="scale(0.015625)"/>
      </defs>
      <use xlink:href="#ArialMT-45"/>
      <use xlink:href="#ArialMT-6e" transform="translate(66.699219 0)"/>
      <use xlink:href="#ArialMT-73" transform="translate(122.314453 0)"/>
      <use xlink:href="#ArialMT-65" transform="translate(172.314453 0)"/>
      <use xlink:href="#ArialMT-6d" transform="translate(227.929688 0)"/>
      <use xlink:href="#ArialMT-62" transform="translate(311.230469 0)"/>
      <use xlink:href="#ArialMT-6c" transform="translate(366.845703 0)"/>
      <use xlink:href="#ArialMT-65" transform="translate(389.0625 0)"/>
      <use xlink:href="#ArialMT-20" transform="translate(444.677734 0)"/>
      <use xlink:href="#ArialMT-6d" transform="translate(472.460938 0)"/>
      <use xlink:href="#ArialMT-65" transform="translate(555.761719 0)"/>
      <use xlink:href="#ArialMT-64" transform="translate(611.376953 0)"/>
      <use xlink:href="#ArialMT-69" transform="translate(666.992188 0)"/>
      <use xlink:href="#ArialMT-61" transform="translate(689.208984 0)"/>
      <use xlink:href="#ArialMT-6e" transform="translate(744.824219 0)"/>
     </g>
    </g>
    <g id="line2d_6">
     <path d="M 46.908678 39.178365 
L 54.908678 39.178365 
L 62.908678 39.178365 
" style="fill: none; stroke: #c44e52; stroke-width: 2; stroke-linecap: round"/>
    </g>
    <g id="text_11">
     <!-- Ensemble mean -->
     <g style="fill: #262626" transform="translate(69.308678 41.978365) scale(0.08 -0.08)">
      <use xlink:href="#ArialMT-45"/>
      <use xlink:href="#ArialMT-6e" transform="translate(66.699219 0)"/>
      <use xlink:href="#ArialMT-73" transform="translate(122.314453 0)"/>
      <use xlink:href="#ArialMT-65" transform="translate(172.314453 0)"/>
      <use xlink:href="#ArialMT-6d" transform="translate(227.929688 0)"/>
      <use xlink:href="#ArialMT-62" transform="translate(311.230469 0)"/>
      <use xlink:href="#ArialMT-6c" transform="translate(366.845703 0)"/>
      <use xlink:href="#ArialMT-65" transform="translate(389.0625 0)"/>
      <use xlink:href="#ArialMT-20" transform="translate(444.677734 0)"/>
      <use xlink:href="#ArialMT-6d" transform="translate(472.460938 0)"/>
      <use xlink:href="#ArialMT-65" transform="translate(555.761719 0)"/>
      <use xlink:href="#ArialMT-61" transform="translate(611.376953 0)"/>
      <use xlink:href="#ArialMT-6e" transform="translate(666.992188 0)"/>
     </g>
    </g>
   </g>
  </g>
  <g id="axes_2">
   <g id="patch_8">
    <path d="M 257.7635 160.465541 
L 463.983666 160.465541 
L 463.983666 17.735865 
L 257.7635 17.735865 
z
" style="fill: #ffffff"/>
   </g>
   <g id="line2d_7">
    <path d="M 257.7635 83.436181 
L 463.983666 83.436181 
" clip-path="url(#p729162ef14)" style="fill: none; stroke-dasharray: 5.55,2.4; stroke-dashoffset: 0; stroke: #1a1a1a; stroke-width: 1.5"/>
   </g>
   <g id="matplotlib.axis_3">
    <g id="xtick_4">
     <g id="text_12">
      <!-- 1920 -->
      <g style="fill: #262626" transform="translate(254.903081 177.839135) scale(0.11 -0.11)">
       <use xlink:href="#ArialMT-31"/>
       <use xlink:href="#ArialMT-39" transform="translate(55.615234 0)"/>
       <use xlink:href="#ArialMT-32" transform="translate(111.230469 0)"/>
       <use xlink:href="#ArialMT-30" transform="translate(166.845703 0)"/>
      </g>
     </g>
    </g>
    <g id="xtick_5">
     <g id="text_13">
      <!-- 2000 -->
      <g style="fill: #262626" transform="translate(348.639521 177.839135) scale(0.11 -0.11)">
       <use xlink:href="#ArialMT-32"/>
       <use xlink:href="#ArialMT-30" transform="translate(55.615234 0)"/>
       <use xlink:href="#ArialMT-30" transform="translate(111.230469 0)"/>
       <use xlink:href="#ArialMT-30" transform="translate(166.845703 0)"/>
      </g>
     </g>
    </g>
    <g id="xtick_6">
     <g id="text_14">
      <!-- 2080 -->
      <g style="fill: #262626" transform="translate(442.37596 177.839135) scale(0.11 -0.11)">
       <use xlink:href="#ArialMT-32"/>
       <use xlink:href="#ArialMT-30" transform="translate(55.615234 0)"/>
       <use xlink:href="#ArialMT-38" transform="translate(111.230469 0)"/>
       <use xlink:href="#ArialMT-30" transform="translate(166.845703 0)"/>
      </g>
     </g>
    </g>
    <g id="text_15">
     <!-- Year -->
     <g style="fill: #262626" transform="translate(348.747958 192.61476) scale(0.12 -0.12)">
      <use xlink:href="#ArialMT-59"/>
      <use xlink:href="#ArialMT-65" transform="translate(57.574219 0)"/>
      <use xlink:href="#ArialMT-61" transform="translate(113.189453 0)"/>
      <use xlink:href="#ArialMT-72" transform="translate(168.804688 0)"/>
     </g>
    </g>
   </g>
   <g id="matplotlib.axis_4">
    <g id="ytick_4">
     <g id="line2d_8">
      <defs>
       <path id="m6ca1507966" d="M 0 0 
L 6 0 
" style="stroke: #262626; stroke-width: 1.25"/>
      </defs>
      <g>
       <use xlink:href="#m6ca1507966" x="463.983666" y="149.136498" style="fill: #262626; stroke: #262626; stroke-width: 1.25"/>
      </g>
     </g>
     <g id="text_16">
      <!-- −1 -->
      <g style="fill: #262626" transform="translate(473.483666 153.073295) scale(0.11 -0.11)">
       <defs>
        <path id="ArialMT-2212" d="M 3381 1997 
L 356 1997 
L 356 2522 
L 3381 2522 
L 3381 1997 
z
" transform="scale(0.015625)"/>
       </defs>
       <use xlink:href="#ArialMT-2212"/>
       <use xlink:href="#ArialMT-31" transform="translate(58.398438 0)"/>
      </g>
     </g>
    </g>
    <g id="ytick_5">
     <g id="line2d_9">
      <g>
       <use xlink:href="#m6ca1507966" x="463.983666" y="83.436181" style="fill: #262626; stroke: #262626; stroke-width: 1.25"/>
      </g>
     </g>
     <g id="text_17">
      <!-- 0 -->
      <g style="fill: #262626" transform="translate(473.483666 87.372978) scale(0.11 -0.11)">
       <use xlink:href="#ArialMT-30"/>
      </g>
     </g>
    </g>
    <g id="ytick_6">
     <g id="line2d_10">
      <g>
       <use xlink:href="#m6ca1507966" x="463.983666" y="17.735865" style="fill: #262626; stroke: #262626; stroke-width: 1.25"/>
      </g>
     </g>
     <g id="text_18">
      <!-- 1 -->
      <g style="fill: #262626" transform="translate(473.483666 21.672662) scale(0.11 -0.11)">
       <use xlink:href="#ArialMT-31"/>
      </g>
     </g>
    </g>
    <g id="text_19">
     <!-- $^{\circ}$C -->
     <g style="fill: #262626" transform="translate(498.61476 96.300703) rotate(-90) scale(0.12 -0.12)">
      <use xlink:href="#DejaVuSans-2218" transform="translate(0.957031 38.484375) scale(0.7)"/>
      <use xlink:href="#ArialMT-43" transform="translate(47.509766 0.203125)"/>
     </g>
    </g>
   </g>
   <g id="line2d_11">
    <path d="M 267.137144 102.222774 
L 268.308849 98.598942 
L 269.480555 77.733842 
L 270.65226 61.04266 
L 271.823966 91.793719 
L 272.995671 61.590702 
L 274.167377 67.102498 
L 275.339082 57.688402 
L 276.510788 65.678739 
L 277.682493 75.109884 
L 278.854199 78.568069 
L 280.025904 83.282166 
L 281.19761 80.156844 
L 282.369315 80.549953 
L 283.541021 72.032092 
L 284.712726 88.390635 
L 285.884432 82.700451 
L 287.056137 77.884396 
L 288.227843 83.615688 
L 289.399548 99.060826 
L 290.571254 77.323795 
L 291.742959 73.812921 
L 292.914665 95.52148 
L 294.08637 60.684849 
L 295.258076 93.524542 
L 296.429781 77.803213 
L 297.601487 73.580658 
L 298.773192 50.726834 
L 299.944898 48.814499 
L 301.116603 63.48494 
L 302.288308 68.924904 
L 303.460014 105.265292 
L 304.631719 61.075643 
L 305.803425 69.346302 
L 306.97513 60.975956 
L 308.146836 78.407783 
L 309.318541 50.27601 
L 310.490247 75.980044 
L 311.661952 78.738015 
L 314.005363 94.879254 
L 315.177069 74.463643 
L 316.348774 39.521668 
L 317.52048 64.472942 
L 318.692185 75.644429 
L 319.863891 66.860012 
L 321.035596 52.495136 
L 323.379007 106.672593 
L 324.550713 77.055724 
L 325.722418 85.349576 
L 326.894124 81.542325 
L 328.065829 84.112148 
L 329.237535 99.158472 
L 330.40924 102.421962 
L 331.580946 53.893489 
L 332.752651 75.269883 
L 333.924357 90.627432 
L 335.096062 67.910774 
L 336.267768 88.180986 
L 337.439473 75.461242 
L 338.611179 105.820326 
L 339.782884 126.405488 
L 340.95459 113.079037 
L 342.126295 77.408476 
L 343.298001 82.412804 
L 344.469706 76.465696 
L 345.641412 74.14874 
L 346.813117 118.427621 
L 347.984823 120.064805 
L 349.156528 133.19928 
L 350.328234 109.631875 
L 351.499939 122.497593 
L 352.671645 114.721494 
L 353.84335 62.025107 
L 355.015056 94.61714 
L 356.186761 72.956602 
L 357.358467 89.491801 
L 358.530172 68.316111 
L 359.701878 65.640612 
L 360.873583 96.404307 
L 362.045289 98.402691 
L 363.216994 91.330336 
L 364.3887 103.770857 
L 365.560405 69.486204 
L 366.73211 91.464928 
L 367.903816 109.755124 
L 369.075521 82.253181 
L 370.247227 84.642668 
L 371.418932 82.934317 
L 372.590638 111.528681 
L 373.762343 87.260914 
L 374.934049 108.55058 
L 376.105754 101.582434 
L 377.27746 74.238746 
L 378.449165 64.178784 
L 379.620871 97.116134 
L 380.792576 79.013955 
L 381.964282 97.365342 
L 383.135987 95.33718 
L 385.479398 54.066942 
L 386.651104 90.831589 
L 387.822809 24.340273 
L 388.994515 65.777351 
L 390.16622 113.572897 
L 391.337926 48.535007 
L 392.509631 67.398686 
L 393.681337 76.039255 
L 394.853042 80.212854 
L 396.024748 81.144157 
L 397.196453 77.136896 
L 398.368159 92.213394 
L 399.539864 105.506207 
L 400.71157 82.465258 
L 401.883275 67.215958 
L 403.054981 44.919598 
L 404.226686 100.541258 
L 405.398392 109.027696 
L 406.570097 95.34827 
L 408.913508 71.434451 
L 410.085214 81.452752 
L 411.256919 74.636225 
L 412.428625 91.367805 
L 413.60033 90.105888 
L 414.772036 69.520221 
L 415.943741 71.980865 
L 417.115447 110.462424 
L 418.287152 82.784432 
L 419.458858 114.480464 
L 420.630563 74.346244 
L 421.802269 80.247467 
L 424.14568 123.01088 
L 425.317385 101.121077 
L 426.489091 73.99508 
L 427.660796 103.019023 
L 428.832502 70.081928 
L 430.004207 62.891872 
L 431.175913 66.97084 
L 432.347618 64.226914 
L 433.519323 86.917179 
L 434.691029 89.65994 
L 435.862734 86.820395 
L 437.03444 66.615588 
L 438.206145 96.942946 
L 439.377851 63.140375 
L 440.549556 76.010052 
L 441.721262 75.681986 
L 442.892967 57.213683 
L 444.064673 51.601025 
L 445.236378 65.908523 
L 446.408084 120.223205 
L 447.579789 85.153643 
L 448.751495 110.23634 
L 451.094906 53.742725 
L 452.266611 72.84817 
L 453.438317 105.585139 
L 454.610022 88.031669 
L 454.610022 88.031669 
" clip-path="url(#p729162ef14)" style="fill: none; stroke: #808080; stroke-opacity: 0.5; stroke-width: 0.5; stroke-linecap: round"/>
   </g>
   <g id="line2d_12">
    <path d="M 267.137144 81.607375 
L 268.308849 71.601369 
L 269.480555 54.70447 
L 270.65226 60.729919 
L 271.823966 40.584051 
L 272.995671 87.064537 
L 275.339082 59.401252 
L 276.510788 55.517993 
L 277.682493 72.293496 
L 278.854199 79.992804 
L 280.025904 78.800034 
L 281.19761 68.863239 
L 282.369315 76.843589 
L 283.541021 80.838596 
L 284.712726 88.277681 
L 285.884432 100.246405 
L 287.056137 107.75719 
L 288.227843 83.762456 
L 289.399548 69.229385 
L 290.571254 97.181673 
L 291.742959 79.762133 
L 292.914665 99.863788 
L 294.08637 109.737774 
L 295.258076 76.230222 
L 296.429781 46.612856 
L 297.601487 63.382621 
L 298.773192 113.731722 
L 299.944898 66.290274 
L 301.116603 74.204254 
L 302.288308 60.5441 
L 303.460014 102.961614 
L 304.631719 65.600647 
L 305.803425 64.158358 
L 306.97513 82.169425 
L 308.146836 75.917502 
L 309.318541 72.221012 
L 310.490247 56.450998 
L 311.661952 81.895239 
L 312.833658 93.544301 
L 314.005363 83.216486 
L 315.177069 68.106232 
L 316.348774 95.148594 
L 317.52048 81.487401 
L 318.692185 102.755556 
L 319.863891 52.370617 
L 321.035596 72.078631 
L 322.207302 101.39411 
L 323.379007 63.985018 
L 324.550713 75.386132 
L 325.722418 115.270402 
L 328.065829 40.305762 
L 329.237535 101.341578 
L 330.40924 83.126809 
L 331.580946 71.717838 
L 332.752651 73.595832 
L 333.924357 53.049362 
L 335.096062 67.095741 
L 336.267768 117.294059 
L 337.439473 74.493571 
L 338.611179 69.115636 
L 339.782884 70.497943 
L 340.95459 73.807694 
L 342.126295 53.722863 
L 343.298001 65.153441 
L 344.469706 63.299924 
L 345.641412 111.438966 
L 346.813117 95.010112 
L 347.984823 98.483758 
L 349.156528 63.32859 
L 351.499939 100.471521 
L 352.671645 103.73002 
L 353.84335 134.521038 
L 355.015056 113.018896 
L 356.186761 116.073281 
L 357.358467 67.475901 
L 358.530172 100.679786 
L 359.701878 50.358372 
L 360.873583 125.16342 
L 362.045289 126.177578 
L 363.216994 94.047972 
L 364.3887 101.124122 
L 365.560405 97.478254 
L 366.73211 105.667475 
L 367.903816 90.384909 
L 369.075521 52.588886 
L 370.247227 56.523743 
L 371.418932 104.288145 
L 372.590638 56.095089 
L 373.762343 87.082327 
L 374.934049 96.737338 
L 376.105754 94.57351 
L 377.27746 75.081667 
L 378.449165 58.734402 
L 379.620871 102.386921 
L 380.792576 89.600959 
L 381.964282 72.468851 
L 383.135987 63.512321 
L 384.307693 81.01061 
L 385.479398 83.830877 
L 386.651104 118.524974 
L 387.822809 94.972053 
L 388.994515 104.154445 
L 390.16622 77.448451 
L 391.337926 71.859561 
L 392.509631 71.740305 
L 393.681337 65.127996 
L 394.853042 49.848573 
L 396.024748 80.193467 
L 397.196453 98.165097 
L 398.368159 93.588975 
L 399.539864 107.806491 
L 400.71157 64.526085 
L 401.883275 76.807253 
L 403.054981 95.858641 
L 404.226686 75.556077 
L 405.398392 71.385277 
L 406.570097 59.306809 
L 407.741803 75.152965 
L 408.913508 87.505808 
L 410.085214 69.575532 
L 411.256919 90.80803 
L 412.428625 96.83655 
L 413.60033 73.565374 
L 414.772036 55.543678 
L 415.943741 60.940498 
L 417.115447 54.854454 
L 418.287152 91.831694 
L 419.458858 73.341163 
L 420.630563 66.153765 
L 421.802269 69.711549 
L 422.973974 96.69822 
L 424.14568 114.790646 
L 425.317385 89.342234 
L 426.489091 108.46401 
L 427.660796 111.143581 
L 428.832502 73.28237 
L 430.004207 64.020425 
L 431.175913 77.779795 
L 432.347618 97.660319 
L 433.519323 102.984547 
L 434.691029 134.319068 
L 435.862734 137.285127 
L 437.03444 102.073737 
L 438.206145 81.245541 
L 439.377851 86.262662 
L 440.549556 71.700247 
L 441.721262 103.719576 
L 442.892967 95.217752 
L 444.064673 74.412389 
L 445.236378 72.303929 
L 446.408084 56.885779 
L 447.579789 75.679245 
L 448.751495 78.672596 
L 449.9232 59.175092 
L 451.094906 78.778219 
L 452.266611 77.410392 
L 453.438317 74.232236 
L 454.610022 129.512469 
L 454.610022 129.512469 
" clip-path="url(#p729162ef14)" style="fill: none; stroke: #808080; stroke-opacity: 0.5; stroke-width: 0.5; stroke-linecap: round"/>
   </g>
   <g id="line2d_13">
    <path d="M 267.137144 99.424475 
L 268.308849 80.599953 
L 269.480555 121.139199 
L 270.65226 127.148298 
L 271.823966 133.936134 
L 272.995671 117.947573 
L 274.167377 114.849972 
L 275.339082 105.990146 
L 276.510788 74.546025 
L 277.682493 103.661593 
L 278.854199 49.916693 
L 280.025904 70.136387 
L 281.19761 65.369272 
L 282.369315 109.064732 
L 283.541021 58.879631 
L 285.884432 90.977715 
L 287.056137 79.345858 
L 288.227843 62.169337 
L 289.399548 115.249487 
L 290.571254 105.521683 
L 291.742959 85.958782 
L 292.914665 96.722912 
L 294.08637 72.170354 
L 295.258076 84.328846 
L 296.429781 89.737394 
L 298.773192 55.365749 
L 299.944898 105.13084 
L 301.116603 70.821042 
L 302.288308 123.630144 
L 303.460014 96.649937 
L 304.631719 74.550051 
L 305.803425 61.807338 
L 306.97513 81.64467 
L 308.146836 68.260879 
L 309.318541 84.64342 
L 310.490247 49.331037 
L 311.661952 68.801993 
L 312.833658 83.244969 
L 314.005363 99.634595 
L 315.177069 105.545671 
L 316.348774 99.493163 
L 317.52048 73.352796 
L 318.692185 107.448555 
L 319.863891 85.49884 
L 321.035596 67.48474 
L 322.207302 115.858483 
L 323.379007 80.796695 
L 324.550713 65.283025 
L 325.722418 71.92271 
L 326.894124 81.27724 
L 328.065829 50.796763 
L 329.237535 57.553674 
L 330.40924 42.978665 
L 331.580946 106.289222 
L 332.752651 96.128733 
L 333.924357 107.1591 
L 335.096062 106.228247 
L 336.267768 120.330317 
L 338.611179 68.344557 
L 339.782884 91.046198 
L 340.95459 83.391215 
L 342.126295 94.155574 
L 343.298001 81.011894 
L 344.469706 82.360355 
L 345.641412 80.826697 
L 346.813117 80.548485 
L 347.984823 86.842064 
L 349.156528 122.364459 
L 350.328234 92.83357 
L 351.499939 102.128775 
L 352.671645 79.450521 
L 353.84335 105.659224 
L 355.015056 67.980046 
L 356.186761 71.299896 
L 357.358467 109.418673 
L 359.701878 41.493255 
L 360.873583 93.739774 
L 362.045289 94.15948 
L 363.216994 72.4937 
L 364.3887 55.688127 
L 365.560405 91.75306 
L 366.73211 79.002567 
L 367.903816 101.204485 
L 370.247227 61.441742 
L 371.418932 57.734345 
L 372.590638 104.501559 
L 373.762343 80.856741 
L 374.934049 63.251747 
L 376.105754 124.510067 
L 377.27746 93.293835 
L 378.449165 75.605806 
L 379.620871 94.346792 
L 380.792576 72.934766 
L 381.964282 79.936538 
L 383.135987 82.437188 
L 384.307693 103.637204 
L 385.479398 84.987969 
L 386.651104 85.55379 
L 387.822809 79.129598 
L 388.994515 84.273009 
L 390.16622 76.76671 
L 391.337926 75.621752 
L 392.509631 53.914169 
L 393.681337 77.646133 
L 394.853042 84.686047 
L 396.024748 71.665112 
L 397.196453 96.901347 
L 398.368159 101.658834 
L 399.539864 74.202082 
L 400.71157 76.632159 
L 401.883275 117.218315 
L 403.054981 92.591908 
L 404.226686 121.409093 
L 405.398392 93.39523 
L 406.570097 93.13981 
L 407.741803 74.60627 
L 408.913508 79.478867 
L 410.085214 77.362601 
L 411.256919 72.237888 
L 412.428625 73.794344 
L 413.60033 98.801798 
L 414.772036 103.838076 
L 415.943741 120.054659 
L 417.115447 74.921438 
L 418.287152 112.837004 
L 419.458858 112.592655 
L 420.630563 107.409759 
L 421.802269 118.526728 
L 422.973974 123.348342 
L 424.14568 115.168638 
L 425.317385 71.21261 
L 426.489091 113.046158 
L 427.660796 73.751439 
L 428.832502 78.74275 
L 430.004207 86.737339 
L 431.175913 88.436296 
L 432.347618 83.472089 
L 433.519323 76.808094 
L 434.691029 71.163284 
L 435.862734 79.053042 
L 438.206145 87.651991 
L 439.377851 98.312492 
L 440.549556 101.138032 
L 441.721262 91.14399 
L 442.892967 100.822769 
L 444.064673 86.663524 
L 445.236378 92.61824 
L 446.408084 79.635499 
L 447.579789 61.90443 
L 448.751495 71.432645 
L 449.9232 63.601528 
L 451.094906 84.117234 
L 452.266611 69.32407 
L 453.438317 86.5172 
L 454.610022 46.409484 
L 454.610022 46.409484 
" clip-path="url(#p729162ef14)" style="fill: none; stroke: #808080; stroke-opacity: 0.5; stroke-width: 0.5; stroke-linecap: round"/>
   </g>
   <g id="line2d_14">
    <path d="M 267.137144 63.659664 
L 268.308849 88.742943 
L 269.480555 30.575097 
L 270.65226 93.936161 
L 271.823966 92.352987 
L 272.995671 80.247524 
L 274.167377 64.780326 
L 275.339082 115.749883 
L 276.510788 73.113438 
L 277.682493 52.377306 
L 278.854199 88.945121 
L 280.025904 80.397681 
L 281.19761 65.718228 
L 282.369315 64.731563 
L 283.541021 69.080038 
L 284.712726 87.733069 
L 285.884432 61.931423 
L 287.056137 76.02227 
L 288.227843 73.867182 
L 289.399548 91.798569 
L 290.571254 56.371283 
L 291.742959 101.181616 
L 292.914665 68.288641 
L 294.08637 55.700032 
L 295.258076 84.578058 
L 296.429781 77.550242 
L 297.601487 107.853202 
L 298.773192 107.342183 
L 301.116603 90.395441 
L 302.288308 80.43161 
L 303.460014 79.047732 
L 304.631719 100.098457 
L 305.803425 109.489147 
L 306.97513 79.610958 
L 308.146836 117.511 
L 309.318541 90.139901 
L 311.661952 56.396988 
L 312.833658 69.010921 
L 314.005363 72.377727 
L 315.177069 111.57052 
L 316.348774 67.288186 
L 317.52048 86.764464 
L 318.692185 73.200562 
L 319.863891 71.98523 
L 321.035596 84.004739 
L 322.207302 88.609887 
L 323.379007 96.186899 
L 324.550713 67.647752 
L 325.722418 75.167475 
L 326.894124 80.667356 
L 328.065829 120.854973 
L 329.237535 88.183878 
L 330.40924 113.182896 
L 331.580946 74.926106 
L 332.752651 66.444122 
L 333.924357 89.542516 
L 335.096062 85.198051 
L 336.267768 91.50177 
L 337.439473 110.390694 
L 338.611179 90.718619 
L 339.782884 110.473652 
L 342.126295 74.853685 
L 343.298001 80.523104 
L 344.469706 100.9316 
L 345.641412 93.383101 
L 346.813117 73.465432 
L 347.984823 68.190912 
L 349.156528 93.914904 
L 350.328234 66.513357 
L 351.499939 73.501883 
L 352.671645 85.716776 
L 353.84335 96.488007 
L 355.015056 68.057308 
L 357.358467 75.684519 
L 358.530172 91.429318 
L 359.701878 89.846009 
L 360.873583 63.928872 
L 362.045289 61.581873 
L 363.216994 131.574579 
L 364.3887 111.582957 
L 365.560405 87.745563 
L 366.73211 102.530054 
L 367.903816 61.598325 
L 369.075521 100.402019 
L 370.247227 65.819664 
L 372.590638 91.746325 
L 373.762343 95.104254 
L 374.934049 65.700167 
L 376.105754 77.045485 
L 377.27746 110.004598 
L 378.449165 87.468302 
L 379.620871 85.092214 
L 380.792576 69.949644 
L 381.964282 80.120488 
L 383.135987 83.707234 
L 384.307693 82.182687 
L 385.479398 96.621043 
L 386.651104 96.109325 
L 387.822809 76.220009 
L 388.994515 48.588704 
L 390.16622 51.045949 
L 391.337926 82.45055 
L 392.509631 80.598339 
L 393.681337 68.560822 
L 394.853042 76.459044 
L 396.024748 91.390789 
L 397.196453 98.920877 
L 398.368159 88.867703 
L 399.539864 66.662841 
L 400.71157 95.636606 
L 401.883275 67.078683 
L 403.054981 41.298028 
L 404.226686 65.260756 
L 405.398392 62.610205 
L 406.570097 73.816305 
L 407.741803 53.624883 
L 408.913508 83.16764 
L 410.085214 106.214243 
L 411.256919 83.496583 
L 412.428625 73.966978 
L 413.60033 59.538685 
L 414.772036 89.462822 
L 415.943741 78.560534 
L 417.115447 48.884999 
L 418.287152 88.00018 
L 419.458858 122.55676 
L 420.630563 111.068143 
L 421.802269 73.669834 
L 422.973974 81.205316 
L 424.14568 112.510537 
L 425.317385 90.1354 
L 426.489091 51.220871 
L 427.660796 68.563527 
L 428.832502 70.312797 
L 430.004207 81.714595 
L 431.175913 62.900609 
L 432.347618 29.992597 
L 433.519323 78.358947 
L 434.691029 57.399392 
L 435.862734 63.891729 
L 437.03444 91.24093 
L 438.206145 103.83804 
L 439.377851 79.564921 
L 440.549556 74.544401 
L 441.721262 64.898585 
L 442.892967 51.427951 
L 444.064673 101.197064 
L 445.236378 83.021713 
L 446.408084 68.838662 
L 447.579789 64.134743 
L 448.751495 102.614318 
L 449.9232 90.094547 
L 451.094906 72.827999 
L 452.266611 88.561667 
L 453.438317 57.174867 
L 454.610022 69.531949 
L 454.610022 69.531949 
" clip-path="url(#p729162ef14)" style="fill: none; stroke: #808080; stroke-opacity: 0.5; stroke-width: 0.5; stroke-linecap: round"/>
   </g>
   <g id="line2d_15">
    <path d="M 267.137144 100.581067 
L 268.308849 110.194563 
L 269.480555 101.212484 
L 270.65226 96.219982 
L 271.823966 74.854448 
L 272.995671 79.866102 
L 274.167377 80.317564 
L 275.339082 93.730208 
L 276.510788 79.559361 
L 277.682493 52.796734 
L 278.854199 57.575729 
L 280.025904 64.5315 
L 281.19761 90.426513 
L 282.369315 73.975484 
L 283.541021 90.36712 
L 284.712726 73.31844 
L 285.884432 83.634292 
L 287.056137 98.551746 
L 288.227843 77.321869 
L 289.399548 69.797853 
L 290.571254 100.471229 
L 291.742959 65.49976 
L 292.914665 40.950064 
L 294.08637 53.727186 
L 295.258076 72.58251 
L 296.429781 63.214613 
L 297.601487 74.694809 
L 298.773192 74.816279 
L 299.944898 94.453872 
L 301.116603 85.099508 
L 302.288308 64.345884 
L 303.460014 76.378306 
L 304.631719 60.043781 
L 305.803425 93.203448 
L 306.97513 63.391716 
L 308.146836 87.660334 
L 309.318541 79.372993 
L 310.490247 74.910452 
L 311.661952 75.131588 
L 312.833658 54.577578 
L 314.005363 88.972475 
L 316.348774 81.061372 
L 317.52048 73.657741 
L 318.692185 106.917982 
L 319.863891 95.361277 
L 321.035596 80.781182 
L 322.207302 83.208325 
L 323.379007 93.848379 
L 324.550713 79.254389 
L 325.722418 102.429271 
L 326.894124 83.29935 
L 328.065829 78.264523 
L 329.237535 74.228094 
L 330.40924 87.427722 
L 331.580946 89.654583 
L 332.752651 69.34954 
L 333.924357 42.914011 
L 335.096062 84.781149 
L 336.267768 86.993615 
L 337.439473 92.666506 
L 339.782884 75.2269 
L 340.95459 52.392588 
L 342.126295 82.218234 
L 343.298001 94.215432 
L 344.469706 70.677616 
L 345.641412 83.812179 
L 346.813117 86.632404 
L 347.984823 88.982913 
L 349.156528 83.940129 
L 350.328234 88.513515 
L 351.499939 94.23532 
L 352.671645 77.591689 
L 353.84335 75.318201 
L 355.015056 107.725983 
L 356.186761 101.661049 
L 357.358467 55.315596 
L 358.530172 90.781594 
L 359.701878 94.807523 
L 360.873583 96.461074 
L 362.045289 67.537398 
L 363.216994 91.404365 
L 364.3887 94.123838 
L 365.560405 44.810191 
L 366.73211 77.548911 
L 367.903816 96.599019 
L 369.075521 68.153386 
L 370.247227 74.079557 
L 371.418932 98.389193 
L 372.590638 101.971726 
L 373.762343 72.416335 
L 374.934049 66.086342 
L 376.105754 104.608765 
L 377.27746 71.212872 
L 378.449165 98.237956 
L 379.620871 84.03626 
L 380.792576 81.273987 
L 383.135987 98.93049 
L 384.307693 72.482066 
L 385.479398 83.97694 
L 386.651104 70.334947 
L 387.822809 61.267321 
L 388.994515 63.453063 
L 390.16622 96.61874 
L 391.337926 107.178555 
L 392.509631 106.28882 
L 393.681337 79.674905 
L 394.853042 109.696603 
L 396.024748 77.101552 
L 397.196453 99.987524 
L 398.368159 76.684911 
L 399.539864 62.759682 
L 400.71157 68.588537 
L 401.883275 62.528303 
L 403.054981 84.599335 
L 404.226686 81.277021 
L 405.398392 99.72374 
L 406.570097 92.301416 
L 407.741803 112.081442 
L 408.913508 87.9015 
L 410.085214 82.772751 
L 411.256919 59.656558 
L 412.428625 71.110961 
L 413.60033 75.511148 
L 414.772036 91.037568 
L 415.943741 73.736151 
L 417.115447 68.672194 
L 418.287152 88.293841 
L 419.458858 48.826259 
L 420.630563 71.887162 
L 421.802269 71.785778 
L 422.973974 80.206698 
L 424.14568 53.398438 
L 425.317385 54.741463 
L 426.489091 68.087216 
L 427.660796 78.635372 
L 428.832502 121.686514 
L 430.004207 66.270375 
L 431.175913 80.244767 
L 432.347618 63.883483 
L 433.519323 75.111961 
L 434.691029 63.538877 
L 435.862734 31.001742 
L 437.03444 82.283042 
L 438.206145 124.547505 
L 439.377851 122.184932 
L 440.549556 90.914343 
L 441.721262 84.984183 
L 442.892967 67.76363 
L 444.064673 88.064397 
L 445.236378 72.328594 
L 446.408084 97.928437 
L 447.579789 96.901598 
L 448.751495 113.272965 
L 449.9232 112.216082 
L 451.094906 86.830593 
L 452.266611 68.001548 
L 453.438317 137.179175 
L 454.610022 88.927875 
L 454.610022 88.927875 
" clip-path="url(#p729162ef14)" style="fill: none; stroke: #808080; stroke-opacity: 0.5; stroke-width: 0.5; stroke-linecap: round"/>
   </g>
   <g id="line2d_16">
    <path d="M 267.137144 82.76453 
L 268.308849 66.717383 
L 269.480555 75.6289 
L 270.65226 63.511224 
L 271.823966 93.94875 
L 272.995671 71.760371 
L 274.167377 95.734554 
L 275.339082 76.109059 
L 276.510788 71.792895 
L 277.682493 58.687545 
L 278.854199 77.317018 
L 280.025904 105.872592 
L 281.19761 60.087693 
L 282.369315 81.431731 
L 283.541021 55.674917 
L 284.712726 99.720581 
L 285.884432 83.417713 
L 287.056137 76.862574 
L 288.227843 101.128314 
L 289.399548 107.501139 
L 290.571254 110.160582 
L 291.742959 96.451979 
L 292.914665 62.79403 
L 294.08637 64.188731 
L 295.258076 53.283122 
L 296.429781 93.175587 
L 297.601487 88.859636 
L 298.773192 79.843457 
L 299.944898 93.836588 
L 301.116603 85.4578 
L 302.288308 71.480974 
L 303.460014 76.312683 
L 304.631719 63.045017 
L 305.803425 100.591064 
L 308.146836 131.513113 
L 309.318541 76.124457 
L 310.490247 132.850787 
L 311.661952 91.945985 
L 312.833658 83.36409 
L 314.005363 72.540138 
L 315.177069 105.767397 
L 316.348774 91.086152 
L 317.52048 114.120554 
L 318.692185 133.37249 
L 319.863891 130.057786 
L 321.035596 92.269168 
L 322.207302 80.167647 
L 323.379007 104.990239 
L 324.550713 88.720549 
L 325.722418 103.474369 
L 326.894124 103.690864 
L 328.065829 90.382513 
L 329.237535 71.375904 
L 330.40924 82.211588 
L 331.580946 81.040544 
L 332.752651 66.267132 
L 333.924357 61.333324 
L 335.096062 29.207051 
L 336.267768 65.544732 
L 337.439473 87.406862 
L 338.611179 67.240797 
L 339.782884 58.378638 
L 340.95459 82.968689 
L 342.126295 75.682237 
L 343.298001 100.981149 
L 344.469706 71.488926 
L 345.641412 77.374777 
L 346.813117 78.817552 
L 347.984823 70.022634 
L 349.156528 72.369499 
L 350.328234 75.133562 
L 351.499939 99.161166 
L 352.671645 89.634407 
L 353.84335 91.448961 
L 355.015056 60.498868 
L 356.186761 47.692658 
L 357.358467 81.804497 
L 358.530172 102.098199 
L 359.701878 89.251685 
L 360.873583 59.367104 
L 362.045289 78.92351 
L 363.216994 91.466891 
L 364.3887 82.820078 
L 365.560405 92.707505 
L 366.73211 62.129853 
L 367.903816 103.036624 
L 369.075521 47.047036 
L 370.247227 66.111164 
L 371.418932 81.434122 
L 372.590638 72.876146 
L 373.762343 88.722627 
L 374.934049 68.195554 
L 376.105754 45.14235 
L 377.27746 102.480583 
L 378.449165 71.969425 
L 379.620871 75.316932 
L 380.792576 65.621856 
L 381.964282 85.255288 
L 383.135987 82.03205 
L 384.307693 61.324609 
L 385.479398 81.09421 
L 386.651104 65.153785 
L 387.822809 55.443807 
L 390.16622 70.022086 
L 391.337926 51.356084 
L 392.509631 112.447097 
L 393.681337 63.834993 
L 394.853042 86.04565 
L 396.024748 80.875611 
L 397.196453 85.802224 
L 398.368159 57.049078 
L 399.539864 80.071595 
L 400.71157 91.131051 
L 401.883275 108.005686 
L 403.054981 94.060843 
L 404.226686 74.026158 
L 405.398392 83.170966 
L 406.570097 96.865503 
L 407.741803 92.714225 
L 408.913508 106.606672 
L 410.085214 60.155243 
L 411.256919 83.657104 
L 412.428625 99.869568 
L 413.60033 39.430001 
L 414.772036 42.359088 
L 415.943741 75.452611 
L 417.115447 59.765111 
L 418.287152 83.595376 
L 419.458858 68.220157 
L 420.630563 94.403262 
L 421.802269 99.342891 
L 422.973974 86.805123 
L 424.14568 30.444614 
L 425.317385 80.378868 
L 426.489091 76.354126 
L 427.660796 58.20194 
L 428.832502 71.059504 
L 430.004207 73.915898 
L 431.175913 36.460367 
L 432.347618 63.709846 
L 433.519323 107.697521 
L 434.691029 98.324208 
L 435.862734 70.991124 
L 437.03444 133.372639 
L 438.206145 97.025982 
L 439.377851 76.399181 
L 440.549556 82.090639 
L 442.892967 123.746345 
L 444.064673 59.517554 
L 445.236378 86.591772 
L 446.408084 68.512628 
L 447.579789 63.556682 
L 448.751495 64.968024 
L 449.9232 92.262542 
L 451.094906 92.352314 
L 452.266611 119.203589 
L 453.438317 58.287754 
L 454.610022 67.374782 
L 454.610022 67.374782 
" clip-path="url(#p729162ef14)" style="fill: none; stroke: #808080; stroke-opacity: 0.5; stroke-width: 0.5; stroke-linecap: round"/>
   </g>
   <g id="line2d_17">
    <path d="M 267.137144 93.105694 
L 268.308849 107.775842 
L 269.480555 68.279963 
L 270.65226 39.062574 
L 272.995671 72.032379 
L 274.167377 65.696862 
L 275.339082 64.450239 
L 276.510788 98.093271 
L 277.682493 69.579646 
L 278.854199 75.246073 
L 280.025904 66.398028 
L 281.19761 73.914378 
L 282.369315 52.434077 
L 283.541021 97.272155 
L 284.712726 83.671316 
L 285.884432 61.798728 
L 287.056137 107.764975 
L 288.227843 89.23519 
L 289.399548 124.575833 
L 290.571254 98.195094 
L 291.742959 116.35014 
L 292.914665 114.513468 
L 294.08637 104.931112 
L 295.258076 96.826937 
L 297.601487 75.62393 
L 298.773192 76.231203 
L 299.944898 72.508513 
L 301.116603 88.963928 
L 302.288308 97.181935 
L 303.460014 59.830995 
L 304.631719 57.683138 
L 305.803425 77.033872 
L 306.97513 43.196213 
L 308.146836 71.588441 
L 309.318541 82.55079 
L 310.490247 70.222285 
L 311.661952 94.131493 
L 312.833658 93.432312 
L 314.005363 76.306261 
L 315.177069 106.331245 
L 316.348774 114.949528 
L 317.52048 99.051799 
L 318.692185 105.666927 
L 319.863891 93.825216 
L 321.035596 96.234205 
L 322.207302 126.74849 
L 323.379007 100.088469 
L 324.550713 105.063872 
L 325.722418 86.937151 
L 326.894124 84.236537 
L 328.065829 104.577895 
L 329.237535 76.469476 
L 330.40924 79.309533 
L 331.580946 67.599375 
L 332.752651 71.160444 
L 333.924357 75.7369 
L 335.096062 97.479136 
L 336.267768 125.862411 
L 337.439473 81.44951 
L 338.611179 120.09707 
L 339.782884 131.007051 
L 340.95459 107.838405 
L 342.126295 110.532471 
L 343.298001 126.395306 
L 344.469706 95.331082 
L 345.641412 98.700274 
L 346.813117 78.639946 
L 347.984823 70.92145 
L 349.156528 83.923891 
L 350.328234 74.985891 
L 351.499939 61.42402 
L 352.671645 60.799097 
L 353.84335 59.063789 
L 355.015056 36.88299 
L 356.186761 92.095537 
L 357.358467 95.832549 
L 358.530172 93.290593 
L 359.701878 109.491862 
L 360.873583 81.922876 
L 362.045289 72.468444 
L 363.216994 90.522973 
L 364.3887 95.493692 
L 365.560405 95.593373 
L 366.73211 93.146812 
L 367.903816 82.29996 
L 369.075521 84.026371 
L 370.247227 93.876057 
L 371.418932 82.533371 
L 372.590638 111.875584 
L 373.762343 79.361679 
L 374.934049 113.824605 
L 376.105754 106.160161 
L 377.27746 103.577295 
L 378.449165 110.820461 
L 379.620871 97.102193 
L 380.792576 70.882613 
L 381.964282 90.622467 
L 383.135987 56.829116 
L 384.307693 74.947467 
L 385.479398 78.335727 
L 386.651104 79.104019 
L 387.822809 57.901736 
L 388.994515 63.255845 
L 390.16622 60.801651 
L 391.337926 93.095511 
L 392.509631 83.086171 
L 393.681337 81.866882 
L 394.853042 106.062865 
L 396.024748 77.573488 
L 397.196453 79.548667 
L 398.368159 83.641993 
L 399.539864 82.689402 
L 400.71157 108.89251 
L 401.883275 115.413475 
L 403.054981 123.039726 
L 404.226686 97.232212 
L 405.398392 98.205067 
L 406.570097 86.903228 
L 407.741803 93.659662 
L 408.913508 90.295681 
L 410.085214 104.094796 
L 411.256919 114.983049 
L 412.428625 116.484319 
L 413.60033 97.951171 
L 414.772036 98.006528 
L 415.943741 71.03772 
L 417.115447 77.311034 
L 418.287152 91.144528 
L 419.458858 78.43342 
L 420.630563 81.313482 
L 421.802269 88.036165 
L 422.973974 101.637666 
L 424.14568 59.984362 
L 425.317385 92.203703 
L 426.489091 98.296451 
L 427.660796 83.872042 
L 428.832502 68.072016 
L 430.004207 78.802029 
L 431.175913 66.180249 
L 432.347618 83.665354 
L 433.519323 88.012131 
L 434.691029 111.243092 
L 435.862734 91.330827 
L 437.03444 52.885127 
L 438.206145 73.56174 
L 439.377851 78.138281 
L 440.549556 63.376334 
L 441.721262 108.134806 
L 442.892967 90.136997 
L 444.064673 85.53092 
L 445.236378 112.150126 
L 446.408084 113.464746 
L 447.579789 104.231889 
L 448.751495 75.05026 
L 449.9232 78.438281 
L 451.094906 102.194277 
L 452.266611 77.566496 
L 453.438317 78.569646 
L 454.610022 102.513419 
L 454.610022 102.513419 
" clip-path="url(#p729162ef14)" style="fill: none; stroke: #808080; stroke-opacity: 0.5; stroke-width: 0.5; stroke-linecap: round"/>
   </g>
   <g id="line2d_18">
    <path d="M 267.137144 65.663004 
L 269.480555 87.102888 
L 270.65226 54.83724 
L 271.823966 41.576643 
L 272.995671 84.760003 
L 274.167377 99.042765 
L 276.510788 66.818981 
L 277.682493 117.322635 
L 278.854199 88.13887 
L 280.025904 80.507806 
L 281.19761 81.785762 
L 282.369315 110.406212 
L 283.541021 83.89309 
L 284.712726 108.272667 
L 285.884432 115.311119 
L 287.056137 70.11158 
L 288.227843 92.852518 
L 289.399548 106.170969 
L 290.571254 89.481786 
L 291.742959 95.061903 
L 292.914665 93.787179 
L 294.08637 84.431849 
L 295.258076 89.567307 
L 296.429781 99.426788 
L 297.601487 80.893525 
L 298.773192 106.651785 
L 299.944898 78.593753 
L 301.116603 90.16418 
L 302.288308 99.924992 
L 303.460014 104.545758 
L 304.631719 92.714209 
L 305.803425 68.966305 
L 306.97513 80.467804 
L 308.146836 108.285648 
L 309.318541 79.506833 
L 310.490247 80.88374 
L 311.661952 90.983808 
L 312.833658 89.964096 
L 314.005363 82.599866 
L 315.177069 94.530663 
L 316.348774 63.447847 
L 317.52048 60.860855 
L 318.692185 52.003782 
L 319.863891 79.901304 
L 321.035596 80.534038 
L 322.207302 91.053211 
L 323.379007 80.21228 
L 324.550713 52.932758 
L 325.722418 51.48568 
L 326.894124 50.850017 
L 328.065829 97.864595 
L 329.237535 78.547063 
L 330.40924 79.786616 
L 331.580946 77.544561 
L 332.752651 81.387469 
L 333.924357 86.143499 
L 335.096062 58.807999 
L 336.267768 84.721088 
L 337.439473 77.056278 
L 338.611179 78.806133 
L 339.782884 83.506153 
L 340.95459 76.206031 
L 342.126295 119.3945 
L 343.298001 99.398948 
L 344.469706 117.550094 
L 345.641412 89.212717 
L 346.813117 76.536154 
L 347.984823 92.972057 
L 349.156528 83.41822 
L 350.328234 100.106348 
L 351.499939 106.568426 
L 352.671645 81.188732 
L 353.84335 112.844789 
L 355.015056 74.315485 
L 356.186761 83.213019 
L 357.358467 106.175365 
L 358.530172 68.884997 
L 359.701878 72.966465 
L 360.873583 45.89127 
L 362.045289 66.806121 
L 363.216994 75.917931 
L 364.3887 68.143132 
L 365.560405 68.68424 
L 366.73211 52.959569 
L 367.903816 79.374758 
L 369.075521 89.343242 
L 370.247227 62.330437 
L 371.418932 85.285212 
L 372.590638 101.341782 
L 373.762343 94.299648 
L 374.934049 76.391615 
L 376.105754 67.83722 
L 377.27746 60.819749 
L 378.449165 89.29027 
L 379.620871 71.664072 
L 380.792576 65.736596 
L 381.964282 80.249723 
L 383.135987 81.123752 
L 384.307693 138.450855 
L 385.479398 76.879371 
L 386.651104 54.312337 
L 387.822809 124.77498 
L 388.994515 153.983386 
L 390.16622 113.987021 
L 391.337926 83.021149 
L 392.509631 61.776646 
L 393.681337 101.40958 
L 394.853042 90.867147 
L 396.024748 67.782986 
L 397.196453 98.081246 
L 398.368159 63.800301 
L 399.539864 63.244908 
L 400.71157 99.716331 
L 401.883275 57.204147 
L 403.054981 103.516255 
L 404.226686 75.779256 
L 405.398392 84.632914 
L 406.570097 66.84972 
L 407.741803 111.724738 
L 408.913508 85.524274 
L 410.085214 110.375332 
L 411.256919 77.695287 
L 412.428625 62.836699 
L 413.60033 68.981112 
L 414.772036 71.71966 
L 415.943741 72.890499 
L 417.115447 75.756668 
L 418.287152 51.106017 
L 419.458858 80.627897 
L 420.630563 53.986972 
L 421.802269 41.519488 
L 422.973974 77.70537 
L 424.14568 72.133413 
L 425.317385 72.775128 
L 426.489091 118.171136 
L 427.660796 106.353413 
L 428.832502 63.301424 
L 430.004207 68.025441 
L 431.175913 106.24919 
L 432.347618 68.853424 
L 433.519323 79.112587 
L 434.691029 76.018562 
L 435.862734 69.365282 
L 437.03444 70.627057 
L 439.377851 109.352477 
L 440.549556 82.721039 
L 441.721262 86.205561 
L 442.892967 69.673751 
L 444.064673 69.996261 
L 445.236378 53.329989 
L 447.579789 111.407716 
L 448.751495 54.520526 
L 449.9232 107.764292 
L 451.094906 47.078235 
L 452.266611 56.829304 
L 453.438317 39.643668 
L 454.610022 90.582549 
L 454.610022 90.582549 
" clip-path="url(#p729162ef14)" style="fill: none; stroke: #808080; stroke-opacity: 0.5; stroke-width: 0.5; stroke-linecap: round"/>
   </g>
   <g id="line2d_19">
    <path d="M 267.137144 63.036821 
L 268.308849 49.238791 
L 269.480555 64.897613 
L 270.65226 67.404059 
L 272.995671 125.286697 
L 274.167377 76.704773 
L 275.339082 100.838492 
L 276.510788 99.771165 
L 277.682493 106.982733 
L 278.854199 106.04602 
L 280.025904 104.036641 
L 281.19761 110.79187 
L 282.369315 69.675297 
L 283.541021 87.290435 
L 284.712726 78.01846 
L 285.884432 76.224207 
L 287.056137 90.183426 
L 288.227843 81.973737 
L 289.399548 78.686171 
L 290.571254 101.415147 
L 291.742959 93.030818 
L 292.914665 106.554917 
L 294.08637 102.349149 
L 295.258076 72.064146 
L 296.429781 95.99353 
L 297.601487 43.759697 
L 298.773192 77.456215 
L 299.944898 67.796979 
L 301.116603 82.76471 
L 302.288308 105.405126 
L 303.460014 81.259723 
L 304.631719 63.568862 
L 305.803425 53.211778 
L 306.97513 68.521051 
L 308.146836 29.697797 
L 309.318541 44.50322 
L 310.490247 61.270579 
L 311.661952 94.12341 
L 312.833658 107.426885 
L 314.005363 110.23388 
L 315.177069 85.997467 
L 316.348774 95.360405 
L 317.52048 89.730465 
L 318.692185 72.167854 
L 319.863891 68.890714 
L 321.035596 88.066162 
L 322.207302 92.445249 
L 323.379007 64.790006 
L 324.550713 62.733566 
L 325.722418 71.128285 
L 326.894124 71.726176 
L 328.065829 96.909895 
L 329.237535 74.493179 
L 330.40924 80.332074 
L 331.580946 80.766223 
L 332.752651 94.819244 
L 333.924357 59.347279 
L 335.096062 80.54211 
L 336.267768 79.112028 
L 337.439473 94.247967 
L 339.782884 58.704662 
L 340.95459 78.721834 
L 342.126295 69.541728 
L 343.298001 112.051508 
L 344.469706 93.585346 
L 346.813117 69.280956 
L 347.984823 77.785774 
L 349.156528 55.684675 
L 350.328234 90.636183 
L 351.499939 89.856917 
L 352.671645 72.648785 
L 353.84335 79.822017 
L 355.015056 77.99346 
L 356.186761 55.058005 
L 357.358467 66.040346 
L 358.530172 109.148081 
L 359.701878 68.135273 
L 360.873583 89.183712 
L 362.045289 79.759893 
L 363.216994 87.895193 
L 364.3887 68.454301 
L 365.560405 82.945021 
L 366.73211 93.306101 
L 367.903816 62.882552 
L 369.075521 80.109022 
L 370.247227 63.843189 
L 371.418932 80.527454 
L 372.590638 90.918666 
L 373.762343 76.380253 
L 374.934049 78.179535 
L 376.105754 62.322298 
L 377.27746 65.081031 
L 378.449165 77.947934 
L 379.620871 68.112408 
L 380.792576 66.260735 
L 381.964282 47.871472 
L 383.135987 63.58931 
L 384.307693 85.899561 
L 385.479398 52.616226 
L 386.651104 74.802521 
L 387.822809 93.813526 
L 388.994515 84.700923 
L 390.16622 69.32893 
L 391.337926 101.445181 
L 392.509631 89.744574 
L 393.681337 55.829434 
L 394.853042 66.952988 
L 396.024748 62.813156 
L 397.196453 86.697145 
L 398.368159 79.077953 
L 399.539864 57.735676 
L 400.71157 90.669418 
L 401.883275 69.599368 
L 403.054981 75.957127 
L 404.226686 99.326157 
L 405.398392 74.94366 
L 406.570097 71.505964 
L 407.741803 69.062002 
L 408.913508 71.030906 
L 410.085214 94.963355 
L 411.256919 56.630051 
L 412.428625 102.983883 
L 413.60033 53.59601 
L 414.772036 90.481025 
L 415.943741 83.601506 
L 417.115447 49.855274 
L 418.287152 40.061373 
L 419.458858 48.174382 
L 420.630563 63.027834 
L 421.802269 73.305532 
L 422.973974 60.574056 
L 424.14568 74.741353 
L 425.317385 97.031444 
L 426.489091 44.325459 
L 427.660796 87.028066 
L 428.832502 95.855351 
L 430.004207 84.187853 
L 431.175913 85.025657 
L 432.347618 114.193512 
L 433.519323 86.992555 
L 434.691029 114.322162 
L 435.862734 59.067088 
L 437.03444 91.725314 
L 438.206145 74.183295 
L 439.377851 94.569092 
L 440.549556 85.630513 
L 441.721262 96.70766 
L 442.892967 59.532972 
L 445.236378 76.887548 
L 446.408084 59.052677 
L 447.579789 74.561455 
L 448.751495 93.898133 
L 449.9232 91.542502 
L 451.094906 70.108124 
L 452.266611 87.108642 
L 453.438317 93.71327 
L 454.610022 127.58079 
L 454.610022 127.58079 
" clip-path="url(#p729162ef14)" style="fill: none; stroke: #808080; stroke-opacity: 0.5; stroke-width: 0.5; stroke-linecap: round"/>
   </g>
   <g id="line2d_20">
    <path d="M 267.137144 54.832758 
L 268.308849 29.512933 
L 269.480555 47.808608 
L 270.65226 59.095675 
L 271.823966 48.279583 
L 274.167377 93.995282 
L 275.339082 57.324689 
L 276.510788 98.818444 
L 277.682493 69.499905 
L 278.854199 91.509122 
L 280.025904 91.813367 
L 281.19761 68.149089 
L 282.369315 109.712063 
L 283.541021 72.826913 
L 284.712726 83.99086 
L 285.884432 81.644842 
L 287.056137 64.689317 
L 288.227843 40.829497 
L 289.399548 73.110842 
L 290.571254 78.509432 
L 291.742959 88.220402 
L 292.914665 63.13686 
L 294.08637 81.3093 
L 295.258076 71.166448 
L 296.429781 118.938398 
L 297.601487 115.947492 
L 298.773192 90.019856 
L 299.944898 59.114306 
L 301.116603 56.658084 
L 302.288308 57.719975 
L 303.460014 82.267018 
L 304.631719 75.218844 
L 305.803425 69.863789 
L 306.97513 66.861744 
L 308.146836 70.064979 
L 309.318541 93.31447 
L 310.490247 79.554218 
L 311.661952 97.133318 
L 312.833658 96.697578 
L 314.005363 93.040692 
L 315.177069 91.670724 
L 316.348774 68.763762 
L 317.52048 88.685049 
L 318.692185 100.012676 
L 319.863891 116.706641 
L 321.035596 137.577836 
L 322.207302 123.285121 
L 323.379007 72.516116 
L 324.550713 92.568814 
L 325.722418 76.192716 
L 326.894124 77.547354 
L 328.065829 116.175839 
L 329.237535 71.35494 
L 330.40924 85.652271 
L 331.580946 93.622293 
L 332.752651 91.552287 
L 333.924357 88.922606 
L 335.096062 76.647823 
L 336.267768 84.535248 
L 337.439473 88.169065 
L 338.611179 96.44353 
L 339.782884 97.707421 
L 340.95459 81.687015 
L 342.126295 56.548649 
L 343.298001 88.5418 
L 344.469706 94.894558 
L 345.641412 83.498488 
L 346.813117 79.961627 
L 347.984823 114.151495 
L 349.156528 104.70145 
L 350.328234 108.781335 
L 351.499939 81.495432 
L 352.671645 84.167427 
L 353.84335 71.99901 
L 355.015056 83.520397 
L 356.186761 83.455516 
L 357.358467 90.083379 
L 358.530172 67.7872 
L 359.701878 85.09106 
L 360.873583 73.722909 
L 362.045289 74.984022 
L 363.216994 77.292812 
L 364.3887 92.395688 
L 365.560405 94.704081 
L 366.73211 72.258434 
L 367.903816 82.647104 
L 369.075521 78.241935 
L 370.247227 86.724118 
L 371.418932 107.055196 
L 372.590638 120.837155 
L 373.762343 114.195777 
L 374.934049 104.792788 
L 376.105754 110.830153 
L 378.449165 74.706202 
L 380.792576 109.554999 
L 381.964282 71.320516 
L 383.135987 67.501835 
L 384.307693 79.241482 
L 385.479398 80.738534 
L 386.651104 84.800531 
L 387.822809 52.145621 
L 388.994515 74.668316 
L 390.16622 83.320622 
L 391.337926 120.128186 
L 392.509631 55.583538 
L 393.681337 89.229645 
L 396.024748 81.284127 
L 397.196453 74.600563 
L 398.368159 101.407675 
L 399.539864 83.354994 
L 400.71157 102.181664 
L 401.883275 79.090328 
L 403.054981 89.630141 
L 404.226686 65.06616 
L 405.398392 45.036566 
L 406.570097 79.922388 
L 407.741803 98.836907 
L 408.913508 64.525198 
L 410.085214 97.461426 
L 411.256919 77.822736 
L 412.428625 78.34769 
L 413.60033 98.607934 
L 414.772036 121.050039 
L 415.943741 92.953218 
L 417.115447 53.794 
L 418.287152 73.880152 
L 419.458858 99.753768 
L 420.630563 92.012767 
L 421.802269 131.951377 
L 424.14568 92.72651 
L 425.317385 63.614821 
L 426.489091 86.535172 
L 427.660796 88.381962 
L 428.832502 87.065942 
L 430.004207 105.305182 
L 431.175913 92.164605 
L 432.347618 88.236578 
L 433.519323 124.081018 
L 434.691029 71.541511 
L 435.862734 108.020338 
L 437.03444 116.029995 
L 438.206145 102.526332 
L 439.377851 108.882865 
L 440.549556 98.475524 
L 441.721262 126.458158 
L 442.892967 59.042893 
L 444.064673 73.804128 
L 445.236378 80.013006 
L 446.408084 62.754948 
L 447.579789 84.608321 
L 448.751495 86.485114 
L 449.9232 73.621432 
L 451.094906 75.950329 
L 452.266611 102.848106 
L 453.438317 83.073947 
L 454.610022 97.159624 
L 454.610022 97.159624 
" clip-path="url(#p729162ef14)" style="fill: none; stroke: #808080; stroke-opacity: 0.5; stroke-width: 0.5; stroke-linecap: round"/>
   </g>
   <g id="patch_9">
    <path d="M 257.7635 160.465541 
L 257.7635 17.735865 
" style="fill: none; stroke: #ffffff; stroke-width: 1.25; stroke-linejoin: miter; stroke-linecap: square"/>
   </g>
   <g id="patch_10">
    <path d="M 463.983666 160.465541 
L 463.983666 17.735865 
" style="fill: none; stroke: #ffffff; stroke-width: 1.25; stroke-linejoin: miter; stroke-linecap: square"/>
   </g>
   <g id="patch_11">
    <path d="M 257.7635 160.465541 
L 463.983666 160.465541 
" style="fill: none; stroke: #ffffff; stroke-width: 1.25; stroke-linejoin: miter; stroke-linecap: square"/>
   </g>
   <g id="patch_12">
    <path d="M 257.7635 17.735865 
L 463.983666 17.735865 
" style="fill: none; stroke: #ffffff; stroke-width: 1.25; stroke-linejoin: miter; stroke-linecap: square"/>
   </g>
   <g id="text_20">
    <!-- Internal variability (10/35 members) -->
    <g style="fill: #262626" transform="translate(266.843271 11.735865) scale(0.12 -0.12)">
     <defs>
      <path id="ArialMT-49" d="M 597 0 
L 597 4581 
L 1203 4581 
L 1203 0 
L 597 0 
z
" transform="scale(0.015625)"/>
      <path id="ArialMT-74" d="M 1650 503 
L 1731 6 
Q 1494 -44 1306 -44 
Q 1000 -44 831 53 
Q 663 150 594 308 
Q 525 466 525 972 
L 525 2881 
L 113 2881 
L 113 3319 
L 525 3319 
L 525 4141 
L 1084 4478 
L 1084 3319 
L 1650 3319 
L 1650 2881 
L 1084 2881 
L 1084 941 
Q 1084 700 1114 631 
Q 1144 563 1211 522 
Q 1278 481 1403 481 
Q 1497 481 1650 503 
z
" transform="scale(0.015625)"/>
      <path id="ArialMT-76" d="M 1344 0 
L 81 3319 
L 675 3319 
L 1388 1331 
Q 1503 1009 1600 663 
Q 1675 925 1809 1294 
L 2547 3319 
L 3125 3319 
L 1869 0 
L 1344 0 
z
" transform="scale(0.015625)"/>
      <path id="ArialMT-79" d="M 397 -1278 
L 334 -750 
Q 519 -800 656 -800 
Q 844 -800 956 -737 
Q 1069 -675 1141 -563 
Q 1194 -478 1313 -144 
Q 1328 -97 1363 -6 
L 103 3319 
L 709 3319 
L 1400 1397 
Q 1534 1031 1641 628 
Q 1738 1016 1872 1384 
L 2581 3319 
L 3144 3319 
L 1881 -56 
Q 1678 -603 1566 -809 
Q 1416 -1088 1222 -1217 
Q 1028 -1347 759 -1347 
Q 597 -1347 397 -1278 
z
" transform="scale(0.015625)"/>
      <path id="ArialMT-28" d="M 1497 -1347 
Q 1031 -759 709 28 
Q 388 816 388 1659 
Q 388 2403 628 3084 
Q 909 3875 1497 4659 
L 1900 4659 
Q 1522 4009 1400 3731 
Q 1209 3300 1100 2831 
Q 966 2247 966 1656 
Q 966 153 1900 -1347 
L 1497 -1347 
z
" transform="scale(0.015625)"/>
      <path id="ArialMT-2f" d="M 0 -78 
L 1328 4659 
L 1778 4659 
L 453 -78 
L 0 -78 
z
" transform="scale(0.015625)"/>
      <path id="ArialMT-33" d="M 269 1209 
L 831 1284 
Q 928 806 1161 595 
Q 1394 384 1728 384 
Q 2125 384 2398 659 
Q 2672 934 2672 1341 
Q 2672 1728 2419 1979 
Q 2166 2231 1775 2231 
Q 1616 2231 1378 2169 
L 1441 2663 
Q 1497 2656 1531 2656 
Q 1891 2656 2178 2843 
Q 2466 3031 2466 3422 
Q 2466 3731 2256 3934 
Q 2047 4138 1716 4138 
Q 1388 4138 1169 3931 
Q 950 3725 888 3313 
L 325 3413 
Q 428 3978 793 4289 
Q 1159 4600 1703 4600 
Q 2078 4600 2393 4439 
Q 2709 4278 2876 4000 
Q 3044 3722 3044 3409 
Q 3044 3113 2884 2869 
Q 2725 2625 2413 2481 
Q 2819 2388 3044 2092 
Q 3269 1797 3269 1353 
Q 3269 753 2831 336 
Q 2394 -81 1725 -81 
Q 1122 -81 723 278 
Q 325 638 269 1209 
z
" transform="scale(0.015625)"/>
      <path id="ArialMT-35" d="M 266 1200 
L 856 1250 
Q 922 819 1161 601 
Q 1400 384 1738 384 
Q 2144 384 2425 690 
Q 2706 997 2706 1503 
Q 2706 1984 2436 2262 
Q 2166 2541 1728 2541 
Q 1456 2541 1237 2417 
Q 1019 2294 894 2097 
L 366 2166 
L 809 4519 
L 3088 4519 
L 3088 3981 
L 1259 3981 
L 1013 2750 
Q 1425 3038 1878 3038 
Q 2478 3038 2890 2622 
Q 3303 2206 3303 1553 
Q 3303 931 2941 478 
Q 2500 -78 1738 -78 
Q 1113 -78 717 272 
Q 322 622 266 1200 
z
" transform="scale(0.015625)"/>
      <path id="ArialMT-29" d="M 791 -1347 
L 388 -1347 
Q 1322 153 1322 1656 
Q 1322 2244 1188 2822 
Q 1081 3291 891 3722 
Q 769 4003 388 4659 
L 791 4659 
Q 1378 3875 1659 3084 
Q 1900 2403 1900 1659 
Q 1900 816 1576 28 
Q 1253 -759 791 -1347 
z
" transform="scale(0.015625)"/>
     </defs>
     <use xlink:href="#ArialMT-49"/>
     <use xlink:href="#ArialMT-6e" transform="translate(27.783203 0)"/>
     <use xlink:href="#ArialMT-74" transform="translate(83.398438 0)"/>
     <use xlink:href="#ArialMT-65" transform="translate(111.181641 0)"/>
     <use xlink:href="#ArialMT-72" transform="translate(166.796875 0)"/>
     <use xlink:href="#ArialMT-6e" transform="translate(200.097656 0)"/>
     <use xlink:href="#ArialMT-61" transform="translate(255.712891 0)"/>
     <use xlink:href="#ArialMT-6c" transform="translate(311.328125 0)"/>
     <use xlink:href="#ArialMT-20" transform="translate(333.544922 0)"/>
     <use xlink:href="#ArialMT-76" transform="translate(361.328125 0)"/>
     <use xlink:href="#ArialMT-61" transform="translate(411.328125 0)"/>
     <use xlink:href="#ArialMT-72" transform="translate(466.943359 0)"/>
     <use xlink:href="#ArialMT-69" transform="translate(500.244141 0)"/>
     <use xlink:href="#ArialMT-61" transform="translate(522.460938 0)"/>
     <use xlink:href="#ArialMT-62" transform="translate(578.076172 0)"/>
     <use xlink:href="#ArialMT-69" transform="translate(633.691406 0)"/>
     <use xlink:href="#ArialMT-6c" transform="translate(655.908203 0)"/>
     <use xlink:href="#ArialMT-69" transform="translate(678.125 0)"/>
     <use xlink:href="#ArialMT-74" transform="translate(700.341797 0)"/>
     <use xlink:href="#ArialMT-79" transform="translate(728.125 0)"/>
     <use xlink:href="#ArialMT-20" transform="translate(778.125 0)"/>
     <use xlink:href="#ArialMT-28" transform="translate(805.908203 0)"/>
     <use xlink:href="#ArialMT-31" transform="translate(839.208984 0)"/>
     <use xlink:href="#ArialMT-30" transform="translate(894.824219 0)"/>
     <use xlink:href="#ArialMT-2f" transform="translate(950.439453 0)"/>
     <use xlink:href="#ArialMT-33" transform="translate(978.222656 0)"/>
     <use xlink:href="#ArialMT-35" transform="translate(1033.837891 0)"/>
     <use xlink:href="#ArialMT-20" transform="translate(1089.453125 0)"/>
     <use xlink:href="#ArialMT-6d" transform="translate(1117.236328 0)"/>
     <use xlink:href="#ArialMT-65" transform="translate(1200.537109 0)"/>
     <use xlink:href="#ArialMT-6d" transform="translate(1256.152344 0)"/>
     <use xlink:href="#ArialMT-62" transform="translate(1339.453125 0)"/>
     <use xlink:href="#ArialMT-65" transform="translate(1395.068359 0)"/>
     <use xlink:href="#ArialMT-72" transform="translate(1450.683594 0)"/>
     <use xlink:href="#ArialMT-73" transform="translate(1483.984375 0)"/>
     <use xlink:href="#ArialMT-29" transform="translate(1533.984375 0)"/>
    </g>
   </g>
  </g>
 </g>
 <defs>
  <clipPath id="pe10480d158">
   <rect x="39.708678" y="17.735865" width="206.220166" height="142.729676"/>
  </clipPath>
  <clipPath id="p729162ef14">
   <rect x="257.7635" y="17.735865" width="206.220166" height="142.729676"/>
  </clipPath>
 </defs>
</svg>
