<?xml version="1.0" encoding="utf-8" standalone="no"?>
<!DOCTYPE svg PUBLIC "-//W3C//DTD SVG 1.1//EN"
  "http://www.w3.org/Graphics/SVG/1.1/DTD/svg11.dtd">
<svg xmlns:xlink="http://www.w3.org/1999/xlink" width="504pt" height="198pt" viewBox="0 0 504 198" xmlns="http://www.w3.org/2000/svg" version="1.1">
 <metadata>
  <rdf:RDF xmlns:dc="http://purl.org/dc/elements/1.1/" xmlns:cc="http://creativecommons.org/ns#" xmlns:rdf="http://www.w3.org/1999/02/22-rdf-syntax-ns#">
   <cc:Work>
    <dc:type rdf:resource="http://purl.org/dc/dcmitype/StillImage"/>
    <dc:date>2025-06-28T16:35:36.915659</dc:date>
    <dc:format>image/svg+xml</dc:format>
    <dc:creator>
     <cc:Agent>
      <dc:title>Matplotlib v3.10.3, https://matplotlib.org/</dc:title>
     </cc:Agent>
    </dc:creator>
   </cc:Work>
  </rdf:RDF>
 </metadata>
 <defs>
  <style type="text/css">*{stroke-linejoin: round; stroke-linecap: butt}</style>
 </defs>
 <g id="figure_1">
  <g id="patch_1">
   <path d="M 0 198 
L 504 198 
L 504 0 
L 0 0 
z
" style="fill: #ffffff"/>
  </g>
  <g id="axes_1">
   <g id="patch_2">
    <path d="M 48.881646 160.465541 
L 250.306852 160.465541 
L 250.306852 17.589615 
L 48.881646 17.589615 
z
" style="fill: #ffffff"/>
   </g>
   <g id="matplotlib.axis_1">
    <g id="xtick_1">
     <g id="text_1">
      <!-- 1920 -->
      <g style="fill: #262626" transform="translate(45.803275 177.839135) scale(0.11 -0.11)">
       <defs>
        <path id="ArialMT-31" d="M 2384 0 
L 1822 0 
L 1822 3584 
Q 1619 3391 1289 3197 
Q 959 3003 697 2906 
L 697 3450 
Q 1169 3672 1522 3987 
Q 1875 4303 2022 4600 
L 2384 4600 
L 2384 0 
z
" transform="scale(0.015625)"/>
        <path id="ArialMT-39" d="M 350 1059 
L 891 1109 
Q 959 728 1153 556 
Q 1347 384 1650 384 
Q 1909 384 2104 503 
Q 2300 622 2425 820 
Q 2550 1019 2634 1356 
Q 2719 1694 2719 2044 
Q 2719 2081 2716 2156 
Q 2547 1888 2255 1720 
Q 1963 1553 1622 1553 
Q 1053 1553 659 1965 
Q 266 2378 266 3053 
Q 266 3750 677 4175 
Q 1088 4600 1706 4600 
Q 2153 4600 2523 4359 
Q 2894 4119 3086 3673 
Q 3278 3228 3278 2384 
Q 3278 1506 3087 986 
Q 2897 466 2520 194 
Q 2144 -78 1638 -78 
Q 1100 -78 759 220 
Q 419 519 350 1059 
z
M 2653 3081 
Q 2653 3566 2395 3850 
Q 2138 4134 1775 4134 
Q 1400 4134 1122 3828 
Q 844 3522 844 3034 
Q 844 2597 1108 2323 
Q 1372 2050 1759 2050 
Q 2150 2050 2401 2323 
Q 2653 2597 2653 3081 
z
" transform="scale(0.015625)"/>
        <path id="ArialMT-32" d="M 3222 541 
L 3222 0 
L 194 0 
Q 188 203 259 391 
Q 375 700 629 1000 
Q 884 1300 1366 1694 
Q 2113 2306 2375 2664 
Q 2638 3022 2638 3341 
Q 2638 3675 2398 3904 
Q 2159 4134 1775 4134 
Q 1369 4134 1125 3890 
Q 881 3647 878 3216 
L 300 3275 
Q 359 3922 746 4261 
Q 1134 4600 1788 4600 
Q 2447 4600 2831 4234 
Q 3216 3869 3216 3328 
Q 3216 3053 3103 2787 
Q 2991 2522 2730 2228 
Q 2469 1934 1863 1422 
Q 1356 997 1212 845 
Q 1069 694 975 541 
L 3222 541 
z
" transform="scale(0.015625)"/>
        <path id="ArialMT-30" d="M 266 2259 
Q 266 3072 433 3567 
Q 600 4063 929 4331 
Q 1259 4600 1759 4600 
Q 2128 4600 2406 4451 
Q 2684 4303 2865 4023 
Q 3047 3744 3150 3342 
Q 3253 2941 3253 2259 
Q 3253 1453 3087 958 
Q 2922 463 2592 192 
Q 2263 -78 1759 -78 
Q 1097 -78 719 397 
Q 266 969 266 2259 
z
M 844 2259 
Q 844 1131 1108 757 
Q 1372 384 1759 384 
Q 2147 384 2411 759 
Q 2675 1134 2675 2259 
Q 2675 3391 2411 3762 
Q 2147 4134 1753 4134 
Q 1366 4134 1134 3806 
Q 844 3388 844 2259 
z
" transform="scale(0.015625)"/>
       </defs>
       <use xlink:href="#ArialMT-31"/>
       <use xlink:href="#ArialMT-39" transform="translate(55.615234 0)"/>
       <use xlink:href="#ArialMT-32" transform="translate(111.230469 0)"/>
       <use xlink:href="#ArialMT-30" transform="translate(166.845703 0)"/>
      </g>
     </g>
    </g>
    <g id="xtick_2">
     <g id="text_2">
      <!-- 2006 -->
      <g style="fill: #262626" transform="translate(144.226955 177.839135) scale(0.11 -0.11)">
       <defs>
        <path id="ArialMT-36" d="M 3184 3459 
L 2625 3416 
Q 2550 3747 2413 3897 
Q 2184 4138 1850 4138 
Q 1581 4138 1378 3988 
Q 1113 3794 959 3422 
Q 806 3050 800 2363 
Q 1003 2672 1297 2822 
Q 1591 2972 1913 2972 
Q 2475 2972 2870 2558 
Q 3266 2144 3266 1488 
Q 3266 1056 3080 686 
Q 2894 316 2569 119 
Q 2244 -78 1831 -78 
Q 1128 -78 684 439 
Q 241 956 241 2144 
Q 241 3472 731 4075 
Q 1159 4600 1884 4600 
Q 2425 4600 2770 4297 
Q 3116 3994 3184 3459 
z
M 888 1484 
Q 888 1194 1011 928 
Q 1134 663 1356 523 
Q 1578 384 1822 384 
Q 2178 384 2434 671 
Q 2691 959 2691 1453 
Q 2691 1928 2437 2201 
Q 2184 2475 1800 2475 
Q 1419 2475 1153 2201 
Q 888 1928 888 1484 
z
" transform="scale(0.015625)"/>
       </defs>
       <use xlink:href="#ArialMT-32"/>
       <use xlink:href="#ArialMT-30" transform="translate(55.615234 0)"/>
       <use xlink:href="#ArialMT-30" transform="translate(111.230469 0)"/>
       <use xlink:href="#ArialMT-36" transform="translate(166.845703 0)"/>
      </g>
     </g>
    </g>
    <g id="xtick_3">
     <g id="text_3">
      <!-- 2080 -->
      <g style="fill: #262626" transform="translate(228.917098 177.839135) scale(0.11 -0.11)">
       <defs>
        <path id="ArialMT-38" d="M 1131 2484 
Q 781 2613 612 2850 
Q 444 3088 444 3419 
Q 444 3919 803 4259 
Q 1163 4600 1759 4600 
Q 2359 4600 2725 4251 
Q 3091 3903 3091 3403 
Q 3091 3084 2923 2848 
Q 2756 2613 2416 2484 
Q 2838 2347 3058 2040 
Q 3278 1734 3278 1309 
Q 3278 722 2862 322 
Q 2447 -78 1769 -78 
Q 1091 -78 675 323 
Q 259 725 259 1325 
Q 259 1772 486 2073 
Q 713 2375 1131 2484 
z
M 1019 3438 
Q 1019 3113 1228 2906 
Q 1438 2700 1772 2700 
Q 2097 2700 2305 2904 
Q 2513 3109 2513 3406 
Q 2513 3716 2298 3927 
Q 2084 4138 1766 4138 
Q 1444 4138 1231 3931 
Q 1019 3725 1019 3438 
z
M 838 1322 
Q 838 1081 952 856 
Q 1066 631 1291 507 
Q 1516 384 1775 384 
Q 2178 384 2440 643 
Q 2703 903 2703 1303 
Q 2703 1709 2433 1975 
Q 2163 2241 1756 2241 
Q 1359 2241 1098 1978 
Q 838 1716 838 1322 
z
" transform="scale(0.015625)"/>
       </defs>
       <use xlink:href="#ArialMT-32"/>
       <use xlink:href="#ArialMT-30" transform="translate(55.615234 0)"/>
       <use xlink:href="#ArialMT-38" transform="translate(111.230469 0)"/>
       <use xlink:href="#ArialMT-30" transform="translate(166.845703 0)"/>
      </g>
     </g>
    </g>
    <g id="text_4">
     <!-- Year -->
     <g style="fill: #262626" transform="translate(137.468624 192.61476) scale(0.12 -0.12)">
      <defs>
       <path id="ArialMT-59" d="M 1784 0 
L 1784 1941 
L 19 4581 
L 756 4581 
L 1659 3200 
Q 1909 2813 2125 2425 
Q 2331 2784 2625 3234 
L 3513 4581 
L 4219 4581 
L 2391 1941 
L 2391 0 
L 1784 0 
z
" transform="scale(0.015625)"/>
       <path id="ArialMT-65" d="M 2694 1069 
L 3275 997 
Q 3138 488 2766 206 
Q 2394 -75 1816 -75 
Q 1088 -75 661 373 
Q 234 822 234 1631 
Q 234 2469 665 2931 
Q 1097 3394 1784 3394 
Q 2450 3394 2872 2941 
Q 3294 2488 3294 1666 
Q 3294 1616 3291 1516 
L 816 1516 
Q 847 969 1125 678 
Q 1403 388 1819 388 
Q 2128 388 2347 550 
Q 2566 713 2694 1069 
z
M 847 1978 
L 2700 1978 
Q 2663 2397 2488 2606 
Q 2219 2931 1791 2931 
Q 1403 2931 1139 2672 
Q 875 2413 847 1978 
z
" transform="scale(0.015625)"/>
       <path id="ArialMT-61" d="M 2588 409 
Q 2275 144 1986 34 
Q 1697 -75 1366 -75 
Q 819 -75 525 192 
Q 231 459 231 875 
Q 231 1119 342 1320 
Q 453 1522 633 1644 
Q 813 1766 1038 1828 
Q 1203 1872 1538 1913 
Q 2219 1994 2541 2106 
Q 2544 2222 2544 2253 
Q 2544 2597 2384 2738 
Q 2169 2928 1744 2928 
Q 1347 2928 1158 2789 
Q 969 2650 878 2297 
L 328 2372 
Q 403 2725 575 2942 
Q 747 3159 1072 3276 
Q 1397 3394 1825 3394 
Q 2250 3394 2515 3294 
Q 2781 3194 2906 3042 
Q 3031 2891 3081 2659 
Q 3109 2516 3109 2141 
L 3109 1391 
Q 3109 606 3145 398 
Q 3181 191 3288 0 
L 2700 0 
Q 2613 175 2588 409 
z
M 2541 1666 
Q 2234 1541 1622 1453 
Q 1275 1403 1131 1340 
Q 988 1278 909 1158 
Q 831 1038 831 891 
Q 831 666 1001 516 
Q 1172 366 1500 366 
Q 1825 366 2078 508 
Q 2331 650 2450 897 
Q 2541 1088 2541 1459 
L 2541 1666 
z
" transform="scale(0.015625)"/>
       <path id="ArialMT-72" d="M 416 0 
L 416 3319 
L 922 3319 
L 922 2816 
Q 1116 3169 1280 3281 
Q 1444 3394 1641 3394 
Q 1925 3394 2219 3213 
L 2025 2691 
Q 1819 2813 1613 2813 
Q 1428 2813 1281 2702 
Q 1134 2591 1072 2394 
Q 978 2094 978 1738 
L 978 0 
L 416 0 
z
" transform="scale(0.015625)"/>
      </defs>
      <use xlink:href="#ArialMT-59"/>
      <use xlink:href="#ArialMT-65" transform="translate(57.574219 0)"/>
      <use xlink:href="#ArialMT-61" transform="translate(113.189453 0)"/>
      <use xlink:href="#ArialMT-72" transform="translate(168.804688 0)"/>
     </g>
    </g>
   </g>
   <g id="matplotlib.axis_2">
    <g id="ytick_1">
     <g id="text_5">
      <!-- 22.0 -->
      <g style="fill: #262626" transform="translate(17.974615 155.10766) scale(0.11 -0.11)">
       <defs>
        <path id="ArialMT-2e" d="M 581 0 
L 581 641 
L 1222 641 
L 1222 0 
L 581 0 
z
" transform="scale(0.015625)"/>
       </defs>
       <use xlink:href="#ArialMT-32"/>
       <use xlink:href="#ArialMT-32" transform="translate(55.615234 0)"/>
       <use xlink:href="#ArialMT-2e" transform="translate(111.230469 0)"/>
       <use xlink:href="#ArialMT-30" transform="translate(139.013672 0)"/>
      </g>
     </g>
    </g>
    <g id="ytick_2">
     <g id="text_6">
      <!-- 24.5 -->
      <g style="fill: #262626" transform="translate(17.974615 91.709565) scale(0.11 -0.11)">
       <defs>
        <path id="ArialMT-34" d="M 2069 0 
L 2069 1097 
L 81 1097 
L 81 1613 
L 2172 4581 
L 2631 4581 
L 2631 1613 
L 3250 1613 
L 3250 1097 
L 2631 1097 
L 2631 0 
L 2069 0 
z
M 2069 1613 
L 2069 3678 
L 634 1613 
L 2069 1613 
z
" transform="scale(0.015625)"/>
        <path id="ArialMT-35" d="M 266 1200 
L 856 1250 
Q 922 819 1161 601 
Q 1400 384 1738 384 
Q 2144 384 2425 690 
Q 2706 997 2706 1503 
Q 2706 1984 2436 2262 
Q 2166 2541 1728 2541 
Q 1456 2541 1237 2417 
Q 1019 2294 894 2097 
L 366 2166 
L 809 4519 
L 3088 4519 
L 3088 3981 
L 1259 3981 
L 1013 2750 
Q 1425 3038 1878 3038 
Q 2478 3038 2890 2622 
Q 3303 2206 3303 1553 
Q 3303 931 2941 478 
Q 2500 -78 1738 -78 
Q 1113 -78 717 272 
Q 322 622 266 1200 
z
" transform="scale(0.015625)"/>
       </defs>
       <use xlink:href="#ArialMT-32"/>
       <use xlink:href="#ArialMT-34" transform="translate(55.615234 0)"/>
       <use xlink:href="#ArialMT-2e" transform="translate(111.230469 0)"/>
       <use xlink:href="#ArialMT-35" transform="translate(139.013672 0)"/>
      </g>
     </g>
    </g>
    <g id="ytick_3">
     <g id="text_7">
      <!-- 27.0 -->
      <g style="fill: #262626" transform="translate(17.974615 28.311469) scale(0.11 -0.11)">
       <defs>
        <path id="ArialMT-37" d="M 303 3981 
L 303 4522 
L 3269 4522 
L 3269 4084 
Q 2831 3619 2401 2847 
Q 1972 2075 1738 1259 
Q 1569 684 1522 0 
L 944 0 
Q 953 541 1156 1306 
Q 1359 2072 1739 2783 
Q 2119 3494 2547 3981 
L 303 3981 
z
" transform="scale(0.015625)"/>
       </defs>
       <use xlink:href="#ArialMT-32"/>
       <use xlink:href="#ArialMT-37" transform="translate(55.615234 0)"/>
       <use xlink:href="#ArialMT-2e" transform="translate(111.230469 0)"/>
       <use xlink:href="#ArialMT-30" transform="translate(139.013672 0)"/>
      </g>
     </g>
    </g>
    <g id="text_8">
     <!-- $^{\circ}$C -->
     <g style="fill: #262626" transform="translate(11.589615 96.227578) rotate(-90) scale(0.12 -0.12)">
      <defs>
       <path id="DejaVuSans-2218" d="M 2003 2603 
Q 1753 2603 1581 2429 
Q 1409 2256 1409 2006 
Q 1409 1759 1581 1589 
Q 1753 1419 2003 1419 
Q 2253 1419 2425 1589 
Q 2597 1759 2597 2006 
Q 2597 2253 2423 2428 
Q 2250 2603 2003 2603 
z
M 2003 3006 
Q 2203 3006 2387 2929 
Q 2572 2853 2706 2709 
Q 2850 2569 2922 2390 
Q 2994 2212 2994 2006 
Q 2994 1594 2705 1308 
Q 2416 1022 1997 1022 
Q 1575 1022 1294 1303 
Q 1013 1584 1013 2006 
Q 1013 2425 1300 2715 
Q 1588 3006 2003 3006 
z
" transform="scale(0.015625)"/>
       <path id="ArialMT-43" d="M 3763 1606 
L 4369 1453 
Q 4178 706 3683 314 
Q 3188 -78 2472 -78 
Q 1731 -78 1267 223 
Q 803 525 561 1097 
Q 319 1669 319 2325 
Q 319 3041 592 3573 
Q 866 4106 1370 4382 
Q 1875 4659 2481 4659 
Q 3169 4659 3637 4309 
Q 4106 3959 4291 3325 
L 3694 3184 
Q 3534 3684 3231 3912 
Q 2928 4141 2469 4141 
Q 1941 4141 1586 3887 
Q 1231 3634 1087 3207 
Q 944 2781 944 2328 
Q 944 1744 1114 1308 
Q 1284 872 1643 656 
Q 2003 441 2422 441 
Q 2931 441 3284 734 
Q 3638 1028 3763 1606 
z
" transform="scale(0.015625)"/>
      </defs>
      <use xlink:href="#DejaVuSans-2218" transform="translate(0.957031 38.484375) scale(0.7)"/>
      <use xlink:href="#ArialMT-43" transform="translate(47.509766 0.203125)"/>
     </g>
    </g>
   </g>
   <g id="line2d_1">
    <path d="M 156.461017 160.465541 
L 156.461017 17.589615 
" clip-path="url(#pf37e967bd7)" style="fill: none; stroke-dasharray: 1.85,0.8; stroke-dashoffset: 0; stroke: #1a1a1a; stroke-width: 0.5"/>
   </g>
   <g id="line2d_2">
    <path d="M 58.037337 129.615694 
L 59.181799 123.197963 
L 60.32626 118.66507 
L 61.470722 122.167173 
L 62.615183 122.933433 
L 63.759644 118.441606 
L 64.904106 134.691189 
L 66.048567 131.064827 
L 67.193029 145.238175 
L 68.33749 133.545717 
L 69.481951 131.022939 
L 70.626413 127.857485 
L 71.770874 123.456736 
L 72.915336 140.081856 
L 74.059797 123.225436 
L 75.204258 127.059349 
L 76.34872 119.16032 
L 77.493181 129.029221 
L 78.637643 111.572254 
L 79.782104 118.75789 
L 80.926565 123.492191 
L 82.071027 124.244521 
L 83.215488 119.003459 
L 84.359949 130.663607 
L 85.504411 128.644543 
L 86.648872 140.954479 
L 87.793334 132.491419 
L 88.937795 133.549054 
L 90.082256 123.452577 
L 91.226718 115.135059 
L 92.371179 133.949887 
L 93.515641 130.606193 
L 94.660102 120.036377 
L 95.804563 122.483796 
L 96.949025 120.722539 
L 98.093486 128.24105 
L 99.237948 118.687562 
L 100.382409 111.064138 
L 101.52687 131.122192 
L 103.815793 124.108362 
L 104.960255 131.396009 
L 106.104716 118.542407 
L 107.249177 122.106373 
L 109.5381 153.971181 
L 110.682562 150.149118 
L 111.827023 138.678335 
L 112.971484 119.461271 
L 115.260407 137.535184 
L 116.404869 141.977578 
L 117.54933 125.752712 
L 118.693791 142.658371 
L 119.838253 144.082738 
L 120.982714 144.886968 
L 122.127176 136.648292 
L 123.271637 140.79491 
L 124.416098 130.700464 
L 125.56056 137.106249 
L 126.705021 129.584883 
L 127.849482 128.040271 
L 128.993944 124.196926 
L 130.138405 117.67138 
L 131.282867 113.923757 
L 132.427328 139.021319 
L 133.571789 120.693082 
L 134.716251 130.414217 
L 135.860712 125.589805 
L 137.005174 127.786721 
L 138.149635 127.663332 
L 139.294096 126.071318 
L 140.438558 131.587308 
L 141.583019 119.266925 
L 142.727481 113.747162 
L 145.016403 123.680442 
L 146.160865 112.970405 
L 148.449788 132.913777 
L 149.594249 105.496829 
L 151.883172 130.213679 
L 153.027633 122.868619 
L 154.172095 126.001811 
L 155.316556 126.240319 
L 156.461017 107.628446 
L 157.605479 104.730665 
L 158.74994 122.840226 
L 159.894402 114.659206 
L 161.038863 124.207712 
L 162.183324 117.526853 
L 163.327786 116.202319 
L 164.472247 109.841566 
L 165.616709 106.790262 
L 166.76117 112.268863 
L 167.905631 110.644296 
L 170.194554 94.805317 
L 171.339015 121.195635 
L 172.483477 94.59259 
L 173.627938 99.585616 
L 174.7724 98.659303 
L 175.916861 75.474538 
L 177.061322 99.189426 
L 178.205784 98.636231 
L 179.350245 106.191648 
L 180.494707 83.386095 
L 181.639168 91.903376 
L 182.783629 84.612779 
L 183.928091 95.987356 
L 185.072552 89.719374 
L 186.217014 89.377019 
L 187.361475 96.673614 
L 188.505936 94.018983 
L 189.650398 92.061252 
L 191.939321 77.175865 
L 193.083782 70.123292 
L 194.228243 76.816001 
L 195.372705 82.838414 
L 196.517166 70.143075 
L 197.661628 91.129473 
L 198.806089 78.61247 
L 199.95055 80.552209 
L 201.095012 82.818195 
L 202.239473 94.031463 
L 203.383935 76.888312 
L 204.528396 48.531943 
L 205.672857 71.411066 
L 206.817319 77.98914 
L 207.96178 74.638674 
L 209.106242 73.967314 
L 210.250703 57.605709 
L 211.395164 80.148909 
L 212.539626 47.59881 
L 213.684087 58.497293 
L 214.828548 60.985099 
L 215.97301 57.326233 
L 217.117471 58.73135 
L 218.261933 61.128706 
L 219.406394 54.253308 
L 220.550855 69.557134 
L 221.695317 46.846238 
L 222.839778 55.200032 
L 223.98424 56.88743 
L 225.128701 64.387465 
L 226.273162 47.478178 
L 227.417624 37.270355 
L 228.562085 66.939215 
L 229.706547 24.620096 
L 230.851008 25.240089 
L 231.995469 47.7711 
L 233.139931 24.567423 
L 234.284392 55.148665 
L 235.428854 37.705579 
L 236.573315 33.397409 
L 238.862238 49.437699 
L 240.006699 33.742811 
L 241.151161 24.083975 
L 241.151161 24.083975 
" clip-path="url(#pf37e967bd7)" style="fill: none; stroke: #808080; stroke-width: 1.5; stroke-linecap: round"/>
   </g>
   <g id="line2d_3">
    <path d="M 58.037337 150.996325 
L 241.151161 56.644227 
L 241.151161 56.644227 
" clip-path="url(#pf37e967bd7)" style="fill: none; stroke-dasharray: 5.55,2.4; stroke-dashoffset: 0; stroke: #c44e52; stroke-width: 1.5"/>
   </g>
   <g id="line2d_4">
    <path d="M 58.037337 122.114724 
L 62.615183 124.006422 
L 67.193029 125.680144 
L 71.770874 127.135893 
L 76.34872 128.373667 
L 80.926565 129.393467 
L 85.504411 130.195293 
L 90.082256 130.779144 
L 94.660102 131.145021 
L 99.237948 131.292923 
L 103.815793 131.222851 
L 108.393639 130.934805 
L 112.971484 130.428784 
L 117.54933 129.70479 
L 122.127176 128.76282 
L 126.705021 127.602877 
L 131.282867 126.224959 
L 135.860712 124.629067 
L 140.438558 122.8152 
L 145.016403 120.783359 
L 149.594249 118.533544 
L 154.172095 116.065754 
L 158.74994 113.37999 
L 163.327786 110.476252 
L 167.905631 107.354539 
L 173.627938 103.145872 
L 179.350245 98.59662 
L 185.072552 93.706783 
L 190.794859 88.476361 
L 196.517166 82.905354 
L 202.239473 76.993762 
L 207.96178 70.741586 
L 213.684087 64.148824 
L 219.406394 57.215478 
L 225.128701 49.941546 
L 230.851008 42.32703 
L 236.573315 34.371929 
L 241.151161 27.762627 
L 241.151161 27.762627 
" clip-path="url(#pf37e967bd7)" style="fill: none; stroke: #c44e52; stroke-width: 1.5; stroke-linecap: round"/>
   </g>
   <g id="patch_3">
    <path d="M 48.881646 160.465541 
L 48.881646 17.589615 
" style="fill: none; stroke: #ffffff; stroke-width: 1.25; stroke-linejoin: miter; stroke-linecap: square"/>
   </g>
   <g id="patch_4">
    <path d="M 250.306852 160.465541 
L 250.306852 17.589615 
" style="fill: none; stroke: #ffffff; stroke-width: 1.25; stroke-linejoin: miter; stroke-linecap: square"/>
   </g>
   <g id="patch_5">
    <path d="M 48.881646 160.465541 
L 250.306852 160.465541 
" style="fill: none; stroke: #ffffff; stroke-width: 1.25; stroke-linejoin: miter; stroke-linecap: square"/>
   </g>
   <g id="patch_6">
    <path d="M 48.881646 17.589615 
L 250.306852 17.589615 
" style="fill: none; stroke: #ffffff; stroke-width: 1.25; stroke-linejoin: miter; stroke-linecap: square"/>
   </g>
   <g id="text_9">
    <!-- Total -->
    <g style="fill: #262626" transform="translate(136.923936 11.589615) scale(0.12 -0.12)">
     <defs>
      <path id="ArialMT-54" d="M 1659 0 
L 1659 4041 
L 150 4041 
L 150 4581 
L 3781 4581 
L 3781 4041 
L 2266 4041 
L 2266 0 
L 1659 0 
z
" transform="scale(0.015625)"/>
      <path id="ArialMT-6f" d="M 213 1659 
Q 213 2581 725 3025 
Q 1153 3394 1769 3394 
Q 2453 3394 2887 2945 
Q 3322 2497 3322 1706 
Q 3322 1066 3130 698 
Q 2938 331 2570 128 
Q 2203 -75 1769 -75 
Q 1072 -75 642 372 
Q 213 819 213 1659 
z
M 791 1659 
Q 791 1022 1069 705 
Q 1347 388 1769 388 
Q 2188 388 2466 706 
Q 2744 1025 2744 1678 
Q 2744 2294 2464 2611 
Q 2184 2928 1769 2928 
Q 1347 2928 1069 2612 
Q 791 2297 791 1659 
z
" transform="scale(0.015625)"/>
      <path id="ArialMT-74" d="M 1650 503 
L 1731 6 
Q 1494 -44 1306 -44 
Q 1000 -44 831 53 
Q 663 150 594 308 
Q 525 466 525 972 
L 525 2881 
L 113 2881 
L 113 3319 
L 525 3319 
L 525 4141 
L 1084 4478 
L 1084 3319 
L 1650 3319 
L 1650 2881 
L 1084 2881 
L 1084 941 
Q 1084 700 1114 631 
Q 1144 563 1211 522 
Q 1278 481 1403 481 
Q 1497 481 1650 503 
z
" transform="scale(0.015625)"/>
      <path id="ArialMT-6c" d="M 409 0 
L 409 4581 
L 972 4581 
L 972 0 
L 409 0 
z
" transform="scale(0.015625)"/>
     </defs>
     <use xlink:href="#ArialMT-54"/>
     <use xlink:href="#ArialMT-6f" transform="translate(49.958984 0)"/>
     <use xlink:href="#ArialMT-74" transform="translate(105.574219 0)"/>
     <use xlink:href="#ArialMT-61" transform="translate(133.357422 0)"/>
     <use xlink:href="#ArialMT-6c" transform="translate(188.972656 0)"/>
    </g>
   </g>
   <g id="legend_1">
    <g id="patch_7">
     <path d="M 54.481646 58.320865 
L 139.806646 58.320865 
Q 141.406646 58.320865 141.406646 56.720865 
L 141.406646 23.189615 
Q 141.406646 21.589615 139.806646 21.589615 
L 54.481646 21.589615 
Q 52.881646 21.589615 52.881646 23.189615 
L 52.881646 56.720865 
Q 52.881646 58.320865 54.481646 58.320865 
z
" style="fill: #ffffff; opacity: 0.8; stroke: #cccccc; stroke-linejoin: miter"/>
    </g>
    <g id="line2d_5">
     <path d="M 56.081646 27.715865 
L 64.081646 27.715865 
L 72.081646 27.715865 
" style="fill: none; stroke: #808080; stroke-width: 1.5; stroke-linecap: round"/>
    </g>
    <g id="text_10">
     <!-- Raw -->
     <g style="fill: #262626" transform="translate(78.481646 30.515865) scale(0.08 -0.08)">
      <defs>
       <path id="ArialMT-52" d="M 503 0 
L 503 4581 
L 2534 4581 
Q 3147 4581 3465 4457 
Q 3784 4334 3975 4021 
Q 4166 3709 4166 3331 
Q 4166 2844 3850 2509 
Q 3534 2175 2875 2084 
Q 3116 1969 3241 1856 
Q 3506 1613 3744 1247 
L 4541 0 
L 3778 0 
L 3172 953 
Q 2906 1366 2734 1584 
Q 2563 1803 2427 1890 
Q 2291 1978 2150 2013 
Q 2047 2034 1813 2034 
L 1109 2034 
L 1109 0 
L 503 0 
z
M 1109 2559 
L 2413 2559 
Q 2828 2559 3062 2645 
Q 3297 2731 3419 2920 
Q 3541 3109 3541 3331 
Q 3541 3656 3305 3865 
Q 3069 4075 2559 4075 
L 1109 4075 
L 1109 2559 
z
" transform="scale(0.015625)"/>
       <path id="ArialMT-77" d="M 1034 0 
L 19 3319 
L 600 3319 
L 1128 1403 
L 1325 691 
Q 1338 744 1497 1375 
L 2025 3319 
L 2603 3319 
L 3100 1394 
L 3266 759 
L 3456 1400 
L 4025 3319 
L 4572 3319 
L 3534 0 
L 2950 0 
L 2422 1988 
L 2294 2553 
L 1622 0 
L 1034 0 
z
" transform="scale(0.015625)"/>
      </defs>
      <use xlink:href="#ArialMT-52"/>
      <use xlink:href="#ArialMT-61" transform="translate(72.216797 0)"/>
      <use xlink:href="#ArialMT-77" transform="translate(127.832031 0)"/>
     </g>
    </g>
    <g id="line2d_6">
     <path d="M 56.081646 39.129615 
L 64.081646 39.129615 
L 72.081646 39.129615 
" style="fill: none; stroke-dasharray: 5.55,2.4; stroke-dashoffset: 0; stroke: #c44e52; stroke-width: 1.5"/>
    </g>
    <g id="text_11">
     <!-- Trend (degree 1) -->
     <g style="fill: #262626" transform="translate(78.481646 41.929615) scale(0.08 -0.08)">
      <defs>
       <path id="ArialMT-6e" d="M 422 0 
L 422 3319 
L 928 3319 
L 928 2847 
Q 1294 3394 1984 3394 
Q 2284 3394 2536 3286 
Q 2788 3178 2913 3003 
Q 3038 2828 3088 2588 
Q 3119 2431 3119 2041 
L 3119 0 
L 2556 0 
L 2556 2019 
Q 2556 2363 2490 2533 
Q 2425 2703 2258 2804 
Q 2091 2906 1866 2906 
Q 1506 2906 1245 2678 
Q 984 2450 984 1813 
L 984 0 
L 422 0 
z
" transform="scale(0.015625)"/>
       <path id="ArialMT-64" d="M 2575 0 
L 2575 419 
Q 2259 -75 1647 -75 
Q 1250 -75 917 144 
Q 584 363 401 755 
Q 219 1147 219 1656 
Q 219 2153 384 2558 
Q 550 2963 881 3178 
Q 1213 3394 1622 3394 
Q 1922 3394 2156 3267 
Q 2391 3141 2538 2938 
L 2538 4581 
L 3097 4581 
L 3097 0 
L 2575 0 
z
M 797 1656 
Q 797 1019 1065 703 
Q 1334 388 1700 388 
Q 2069 388 2326 689 
Q 2584 991 2584 1609 
Q 2584 2291 2321 2609 
Q 2059 2928 1675 2928 
Q 1300 2928 1048 2622 
Q 797 2316 797 1656 
z
" transform="scale(0.015625)"/>
       <path id="ArialMT-20" transform="scale(0.015625)"/>
       <path id="ArialMT-28" d="M 1497 -1347 
Q 1031 -759 709 28 
Q 388 816 388 1659 
Q 388 2403 628 3084 
Q 909 3875 1497 4659 
L 1900 4659 
Q 1522 4009 1400 3731 
Q 1209 3300 1100 2831 
Q 966 2247 966 1656 
Q 966 153 1900 -1347 
L 1497 -1347 
z
" transform="scale(0.015625)"/>
       <path id="ArialMT-67" d="M 319 -275 
L 866 -356 
Q 900 -609 1056 -725 
Q 1266 -881 1628 -881 
Q 2019 -881 2231 -725 
Q 2444 -569 2519 -288 
Q 2563 -116 2559 434 
Q 2191 0 1641 0 
Q 956 0 581 494 
Q 206 988 206 1678 
Q 206 2153 378 2554 
Q 550 2956 876 3175 
Q 1203 3394 1644 3394 
Q 2231 3394 2613 2919 
L 2613 3319 
L 3131 3319 
L 3131 450 
Q 3131 -325 2973 -648 
Q 2816 -972 2473 -1159 
Q 2131 -1347 1631 -1347 
Q 1038 -1347 672 -1080 
Q 306 -813 319 -275 
z
M 784 1719 
Q 784 1066 1043 766 
Q 1303 466 1694 466 
Q 2081 466 2343 764 
Q 2606 1063 2606 1700 
Q 2606 2309 2336 2618 
Q 2066 2928 1684 2928 
Q 1309 2928 1046 2623 
Q 784 2319 784 1719 
z
" transform="scale(0.015625)"/>
       <path id="ArialMT-29" d="M 791 -1347 
L 388 -1347 
Q 1322 153 1322 1656 
Q 1322 2244 1188 2822 
Q 1081 3291 891 3722 
Q 769 4003 388 4659 
L 791 4659 
Q 1378 3875 1659 3084 
Q 1900 2403 1900 1659 
Q 1900 816 1576 28 
Q 1253 -759 791 -1347 
z
" transform="scale(0.015625)"/>
      </defs>
      <use xlink:href="#ArialMT-54"/>
      <use xlink:href="#ArialMT-72" transform="translate(57.333984 0)"/>
      <use xlink:href="#ArialMT-65" transform="translate(90.634766 0)"/>
      <use xlink:href="#ArialMT-6e" transform="translate(146.25 0)"/>
      <use xlink:href="#ArialMT-64" transform="translate(201.865234 0)"/>
      <use xlink:href="#ArialMT-20" transform="translate(257.480469 0)"/>
      <use xlink:href="#ArialMT-28" transform="translate(285.263672 0)"/>
      <use xlink:href="#ArialMT-64" transform="translate(318.564453 0)"/>
      <use xlink:href="#ArialMT-65" transform="translate(374.179688 0)"/>
      <use xlink:href="#ArialMT-67" transform="translate(429.794922 0)"/>
      <use xlink:href="#ArialMT-72" transform="translate(485.410156 0)"/>
      <use xlink:href="#ArialMT-65" transform="translate(518.710938 0)"/>
      <use xlink:href="#ArialMT-65" transform="translate(574.326172 0)"/>
      <use xlink:href="#ArialMT-20" transform="translate(629.941406 0)"/>
      <use xlink:href="#ArialMT-31" transform="translate(657.724609 0)"/>
      <use xlink:href="#ArialMT-29" transform="translate(713.339844 0)"/>
     </g>
    </g>
    <g id="line2d_7">
     <path d="M 56.081646 50.637115 
L 64.081646 50.637115 
L 72.081646 50.637115 
" style="fill: none; stroke: #c44e52; stroke-width: 1.5; stroke-linecap: round"/>
    </g>
    <g id="text_12">
     <!-- Trend (degree 2) -->
     <g style="fill: #262626" transform="translate(78.481646 53.437115) scale(0.08 -0.08)">
      <use xlink:href="#ArialMT-54"/>
      <use xlink:href="#ArialMT-72" transform="translate(57.333984 0)"/>
      <use xlink:href="#ArialMT-65" transform="translate(90.634766 0)"/>
      <use xlink:href="#ArialMT-6e" transform="translate(146.25 0)"/>
      <use xlink:href="#ArialMT-64" transform="translate(201.865234 0)"/>
      <use xlink:href="#ArialMT-20" transform="translate(257.480469 0)"/>
      <use xlink:href="#ArialMT-28" transform="translate(285.263672 0)"/>
      <use xlink:href="#ArialMT-64" transform="translate(318.564453 0)"/>
      <use xlink:href="#ArialMT-65" transform="translate(374.179688 0)"/>
      <use xlink:href="#ArialMT-67" transform="translate(429.794922 0)"/>
      <use xlink:href="#ArialMT-72" transform="translate(485.410156 0)"/>
      <use xlink:href="#ArialMT-65" transform="translate(518.710938 0)"/>
      <use xlink:href="#ArialMT-65" transform="translate(574.326172 0)"/>
      <use xlink:href="#ArialMT-20" transform="translate(629.941406 0)"/>
      <use xlink:href="#ArialMT-32" transform="translate(657.724609 0)"/>
      <use xlink:href="#ArialMT-29" transform="translate(713.339844 0)"/>
     </g>
    </g>
   </g>
  </g>
  <g id="axes_2">
   <g id="patch_8">
    <path d="M 262.558461 160.465541 
L 463.983666 160.465541 
L 463.983666 17.589615 
L 262.558461 17.589615 
z
" style="fill: #ffffff"/>
   </g>
   <g id="line2d_8">
    <path d="M 262.558461 92.806207 
L 463.983666 92.806207 
" clip-path="url(#p1461c36e3d)" style="fill: none; stroke: #1a1a1a; stroke-width: 0.5; stroke-linecap: round"/>
   </g>
   <g id="matplotlib.axis_3">
    <g id="xtick_4">
     <g id="text_13">
      <!-- 1920 -->
      <g style="fill: #262626" transform="translate(259.480089 177.839135) scale(0.11 -0.11)">
       <use xlink:href="#ArialMT-31"/>
       <use xlink:href="#ArialMT-39" transform="translate(55.615234 0)"/>
       <use xlink:href="#ArialMT-32" transform="translate(111.230469 0)"/>
       <use xlink:href="#ArialMT-30" transform="translate(166.845703 0)"/>
      </g>
     </g>
    </g>
    <g id="xtick_5">
     <g id="text_14">
      <!-- 2006 -->
      <g style="fill: #262626" transform="translate(357.903769 177.839135) scale(0.11 -0.11)">
       <use xlink:href="#ArialMT-32"/>
       <use xlink:href="#ArialMT-30" transform="translate(55.615234 0)"/>
       <use xlink:href="#ArialMT-30" transform="translate(111.230469 0)"/>
       <use xlink:href="#ArialMT-36" transform="translate(166.845703 0)"/>
      </g>
     </g>
    </g>
    <g id="xtick_6">
     <g id="text_15">
      <!-- 2080 -->
      <g style="fill: #262626" transform="translate(442.593913 177.839135) scale(0.11 -0.11)">
       <use xlink:href="#ArialMT-32"/>
       <use xlink:href="#ArialMT-30" transform="translate(55.615234 0)"/>
       <use xlink:href="#ArialMT-38" transform="translate(111.230469 0)"/>
       <use xlink:href="#ArialMT-30" transform="translate(166.845703 0)"/>
      </g>
     </g>
    </g>
    <g id="text_16">
     <!-- Year -->
     <g style="fill: #262626" transform="translate(351.145439 192.61476) scale(0.12 -0.12)">
      <use xlink:href="#ArialMT-59"/>
      <use xlink:href="#ArialMT-65" transform="translate(57.574219 0)"/>
      <use xlink:href="#ArialMT-61" transform="translate(113.189453 0)"/>
      <use xlink:href="#ArialMT-72" transform="translate(168.804688 0)"/>
     </g>
    </g>
   </g>
   <g id="matplotlib.axis_4">
    <g id="ytick_4">
     <g id="line2d_9">
      <defs>
       <path id="mb6aff9dec6" d="M 0 0 
L 6 0 
" style="stroke: #262626; stroke-width: 1.25"/>
      </defs>
      <g>
       <use xlink:href="#mb6aff9dec6" x="463.983666" y="159.830113" style="fill: #262626; stroke: #262626; stroke-width: 1.25"/>
      </g>
     </g>
     <g id="text_17">
      <!-- −1 -->
      <g style="fill: #262626" transform="translate(473.483666 163.76691) scale(0.11 -0.11)">
       <defs>
        <path id="ArialMT-2212" d="M 3381 1997 
L 356 1997 
L 356 2522 
L 3381 2522 
L 3381 1997 
z
" transform="scale(0.015625)"/>
       </defs>
       <use xlink:href="#ArialMT-2212"/>
       <use xlink:href="#ArialMT-31" transform="translate(58.398438 0)"/>
      </g>
     </g>
    </g>
    <g id="ytick_5">
     <g id="line2d_10">
      <g>
       <use xlink:href="#mb6aff9dec6" x="463.983666" y="92.806207" style="fill: #262626; stroke: #262626; stroke-width: 1.25"/>
      </g>
     </g>
     <g id="text_18">
      <!-- 0 -->
      <g style="fill: #262626" transform="translate(473.483666 96.743004) scale(0.11 -0.11)">
       <use xlink:href="#ArialMT-30"/>
      </g>
     </g>
    </g>
    <g id="ytick_6">
     <g id="line2d_11">
      <g>
       <use xlink:href="#mb6aff9dec6" x="463.983666" y="25.782301" style="fill: #262626; stroke: #262626; stroke-width: 1.25"/>
      </g>
     </g>
     <g id="text_19">
      <!-- 1 -->
      <g style="fill: #262626" transform="translate(473.483666 29.719098) scale(0.11 -0.11)">
       <use xlink:href="#ArialMT-31"/>
      </g>
     </g>
    </g>
    <g id="text_20">
     <!-- $^{\circ}$C -->
     <g style="fill: #262626" transform="translate(498.61476 96.227578) rotate(-90) scale(0.12 -0.12)">
      <use xlink:href="#DejaVuSans-2218" transform="translate(0.957031 38.484375) scale(0.7)"/>
      <use xlink:href="#ArialMT-43" transform="translate(47.509766 0.203125)"/>
     </g>
    </g>
   </g>
   <g id="line2d_12">
    <path d="M 370.137832 160.465541 
L 370.137832 17.589615 
" clip-path="url(#p1461c36e3d)" style="fill: none; stroke-dasharray: 1.85,0.8; stroke-dashoffset: 0; stroke: #1a1a1a; stroke-width: 0.5"/>
   </g>
   <g id="line2d_13">
    <path d="M 271.714152 112.631105 
L 272.858613 94.365244 
L 274.003075 81.116978 
L 275.147536 89.141032 
L 276.291998 89.970322 
L 277.436459 76.93861 
L 278.58092 118.761993 
L 279.725382 108.089698 
L 280.869843 144.497649 
L 282.014304 112.578853 
L 283.158766 104.931328 
L 284.303227 95.621226 
L 285.447689 83.082277 
L 286.59215 126.150238 
L 287.736611 80.763239 
L 288.881073 90.096337 
L 290.025534 68.455533 
L 291.169996 93.810986 
L 292.314457 46.980776 
L 293.458918 65.316431 
L 294.60338 77.209264 
L 295.747841 78.613845 
L 296.892303 64.21403 
L 298.036764 94.519744 
L 299.181225 88.707612 
L 300.325687 120.802713 
L 301.470148 98.031255 
L 302.61461 100.458786 
L 303.759071 73.442252 
L 304.903532 51.163477 
L 306.047994 100.630898 
L 307.192455 91.56984 
L 308.336917 63.446309 
L 309.481378 69.763046 
L 310.625839 64.992354 
L 311.770301 84.783891 
L 312.914762 59.490517 
L 314.059224 39.334266 
L 315.203685 92.375557 
L 317.492608 74.00277 
L 318.637069 93.400175 
L 319.781531 59.60071 
L 320.925992 69.228523 
L 323.214915 153.971181 
L 324.359376 144.185901 
L 325.503837 114.221227 
L 326.648299 63.819312 
L 328.937222 112.473003 
L 330.081683 124.710531 
L 331.226144 82.360953 
L 332.370606 127.610627 
L 333.515067 131.979597 
L 334.659529 134.745563 
L 335.80399 113.647334 
L 336.948451 125.319171 
L 338.092913 99.388197 
L 339.237374 117.102974 
L 340.381836 98.044607 
L 341.526297 94.818672 
L 342.670758 85.553245 
L 343.81522 69.234825 
L 344.959681 60.294402 
L 346.104143 127.627172 
L 347.248604 80.22252 
L 348.393065 106.987745 
L 349.537527 95.345418 
L 350.681988 102.296311 
L 351.82645 103.150695 
L 352.970911 100.159542 
L 354.115372 115.990695 
L 355.259834 84.716712 
L 356.404295 71.452625 
L 358.693218 100.463135 
L 359.837679 73.589287 
L 362.126602 129.272283 
L 363.271064 58.350457 
L 365.559986 126.865691 
L 366.704448 109.10144 
L 367.848909 119.066987 
L 368.99337 121.41795 
L 370.137832 73.983784 
L 371.282293 68.117619 
L 372.426755 117.809402 
L 373.571216 98.051765 
L 374.715677 125.188882 
L 375.860139 109.468152 
L 377.0046 107.940076 
L 378.149062 93.137391 
L 379.293523 87.117513 
L 380.437984 103.677992 
L 381.582446 101.500962 
L 383.871369 63.980236 
L 385.01583 135.953947 
L 386.160291 67.903377 
L 387.304753 83.396529 
L 388.449214 83.281006 
L 389.593676 24.372892 
L 390.738137 89.455533 
L 391.882598 90.434171 
L 393.02706 112.879699 
L 394.171521 55.117859 
L 395.315983 80.177585 
L 396.460444 63.493444 
L 397.604905 96.176953 
L 398.749367 82.267575 
L 399.893828 84.055503 
L 401.03829 106.069014 
L 402.182751 101.817661 
L 403.327212 99.444204 
L 405.616135 65.812045 
L 406.760597 50.081051 
L 409.049519 89.612463 
L 410.193981 59.075785 
L 411.338442 117.595201 
L 412.482903 87.601874 
L 413.627365 95.853401 
L 414.771826 105.003201 
L 415.916288 137.836473 
L 417.060749 95.760366 
L 418.20521 24.083975 
L 419.349672 87.857863 
L 420.494133 108.584449 
L 421.638595 103.106127 
L 422.783056 104.744628 
L 423.927517 64.950165 
L 425.071979 128.016249 
L 426.21644 45.507969 
L 427.360902 77.869335 
L 428.505363 88.037476 
L 429.649824 81.996103 
L 430.794286 89.374732 
L 431.938747 99.411835 
L 433.083209 84.977258 
L 434.22767 129.197887 
L 435.372131 72.982454 
L 436.516593 98.906316 
L 437.661054 107.247045 
L 438.805516 130.986451 
L 439.949977 90.248567 
L 441.094438 67.25851 
L 442.2389 149.69765 
L 443.383361 41.910161 
L 444.527823 47.6458 
L 445.672284 111.327784 
L 446.816745 54.170001 
L 447.961207 139.20058 
L 449.105668 97.339927 
L 450.25013 90.230572 
L 452.539052 141.286813 
L 453.683514 104.190633 
L 454.827975 83.083613 
L 454.827975 83.083613 
" clip-path="url(#p1461c36e3d)" style="fill: none; stroke: #808080; stroke-width: 1.5; stroke-linecap: round"/>
   </g>
   <g id="patch_9">
    <path d="M 262.558461 160.465541 
L 262.558461 17.589615 
" style="fill: none; stroke: #ffffff; stroke-width: 1.25; stroke-linejoin: miter; stroke-linecap: square"/>
   </g>
   <g id="patch_10">
    <path d="M 463.983666 160.465541 
L 463.983666 17.589615 
" style="fill: none; stroke: #ffffff; stroke-width: 1.25; stroke-linejoin: miter; stroke-linecap: square"/>
   </g>
   <g id="patch_11">
    <path d="M 262.558461 160.465541 
L 463.983666 160.465541 
" style="fill: none; stroke: #ffffff; stroke-width: 1.25; stroke-linejoin: miter; stroke-linecap: square"/>
   </g>
   <g id="patch_12">
    <path d="M 262.558461 17.589615 
L 463.983666 17.589615 
" style="fill: none; stroke: #ffffff; stroke-width: 1.25; stroke-linejoin: miter; stroke-linecap: square"/>
   </g>
   <g id="text_21">
    <!-- Anomaly -->
    <g style="fill: #262626" transform="translate(339.928251 11.589615) scale(0.12 -0.12)">
     <defs>
      <path id="ArialMT-41" d="M -9 0 
L 1750 4581 
L 2403 4581 
L 4278 0 
L 3588 0 
L 3053 1388 
L 1138 1388 
L 634 0 
L -9 0 
z
M 1313 1881 
L 2866 1881 
L 2388 3150 
Q 2169 3728 2063 4100 
Q 1975 3659 1816 3225 
L 1313 1881 
z
" transform="scale(0.015625)"/>
      <path id="ArialMT-6d" d="M 422 0 
L 422 3319 
L 925 3319 
L 925 2853 
Q 1081 3097 1340 3245 
Q 1600 3394 1931 3394 
Q 2300 3394 2536 3241 
Q 2772 3088 2869 2813 
Q 3263 3394 3894 3394 
Q 4388 3394 4653 3120 
Q 4919 2847 4919 2278 
L 4919 0 
L 4359 0 
L 4359 2091 
Q 4359 2428 4304 2576 
Q 4250 2725 4106 2815 
Q 3963 2906 3769 2906 
Q 3419 2906 3187 2673 
Q 2956 2441 2956 1928 
L 2956 0 
L 2394 0 
L 2394 2156 
Q 2394 2531 2256 2718 
Q 2119 2906 1806 2906 
Q 1569 2906 1367 2781 
Q 1166 2656 1075 2415 
Q 984 2175 984 1722 
L 984 0 
L 422 0 
z
" transform="scale(0.015625)"/>
      <path id="ArialMT-79" d="M 397 -1278 
L 334 -750 
Q 519 -800 656 -800 
Q 844 -800 956 -737 
Q 1069 -675 1141 -563 
Q 1194 -478 1313 -144 
Q 1328 -97 1363 -6 
L 103 3319 
L 709 3319 
L 1400 1397 
Q 1534 1031 1641 628 
Q 1738 1016 1872 1384 
L 2581 3319 
L 3144 3319 
L 1881 -56 
Q 1678 -603 1566 -809 
Q 1416 -1088 1222 -1217 
Q 1028 -1347 759 -1347 
Q 597 -1347 397 -1278 
z
" transform="scale(0.015625)"/>
     </defs>
     <use xlink:href="#ArialMT-41"/>
     <use xlink:href="#ArialMT-6e" transform="translate(66.699219 0)"/>
     <use xlink:href="#ArialMT-6f" transform="translate(122.314453 0)"/>
     <use xlink:href="#ArialMT-6d" transform="translate(177.929688 0)"/>
     <use xlink:href="#ArialMT-61" transform="translate(261.230469 0)"/>
     <use xlink:href="#ArialMT-6c" transform="translate(316.845703 0)"/>
     <use xlink:href="#ArialMT-79" transform="translate(339.0625 0)"/>
    </g>
   </g>
  </g>
 </g>
 <defs>
  <clipPath id="pf37e967bd7">
   <rect x="48.881646" y="17.589615" width="201.425205" height="142.875926"/>
  </clipPath>
  <clipPath id="p1461c36e3d">
   <rect x="262.558461" y="17.589615" width="201.425205" height="142.875926"/>
  </clipPath>
 </defs>
</svg>
