<?xml version="1.0" encoding="utf-8" standalone="no"?>
<!DOCTYPE svg PUBLIC "-//W3C//DTD SVG 1.1//EN"
  "http://www.w3.org/Graphics/SVG/1.1/DTD/svg11.dtd">
<svg xmlns:xlink="http://www.w3.org/1999/xlink" width="576pt" height="216pt" viewBox="0 0 576 216" xmlns="http://www.w3.org/2000/svg" version="1.1">
 <metadata>
  <rdf:RDF xmlns:dc="http://purl.org/dc/elements/1.1/" xmlns:cc="http://creativecommons.org/ns#" xmlns:rdf="http://www.w3.org/1999/02/22-rdf-syntax-ns#">
   <cc:Work>
    <dc:type rdf:resource="http://purl.org/dc/dcmitype/StillImage"/>
    <dc:date>2025-06-29T20:20:02.819777</dc:date>
    <dc:format>image/svg+xml</dc:format>
    <dc:creator>
     <cc:Agent>
      <dc:title>Matplotlib v3.10.3, https://matplotlib.org/</dc:title>
     </cc:Agent>
    </dc:creator>
   </cc:Work>
  </rdf:RDF>
 </metadata>
 <defs>
  <style type="text/css">*{stroke-linejoin: round; stroke-linecap: butt}</style>
 </defs>
 <g id="figure_1">
  <g id="patch_1">
   <path d="M 0 216 
L 576 216 
L 576 0 
L 0 0 
z
" style="fill: #ffffff"/>
  </g>
  <g id="axes_1">
   <g id="patch_2">
    <path d="M 39.708677 178.465541 
L 286.201283 178.465541 
L 286.201283 17.735865 
L 39.708677 17.735865 
z
" style="fill: #ffffff"/>
   </g>
   <g id="matplotlib.axis_1">
    <g id="xtick_1">
     <g id="text_1">
      <!-- 1850 -->
      <g style="fill: #262626" transform="translate(38.678824 195.839135) scale(0.11 -0.11)">
       <defs>
        <path id="ArialMT-31" d="M 2384 0 
L 1822 0 
L 1822 3584 
Q 1619 3391 1289 3197 
Q 959 3003 697 2906 
L 697 3450 
Q 1169 3672 1522 3987 
Q 1875 4303 2022 4600 
L 2384 4600 
L 2384 0 
z
" transform="scale(0.015625)"/>
        <path id="ArialMT-38" d="M 1131 2484 
Q 781 2613 612 2850 
Q 444 3088 444 3419 
Q 444 3919 803 4259 
Q 1163 4600 1759 4600 
Q 2359 4600 2725 4251 
Q 3091 3903 3091 3403 
Q 3091 3084 2923 2848 
Q 2756 2613 2416 2484 
Q 2838 2347 3058 2040 
Q 3278 1734 3278 1309 
Q 3278 722 2862 322 
Q 2447 -78 1769 -78 
Q 1091 -78 675 323 
Q 259 725 259 1325 
Q 259 1772 486 2073 
Q 713 2375 1131 2484 
z
M 1019 3438 
Q 1019 3113 1228 2906 
Q 1438 2700 1772 2700 
Q 2097 2700 2305 2904 
Q 2513 3109 2513 3406 
Q 2513 3716 2298 3927 
Q 2084 4138 1766 4138 
Q 1444 4138 1231 3931 
Q 1019 3725 1019 3438 
z
M 838 1322 
Q 838 1081 952 856 
Q 1066 631 1291 507 
Q 1516 384 1775 384 
Q 2178 384 2440 643 
Q 2703 903 2703 1303 
Q 2703 1709 2433 1975 
Q 2163 2241 1756 2241 
Q 1359 2241 1098 1978 
Q 838 1716 838 1322 
z
" transform="scale(0.015625)"/>
        <path id="ArialMT-35" d="M 266 1200 
L 856 1250 
Q 922 819 1161 601 
Q 1400 384 1738 384 
Q 2144 384 2425 690 
Q 2706 997 2706 1503 
Q 2706 1984 2436 2262 
Q 2166 2541 1728 2541 
Q 1456 2541 1237 2417 
Q 1019 2294 894 2097 
L 366 2166 
L 809 4519 
L 3088 4519 
L 3088 3981 
L 1259 3981 
L 1013 2750 
Q 1425 3038 1878 3038 
Q 2478 3038 2890 2622 
Q 3303 2206 3303 1553 
Q 3303 931 2941 478 
Q 2500 -78 1738 -78 
Q 1113 -78 717 272 
Q 322 622 266 1200 
z
" transform="scale(0.015625)"/>
        <path id="ArialMT-30" d="M 266 2259 
Q 266 3072 433 3567 
Q 600 4063 929 4331 
Q 1259 4600 1759 4600 
Q 2128 4600 2406 4451 
Q 2684 4303 2865 4023 
Q 3047 3744 3150 3342 
Q 3253 2941 3253 2259 
Q 3253 1453 3087 958 
Q 2922 463 2592 192 
Q 2263 -78 1759 -78 
Q 1097 -78 719 397 
Q 266 969 266 2259 
z
M 844 2259 
Q 844 1131 1108 757 
Q 1372 384 1759 384 
Q 2147 384 2411 759 
Q 2675 1134 2675 2259 
Q 2675 3391 2411 3762 
Q 2147 4134 1753 4134 
Q 1366 4134 1134 3806 
Q 844 3388 844 2259 
z
" transform="scale(0.015625)"/>
       </defs>
       <use xlink:href="#ArialMT-31"/>
       <use xlink:href="#ArialMT-38" transform="translate(55.615234 0)"/>
       <use xlink:href="#ArialMT-35" transform="translate(111.230469 0)"/>
       <use xlink:href="#ArialMT-30" transform="translate(166.845703 0)"/>
      </g>
     </g>
    </g>
    <g id="xtick_2">
     <g id="text_2">
      <!-- 1875 -->
      <g style="fill: #262626" transform="translate(76.276842 195.839135) scale(0.11 -0.11)">
       <defs>
        <path id="ArialMT-37" d="M 303 3981 
L 303 4522 
L 3269 4522 
L 3269 4084 
Q 2831 3619 2401 2847 
Q 1972 2075 1738 1259 
Q 1569 684 1522 0 
L 944 0 
Q 953 541 1156 1306 
Q 1359 2072 1739 2783 
Q 2119 3494 2547 3981 
L 303 3981 
z
" transform="scale(0.015625)"/>
       </defs>
       <use xlink:href="#ArialMT-31"/>
       <use xlink:href="#ArialMT-38" transform="translate(55.615234 0)"/>
       <use xlink:href="#ArialMT-37" transform="translate(111.230469 0)"/>
       <use xlink:href="#ArialMT-35" transform="translate(166.845703 0)"/>
      </g>
     </g>
    </g>
    <g id="xtick_3">
     <g id="text_3">
      <!-- 1900 -->
      <g style="fill: #262626" transform="translate(113.87486 195.839135) scale(0.11 -0.11)">
       <defs>
        <path id="ArialMT-39" d="M 350 1059 
L 891 1109 
Q 959 728 1153 556 
Q 1347 384 1650 384 
Q 1909 384 2104 503 
Q 2300 622 2425 820 
Q 2550 1019 2634 1356 
Q 2719 1694 2719 2044 
Q 2719 2081 2716 2156 
Q 2547 1888 2255 1720 
Q 1963 1553 1622 1553 
Q 1053 1553 659 1965 
Q 266 2378 266 3053 
Q 266 3750 677 4175 
Q 1088 4600 1706 4600 
Q 2153 4600 2523 4359 
Q 2894 4119 3086 3673 
Q 3278 3228 3278 2384 
Q 3278 1506 3087 986 
Q 2897 466 2520 194 
Q 2144 -78 1638 -78 
Q 1100 -78 759 220 
Q 419 519 350 1059 
z
M 2653 3081 
Q 2653 3566 2395 3850 
Q 2138 4134 1775 4134 
Q 1400 4134 1122 3828 
Q 844 3522 844 3034 
Q 844 2597 1108 2323 
Q 1372 2050 1759 2050 
Q 2150 2050 2401 2323 
Q 2653 2597 2653 3081 
z
" transform="scale(0.015625)"/>
       </defs>
       <use xlink:href="#ArialMT-31"/>
       <use xlink:href="#ArialMT-39" transform="translate(55.615234 0)"/>
       <use xlink:href="#ArialMT-30" transform="translate(111.230469 0)"/>
       <use xlink:href="#ArialMT-30" transform="translate(166.845703 0)"/>
      </g>
     </g>
    </g>
    <g id="xtick_4">
     <g id="text_4">
      <!-- 1925 -->
      <g style="fill: #262626" transform="translate(151.472878 195.839135) scale(0.11 -0.11)">
       <defs>
        <path id="ArialMT-32" d="M 3222 541 
L 3222 0 
L 194 0 
Q 188 203 259 391 
Q 375 700 629 1000 
Q 884 1300 1366 1694 
Q 2113 2306 2375 2664 
Q 2638 3022 2638 3341 
Q 2638 3675 2398 3904 
Q 2159 4134 1775 4134 
Q 1369 4134 1125 3890 
Q 881 3647 878 3216 
L 300 3275 
Q 359 3922 746 4261 
Q 1134 4600 1788 4600 
Q 2447 4600 2831 4234 
Q 3216 3869 3216 3328 
Q 3216 3053 3103 2787 
Q 2991 2522 2730 2228 
Q 2469 1934 1863 1422 
Q 1356 997 1212 845 
Q 1069 694 975 541 
L 3222 541 
z
" transform="scale(0.015625)"/>
       </defs>
       <use xlink:href="#ArialMT-31"/>
       <use xlink:href="#ArialMT-39" transform="translate(55.615234 0)"/>
       <use xlink:href="#ArialMT-32" transform="translate(111.230469 0)"/>
       <use xlink:href="#ArialMT-35" transform="translate(166.845703 0)"/>
      </g>
     </g>
    </g>
    <g id="xtick_5">
     <g id="text_5">
      <!-- 1950 -->
      <g style="fill: #262626" transform="translate(189.070896 195.839135) scale(0.11 -0.11)">
       <use xlink:href="#ArialMT-31"/>
       <use xlink:href="#ArialMT-39" transform="translate(55.615234 0)"/>
       <use xlink:href="#ArialMT-35" transform="translate(111.230469 0)"/>
       <use xlink:href="#ArialMT-30" transform="translate(166.845703 0)"/>
      </g>
     </g>
    </g>
    <g id="xtick_6">
     <g id="text_6">
      <!-- 1975 -->
      <g style="fill: #262626" transform="translate(226.668914 195.839135) scale(0.11 -0.11)">
       <use xlink:href="#ArialMT-31"/>
       <use xlink:href="#ArialMT-39" transform="translate(55.615234 0)"/>
       <use xlink:href="#ArialMT-37" transform="translate(111.230469 0)"/>
       <use xlink:href="#ArialMT-35" transform="translate(166.845703 0)"/>
      </g>
     </g>
    </g>
    <g id="xtick_7">
     <g id="text_7">
      <!-- 2000 -->
      <g style="fill: #262626" transform="translate(264.266932 195.839135) scale(0.11 -0.11)">
       <use xlink:href="#ArialMT-32"/>
       <use xlink:href="#ArialMT-30" transform="translate(55.615234 0)"/>
       <use xlink:href="#ArialMT-30" transform="translate(111.230469 0)"/>
       <use xlink:href="#ArialMT-30" transform="translate(166.845703 0)"/>
      </g>
     </g>
    </g>
    <g id="text_8">
     <!-- Year -->
     <g style="fill: #262626" transform="translate(150.829355 210.61476) scale(0.12 -0.12)">
      <defs>
       <path id="ArialMT-59" d="M 1784 0 
L 1784 1941 
L 19 4581 
L 756 4581 
L 1659 3200 
Q 1909 2813 2125 2425 
Q 2331 2784 2625 3234 
L 3513 4581 
L 4219 4581 
L 2391 1941 
L 2391 0 
L 1784 0 
z
" transform="scale(0.015625)"/>
       <path id="ArialMT-65" d="M 2694 1069 
L 3275 997 
Q 3138 488 2766 206 
Q 2394 -75 1816 -75 
Q 1088 -75 661 373 
Q 234 822 234 1631 
Q 234 2469 665 2931 
Q 1097 3394 1784 3394 
Q 2450 3394 2872 2941 
Q 3294 2488 3294 1666 
Q 3294 1616 3291 1516 
L 816 1516 
Q 847 969 1125 678 
Q 1403 388 1819 388 
Q 2128 388 2347 550 
Q 2566 713 2694 1069 
z
M 847 1978 
L 2700 1978 
Q 2663 2397 2488 2606 
Q 2219 2931 1791 2931 
Q 1403 2931 1139 2672 
Q 875 2413 847 1978 
z
" transform="scale(0.015625)"/>
       <path id="ArialMT-61" d="M 2588 409 
Q 2275 144 1986 34 
Q 1697 -75 1366 -75 
Q 819 -75 525 192 
Q 231 459 231 875 
Q 231 1119 342 1320 
Q 453 1522 633 1644 
Q 813 1766 1038 1828 
Q 1203 1872 1538 1913 
Q 2219 1994 2541 2106 
Q 2544 2222 2544 2253 
Q 2544 2597 2384 2738 
Q 2169 2928 1744 2928 
Q 1347 2928 1158 2789 
Q 969 2650 878 2297 
L 328 2372 
Q 403 2725 575 2942 
Q 747 3159 1072 3276 
Q 1397 3394 1825 3394 
Q 2250 3394 2515 3294 
Q 2781 3194 2906 3042 
Q 3031 2891 3081 2659 
Q 3109 2516 3109 2141 
L 3109 1391 
Q 3109 606 3145 398 
Q 3181 191 3288 0 
L 2700 0 
Q 2613 175 2588 409 
z
M 2541 1666 
Q 2234 1541 1622 1453 
Q 1275 1403 1131 1340 
Q 988 1278 909 1158 
Q 831 1038 831 891 
Q 831 666 1001 516 
Q 1172 366 1500 366 
Q 1825 366 2078 508 
Q 2331 650 2450 897 
Q 2541 1088 2541 1459 
L 2541 1666 
z
" transform="scale(0.015625)"/>
       <path id="ArialMT-72" d="M 416 0 
L 416 3319 
L 922 3319 
L 922 2816 
Q 1116 3169 1280 3281 
Q 1444 3394 1641 3394 
Q 1925 3394 2219 3213 
L 2025 2691 
Q 1819 2813 1613 2813 
Q 1428 2813 1281 2702 
Q 1134 2591 1072 2394 
Q 978 2094 978 1738 
L 978 0 
L 416 0 
z
" transform="scale(0.015625)"/>
      </defs>
      <use xlink:href="#ArialMT-59"/>
      <use xlink:href="#ArialMT-65" transform="translate(57.574219 0)"/>
      <use xlink:href="#ArialMT-61" transform="translate(113.189453 0)"/>
      <use xlink:href="#ArialMT-72" transform="translate(168.804688 0)"/>
     </g>
    </g>
   </g>
   <g id="matplotlib.axis_2">
    <g id="ytick_1">
     <g id="text_9">
      <!-- 11 -->
      <g style="fill: #262626" transform="translate(18.785865 172.409129) scale(0.11 -0.11)">
       <use xlink:href="#ArialMT-31"/>
       <use xlink:href="#ArialMT-31" transform="translate(48.240234 0)"/>
      </g>
     </g>
    </g>
    <g id="ytick_2">
     <g id="text_10">
      <!-- 16 -->
      <g style="fill: #262626" transform="translate(17.974615 109.455532) scale(0.11 -0.11)">
       <defs>
        <path id="ArialMT-36" d="M 3184 3459 
L 2625 3416 
Q 2550 3747 2413 3897 
Q 2184 4138 1850 4138 
Q 1581 4138 1378 3988 
Q 1113 3794 959 3422 
Q 806 3050 800 2363 
Q 1003 2672 1297 2822 
Q 1591 2972 1913 2972 
Q 2475 2972 2870 2558 
Q 3266 2144 3266 1488 
Q 3266 1056 3080 686 
Q 2894 316 2569 119 
Q 2244 -78 1831 -78 
Q 1128 -78 684 439 
Q 241 956 241 2144 
Q 241 3472 731 4075 
Q 1159 4600 1884 4600 
Q 2425 4600 2770 4297 
Q 3116 3994 3184 3459 
z
M 888 1484 
Q 888 1194 1011 928 
Q 1134 663 1356 523 
Q 1578 384 1822 384 
Q 2178 384 2434 671 
Q 2691 959 2691 1453 
Q 2691 1928 2437 2201 
Q 2184 2475 1800 2475 
Q 1419 2475 1153 2201 
Q 888 1928 888 1484 
z
" transform="scale(0.015625)"/>
       </defs>
       <use xlink:href="#ArialMT-31"/>
       <use xlink:href="#ArialMT-36" transform="translate(55.615234 0)"/>
      </g>
     </g>
    </g>
    <g id="ytick_3">
     <g id="text_11">
      <!-- 21 -->
      <g style="fill: #262626" transform="translate(17.974615 46.501934) scale(0.11 -0.11)">
       <use xlink:href="#ArialMT-32"/>
       <use xlink:href="#ArialMT-31" transform="translate(55.615234 0)"/>
      </g>
     </g>
    </g>
    <g id="text_12">
     <!-- $^{\circ}$C -->
     <g style="fill: #262626" transform="translate(11.589615 105.300703) rotate(-90) scale(0.12 -0.12)">
      <defs>
       <path id="DejaVuSans-2218" d="M 2003 2603 
Q 1753 2603 1581 2429 
Q 1409 2256 1409 2006 
Q 1409 1759 1581 1589 
Q 1753 1419 2003 1419 
Q 2253 1419 2425 1589 
Q 2597 1759 2597 2006 
Q 2597 2253 2423 2428 
Q 2250 2603 2003 2603 
z
M 2003 3006 
Q 2203 3006 2387 2929 
Q 2572 2853 2706 2709 
Q 2850 2569 2922 2390 
Q 2994 2212 2994 2006 
Q 2994 1594 2705 1308 
Q 2416 1022 1997 1022 
Q 1575 1022 1294 1303 
Q 1013 1584 1013 2006 
Q 1013 2425 1300 2715 
Q 1588 3006 2003 3006 
z
" transform="scale(0.015625)"/>
       <path id="ArialMT-43" d="M 3763 1606 
L 4369 1453 
Q 4178 706 3683 314 
Q 3188 -78 2472 -78 
Q 1731 -78 1267 223 
Q 803 525 561 1097 
Q 319 1669 319 2325 
Q 319 3041 592 3573 
Q 866 4106 1370 4382 
Q 1875 4659 2481 4659 
Q 3169 4659 3637 4309 
Q 4106 3959 4291 3325 
L 3694 3184 
Q 3534 3684 3231 3912 
Q 2928 4141 2469 4141 
Q 1941 4141 1586 3887 
Q 1231 3634 1087 3207 
Q 944 2781 944 2328 
Q 944 1744 1114 1308 
Q 1284 872 1643 656 
Q 2003 441 2422 441 
Q 2931 441 3284 734 
Q 3638 1028 3763 1606 
z
" transform="scale(0.015625)"/>
      </defs>
      <use xlink:href="#DejaVuSans-2218" transform="translate(0.957031 38.484375) scale(0.7)"/>
      <use xlink:href="#ArialMT-43" transform="translate(47.509766 0.203125)"/>
     </g>
    </g>
   </g>
   <g id="line2d_1">
    <path d="M 50.912887 82.267661 
L 52.416808 70.217061 
L 53.920728 84.715523 
L 55.424649 79.236021 
L 56.92857 78.503135 
L 58.43249 79.394351 
L 59.936411 73.036289 
L 61.440332 78.374151 
L 62.944253 78.368435 
L 64.448173 69.119028 
L 67.456015 73.9697 
L 68.959935 74.342122 
L 70.463856 69.10923 
L 71.967777 65.120356 
L 73.471698 65.983835 
L 74.975618 73.094069 
L 76.479539 67.676141 
L 77.98346 71.803292 
L 79.48738 72.700248 
L 80.991301 60.689248 
L 82.495222 68.356219 
L 83.999143 73.71896 
L 85.503063 76.217421 
L 87.006984 68.75806 
L 88.510905 70.479231 
L 90.014825 71.808575 
L 91.518746 67.731447 
L 93.022667 65.67767 
L 94.526588 63.133076 
L 96.030508 63.309153 
L 97.534429 60.188754 
L 99.03835 63.170587 
L 100.54227 60.141709 
L 102.046191 59.971659 
L 103.550112 69.369935 
L 105.054033 63.956811 
L 106.557953 57.075944 
L 108.061874 55.14774 
L 109.565795 61.1085 
L 111.069715 61.630032 
L 112.573636 64.981022 
L 114.077557 59.186709 
L 115.581478 58.058489 
L 117.085398 65.907516 
L 118.589319 61.76867 
L 120.09324 60.509401 
L 121.59716 56.619036 
L 123.101081 61.843356 
L 124.605002 55.294759 
L 126.108923 53.935612 
L 127.612843 53.754684 
L 129.116764 60.402967 
L 130.620685 63.83066 
L 132.124606 55.473214 
L 133.628526 55.247162 
L 135.132447 61.899455 
L 136.636368 54.876924 
L 138.140288 53.2448 
L 139.644209 63.16295 
L 141.14813 61.168634 
L 142.652051 58.904582 
L 144.155971 52.429374 
L 145.659892 53.910757 
L 147.163813 58.019273 
L 148.667733 49.820517 
L 150.171654 46.729848 
L 151.675575 52.723077 
L 153.179496 57.436263 
L 154.683416 60.364015 
L 156.187337 44.266593 
L 157.691258 62.524226 
L 159.195178 65.892243 
L 160.699099 67.534069 
L 162.20302 66.12293 
L 163.706941 50.854382 
L 165.210861 50.440533 
L 166.714782 59.638309 
L 168.218703 53.228302 
L 169.722623 52.253105 
L 171.226544 49.154536 
L 172.730465 54.465309 
L 174.234386 51.318614 
L 175.738306 57.340828 
L 177.242227 57.869396 
L 178.746148 54.164546 
L 180.250068 51.849127 
L 181.753989 55.330493 
L 183.25791 55.869003 
L 184.761831 45.965334 
L 186.265751 54.949737 
L 187.769672 57.207641 
L 189.273593 48.245188 
L 190.777513 56.378984 
L 192.281434 52.526298 
L 193.785355 53.704805 
L 195.289276 44.132205 
L 196.793196 43.648089 
L 198.297117 59.148429 
L 199.801038 58.798484 
L 201.304958 58.675912 
L 202.808879 59.989118 
L 204.3128 52.874683 
L 205.816721 57.267366 
L 207.320641 50.208669 
L 208.824562 51.132282 
L 210.328483 39.283575 
L 211.832403 49.559763 
L 213.336324 67.480588 
L 214.840245 68.653931 
L 216.344166 62.599273 
L 217.848086 66.638433 
L 219.352007 61.550518 
L 220.855928 52.402958 
L 222.359848 52.095928 
L 223.863769 51.340299 
L 225.36769 59.577431 
L 226.871611 50.838292 
L 228.375531 62.091166 
L 229.879452 53.114447 
L 231.383373 60.286206 
L 232.887293 61.994266 
L 234.391214 57.095492 
L 235.895135 53.520323 
L 237.399056 41.693373 
L 240.406897 51.274786 
L 241.910818 42.895366 
L 243.414738 56.109056 
L 244.918659 57.532611 
L 246.42258 51.725594 
L 247.926501 51.897421 
L 249.430421 45.20716 
L 250.934342 44.736108 
L 252.438263 52.894183 
L 253.942184 54.949977 
L 255.446104 59.363722 
L 256.950025 58.616043 
L 258.453946 48.61019 
L 259.957866 49.730245 
L 261.461787 50.010426 
L 262.965708 53.234209 
L 264.469629 48.280706 
L 265.973549 44.263951 
L 267.47747 36.012891 
L 268.981391 37.378017 
L 270.485311 49.169785 
L 271.989232 56.090277 
L 273.493153 48.837107 
L 274.997074 39.178245 
L 274.997074 39.178245 
" clip-path="url(#p1d0863f860)" style="fill: none; stroke: #4c72b0; stroke-linecap: round"/>
   </g>
   <g id="line2d_2">
    <path d="M 50.912887 80.662938 
L 52.416808 86.298104 
L 53.920728 83.105012 
L 55.424649 81.395848 
L 56.92857 79.256914 
L 59.936411 78.221176 
L 61.440332 79.024738 
L 64.448173 69.475697 
L 65.952094 71.688021 
L 67.456015 71.076578 
L 68.959935 76.13834 
L 70.463856 74.826335 
L 71.967777 68.869849 
L 73.471698 72.334213 
L 74.975618 74.530111 
L 76.479539 72.479431 
L 77.98346 72.41327 
L 79.48738 68.128245 
L 80.991301 69.433983 
L 82.495222 71.928314 
L 83.999143 64.901748 
L 85.503063 72.670278 
L 87.006984 73.548262 
L 88.510905 71.00936 
L 90.014825 77.264879 
L 91.518746 64.002343 
L 93.022667 64.641355 
L 94.526588 62.566252 
L 96.030508 69.049168 
L 97.534429 65.707664 
L 99.03835 66.132151 
L 100.54227 73.793286 
L 102.046191 64.671398 
L 103.550112 57.135116 
L 105.054033 58.154621 
L 106.557953 59.634971 
L 108.061874 55.077833 
L 109.565795 62.69843 
L 111.069715 63.687532 
L 112.573636 69.7901 
L 114.077557 68.368947 
L 115.581478 64.880255 
L 117.085398 68.127069 
L 118.589319 67.364235 
L 120.09324 61.653999 
L 121.59716 62.868528 
L 123.101081 61.703541 
L 124.605002 63.079282 
L 126.108923 61.21054 
L 127.612843 50.419688 
L 129.116764 64.240571 
L 130.620685 71.507669 
L 132.124606 67.361738 
L 133.628526 76.407355 
L 135.132447 72.782547 
L 136.636368 64.933424 
L 138.140288 66.171128 
L 139.644209 61.165344 
L 141.14813 57.540416 
L 142.652051 64.856937 
L 144.155971 57.550598 
L 145.659892 65.020646 
L 147.163813 60.735717 
L 148.667733 57.408022 
L 150.171654 48.758482 
L 151.675575 56.389982 
L 153.179496 61.518266 
L 154.683416 58.327552 
L 156.187337 54.454958 
L 157.691258 61.189719 
L 159.195178 59.543234 
L 160.699099 65.006958 
L 162.20302 60.699046 
L 163.706941 55.984635 
L 165.210861 59.193433 
L 166.714782 61.691462 
L 168.218703 54.813213 
L 169.722623 51.33223 
L 171.226544 57.538663 
L 172.730465 52.986592 
L 174.234386 49.388945 
L 175.738306 60.866142 
L 177.242227 70.769235 
L 178.746148 59.693279 
L 180.250068 62.199353 
L 181.753989 61.248075 
L 183.25791 64.089973 
L 184.761831 60.263993 
L 186.265751 55.232345 
L 187.769672 66.563099 
L 189.273593 64.072418 
L 190.777513 62.302064 
L 192.281434 62.074908 
L 193.785355 55.019765 
L 195.289276 64.596927 
L 196.793196 56.684909 
L 198.297117 55.565479 
L 199.801038 52.36672 
L 201.304958 57.387297 
L 202.808879 46.466237 
L 204.3128 44.032111 
L 205.816721 50.735772 
L 207.320641 50.404319 
L 208.824562 45.220848 
L 210.328483 48.829734 
L 211.832403 50.489331 
L 213.336324 50.636951 
L 214.840245 59.816475 
L 216.344166 55.873566 
L 217.848086 58.055319 
L 219.352007 51.991367 
L 220.855928 57.7797 
L 222.359848 53.911357 
L 223.863769 60.407097 
L 225.36769 52.216626 
L 226.871611 56.084081 
L 228.375531 50.629458 
L 229.879452 52.726559 
L 231.383373 56.280859 
L 232.887293 52.901363 
L 234.391214 56.543293 
L 235.895135 54.682452 
L 237.399056 46.009666 
L 238.902976 50.949217 
L 240.406897 42.699165 
L 241.910818 44.852172 
L 243.414738 50.001757 
L 244.918659 59.437232 
L 246.42258 46.669379 
L 247.926501 46.793031 
L 249.430421 47.209834 
L 250.934342 48.356569 
L 252.438263 50.456767 
L 253.942184 41.245831 
L 255.446104 49.459213 
L 256.950025 46.96589 
L 258.453946 46.263863 
L 259.957866 51.398703 
L 261.461787 48.545686 
L 262.965708 35.882634 
L 264.469629 40.902106 
L 265.973549 38.337988 
L 267.47747 43.515815 
L 268.981391 47.443523 
L 270.485311 45.003802 
L 271.989232 39.304179 
L 273.493153 38.861081 
L 274.997074 59.42143 
L 274.997074 59.42143 
" clip-path="url(#p1d0863f860)" style="fill: none; stroke: #dd8452; stroke-linecap: round"/>
   </g>
   <g id="line2d_3">
    <path d="M 50.912887 98.191551 
L 52.416808 96.261763 
L 53.920728 95.536249 
L 56.92857 99.640922 
L 58.43249 106.153989 
L 59.936411 105.989619 
L 61.440332 101.22785 
L 62.944253 86.530376 
L 64.448173 82.654469 
L 65.952094 80.424398 
L 67.456015 82.4922 
L 68.959935 79.313373 
L 70.463856 87.085312 
L 73.471698 93.413933 
L 74.975618 94.388961 
L 76.479539 88.701491 
L 77.98346 88.660281 
L 79.48738 89.429334 
L 80.991301 94.429066 
L 82.495222 96.688339 
L 83.999143 95.998896 
L 85.503063 96.456572 
L 87.006984 93.600408 
L 88.510905 85.249662 
L 90.014825 81.485064 
L 91.518746 81.967499 
L 93.022667 85.707146 
L 94.526588 84.754115 
L 97.534429 90.863623 
L 99.03835 80.961059 
L 100.54227 81.784097 
L 102.046191 89.74585 
L 103.550112 91.264048 
L 105.054033 84.530921 
L 106.557953 85.4328 
L 108.061874 85.349876 
L 109.565795 78.372061 
L 111.069715 80.552157 
L 112.573636 78.497179 
L 114.077557 78.749576 
L 115.581478 81.348251 
L 117.085398 81.02148 
L 118.589319 82.130152 
L 120.09324 88.477023 
L 121.59716 79.353262 
L 123.101081 86.60965 
L 124.605002 88.22052 
L 126.108923 80.925733 
L 127.612843 83.661125 
L 129.116764 74.545769 
L 130.620685 72.093128 
L 132.124606 75.183316 
L 133.628526 78.897579 
L 135.132447 76.701105 
L 136.636368 73.097815 
L 138.140288 77.191898 
L 139.644209 74.683158 
L 141.14813 77.524432 
L 142.652051 74.392866 
L 144.155971 77.394007 
L 145.659892 75.914762 
L 147.163813 68.972729 
L 148.667733 76.780619 
L 150.171654 75.575984 
L 151.675575 75.10935 
L 153.179496 72.949955 
L 154.683416 74.029497 
L 156.187337 69.173325 
L 157.691258 63.191504 
L 159.195178 66.941453 
L 160.699099 66.165484 
L 162.20302 67.931443 
L 163.706941 77.158133 
L 165.210861 73.052571 
L 166.714782 70.563091 
L 168.218703 67.080427 
L 169.722623 67.680968 
L 171.226544 68.779457 
L 172.730465 65.927497 
L 174.234386 70.143983 
L 175.738306 64.922329 
L 177.242227 72.119856 
L 178.746148 68.638658 
L 180.250068 61.038161 
L 181.753989 59.683985 
L 183.25791 62.390031 
L 184.761831 58.604059 
L 186.265751 66.262144 
L 187.769672 62.401558 
L 189.273593 69.823432 
L 190.777513 66.34855 
L 192.281434 58.163866 
L 193.785355 64.306443 
L 195.289276 60.33743 
L 196.793196 49.21707 
L 198.297117 59.968585 
L 199.801038 58.961761 
L 201.304958 56.100075 
L 202.808879 65.119131 
L 204.3128 65.50056 
L 205.816721 55.412144 
L 207.320641 59.04418 
L 208.824562 64.530959 
L 210.328483 59.312066 
L 211.832403 63.212973 
L 213.336324 61.536878 
L 214.840245 61.560389 
L 216.344166 54.576978 
L 217.848086 55.436327 
L 219.352007 45.303123 
L 220.855928 48.545254 
L 222.359848 52.671565 
L 223.863769 52.653697 
L 225.36769 42.444559 
L 226.871611 48.039908 
L 228.375531 49.45184 
L 229.879452 48.862635 
L 231.383373 51.938702 
L 232.887293 48.07132 
L 234.391214 42.314638 
L 235.895135 45.927823 
L 237.399056 54.656467 
L 238.902976 44.678016 
L 240.406897 50.998399 
L 241.910818 41.600796 
L 244.918659 49.304773 
L 246.42258 41.032891 
L 247.926501 47.240309 
L 249.430421 51.148324 
L 250.934342 50.555444 
L 252.438263 40.531557 
L 253.942184 52.022874 
L 255.446104 42.2083 
L 256.950025 48.415766 
L 258.453946 39.72456 
L 259.957866 43.840689 
L 261.461787 40.920838 
L 262.965708 42.028021 
L 264.469629 38.187487 
L 265.973549 43.390241 
L 267.47747 35.256734 
L 268.981391 39.984185 
L 270.485311 45.506289 
L 271.989232 33.006586 
L 273.493153 41.177533 
L 274.997074 42.741167 
L 274.997074 42.741167 
" clip-path="url(#p1d0863f860)" style="fill: none; stroke: #55a868; stroke-linecap: round"/>
   </g>
   <g id="line2d_4">
    <path d="M 50.912887 116.061176 
L 52.416808 105.89087 
L 53.920728 103.255716 
L 55.424649 113.801147 
L 56.92857 105.408891 
L 58.43249 102.885238 
L 59.936411 100.725891 
L 61.440332 101.978796 
L 62.944253 109.933056 
L 64.448173 109.731872 
L 65.952094 106.940188 
L 67.456015 110.129666 
L 68.959935 116.350028 
L 70.463856 113.533297 
L 71.967777 112.329995 
L 73.471698 103.816511 
L 74.975618 103.930486 
L 76.479539 102.647178 
L 77.98346 105.785072 
L 79.48738 105.24619 
L 80.991301 97.696677 
L 82.495222 98.167801 
L 83.999143 106.82021 
L 85.503063 106.183311 
L 87.006984 95.127612 
L 88.510905 95.559351 
L 90.014825 88.531753 
L 91.518746 100.322873 
L 93.022667 98.796342 
L 94.526588 101.537786 
L 96.030508 104.761161 
L 97.534429 97.48878 
L 99.03835 97.076972 
L 100.54227 102.185324 
L 102.046191 96.082444 
L 103.550112 98.872998 
L 105.054033 104.230144 
L 106.557953 102.339788 
L 108.061874 102.955241 
L 109.565795 108.711023 
L 111.069715 107.834311 
L 112.573636 108.876713 
L 114.077557 103.36945 
L 115.581478 102.396463 
L 117.085398 112.432947 
L 118.589319 106.201839 
L 120.09324 101.353256 
L 121.59716 95.04416 
L 123.101081 92.150461 
L 124.605002 96.741292 
L 126.108923 93.539771 
L 127.612843 91.735892 
L 129.116764 95.512282 
L 130.620685 92.83527 
L 132.124606 86.645672 
L 133.628526 97.421034 
L 135.132447 93.682371 
L 136.636368 84.675346 
L 138.140288 93.044536 
L 139.644209 86.920474 
L 141.14813 95.865061 
L 142.652051 92.124717 
L 144.155971 93.11598 
L 145.659892 87.76563 
L 147.163813 81.033896 
L 148.667733 84.693381 
L 150.171654 89.328111 
L 151.675575 75.446567 
L 153.179496 79.374395 
L 154.683416 86.518393 
L 156.187337 85.835217 
L 157.691258 82.391002 
L 159.195178 82.370109 
L 160.699099 90.537933 
L 162.20302 87.718153 
L 163.706941 84.226172 
L 165.210861 80.157352 
L 166.714782 80.433596 
L 168.218703 74.501101 
L 169.722623 83.425203 
L 171.226544 68.882073 
L 172.730465 67.918019 
L 174.234386 69.844469 
L 175.738306 78.335054 
L 177.242227 80.214172 
L 178.746148 96.236355 
L 180.250068 91.749965 
L 181.753989 81.589192 
L 183.25791 91.504173 
L 184.761831 92.699298 
L 186.265751 86.305237 
L 187.769672 86.875062 
L 189.273593 86.63597 
L 190.777513 85.623694 
L 192.281434 86.587772 
L 193.785355 87.193596 
L 195.289276 75.654296 
L 196.793196 77.64746 
L 198.297117 78.871091 
L 199.801038 71.617873 
L 201.304958 84.459524 
L 202.808879 74.220919 
L 204.3128 67.087368 
L 205.816721 79.348867 
L 207.320641 96.398311 
L 208.824562 96.087991 
L 210.328483 97.420145 
L 211.832403 92.117009 
L 213.336324 91.107327 
L 214.840245 90.828874 
L 216.344166 104.701028 
L 217.848086 104.069725 
L 219.352007 99.807922 
L 220.855928 92.982097 
L 222.359848 74.08586 
L 223.863769 81.294458 
L 225.36769 78.210345 
L 226.871611 69.471854 
L 228.375531 68.369811 
L 229.879452 66.915325 
L 231.383373 59.033061 
L 232.887293 64.925163 
L 234.391214 68.911995 
L 235.895135 68.691563 
L 237.399056 75.57375 
L 238.902976 74.649369 
L 240.406897 82.272272 
L 241.910818 78.51423 
L 243.414738 74.181343 
L 244.918659 75.82802 
L 246.42258 76.795916 
L 247.926501 76.140261 
L 249.430421 70.759893 
L 250.934342 64.276881 
L 252.438263 64.87454 
L 253.942184 70.68355 
L 255.446104 71.634924 
L 256.950025 76.418522 
L 258.453946 69.721633 
L 259.957866 73.240463 
L 261.461787 72.046443 
L 262.965708 63.736018 
L 264.469629 64.646014 
L 265.973549 58.795698 
L 267.47747 75.366958 
L 268.981391 60.185032 
L 270.485311 75.003276 
L 271.989232 64.109353 
L 273.493153 75.710803 
L 274.997074 71.322922 
L 274.997074 71.322922 
" clip-path="url(#p1d0863f860)" style="fill: none; stroke: #c44e52; stroke-linecap: round"/>
   </g>
   <g id="line2d_5">
    <path d="M 50.912887 137.575181 
L 52.416808 157.820491 
L 53.920728 150.830753 
L 55.424649 156.832206 
L 56.92857 149.760301 
L 58.43249 153.520049 
L 59.936411 137.53743 
L 61.440332 142.052109 
L 62.944253 134.959755 
L 64.448173 145.823792 
L 65.952094 145.056576 
L 67.456015 141.454991 
L 68.959935 148.805937 
L 70.463856 153.129242 
L 71.967777 162.136604 
L 73.471698 165.108783 
L 74.975618 166.80463 
L 76.479539 169.376313 
L 77.98346 171.159647 
L 79.48738 168.398895 
L 80.991301 166.282643 
L 82.495222 159.287945 
L 83.999143 160.148267 
L 85.503063 161.99889 
L 87.006984 150.392025 
L 88.510905 135.207001 
L 90.014825 145.753669 
L 91.518746 141.703821 
L 93.022667 137.192468 
L 94.526588 140.271981 
L 96.030508 138.197155 
L 97.534429 123.733922 
L 99.03835 131.282955 
L 100.54227 130.107547 
L 102.046191 126.523792 
L 103.550112 126.111385 
L 105.054033 138.39822 
L 106.557953 136.433525 
L 108.061874 148.145684 
L 109.565795 150.470013 
L 111.069715 140.498982 
L 112.573636 148.688757 
L 114.077557 158.181099 
L 115.581478 141.600377 
L 117.085398 157.955011 
L 118.589319 158.410417 
L 120.09324 152.715153 
L 121.59716 138.572484 
L 123.101081 147.003296 
L 124.605002 152.139853 
L 126.108923 154.571373 
L 127.612843 142.424388 
L 129.116764 154.752205 
L 130.620685 122.697331 
L 132.124606 126.148944 
L 133.628526 125.940639 
L 135.132447 134.608406 
L 136.636368 133.836615 
L 138.140288 134.323997 
L 139.644209 137.517786 
L 141.14813 142.810716 
L 142.652051 136.207317 
L 144.155971 125.009209 
L 145.659892 135.95133 
L 147.163813 145.428303 
L 148.667733 143.140704 
L 150.171654 152.558793 
L 151.675575 133.988533 
L 153.179496 127.371218 
L 154.683416 130.358562 
L 156.187337 132.412508 
L 157.691258 131.694583 
L 159.195178 121.523111 
L 160.699099 126.274314 
L 162.20302 127.214617 
L 163.706941 138.159692 
L 165.210861 126.54968 
L 166.714782 116.768343 
L 168.218703 118.397885 
L 169.722623 121.428697 
L 171.226544 122.151329 
L 172.730465 123.849974 
L 174.234386 117.024846 
L 175.738306 111.002211 
L 177.242227 114.468617 
L 178.746148 109.302882 
L 180.250068 123.335947 
L 181.753989 123.916399 
L 183.25791 128.410798 
L 184.761831 127.611583 
L 186.265751 120.468846 
L 187.769672 127.513902 
L 189.273593 125.516271 
L 190.777513 124.321711 
L 192.281434 114.867984 
L 193.785355 124.920174 
L 195.289276 107.735033 
L 196.793196 121.561859 
L 198.297117 112.276141 
L 199.801038 112.996384 
L 201.304958 103.921505 
L 202.808879 109.992289 
L 204.3128 102.78572 
L 205.816721 111.071062 
L 207.320641 120.369052 
L 208.824562 119.668009 
L 210.328483 122.968928 
L 211.832403 115.818194 
L 213.336324 105.563415 
L 214.840245 117.954787 
L 216.344166 103.837236 
L 217.848086 109.751096 
L 219.352007 110.679607 
L 220.855928 90.538606 
L 223.863769 121.148575 
L 225.36769 102.835119 
L 226.871611 101.829375 
L 228.375531 96.914127 
L 229.879452 108.297678 
L 231.383373 93.347171 
L 232.887293 96.089264 
L 234.391214 106.182122 
L 235.895135 103.64711 
L 237.399056 88.238388 
L 238.902976 91.155933 
L 240.406897 95.712254 
L 241.910818 91.969605 
L 243.414738 100.981169 
L 244.918659 103.382226 
L 246.42258 107.768114 
L 247.926501 107.185609 
L 249.430421 101.82462 
L 250.934342 106.424529 
L 252.438263 97.910385 
L 253.942184 105.499403 
L 255.446104 108.679755 
L 256.950025 117.29972 
L 258.453946 97.102572 
L 259.957866 95.015294 
L 261.461787 91.609934 
L 262.965708 78.340482 
L 264.469629 86.781356 
L 265.973549 76.111011 
L 267.47747 86.574468 
L 268.981391 78.5436 
L 270.485311 80.513061 
L 271.989232 83.156933 
L 273.493153 85.360347 
L 274.997074 100.63108 
L 274.997074 100.63108 
" clip-path="url(#p1d0863f860)" style="fill: none; stroke: #8172b3; stroke-linecap: round"/>
   </g>
   <g id="line2d_6">
    <path d="M 50.912887 126.542776 
L 52.416808 112.045706 
L 53.920728 117.217085 
L 55.424649 121.026627 
L 56.92857 109.012289 
L 58.43249 102.74977 
L 59.936411 108.543339 
L 61.440332 106.524407 
L 62.944253 124.892941 
L 64.448173 114.434996 
L 65.952094 113.953485 
L 67.456015 103.829648 
L 68.959935 115.244202 
L 70.463856 113.857522 
L 71.967777 124.35544 
L 73.471698 128.624207 
L 74.975618 125.113182 
L 76.479539 127.972863 
L 79.48738 112.57802 
L 80.991301 126.651539 
L 82.495222 114.723199 
L 83.999143 123.712201 
L 85.503063 121.561415 
L 87.006984 97.475163 
L 88.510905 107.457721 
L 90.014825 109.697626 
L 91.518746 99.386004 
L 93.022667 97.674703 
L 94.526588 92.05529 
L 96.030508 95.96381 
L 97.534429 114.565337 
L 99.03835 99.955685 
L 100.54227 119.567218 
L 102.046191 111.310094 
L 103.550112 109.194598 
L 105.054033 104.80362 
L 106.557953 97.058913 
L 108.061874 92.227405 
L 109.565795 110.431858 
L 111.069715 108.796047 
L 112.573636 106.439922 
L 114.077557 106.984748 
L 115.581478 115.768435 
L 117.085398 109.805465 
L 118.589319 102.594274 
L 121.59716 85.692905 
L 123.101081 95.635262 
L 124.605002 112.107797 
L 126.108923 100.892098 
L 127.612843 97.680779 
L 129.116764 102.42127 
L 130.620685 101.361085 
L 132.124606 92.216622 
L 133.628526 93.210911 
L 135.132447 84.697584 
L 136.636368 90.172859 
L 138.140288 91.005311 
L 139.644209 101.70517 
L 141.14813 87.211127 
L 142.652051 79.394111 
L 144.155971 88.954031 
L 145.659892 84.807068 
L 147.163813 85.374684 
L 148.667733 85.711997 
L 150.171654 96.269159 
L 153.179496 74.62826 
L 154.683416 78.46315 
L 156.187337 73.465675 
L 157.691258 78.073869 
L 159.195178 67.485703 
L 160.699099 61.694272 
L 162.20302 75.819062 
L 163.706941 74.724175 
L 165.210861 76.976916 
L 166.714782 90.129728 
L 168.218703 81.756048 
L 169.722623 78.674241 
L 171.226544 88.176381 
L 172.730465 78.896787 
L 174.234386 68.220871 
L 175.738306 66.5332 
L 177.242227 67.42677 
L 178.746148 68.686231 
L 180.250068 74.074837 
L 181.753989 59.593641 
L 183.25791 68.94797 
L 184.761831 87.461146 
L 186.265751 72.755483 
L 187.769672 84.631759 
L 189.273593 80.50773 
L 190.777513 85.853252 
L 192.281434 67.615503 
L 193.785355 73.555779 
L 195.289276 65.004772 
L 196.793196 76.632183 
L 198.297117 70.672767 
L 199.801038 82.506417 
L 201.304958 74.044266 
L 204.3128 61.859326 
L 205.816721 67.131099 
L 207.320641 68.395195 
L 208.824562 58.636215 
L 210.328483 60.888572 
L 211.832403 62.6053 
L 213.336324 78.903319 
L 214.840245 81.812483 
L 216.344166 73.660436 
L 217.848086 70.949419 
L 219.352007 80.992566 
L 220.855928 82.00746 
L 222.359848 75.118236 
L 223.863769 73.49603 
L 225.36769 67.304871 
L 226.871611 51.0447 
L 228.375531 60.196775 
L 229.879452 50.144261 
L 231.383373 41.393571 
L 232.887293 47.635714 
L 235.895135 53.442755 
L 237.399056 38.981972 
L 238.902976 42.878844 
L 240.406897 44.308763 
L 241.910818 49.894386 
L 243.414738 44.437987 
L 244.918659 53.094563 
L 246.42258 40.020256 
L 247.926501 55.252949 
L 249.430421 43.412791 
L 250.934342 43.755964 
L 252.438263 49.160539 
L 253.942184 46.14242 
L 255.446104 34.784265 
L 256.950025 25.041759 
L 258.453946 41.267709 
L 259.957866 44.844247 
L 261.461787 38.677583 
L 262.965708 44.897344 
L 264.469629 35.799086 
L 265.973549 32.126032 
L 267.47747 31.212962 
L 268.981391 30.869933 
L 270.485311 31.193126 
L 271.989232 28.239606 
L 273.493153 28.810921 
L 274.997074 33.118136 
L 274.997074 33.118136 
" clip-path="url(#p1d0863f860)" style="fill: none; stroke: #937860; stroke-linecap: round"/>
   </g>
   <g id="line2d_7">
    <path d="M 50.912887 108.668648 
L 52.416808 108.615359 
L 53.920728 111.395191 
L 55.424649 111.538896 
L 56.92857 101.417736 
L 58.43249 106.180778 
L 59.936411 99.481752 
L 61.440332 103.953949 
L 62.944253 111.30056 
L 64.448173 111.568915 
L 65.952094 106.88182 
L 67.456015 114.288289 
L 68.959935 110.463918 
L 70.463856 102.022623 
L 71.967777 102.749842 
L 73.471698 109.896314 
L 74.975618 114.171096 
L 77.98346 109.865659 
L 79.48738 109.951932 
L 80.991301 114.036565 
L 82.495222 108.519012 
L 83.999143 107.689501 
L 85.503063 111.579121 
L 87.006984 122.078252 
L 88.510905 109.358116 
L 90.014825 100.73456 
L 91.518746 102.316277 
L 93.022667 102.867851 
L 94.526588 104.759888 
L 96.030508 101.364279 
L 97.534429 103.842856 
L 99.03835 94.684801 
L 100.54227 95.830095 
L 102.046191 98.254783 
L 103.550112 95.106406 
L 106.557953 109.034239 
L 108.061874 102.485846 
L 109.565795 103.780057 
L 111.069715 100.063993 
L 112.573636 95.421578 
L 114.077557 98.225917 
L 115.581478 94.924157 
L 117.085398 96.993545 
L 118.589319 95.42871 
L 120.09324 105.690802 
L 123.101081 100.636532 
L 124.605002 103.45672 
L 126.108923 97.230692 
L 127.612843 103.830488 
L 129.116764 100.126455 
L 130.620685 102.85313 
L 132.124606 106.190239 
L 133.628526 105.508721 
L 135.132447 96.537694 
L 136.636368 110.211005 
L 138.140288 103.430952 
L 139.644209 97.367769 
L 141.14813 86.886421 
L 142.652051 82.132649 
L 144.155971 88.047613 
L 145.659892 99.115188 
L 147.163813 96.067795 
L 148.667733 103.657725 
L 150.171654 104.367461 
L 151.675575 100.765492 
L 153.179496 110.297542 
L 154.683416 100.310529 
L 156.187337 108.991625 
L 157.691258 109.629892 
L 159.195178 104.087832 
L 160.699099 104.280311 
L 162.20302 108.34542 
L 163.706941 106.541337 
L 165.210861 116.286004 
L 166.714782 102.54706 
L 168.218703 121.382708 
L 169.722623 110.601967 
L 171.226544 109.940273 
L 172.730465 108.38711 
L 174.234386 96.304125 
L 175.738306 95.295908 
L 177.242227 88.746543 
L 178.746148 90.633032 
L 180.250068 89.521599 
L 181.753989 85.686373 
L 183.25791 92.846461 
L 184.761831 89.798419 
L 186.265751 92.500526 
L 187.769672 97.722445 
L 190.777513 91.831424 
L 192.281434 101.986889 
L 193.785355 95.278257 
L 195.289276 91.252136 
L 196.793196 87.667073 
L 198.297117 95.959487 
L 199.801038 91.68731 
L 201.304958 84.919265 
L 202.808879 93.434514 
L 204.3128 99.604324 
L 205.816721 90.739755 
L 207.320641 90.672129 
L 208.824562 87.214176 
L 210.328483 92.839953 
L 211.832403 97.033073 
L 213.336324 98.552807 
L 214.840245 91.742232 
L 216.344166 91.711685 
L 217.848086 100.305991 
L 219.352007 88.835662 
L 220.855928 82.124004 
L 222.359848 84.40052 
L 223.863769 91.615169 
L 225.36769 89.091084 
L 226.871611 93.102604 
L 228.375531 80.225459 
L 229.879452 91.24205 
L 231.383373 92.345438 
L 232.887293 79.8539 
L 234.391214 96.507483 
L 235.895135 99.932511 
L 237.399056 97.636231 
L 238.902976 84.207848 
L 240.406897 86.052768 
L 241.910818 74.372621 
L 243.414738 79.457751 
L 244.918659 85.772322 
L 246.42258 78.730916 
L 247.926501 82.603774 
L 249.430421 79.570405 
L 250.934342 82.23392 
L 252.438263 76.297751 
L 253.942184 102.953801 
L 255.446104 77.271603 
L 256.950025 75.315998 
L 258.453946 80.511572 
L 259.957866 86.708447 
L 261.461787 73.302878 
L 262.965708 83.532525 
L 264.469629 90.421389 
L 265.973549 77.38637 
L 267.47747 79.823161 
L 268.981391 91.82835 
L 270.485311 84.017794 
L 271.989232 83.083831 
L 273.493153 79.833344 
L 274.997074 82.58545 
L 274.997074 82.58545 
" clip-path="url(#p1d0863f860)" style="fill: none; stroke: #da8bc3; stroke-linecap: round"/>
   </g>
   <g id="patch_3">
    <path d="M 39.708677 178.465541 
L 39.708677 17.735865 
" style="fill: none; stroke: #ffffff; stroke-width: 1.25; stroke-linejoin: miter; stroke-linecap: square"/>
   </g>
   <g id="patch_4">
    <path d="M 286.201283 178.465541 
L 286.201283 17.735865 
" style="fill: none; stroke: #ffffff; stroke-width: 1.25; stroke-linejoin: miter; stroke-linecap: square"/>
   </g>
   <g id="patch_5">
    <path d="M 39.708677 178.465541 
L 286.201283 178.465541 
" style="fill: none; stroke: #ffffff; stroke-width: 1.25; stroke-linejoin: miter; stroke-linecap: square"/>
   </g>
   <g id="patch_6">
    <path d="M 39.708677 17.735865 
L 286.201283 17.735865 
" style="fill: none; stroke: #ffffff; stroke-width: 1.25; stroke-linejoin: miter; stroke-linecap: square"/>
   </g>
   <g id="text_13">
    <!-- Raw index -->
    <g style="fill: #262626" transform="translate(134.94248 11.735865) scale(0.12 -0.12)">
     <defs>
      <path id="ArialMT-52" d="M 503 0 
L 503 4581 
L 2534 4581 
Q 3147 4581 3465 4457 
Q 3784 4334 3975 4021 
Q 4166 3709 4166 3331 
Q 4166 2844 3850 2509 
Q 3534 2175 2875 2084 
Q 3116 1969 3241 1856 
Q 3506 1613 3744 1247 
L 4541 0 
L 3778 0 
L 3172 953 
Q 2906 1366 2734 1584 
Q 2563 1803 2427 1890 
Q 2291 1978 2150 2013 
Q 2047 2034 1813 2034 
L 1109 2034 
L 1109 0 
L 503 0 
z
M 1109 2559 
L 2413 2559 
Q 2828 2559 3062 2645 
Q 3297 2731 3419 2920 
Q 3541 3109 3541 3331 
Q 3541 3656 3305 3865 
Q 3069 4075 2559 4075 
L 1109 4075 
L 1109 2559 
z
" transform="scale(0.015625)"/>
      <path id="ArialMT-77" d="M 1034 0 
L 19 3319 
L 600 3319 
L 1128 1403 
L 1325 691 
Q 1338 744 1497 1375 
L 2025 3319 
L 2603 3319 
L 3100 1394 
L 3266 759 
L 3456 1400 
L 4025 3319 
L 4572 3319 
L 3534 0 
L 2950 0 
L 2422 1988 
L 2294 2553 
L 1622 0 
L 1034 0 
z
" transform="scale(0.015625)"/>
      <path id="ArialMT-20" transform="scale(0.015625)"/>
      <path id="ArialMT-69" d="M 425 3934 
L 425 4581 
L 988 4581 
L 988 3934 
L 425 3934 
z
M 425 0 
L 425 3319 
L 988 3319 
L 988 0 
L 425 0 
z
" transform="scale(0.015625)"/>
      <path id="ArialMT-6e" d="M 422 0 
L 422 3319 
L 928 3319 
L 928 2847 
Q 1294 3394 1984 3394 
Q 2284 3394 2536 3286 
Q 2788 3178 2913 3003 
Q 3038 2828 3088 2588 
Q 3119 2431 3119 2041 
L 3119 0 
L 2556 0 
L 2556 2019 
Q 2556 2363 2490 2533 
Q 2425 2703 2258 2804 
Q 2091 2906 1866 2906 
Q 1506 2906 1245 2678 
Q 984 2450 984 1813 
L 984 0 
L 422 0 
z
" transform="scale(0.015625)"/>
      <path id="ArialMT-64" d="M 2575 0 
L 2575 419 
Q 2259 -75 1647 -75 
Q 1250 -75 917 144 
Q 584 363 401 755 
Q 219 1147 219 1656 
Q 219 2153 384 2558 
Q 550 2963 881 3178 
Q 1213 3394 1622 3394 
Q 1922 3394 2156 3267 
Q 2391 3141 2538 2938 
L 2538 4581 
L 3097 4581 
L 3097 0 
L 2575 0 
z
M 797 1656 
Q 797 1019 1065 703 
Q 1334 388 1700 388 
Q 2069 388 2326 689 
Q 2584 991 2584 1609 
Q 2584 2291 2321 2609 
Q 2059 2928 1675 2928 
Q 1300 2928 1048 2622 
Q 797 2316 797 1656 
z
" transform="scale(0.015625)"/>
      <path id="ArialMT-78" d="M 47 0 
L 1259 1725 
L 138 3319 
L 841 3319 
L 1350 2541 
Q 1494 2319 1581 2169 
Q 1719 2375 1834 2534 
L 2394 3319 
L 3066 3319 
L 1919 1756 
L 3153 0 
L 2463 0 
L 1781 1031 
L 1600 1309 
L 728 0 
L 47 0 
z
" transform="scale(0.015625)"/>
     </defs>
     <use xlink:href="#ArialMT-52"/>
     <use xlink:href="#ArialMT-61" transform="translate(72.216797 0)"/>
     <use xlink:href="#ArialMT-77" transform="translate(127.832031 0)"/>
     <use xlink:href="#ArialMT-20" transform="translate(200.048828 0)"/>
     <use xlink:href="#ArialMT-69" transform="translate(227.832031 0)"/>
     <use xlink:href="#ArialMT-6e" transform="translate(250.048828 0)"/>
     <use xlink:href="#ArialMT-64" transform="translate(305.664062 0)"/>
     <use xlink:href="#ArialMT-65" transform="translate(361.279297 0)"/>
     <use xlink:href="#ArialMT-78" transform="translate(416.894531 0)"/>
    </g>
   </g>
  </g>
  <g id="axes_2">
   <g id="patch_7">
    <path d="M 295.915748 178.465541 
L 542.408354 178.465541 
L 542.408354 17.735865 
L 295.915748 17.735865 
z
" style="fill: #ffffff"/>
   </g>
   <g id="matplotlib.axis_3">
    <g id="xtick_8">
     <g id="text_14">
      <!-- 1850 -->
      <g style="fill: #262626" transform="translate(294.885895 195.839135) scale(0.11 -0.11)">
       <use xlink:href="#ArialMT-31"/>
       <use xlink:href="#ArialMT-38" transform="translate(55.615234 0)"/>
       <use xlink:href="#ArialMT-35" transform="translate(111.230469 0)"/>
       <use xlink:href="#ArialMT-30" transform="translate(166.845703 0)"/>
      </g>
     </g>
    </g>
    <g id="xtick_9">
     <g id="text_15">
      <!-- 1875 -->
      <g style="fill: #262626" transform="translate(332.483913 195.839135) scale(0.11 -0.11)">
       <use xlink:href="#ArialMT-31"/>
       <use xlink:href="#ArialMT-38" transform="translate(55.615234 0)"/>
       <use xlink:href="#ArialMT-37" transform="translate(111.230469 0)"/>
       <use xlink:href="#ArialMT-35" transform="translate(166.845703 0)"/>
      </g>
     </g>
    </g>
    <g id="xtick_10">
     <g id="text_16">
      <!-- 1900 -->
      <g style="fill: #262626" transform="translate(370.081931 195.839135) scale(0.11 -0.11)">
       <use xlink:href="#ArialMT-31"/>
       <use xlink:href="#ArialMT-39" transform="translate(55.615234 0)"/>
       <use xlink:href="#ArialMT-30" transform="translate(111.230469 0)"/>
       <use xlink:href="#ArialMT-30" transform="translate(166.845703 0)"/>
      </g>
     </g>
    </g>
    <g id="xtick_11">
     <g id="text_17">
      <!-- 1925 -->
      <g style="fill: #262626" transform="translate(407.679949 195.839135) scale(0.11 -0.11)">
       <use xlink:href="#ArialMT-31"/>
       <use xlink:href="#ArialMT-39" transform="translate(55.615234 0)"/>
       <use xlink:href="#ArialMT-32" transform="translate(111.230469 0)"/>
       <use xlink:href="#ArialMT-35" transform="translate(166.845703 0)"/>
      </g>
     </g>
    </g>
    <g id="xtick_12">
     <g id="text_18">
      <!-- 1950 -->
      <g style="fill: #262626" transform="translate(445.277967 195.839135) scale(0.11 -0.11)">
       <use xlink:href="#ArialMT-31"/>
       <use xlink:href="#ArialMT-39" transform="translate(55.615234 0)"/>
       <use xlink:href="#ArialMT-35" transform="translate(111.230469 0)"/>
       <use xlink:href="#ArialMT-30" transform="translate(166.845703 0)"/>
      </g>
     </g>
    </g>
    <g id="xtick_13">
     <g id="text_19">
      <!-- 1975 -->
      <g style="fill: #262626" transform="translate(482.875985 195.839135) scale(0.11 -0.11)">
       <use xlink:href="#ArialMT-31"/>
       <use xlink:href="#ArialMT-39" transform="translate(55.615234 0)"/>
       <use xlink:href="#ArialMT-37" transform="translate(111.230469 0)"/>
       <use xlink:href="#ArialMT-35" transform="translate(166.845703 0)"/>
      </g>
     </g>
    </g>
    <g id="xtick_14">
     <g id="text_20">
      <!-- 2000 -->
      <g style="fill: #262626" transform="translate(520.474003 195.839135) scale(0.11 -0.11)">
       <use xlink:href="#ArialMT-32"/>
       <use xlink:href="#ArialMT-30" transform="translate(55.615234 0)"/>
       <use xlink:href="#ArialMT-30" transform="translate(111.230469 0)"/>
       <use xlink:href="#ArialMT-30" transform="translate(166.845703 0)"/>
      </g>
     </g>
    </g>
    <g id="text_21">
     <!-- Year -->
     <g style="fill: #262626" transform="translate(407.036426 210.61476) scale(0.12 -0.12)">
      <use xlink:href="#ArialMT-59"/>
      <use xlink:href="#ArialMT-65" transform="translate(57.574219 0)"/>
      <use xlink:href="#ArialMT-61" transform="translate(113.189453 0)"/>
      <use xlink:href="#ArialMT-72" transform="translate(168.804688 0)"/>
     </g>
    </g>
   </g>
   <g id="matplotlib.axis_4">
    <g id="ytick_4">
     <g id="line2d_8">
      <defs>
       <path id="m677f30d7e4" d="M 0 0 
L 6 0 
" style="stroke: #262626; stroke-width: 1.25"/>
      </defs>
      <g>
       <use xlink:href="#m677f30d7e4" x="542.408354" y="145.123823" style="fill: #262626; stroke: #262626; stroke-width: 1.25"/>
      </g>
     </g>
     <g id="text_22">
      <!-- 0 -->
      <g style="fill: #262626" transform="translate(551.908354 149.06062) scale(0.11 -0.11)">
       <use xlink:href="#ArialMT-30"/>
      </g>
     </g>
    </g>
    <g id="ytick_5">
     <g id="line2d_9">
      <g>
       <use xlink:href="#m677f30d7e4" x="542.408354" y="94.116704" style="fill: #262626; stroke: #262626; stroke-width: 1.25"/>
      </g>
     </g>
     <g id="text_23">
      <!-- 3 -->
      <g style="fill: #262626" transform="translate(551.908354 98.053501) scale(0.11 -0.11)">
       <defs>
        <path id="ArialMT-33" d="M 269 1209 
L 831 1284 
Q 928 806 1161 595 
Q 1394 384 1728 384 
Q 2125 384 2398 659 
Q 2672 934 2672 1341 
Q 2672 1728 2419 1979 
Q 2166 2231 1775 2231 
Q 1616 2231 1378 2169 
L 1441 2663 
Q 1497 2656 1531 2656 
Q 1891 2656 2178 2843 
Q 2466 3031 2466 3422 
Q 2466 3731 2256 3934 
Q 2047 4138 1716 4138 
Q 1388 4138 1169 3931 
Q 950 3725 888 3313 
L 325 3413 
Q 428 3978 793 4289 
Q 1159 4600 1703 4600 
Q 2078 4600 2393 4439 
Q 2709 4278 2876 4000 
Q 3044 3722 3044 3409 
Q 3044 3113 2884 2869 
Q 2725 2625 2413 2481 
Q 2819 2388 3044 2092 
Q 3269 1797 3269 1353 
Q 3269 753 2831 336 
Q 2394 -81 1725 -81 
Q 1122 -81 723 278 
Q 325 638 269 1209 
z
" transform="scale(0.015625)"/>
       </defs>
       <use xlink:href="#ArialMT-33"/>
      </g>
     </g>
    </g>
    <g id="ytick_6">
     <g id="line2d_10">
      <g>
       <use xlink:href="#m677f30d7e4" x="542.408354" y="43.109586" style="fill: #262626; stroke: #262626; stroke-width: 1.25"/>
      </g>
     </g>
     <g id="text_24">
      <!-- 6 -->
      <g style="fill: #262626" transform="translate(551.908354 47.046383) scale(0.11 -0.11)">
       <use xlink:href="#ArialMT-36"/>
      </g>
     </g>
    </g>
    <g id="text_25">
     <!-- $^{\circ}$C -->
     <g style="fill: #262626" transform="translate(570.61476 105.300703) rotate(-90) scale(0.12 -0.12)">
      <use xlink:href="#DejaVuSans-2218" transform="translate(0.957031 38.484375) scale(0.7)"/>
      <use xlink:href="#ArialMT-43" transform="translate(47.509766 0.203125)"/>
     </g>
    </g>
   </g>
   <g id="line2d_11">
    <path d="M 307.119958 158.760959 
L 308.623878 142.487957 
L 310.127799 162.066526 
L 311.63172 154.667065 
L 313.135641 153.677383 
L 314.639561 154.880872 
L 316.143482 146.295013 
L 317.647403 153.503204 
L 319.151323 153.495486 
L 320.655244 141.005185 
L 323.663086 147.555481 
L 325.167006 148.058397 
L 326.670927 140.991954 
L 328.174848 135.605422 
L 329.678768 136.771455 
L 331.182689 146.373038 
L 332.68661 139.056726 
L 334.190531 144.629987 
L 335.694451 145.841227 
L 337.198372 129.621701 
L 338.702293 139.975096 
L 340.206213 147.216885 
L 341.710134 150.59078 
L 343.214055 140.517738 
L 344.717976 142.841989 
L 346.221896 144.637122 
L 347.725817 139.131411 
L 349.229738 136.358012 
L 350.733658 132.92182 
L 352.237579 133.159593 
L 353.7415 128.945839 
L 355.245421 132.972475 
L 356.749341 128.88231 
L 358.253262 128.652677 
L 359.757183 141.344008 
L 361.261103 134.034182 
L 362.765024 124.742334 
L 364.268945 122.138508 
L 365.772866 130.187855 
L 367.276786 130.892125 
L 368.780707 135.417266 
L 370.284628 127.592688 
L 371.788549 126.069152 
L 373.292469 136.668394 
L 374.79639 131.07934 
L 376.300311 129.378837 
L 377.804231 124.125331 
L 379.308152 131.180196 
L 380.812073 122.337041 
L 382.315994 120.501664 
L 383.819914 120.25734 
L 385.323835 129.23511 
L 386.827756 133.863831 
L 388.331676 122.578024 
L 389.835597 122.272766 
L 391.339518 131.255951 
L 392.843439 121.772801 
L 394.347359 119.568798 
L 395.85128 132.962162 
L 397.355201 130.269058 
L 398.859121 127.211707 
L 400.363042 118.467656 
L 401.866963 120.468099 
L 403.370884 126.016195 
L 404.874804 114.944682 
L 406.378725 110.771077 
L 407.882646 118.864268 
L 409.386566 125.228905 
L 410.890487 129.182509 
L 412.394408 107.444723 
L 413.898329 132.099636 
L 415.402249 136.647769 
L 416.90617 138.864874 
L 418.410091 136.959287 
L 419.914011 116.340803 
L 421.417932 115.781946 
L 422.921853 128.202524 
L 424.425774 119.546519 
L 425.929694 118.229624 
L 427.433615 114.045349 
L 428.937536 121.21696 
L 430.441456 116.967697 
L 431.945377 125.10003 
L 433.449298 125.813803 
L 434.953219 120.810814 
L 436.457139 117.684096 
L 437.96106 122.385296 
L 439.464981 123.112494 
L 440.968901 109.738685 
L 442.472822 121.871127 
L 443.976743 124.920177 
L 445.480664 112.817375 
L 446.984584 123.801166 
L 448.488505 118.598541 
L 449.992426 120.189984 
L 451.496346 107.263248 
L 453.000267 106.609502 
L 454.504188 127.540995 
L 456.008109 127.068433 
L 457.512029 126.902913 
L 459.01595 128.676253 
L 460.519871 119.068995 
L 462.023791 125.000829 
L 463.527712 115.46884 
L 465.031633 116.716076 
L 466.535554 100.715709 
L 468.039474 114.592563 
L 469.543395 138.792653 
L 471.047316 140.377124 
L 472.551236 132.200978 
L 474.055157 137.655417 
L 475.559078 130.784751 
L 477.062999 118.431984 
L 478.566919 118.017373 
L 480.07084 116.99698 
L 481.574761 128.120315 
L 483.078682 116.319075 
L 484.582602 131.514836 
L 486.086523 119.392771 
L 487.590444 129.077438 
L 489.094364 131.383983 
L 490.598285 124.768731 
L 492.102206 119.940861 
L 493.606127 103.969875 
L 496.613968 116.908513 
L 498.117889 105.593034 
L 499.621809 123.436659 
L 501.12573 125.359012 
L 502.629651 117.517278 
L 504.133572 117.749311 
L 505.637492 108.714855 
L 507.141413 108.078751 
L 508.645334 119.095328 
L 510.149254 121.871451 
L 511.653175 127.831725 
L 513.157096 126.822067 
L 514.661017 113.31027 
L 516.164937 114.82278 
L 517.668858 115.201135 
L 519.172779 119.554497 
L 520.676699 112.865338 
L 522.18062 107.441156 
L 523.684541 96.299012 
L 525.188462 98.142464 
L 526.692382 114.065942 
L 528.196303 123.411299 
L 529.700224 113.616696 
L 531.204144 100.573473 
L 531.204144 100.573473 
" clip-path="url(#p65cb7f4114)" style="fill: none; stroke: #4c72b0; stroke-linecap: round"/>
   </g>
   <g id="line2d_12">
    <path d="M 307.119958 154.799247 
L 308.623878 162.408916 
L 310.127799 158.096998 
L 311.63172 155.788962 
L 313.135641 152.900568 
L 316.143482 151.501918 
L 317.647403 152.58704 
L 320.655244 139.692117 
L 322.159165 142.679615 
L 323.663086 141.853929 
L 325.167006 148.689279 
L 326.670927 146.917561 
L 328.174848 138.873986 
L 329.678768 143.552227 
L 331.182689 146.517544 
L 332.68661 143.748328 
L 334.190531 143.658985 
L 335.694451 137.872532 
L 337.198372 139.635787 
L 338.702293 143.004104 
L 340.206213 133.515506 
L 341.710134 144.006045 
L 343.214055 145.191665 
L 344.717976 141.763159 
L 346.221896 150.210545 
L 347.725817 132.300958 
L 349.229738 133.163873 
L 350.733658 130.361677 
L 352.237579 139.116137 
L 353.7415 134.603806 
L 355.245421 135.177029 
L 356.749341 145.522543 
L 358.253262 133.204442 
L 359.757183 123.027529 
L 361.261103 124.404256 
L 362.765024 126.403305 
L 364.268945 120.249395 
L 365.772866 130.540168 
L 367.276786 131.87584 
L 368.780707 140.116683 
L 370.284628 138.197573 
L 371.788549 133.486481 
L 373.292469 137.870943 
L 374.79639 136.840822 
L 376.300311 129.129779 
L 377.804231 130.769866 
L 379.308152 129.196681 
L 380.812073 131.054467 
L 382.315994 128.530937 
L 383.819914 113.959087 
L 385.323835 132.622658 
L 386.827756 142.43607 
L 388.331676 136.837449 
L 389.835597 149.052554 
L 391.339518 144.157652 
L 392.843439 133.55828 
L 394.347359 135.229662 
L 395.85128 128.469905 
L 397.355201 123.574841 
L 398.859121 133.454992 
L 400.363042 123.588591 
L 401.866963 133.676064 
L 403.370884 127.889742 
L 404.874804 123.396057 
L 406.378725 111.715812 
L 407.882646 122.021308 
L 409.386566 128.946488 
L 410.890487 124.637781 
L 412.394408 119.408272 
L 413.898329 128.50282 
L 415.402249 126.279425 
L 416.90617 133.657579 
L 418.410091 127.840222 
L 419.914011 121.473931 
L 421.417932 125.807057 
L 422.921853 129.180369 
L 424.425774 119.892055 
L 425.929694 115.191373 
L 427.433615 123.572473 
L 428.937536 117.425406 
L 430.441456 112.567182 
L 431.945377 128.065866 
L 433.449298 141.438897 
L 434.953219 126.482044 
L 436.457139 129.866219 
L 437.96106 128.581624 
L 439.464981 132.419293 
L 440.968901 127.25273 
L 442.472822 120.458046 
L 443.976743 135.758975 
L 445.480664 132.395587 
L 446.984584 130.00492 
L 448.488505 129.69817 
L 449.992426 120.170981 
L 451.496346 133.103879 
L 453.000267 122.419574 
L 454.504188 120.907907 
L 456.008109 116.588337 
L 457.512029 123.368071 
L 459.01595 108.620388 
L 460.519871 105.333371 
L 462.023791 114.385923 
L 463.527712 113.938332 
L 465.031633 106.938629 
L 466.535554 111.81203 
L 468.039474 114.053132 
L 469.543395 114.252476 
L 471.047316 126.648407 
L 472.551236 121.323945 
L 474.055157 124.270161 
L 475.559078 116.081464 
L 477.062999 123.897968 
L 478.566919 118.674199 
L 480.07084 127.445977 
L 481.574761 116.385653 
L 483.078682 121.608222 
L 484.582602 114.242358 
L 486.086523 117.07426 
L 487.590444 121.873948 
L 489.094364 117.310314 
L 490.598285 122.228338 
L 492.102206 119.715477 
L 493.606127 108.003839 
L 495.110047 114.674156 
L 496.613968 103.533374 
L 498.117889 106.440772 
L 499.621809 113.394717 
L 501.12573 126.136281 
L 502.629651 108.894709 
L 504.133572 109.061688 
L 505.637492 109.624533 
L 507.141413 111.173072 
L 508.645334 114.009158 
L 510.149254 101.570809 
L 511.653175 112.662071 
L 513.157096 109.295115 
L 514.661017 108.347105 
L 516.164937 115.281138 
L 517.668858 111.428454 
L 519.172779 94.328404 
L 520.676699 101.106646 
L 522.18062 97.644088 
L 523.684541 104.63617 
L 525.188462 109.940104 
L 526.692382 106.645531 
L 528.196303 98.948822 
L 529.700224 98.350467 
L 531.204144 126.114943 
L 531.204144 126.114943 
" clip-path="url(#p65cb7f4114)" style="fill: none; stroke: #dd8452; stroke-linecap: round"/>
   </g>
   <g id="line2d_13">
    <path d="M 307.119958 154.373611 
L 308.623878 151.767645 
L 310.127799 150.787919 
L 313.135641 156.330826 
L 314.639561 165.126001 
L 316.143482 164.904038 
L 317.647403 158.473796 
L 319.151323 138.626485 
L 320.655244 133.392501 
L 322.159165 130.381037 
L 323.663086 133.173375 
L 325.167006 128.880721 
L 326.670927 139.375865 
L 329.678768 147.921966 
L 331.182689 149.238634 
L 332.68661 141.558334 
L 334.190531 141.502685 
L 335.694451 142.541206 
L 337.198372 149.292791 
L 338.702293 152.343689 
L 340.206213 151.412672 
L 341.710134 152.030713 
L 343.214055 148.173781 
L 344.717976 136.897022 
L 346.221896 131.813349 
L 347.725817 132.464824 
L 349.229738 137.514803 
L 350.733658 136.22784 
L 353.7415 144.478055 
L 355.245421 131.105738 
L 356.749341 132.21716 
L 358.253262 142.968626 
L 359.757183 145.018784 
L 361.261103 135.926441 
L 362.765024 137.144329 
L 364.268945 137.03235 
L 365.772866 127.609584 
L 367.276786 130.553562 
L 368.780707 127.778541 
L 370.284628 128.119375 
L 371.788549 131.628598 
L 373.292469 131.187331 
L 374.79639 132.684469 
L 376.300311 141.255216 
L 377.804231 128.934586 
L 379.308152 138.733534 
L 380.812073 140.908837 
L 382.315994 131.058034 
L 383.819914 134.751879 
L 385.323835 122.442599 
L 386.827756 119.130579 
L 388.331676 123.303536 
L 389.835597 128.319237 
L 391.339518 125.353142 
L 392.843439 120.487297 
L 394.347359 126.015903 
L 395.85128 122.628128 
L 397.355201 126.464954 
L 398.859121 122.236121 
L 400.363042 126.288829 
L 401.866963 124.291272 
L 403.370884 114.916826 
L 404.874804 125.460516 
L 406.378725 123.83379 
L 407.882646 123.203653 
L 409.386566 120.287629 
L 410.890487 121.745431 
L 412.394408 115.187709 
L 413.898329 107.109921 
L 415.402249 112.173813 
L 416.90617 111.125952 
L 418.410091 113.510684 
L 419.914011 125.970307 
L 421.417932 120.4262 
L 422.921853 117.064434 
L 424.425774 112.361482 
L 425.929694 113.172445 
L 427.433615 114.655833 
L 428.937536 110.804576 
L 430.441456 116.498475 
L 431.945377 109.447209 
L 433.449298 119.166673 
L 434.953219 114.465699 
L 436.457139 104.20207 
L 437.96106 102.373405 
L 439.464981 106.027621 
L 440.968901 100.915085 
L 442.472822 111.256481 
L 443.976743 106.043187 
L 445.480664 116.065606 
L 446.984584 111.373162 
L 448.488505 100.320653 
L 449.992426 108.615523 
L 451.496346 103.255811 
L 453.000267 88.238996 
L 454.504188 102.757727 
L 456.008109 101.398122 
L 457.512029 97.533731 
L 459.01595 109.712969 
L 460.519871 110.228046 
L 462.023791 96.604757 
L 463.527712 101.50942 
L 465.031633 108.918706 
L 466.535554 101.87117 
L 468.039474 107.138913 
L 469.543395 104.875532 
L 471.047316 104.90728 
L 472.551236 95.476958 
L 474.055157 96.637413 
L 475.559078 82.953644 
L 477.062999 87.331782 
L 478.566919 92.903908 
L 480.07084 92.87978 
L 481.574761 79.093469 
L 483.078682 86.649369 
L 484.582602 88.556026 
L 486.086523 87.760369 
L 487.590444 91.914258 
L 489.094364 86.691787 
L 490.598285 78.918025 
L 492.102206 83.797231 
L 493.606127 95.584299 
L 495.110047 82.109505 
L 496.613968 90.644483 
L 498.117889 77.95406 
L 501.12573 88.357428 
L 502.629651 77.187168 
L 504.133572 85.569598 
L 505.637492 90.84694 
L 507.141413 90.046322 
L 508.645334 76.510171 
L 510.149254 92.027923 
L 511.653175 78.774428 
L 513.157096 87.156922 
L 514.661017 75.420411 
L 516.164937 80.978787 
L 517.668858 77.035852 
L 519.172779 78.53098 
L 520.676699 73.344764 
L 522.18062 80.370508 
L 523.684541 69.387106 
L 525.188462 75.771006 
L 526.692382 83.227997 
L 528.196303 66.348531 
L 529.700224 77.382491 
L 531.204144 79.494005 
L 531.204144 79.494005 
" clip-path="url(#p65cb7f4114)" style="fill: none; stroke: #55a868; stroke-linecap: round"/>
   </g>
   <g id="line2d_14">
    <path d="M 307.119958 160.550189 
L 308.623878 146.816316 
L 310.127799 143.257832 
L 311.63172 157.49827 
L 313.135641 146.165457 
L 314.639561 142.757543 
L 316.143482 139.841584 
L 317.647403 141.533493 
L 319.151323 152.274842 
L 320.655244 152.003164 
L 322.159165 148.233305 
L 323.663086 152.540341 
L 325.167006 160.940251 
L 326.670927 157.136568 
L 328.174848 155.511641 
L 329.678768 144.015125 
L 331.182689 144.169035 
L 332.68661 142.43607 
L 334.190531 146.673448 
L 335.694451 145.945747 
L 337.198372 135.750965 
L 338.702293 136.387166 
L 340.206213 148.071287 
L 341.710134 147.211226 
L 343.214055 132.281727 
L 344.717976 132.864744 
L 346.221896 123.374751 
L 347.725817 139.297353 
L 349.229738 137.235942 
L 350.733658 140.937959 
L 352.237579 145.29077 
L 353.7415 135.470223 
L 355.245421 134.914123 
L 356.749341 141.812387 
L 358.253262 133.571122 
L 359.757183 137.339457 
L 361.261103 144.57369 
L 362.765024 142.020973 
L 364.268945 142.852075 
L 365.772866 150.62462 
L 367.276786 149.440718 
L 368.780707 150.848367 
L 370.284628 143.411418 
L 371.788549 142.097506 
L 373.292469 155.650667 
L 374.79639 147.236245 
L 376.300311 140.688771 
L 377.804231 132.169035 
L 379.308152 128.261416 
L 380.812073 134.460824 
L 382.315994 130.137524 
L 383.819914 127.701586 
L 385.323835 132.801182 
L 386.827756 129.186174 
L 388.331676 120.827807 
L 389.835597 135.37874 
L 391.339518 130.33009 
L 392.843439 118.1671 
L 394.347359 129.468764 
L 395.85128 121.198897 
L 397.355201 133.277571 
L 398.859121 128.226651 
L 400.363042 129.565242 
L 401.866963 122.340187 
L 403.370884 113.249725 
L 404.874804 118.191454 
L 406.378725 124.450144 
L 407.882646 105.704656 
L 409.386566 111.008752 
L 410.890487 120.655931 
L 412.394408 119.733378 
L 413.898329 115.082345 
L 415.402249 115.054132 
L 416.90617 126.083875 
L 418.410091 122.276074 
L 419.914011 117.560539 
L 421.417932 112.06605 
L 422.921853 112.439086 
L 424.425774 104.427908 
L 425.929694 116.47892 
L 427.433615 96.840032 
L 428.937536 95.538185 
L 430.441456 98.139643 
L 431.945377 109.605238 
L 433.449298 112.142778 
L 434.953219 133.778963 
L 436.457139 127.72059 
L 437.96106 113.999591 
L 439.464981 127.388674 
L 440.968901 129.002558 
L 442.472822 120.368087 
L 443.976743 121.137573 
L 445.480664 120.814705 
L 446.984584 119.447739 
L 448.488505 120.749619 
L 449.992426 121.567717 
L 451.496346 105.985171 
L 453.000267 108.676718 
L 454.504188 110.329096 
L 456.008109 100.534428 
L 457.512029 117.875656 
L 459.01595 104.049554 
L 460.519871 94.416482 
L 462.023791 110.97428 
L 463.527712 133.997667 
L 465.031633 133.578614 
L 466.535554 135.37754 
L 468.039474 128.216241 
L 469.543395 126.852777 
L 471.047316 126.476758 
L 472.551236 145.209566 
L 474.055157 144.357061 
L 475.559078 138.601968 
L 477.062999 129.384448 
L 478.566919 103.867171 
L 480.07084 113.601584 
L 481.574761 109.436832 
L 483.078682 97.636467 
L 484.582602 96.14828 
L 486.086523 94.184158 
L 487.590444 83.540033 
L 489.094364 91.496664 
L 490.598285 96.88044 
L 492.102206 96.58277 
L 493.606127 105.876402 
L 495.110047 104.628128 
L 496.613968 114.922014 
L 498.117889 109.847194 
L 499.621809 103.99611 
L 501.12573 106.219765 
L 502.629651 107.526802 
L 504.133572 106.641413 
L 505.637492 99.375821 
L 507.141413 90.621231 
L 508.645334 91.428303 
L 510.149254 99.272728 
L 511.653175 100.557453 
L 513.157096 107.017173 
L 514.661017 97.973766 
L 516.164937 102.725557 
L 517.668858 101.113164 
L 519.172779 89.890855 
L 520.676699 91.119704 
L 522.18062 83.2195 
L 523.684541 105.597152 
L 525.188462 85.095641 
L 526.692382 105.106041 
L 528.196303 90.395003 
L 529.700224 106.061477 
L 531.204144 100.13613 
L 531.204144 100.13613 
" clip-path="url(#p65cb7f4114)" style="fill: none; stroke: #c44e52; stroke-linecap: round"/>
   </g>
   <g id="line2d_15">
    <path d="M 307.119958 125.807544 
L 308.623878 153.146594 
L 310.127799 143.707726 
L 311.63172 151.812025 
L 313.135641 142.262199 
L 314.639561 147.339322 
L 316.143482 125.756565 
L 317.647403 131.85314 
L 319.151323 122.275701 
L 320.655244 136.94638 
L 322.159165 135.91034 
L 323.663086 131.046798 
L 325.167006 140.973437 
L 326.670927 146.811581 
L 328.174848 158.975026 
L 329.678768 162.988625 
L 331.182689 165.278679 
L 332.68661 168.751452 
L 334.190531 171.159647 
L 335.694451 167.431557 
L 337.198372 164.573793 
L 338.702293 155.128228 
L 340.206213 156.289997 
L 341.710134 158.789059 
L 343.214055 143.115272 
L 344.717976 122.609578 
L 346.221896 136.851686 
L 347.725817 131.382815 
L 349.229738 125.290732 
L 350.733658 129.449274 
L 352.237579 126.64745 
L 353.7415 107.116456 
L 355.245421 117.310589 
L 356.749341 115.72333 
L 358.253262 110.883866 
L 359.757183 110.326955 
L 361.261103 126.918966 
L 362.765024 124.265864 
L 364.268945 140.081838 
L 365.772866 143.220587 
L 367.276786 129.755813 
L 368.780707 140.815197 
L 370.284628 153.633555 
L 371.788549 131.243125 
L 373.292469 153.328247 
L 374.79639 153.943223 
L 376.300311 146.2524 
L 377.804231 127.15429 
L 379.308152 138.539169 
L 380.812073 145.47552 
L 382.315994 148.759019 
L 383.819914 132.355861 
L 385.323835 149.003212 
L 386.827756 105.716655 
L 388.331676 110.377675 
L 389.835597 110.096382 
L 391.339518 121.801242 
L 392.843439 120.759024 
L 394.347359 121.41718 
L 395.85128 125.730037 
L 397.355201 132.877554 
L 398.859121 123.960395 
L 400.363042 108.838589 
L 401.866963 123.614713 
L 403.370884 136.412315 
L 404.874804 133.323167 
L 406.378725 146.041252 
L 407.882646 120.964173 
L 409.386566 112.028221 
L 410.890487 116.062299 
L 412.394408 118.835925 
L 413.898329 117.866446 
L 415.402249 104.131 
L 416.90617 110.546973 
L 418.410091 111.816748 
L 419.914011 126.59686 
L 421.417932 110.918825 
L 422.921853 97.710212 
L 424.425774 99.910729 
L 425.929694 104.003504 
L 427.433615 104.979339 
L 428.937536 107.273171 
L 430.441456 98.056591 
L 431.945377 89.92369 
L 433.449298 94.604687 
L 434.953219 87.628933 
L 436.457139 106.579035 
L 437.96106 107.362871 
L 439.464981 113.432059 
L 440.968901 112.352807 
L 442.472822 102.707331 
L 443.976743 112.2209 
L 445.480664 109.523321 
L 446.984584 107.910199 
L 448.488505 95.143988 
L 449.992426 108.718357 
L 451.496346 85.511727 
L 453.000267 104.183325 
L 454.504188 91.643991 
L 456.008109 92.616599 
L 457.512029 80.361979 
L 459.01595 88.559901 
L 460.519871 78.828228 
L 462.023791 90.016665 
L 463.527712 102.572571 
L 465.031633 101.62589 
L 466.535554 106.083416 
L 468.039474 96.427141 
L 469.543395 82.579197 
L 471.047316 99.312373 
L 472.551236 80.248184 
L 474.055157 88.234196 
L 475.559078 89.488049 
L 477.062999 62.289856 
L 480.07084 103.625231 
L 481.574761 78.894935 
L 483.078682 77.53679 
L 484.582602 70.899292 
L 486.086523 86.271517 
L 487.590444 66.082513 
L 489.094364 69.785405 
L 490.598285 83.414693 
L 492.102206 79.99144 
L 493.606127 59.183665 
L 495.110047 63.123487 
L 496.613968 69.276295 
L 498.117889 64.222262 
L 499.621809 76.391382 
L 501.12573 79.633743 
L 502.629651 85.556399 
L 504.133572 84.76979 
L 505.637492 77.530369 
L 507.141413 83.742036 
L 508.645334 72.244628 
L 510.149254 82.492756 
L 511.653175 86.78747 
L 513.157096 98.427778 
L 514.661017 71.153766 
L 516.164937 68.335127 
L 517.668858 63.736566 
L 519.172779 45.81764 
L 520.676699 57.216106 
L 522.18062 42.806986 
L 523.684541 56.936726 
L 525.188462 46.091928 
L 526.692382 48.751467 
L 528.196303 52.321723 
L 529.700224 55.29719 
L 531.204144 75.918625 
L 531.204144 75.918625 
" clip-path="url(#p65cb7f4114)" style="fill: none; stroke: #8172b3; stroke-linecap: round"/>
   </g>
   <g id="line2d_16">
    <path d="M 307.119958 162.107646 
L 308.623878 142.530958 
L 310.127799 149.514333 
L 311.63172 154.658698 
L 313.135641 138.434665 
L 314.639561 129.977825 
L 316.143482 137.801398 
L 317.647403 135.075054 
L 319.151323 159.879727 
L 320.655244 145.75743 
L 322.159165 145.107203 
L 323.663086 131.436081 
L 325.167006 146.850172 
L 326.670927 144.977615 
L 328.174848 159.153891 
L 329.678768 164.918388 
L 331.182689 160.177137 
L 332.68661 164.03882 
L 335.694451 143.24979 
L 337.198372 162.254519 
L 338.702293 146.146615 
L 340.206213 158.285268 
L 341.710134 155.38087 
L 343.214055 122.855053 
L 344.717976 136.335393 
L 346.221896 139.360136 
L 347.725817 125.435432 
L 349.229738 123.124509 
L 350.733658 115.536115 
L 352.237579 120.814138 
L 353.7415 145.93344 
L 355.245421 126.204723 
L 356.749341 152.687928 
L 358.253262 141.537596 
L 359.757183 138.680853 
L 361.261103 132.751322 
L 362.765024 122.292953 
L 364.268945 115.768536 
L 365.772866 140.351634 
L 367.276786 138.142654 
L 368.780707 134.960968 
L 370.284628 135.696695 
L 371.788549 147.558091 
L 373.292469 139.505761 
L 374.79639 129.767845 
L 377.804231 106.944418 
L 379.308152 120.37047 
L 380.812073 142.614805 
L 382.315994 127.469245 
L 383.819914 123.132714 
L 385.323835 129.534223 
L 386.827756 128.10256 
L 388.331676 115.753976 
L 389.835597 117.096652 
L 391.339518 105.600346 
L 392.843439 112.9941 
L 394.347359 114.118234 
L 395.85128 128.567209 
L 397.355201 108.994608 
L 398.859121 98.438594 
L 400.363042 111.348208 
L 401.866963 105.748192 
L 403.370884 106.514695 
L 404.874804 106.970199 
L 406.378725 121.226478 
L 409.386566 92.002839 
L 410.890487 97.181434 
L 412.394408 90.432897 
L 413.898329 96.655752 
L 415.402249 82.357606 
L 416.90617 74.53692 
L 418.410091 93.610886 
L 419.914011 92.132362 
L 421.417932 95.17444 
L 422.921853 112.935856 
L 424.425774 101.628128 
L 425.929694 97.466488 
L 427.433615 110.298077 
L 428.937536 97.767012 
L 430.441456 83.350369 
L 431.945377 81.071357 
L 433.449298 82.278025 
L 434.953219 83.978787 
L 436.457139 91.255502 
L 437.96106 71.700251 
L 439.464981 84.332236 
L 440.968901 109.332231 
L 442.472822 89.473861 
L 443.976743 105.511457 
L 445.480664 99.942412 
L 446.984584 107.160949 
L 448.488505 82.532888 
L 449.992426 90.554572 
L 451.496346 79.007385 
L 453.000267 94.708915 
L 454.504188 86.661384 
L 456.008109 102.641418 
L 457.512029 91.21422 
L 460.519871 74.759807 
L 462.023791 81.878753 
L 463.527712 83.585775 
L 465.031633 70.407353 
L 466.535554 73.448911 
L 468.039474 75.767163 
L 469.543395 97.775833 
L 471.047316 101.704337 
L 472.551236 90.6959 
L 474.055157 87.034971 
L 475.559078 100.59713 
L 477.062999 101.967632 
L 478.566919 92.664497 
L 480.07084 90.473888 
L 481.574761 82.113413 
L 483.078682 60.155852 
L 484.582602 72.514716 
L 486.086523 58.93991 
L 487.590444 47.123071 
L 489.094364 55.552394 
L 492.102206 63.39416 
L 493.606127 43.866473 
L 495.110047 49.128768 
L 496.613968 51.059715 
L 498.117889 58.602481 
L 499.621809 51.234218 
L 501.12573 62.923965 
L 502.629651 45.26856 
L 504.133572 65.838627 
L 505.637492 49.849804 
L 507.141413 50.313221 
L 508.645334 57.611502 
L 510.149254 53.535866 
L 511.653175 38.197934 
L 513.157096 25.041759 
L 514.661017 46.953108 
L 516.164937 51.782827 
L 517.668858 43.45543 
L 519.172779 51.854528 
L 520.676699 39.568338 
L 522.18062 34.608286 
L 523.684541 33.375286 
L 525.188462 32.912063 
L 526.692382 33.348499 
L 528.196303 29.360098 
L 529.700224 30.131594 
L 531.204144 35.948011 
L 531.204144 35.948011 
" clip-path="url(#p65cb7f4114)" style="fill: none; stroke: #937860; stroke-linecap: round"/>
   </g>
   <g id="line2d_17">
    <path d="M 307.119958 145.560729 
L 308.623878 145.488768 
L 310.127799 149.242623 
L 311.63172 149.436681 
L 313.135641 135.769174 
L 314.639561 142.201135 
L 316.143482 133.154842 
L 317.647403 139.194049 
L 319.151323 149.114835 
L 320.655244 149.477218 
L 322.159165 143.147815 
L 323.663086 153.149431 
L 325.167006 147.985041 
L 326.670927 136.586007 
L 328.174848 137.568036 
L 329.678768 147.218555 
L 331.182689 152.991176 
L 334.190531 147.177159 
L 335.694451 147.293661 
L 337.198372 152.809506 
L 338.702293 145.358661 
L 340.206213 144.238499 
L 341.710134 149.491 
L 343.214055 163.668914 
L 344.717976 146.491778 
L 346.221896 134.846621 
L 347.725817 136.982555 
L 349.229738 137.727394 
L 350.733658 140.282381 
L 352.237579 135.696986 
L 353.7415 139.04403 
L 355.245421 126.677091 
L 356.749341 128.223684 
L 358.253262 131.497956 
L 359.757183 127.246422 
L 362.765024 146.054419 
L 364.268945 137.211539 
L 365.772866 138.959227 
L 367.276786 133.941094 
L 368.780707 127.672027 
L 370.284628 131.458976 
L 371.788549 127.000315 
L 373.292469 129.794794 
L 374.79639 127.681658 
L 376.300311 141.539477 
L 379.308152 134.714244 
L 380.812073 138.522597 
L 382.315994 130.115034 
L 383.819914 139.027329 
L 385.323835 134.025443 
L 386.827756 137.707515 
L 388.331676 142.213912 
L 389.835597 141.293597 
L 391.339518 129.179218 
L 392.843439 147.64351 
L 394.347359 138.4878 
L 395.85128 130.300142 
L 397.355201 116.146242 
L 398.859121 109.7268 
L 400.363042 117.714304 
L 401.866963 132.659838 
L 403.370884 128.544671 
L 404.874804 138.794032 
L 406.378725 139.752452 
L 407.882646 134.88839 
L 409.386566 147.76037 
L 410.890487 134.274014 
L 412.394408 145.996872 
L 413.898329 146.858782 
L 415.402249 139.374843 
L 416.90617 139.634765 
L 418.410091 145.124245 
L 419.914011 142.688031 
L 421.417932 155.847124 
L 422.921853 137.294202 
L 424.425774 162.729659 
L 425.929694 148.171462 
L 427.433615 147.277917 
L 428.937536 145.180542 
L 430.441456 128.863809 
L 431.945377 127.502323 
L 433.449298 118.65813 
L 434.953219 121.205626 
L 436.457139 119.704759 
L 437.96106 114.52571 
L 439.464981 124.194616 
L 440.968901 120.078573 
L 442.472822 123.72747 
L 443.976743 130.779092 
L 446.984584 122.823921 
L 448.488505 136.537752 
L 449.992426 127.478488 
L 451.496346 122.041657 
L 453.000267 117.200427 
L 454.504188 128.398414 
L 456.008109 122.629311 
L 457.512029 113.489816 
L 459.01595 124.988716 
L 460.519871 133.320362 
L 462.023791 121.349743 
L 463.527712 121.258421 
L 465.031633 116.588839 
L 466.535554 124.185828 
L 468.039474 129.848173 
L 469.543395 131.900406 
L 471.047316 122.703478 
L 472.551236 122.662227 
L 474.055157 134.267885 
L 475.559078 118.778476 
L 477.062999 109.715125 
L 478.566919 112.789308 
L 480.07084 122.531893 
L 481.574761 119.123396 
L 483.078682 124.540509 
L 484.582602 107.15135 
L 486.086523 122.028037 
L 487.590444 123.518041 
L 489.094364 106.649601 
L 490.598285 129.138422 
L 492.102206 133.763542 
L 493.606127 130.662671 
L 495.110047 112.529126 
L 496.613968 115.020486 
L 498.117889 99.247741 
L 499.621809 106.114645 
L 501.12573 114.641775 
L 502.629651 105.133135 
L 504.133572 110.363001 
L 505.637492 106.266772 
L 507.141413 109.863555 
L 508.645334 101.847416 
L 510.149254 137.843459 
L 511.653175 103.162495 
L 513.157096 100.521667 
L 514.661017 107.537714 
L 516.164937 115.905908 
L 517.668858 97.803171 
L 519.172779 111.617177 
L 520.676699 120.919825 
L 522.18062 103.317475 
L 523.684541 106.608092 
L 525.188462 122.81977 
L 526.692382 112.272479 
L 528.196303 111.011265 
L 529.700224 106.621842 
L 531.204144 110.338257 
L 531.204144 110.338257 
" clip-path="url(#p65cb7f4114)" style="fill: none; stroke: #da8bc3; stroke-linecap: round"/>
   </g>
   <g id="line2d_18">
    <path d="M 307.119958 151.708561 
L 308.623878 149.235308 
L 310.127799 150.953422 
L 311.63172 153.918209 
L 313.135641 146.505753 
L 314.639561 147.78774 
L 316.143482 142.750765 
L 317.647403 144.602825 
L 319.151323 145.97968 
L 320.655244 142.610571 
L 322.159165 141.376794 
L 323.663086 141.536491 
L 325.167006 146.0539 
L 326.670927 144.685307 
L 328.174848 147.044154 
L 331.182689 152.106463 
L 332.68661 149.950044 
L 334.190531 149.736674 
L 335.694451 147.16796 
L 337.198372 147.70558 
L 338.702293 145.477651 
L 340.206213 148.432873 
L 341.710134 151.071385 
L 343.214055 142.257736 
L 344.717976 137.114809 
L 346.221896 137.299173 
L 347.725817 133.856478 
L 349.229738 132.916467 
L 350.733658 132.245295 
L 352.237579 134.442995 
L 353.7415 133.655979 
L 355.245421 129.194539 
L 356.749341 135.009906 
L 358.253262 131.759469 
L 359.757183 131.854858 
L 361.261103 133.656374 
L 362.765024 131.846311 
L 364.268945 130.762034 
L 365.772866 137.356239 
L 367.276786 134.943115 
L 368.780707 136.801293 
L 370.284628 136.872897 
L 371.788549 134.154753 
L 373.292469 140.572305 
L 374.79639 137.033372 
L 376.300311 135.279733 
L 377.804231 126.90707 
L 380.812073 136.482013 
L 382.315994 130.93878 
L 383.819914 127.312256 
L 385.323835 132.809203 
L 386.827756 128.020483 
L 388.331676 124.556055 
L 389.835597 129.072847 
L 391.339518 126.811091 
L 392.843439 125.054587 
L 394.347359 126.329478 
L 395.85128 127.122353 
L 397.355201 124.514975 
L 398.859121 120.465037 
L 400.363042 119.40163 
L 401.866963 123.256909 
L 403.370884 121.934881 
L 404.874804 123.011444 
L 406.378725 125.398716 
L 407.882646 118.877439 
L 409.386566 119.609029 
L 410.890487 120.534201 
L 412.394408 116.719968 
L 413.898329 120.59653 
L 415.402249 116.574084 
L 416.90617 119.207277 
L 418.410091 121.591164 
L 419.914011 120.394691 
L 421.417932 119.431664 
L 422.921853 119.260955 
L 424.425774 117.213783 
L 425.929694 116.101974 
L 427.433615 115.952718 
L 428.937536 113.600836 
L 430.441456 107.77768 
L 431.945377 110.102244 
L 433.449298 113.443284 
L 434.953219 112.621552 
L 436.457139 113.858896 
L 437.96106 108.704109 
L 439.464981 115.843856 
L 440.968901 115.524667 
L 442.472822 112.837486 
L 443.976743 119.481624 
L 445.480664 116.90286 
L 446.984584 117.503151 
L 448.488505 111.940229 
L 449.992426 113.899374 
L 451.496346 105.166984 
L 453.000267 106.00535 
L 454.504188 109.748503 
L 456.008109 109.068093 
L 457.512029 107.249485 
L 459.01595 106.754904 
L 460.519871 102.279327 
L 462.023791 105.744422 
L 463.527712 110.333003 
L 465.031633 107.824873 
L 466.535554 107.642085 
L 468.039474 109.43476 
L 469.543395 113.861267 
L 471.047316 117.447107 
L 472.551236 112.545393 
L 474.055157 116.0653 
L 475.559078 111.040784 
L 477.062999 104.716972 
L 478.566919 103.037106 
L 480.07084 109.650761 
L 481.574761 101.881138 
L 483.078682 97.778046 
L 484.582602 97.289545 
L 486.086523 97.950145 
L 487.590444 94.732754 
L 489.094364 94.124301 
L 490.598285 99.272339 
L 492.102206 99.597922 
L 493.606127 92.449608 
L 495.110047 90.979609 
L 496.613968 94.480693 
L 498.117889 88.843935 
L 499.621809 93.985929 
L 501.12573 100.467421 
L 502.629651 92.440576 
L 504.133572 97.141918 
L 505.637492 91.744157 
L 507.141413 91.976879 
L 508.645334 90.392356 
L 510.149254 98.373569 
L 511.653175 92.567651 
L 513.157096 93.468922 
L 514.661017 88.670871 
L 516.164937 92.833167 
L 517.668858 87.110536 
L 519.172779 84.513443 
L 520.676699 85.162961 
L 522.18062 78.486855 
L 523.684541 81.834215 
L 525.188462 81.538998 
L 526.692382 86.202564 
L 528.196303 81.685255 
L 529.700224 83.92311 
L 531.204144 89.789059 
L 531.204144 89.789059 
" clip-path="url(#p65cb7f4114)" style="fill: none; stroke: #1a1a1a; stroke-width: 2; stroke-linecap: round"/>
   </g>
   <g id="patch_8">
    <path d="M 295.915748 178.465541 
L 295.915748 17.735865 
" style="fill: none; stroke: #ffffff; stroke-width: 1.25; stroke-linejoin: miter; stroke-linecap: square"/>
   </g>
   <g id="patch_9">
    <path d="M 542.408354 178.465541 
L 542.408354 17.735865 
" style="fill: none; stroke: #ffffff; stroke-width: 1.25; stroke-linejoin: miter; stroke-linecap: square"/>
   </g>
   <g id="patch_10">
    <path d="M 295.915748 178.465541 
L 542.408354 178.465541 
" style="fill: none; stroke: #ffffff; stroke-width: 1.25; stroke-linejoin: miter; stroke-linecap: square"/>
   </g>
   <g id="patch_11">
    <path d="M 295.915748 17.735865 
L 542.408354 17.735865 
" style="fill: none; stroke: #ffffff; stroke-width: 1.25; stroke-linejoin: miter; stroke-linecap: square"/>
   </g>
   <g id="text_26">
    <!-- Change from first 30 yrs -->
    <g style="fill: #262626" transform="translate(355.143926 11.735865) scale(0.12 -0.12)">
     <defs>
      <path id="ArialMT-68" d="M 422 0 
L 422 4581 
L 984 4581 
L 984 2938 
Q 1378 3394 1978 3394 
Q 2347 3394 2619 3248 
Q 2891 3103 3008 2847 
Q 3125 2591 3125 2103 
L 3125 0 
L 2563 0 
L 2563 2103 
Q 2563 2525 2380 2717 
Q 2197 2909 1863 2909 
Q 1613 2909 1392 2779 
Q 1172 2650 1078 2428 
Q 984 2206 984 1816 
L 984 0 
L 422 0 
z
" transform="scale(0.015625)"/>
      <path id="ArialMT-67" d="M 319 -275 
L 866 -356 
Q 900 -609 1056 -725 
Q 1266 -881 1628 -881 
Q 2019 -881 2231 -725 
Q 2444 -569 2519 -288 
Q 2563 -116 2559 434 
Q 2191 0 1641 0 
Q 956 0 581 494 
Q 206 988 206 1678 
Q 206 2153 378 2554 
Q 550 2956 876 3175 
Q 1203 3394 1644 3394 
Q 2231 3394 2613 2919 
L 2613 3319 
L 3131 3319 
L 3131 450 
Q 3131 -325 2973 -648 
Q 2816 -972 2473 -1159 
Q 2131 -1347 1631 -1347 
Q 1038 -1347 672 -1080 
Q 306 -813 319 -275 
z
M 784 1719 
Q 784 1066 1043 766 
Q 1303 466 1694 466 
Q 2081 466 2343 764 
Q 2606 1063 2606 1700 
Q 2606 2309 2336 2618 
Q 2066 2928 1684 2928 
Q 1309 2928 1046 2623 
Q 784 2319 784 1719 
z
" transform="scale(0.015625)"/>
      <path id="ArialMT-66" d="M 556 0 
L 556 2881 
L 59 2881 
L 59 3319 
L 556 3319 
L 556 3672 
Q 556 4006 616 4169 
Q 697 4388 901 4523 
Q 1106 4659 1475 4659 
Q 1713 4659 2000 4603 
L 1916 4113 
Q 1741 4144 1584 4144 
Q 1328 4144 1222 4034 
Q 1116 3925 1116 3625 
L 1116 3319 
L 1763 3319 
L 1763 2881 
L 1116 2881 
L 1116 0 
L 556 0 
z
" transform="scale(0.015625)"/>
      <path id="ArialMT-6f" d="M 213 1659 
Q 213 2581 725 3025 
Q 1153 3394 1769 3394 
Q 2453 3394 2887 2945 
Q 3322 2497 3322 1706 
Q 3322 1066 3130 698 
Q 2938 331 2570 128 
Q 2203 -75 1769 -75 
Q 1072 -75 642 372 
Q 213 819 213 1659 
z
M 791 1659 
Q 791 1022 1069 705 
Q 1347 388 1769 388 
Q 2188 388 2466 706 
Q 2744 1025 2744 1678 
Q 2744 2294 2464 2611 
Q 2184 2928 1769 2928 
Q 1347 2928 1069 2612 
Q 791 2297 791 1659 
z
" transform="scale(0.015625)"/>
      <path id="ArialMT-6d" d="M 422 0 
L 422 3319 
L 925 3319 
L 925 2853 
Q 1081 3097 1340 3245 
Q 1600 3394 1931 3394 
Q 2300 3394 2536 3241 
Q 2772 3088 2869 2813 
Q 3263 3394 3894 3394 
Q 4388 3394 4653 3120 
Q 4919 2847 4919 2278 
L 4919 0 
L 4359 0 
L 4359 2091 
Q 4359 2428 4304 2576 
Q 4250 2725 4106 2815 
Q 3963 2906 3769 2906 
Q 3419 2906 3187 2673 
Q 2956 2441 2956 1928 
L 2956 0 
L 2394 0 
L 2394 2156 
Q 2394 2531 2256 2718 
Q 2119 2906 1806 2906 
Q 1569 2906 1367 2781 
Q 1166 2656 1075 2415 
Q 984 2175 984 1722 
L 984 0 
L 422 0 
z
" transform="scale(0.015625)"/>
      <path id="ArialMT-73" d="M 197 991 
L 753 1078 
Q 800 744 1014 566 
Q 1228 388 1613 388 
Q 2000 388 2187 545 
Q 2375 703 2375 916 
Q 2375 1106 2209 1216 
Q 2094 1291 1634 1406 
Q 1016 1563 777 1677 
Q 538 1791 414 1992 
Q 291 2194 291 2438 
Q 291 2659 392 2848 
Q 494 3038 669 3163 
Q 800 3259 1026 3326 
Q 1253 3394 1513 3394 
Q 1903 3394 2198 3281 
Q 2494 3169 2634 2976 
Q 2775 2784 2828 2463 
L 2278 2388 
Q 2241 2644 2061 2787 
Q 1881 2931 1553 2931 
Q 1166 2931 1000 2803 
Q 834 2675 834 2503 
Q 834 2394 903 2306 
Q 972 2216 1119 2156 
Q 1203 2125 1616 2013 
Q 2213 1853 2448 1751 
Q 2684 1650 2818 1456 
Q 2953 1263 2953 975 
Q 2953 694 2789 445 
Q 2625 197 2315 61 
Q 2006 -75 1616 -75 
Q 969 -75 630 194 
Q 291 463 197 991 
z
" transform="scale(0.015625)"/>
      <path id="ArialMT-74" d="M 1650 503 
L 1731 6 
Q 1494 -44 1306 -44 
Q 1000 -44 831 53 
Q 663 150 594 308 
Q 525 466 525 972 
L 525 2881 
L 113 2881 
L 113 3319 
L 525 3319 
L 525 4141 
L 1084 4478 
L 1084 3319 
L 1650 3319 
L 1650 2881 
L 1084 2881 
L 1084 941 
Q 1084 700 1114 631 
Q 1144 563 1211 522 
Q 1278 481 1403 481 
Q 1497 481 1650 503 
z
" transform="scale(0.015625)"/>
      <path id="ArialMT-79" d="M 397 -1278 
L 334 -750 
Q 519 -800 656 -800 
Q 844 -800 956 -737 
Q 1069 -675 1141 -563 
Q 1194 -478 1313 -144 
Q 1328 -97 1363 -6 
L 103 3319 
L 709 3319 
L 1400 1397 
Q 1534 1031 1641 628 
Q 1738 1016 1872 1384 
L 2581 3319 
L 3144 3319 
L 1881 -56 
Q 1678 -603 1566 -809 
Q 1416 -1088 1222 -1217 
Q 1028 -1347 759 -1347 
Q 597 -1347 397 -1278 
z
" transform="scale(0.015625)"/>
     </defs>
     <use xlink:href="#ArialMT-43"/>
     <use xlink:href="#ArialMT-68" transform="translate(72.216797 0)"/>
     <use xlink:href="#ArialMT-61" transform="translate(127.832031 0)"/>
     <use xlink:href="#ArialMT-6e" transform="translate(183.447266 0)"/>
     <use xlink:href="#ArialMT-67" transform="translate(239.0625 0)"/>
     <use xlink:href="#ArialMT-65" transform="translate(294.677734 0)"/>
     <use xlink:href="#ArialMT-20" transform="translate(350.292969 0)"/>
     <use xlink:href="#ArialMT-66" transform="translate(378.076172 0)"/>
     <use xlink:href="#ArialMT-72" transform="translate(405.859375 0)"/>
     <use xlink:href="#ArialMT-6f" transform="translate(439.160156 0)"/>
     <use xlink:href="#ArialMT-6d" transform="translate(494.775391 0)"/>
     <use xlink:href="#ArialMT-20" transform="translate(578.076172 0)"/>
     <use xlink:href="#ArialMT-66" transform="translate(605.859375 0)"/>
     <use xlink:href="#ArialMT-69" transform="translate(633.642578 0)"/>
     <use xlink:href="#ArialMT-72" transform="translate(655.859375 0)"/>
     <use xlink:href="#ArialMT-73" transform="translate(689.160156 0)"/>
     <use xlink:href="#ArialMT-74" transform="translate(739.160156 0)"/>
     <use xlink:href="#ArialMT-20" transform="translate(766.943359 0)"/>
     <use xlink:href="#ArialMT-33" transform="translate(794.726562 0)"/>
     <use xlink:href="#ArialMT-30" transform="translate(850.341797 0)"/>
     <use xlink:href="#ArialMT-20" transform="translate(905.957031 0)"/>
     <use xlink:href="#ArialMT-79" transform="translate(933.740234 0)"/>
     <use xlink:href="#ArialMT-72" transform="translate(983.740234 0)"/>
     <use xlink:href="#ArialMT-73" transform="translate(1017.041016 0)"/>
    </g>
   </g>
   <g id="legend_1">
    <g id="patch_12">
     <path d="M 300.815748 102.549615 
L 379.619342 102.549615 
Q 381.019342 102.549615 381.019342 101.149615 
L 381.019342 22.635865 
Q 381.019342 21.235865 379.619342 21.235865 
L 300.815748 21.235865 
Q 299.415748 21.235865 299.415748 22.635865 
L 299.415748 101.149615 
Q 299.415748 102.549615 300.815748 102.549615 
z
" style="fill: #ffffff; opacity: 0.8; stroke: #cccccc; stroke-linejoin: miter"/>
    </g>
    <g id="line2d_19">
     <path d="M 302.215748 26.596334 
L 309.215748 26.596334 
L 316.215748 26.596334 
" style="fill: none; stroke: #4c72b0; stroke-linecap: round"/>
    </g>
    <g id="text_27">
     <!-- CESM2 -->
     <g style="fill: #262626" transform="translate(321.815748 29.046334) scale(0.07 -0.07)">
      <defs>
       <path id="ArialMT-45" d="M 506 0 
L 506 4581 
L 3819 4581 
L 3819 4041 
L 1113 4041 
L 1113 2638 
L 3647 2638 
L 3647 2100 
L 1113 2100 
L 1113 541 
L 3925 541 
L 3925 0 
L 506 0 
z
" transform="scale(0.015625)"/>
       <path id="ArialMT-53" d="M 288 1472 
L 859 1522 
Q 900 1178 1048 958 
Q 1197 738 1509 602 
Q 1822 466 2213 466 
Q 2559 466 2825 569 
Q 3091 672 3220 851 
Q 3350 1031 3350 1244 
Q 3350 1459 3225 1620 
Q 3100 1781 2813 1891 
Q 2628 1963 1997 2114 
Q 1366 2266 1113 2400 
Q 784 2572 623 2826 
Q 463 3081 463 3397 
Q 463 3744 659 4045 
Q 856 4347 1234 4503 
Q 1613 4659 2075 4659 
Q 2584 4659 2973 4495 
Q 3363 4331 3572 4012 
Q 3781 3694 3797 3291 
L 3216 3247 
Q 3169 3681 2898 3903 
Q 2628 4125 2100 4125 
Q 1550 4125 1298 3923 
Q 1047 3722 1047 3438 
Q 1047 3191 1225 3031 
Q 1400 2872 2139 2705 
Q 2878 2538 3153 2413 
Q 3553 2228 3743 1945 
Q 3934 1663 3934 1294 
Q 3934 928 3725 604 
Q 3516 281 3123 101 
Q 2731 -78 2241 -78 
Q 1619 -78 1198 103 
Q 778 284 539 648 
Q 300 1013 288 1472 
z
" transform="scale(0.015625)"/>
       <path id="ArialMT-4d" d="M 475 0 
L 475 4581 
L 1388 4581 
L 2472 1338 
Q 2622 884 2691 659 
Q 2769 909 2934 1394 
L 4031 4581 
L 4847 4581 
L 4847 0 
L 4263 0 
L 4263 3834 
L 2931 0 
L 2384 0 
L 1059 3900 
L 1059 0 
L 475 0 
z
" transform="scale(0.015625)"/>
      </defs>
      <use xlink:href="#ArialMT-43"/>
      <use xlink:href="#ArialMT-45" transform="translate(72.216797 0)"/>
      <use xlink:href="#ArialMT-53" transform="translate(138.916016 0)"/>
      <use xlink:href="#ArialMT-4d" transform="translate(205.615234 0)"/>
      <use xlink:href="#ArialMT-32" transform="translate(288.916016 0)"/>
     </g>
    </g>
    <g id="line2d_20">
     <path d="M 302.215748 36.498052 
L 309.215748 36.498052 
L 316.215748 36.498052 
" style="fill: none; stroke: #dd8452; stroke-linecap: round"/>
    </g>
    <g id="text_28">
     <!-- CESM2-WACCM -->
     <g style="fill: #262626" transform="translate(321.815748 38.948052) scale(0.07 -0.07)">
      <defs>
       <path id="ArialMT-2d" d="M 203 1375 
L 203 1941 
L 1931 1941 
L 1931 1375 
L 203 1375 
z
" transform="scale(0.015625)"/>
       <path id="ArialMT-57" d="M 1294 0 
L 78 4581 
L 700 4581 
L 1397 1578 
Q 1509 1106 1591 641 
Q 1766 1375 1797 1488 
L 2669 4581 
L 3400 4581 
L 4056 2263 
Q 4303 1400 4413 641 
Q 4500 1075 4641 1638 
L 5359 4581 
L 5969 4581 
L 4713 0 
L 4128 0 
L 3163 3491 
Q 3041 3928 3019 4028 
Q 2947 3713 2884 3491 
L 1913 0 
L 1294 0 
z
" transform="scale(0.015625)"/>
       <path id="ArialMT-41" d="M -9 0 
L 1750 4581 
L 2403 4581 
L 4278 0 
L 3588 0 
L 3053 1388 
L 1138 1388 
L 634 0 
L -9 0 
z
M 1313 1881 
L 2866 1881 
L 2388 3150 
Q 2169 3728 2063 4100 
Q 1975 3659 1816 3225 
L 1313 1881 
z
" transform="scale(0.015625)"/>
      </defs>
      <use xlink:href="#ArialMT-43"/>
      <use xlink:href="#ArialMT-45" transform="translate(72.216797 0)"/>
      <use xlink:href="#ArialMT-53" transform="translate(138.916016 0)"/>
      <use xlink:href="#ArialMT-4d" transform="translate(205.615234 0)"/>
      <use xlink:href="#ArialMT-32" transform="translate(288.916016 0)"/>
      <use xlink:href="#ArialMT-2d" transform="translate(344.53125 0)"/>
      <use xlink:href="#ArialMT-57" transform="translate(377.832031 0)"/>
      <use xlink:href="#ArialMT-41" transform="translate(468.466797 0)"/>
      <use xlink:href="#ArialMT-43" transform="translate(535.166016 0)"/>
      <use xlink:href="#ArialMT-43" transform="translate(607.382812 0)"/>
      <use xlink:href="#ArialMT-4d" transform="translate(679.599609 0)"/>
     </g>
    </g>
    <g id="line2d_21">
     <path d="M 302.215748 46.399771 
L 309.215748 46.399771 
L 316.215748 46.399771 
" style="fill: none; stroke: #55a868; stroke-linecap: round"/>
    </g>
    <g id="text_29">
     <!-- ACCESS-ESM1-5 -->
     <g style="fill: #262626" transform="translate(321.815748 48.849771) scale(0.07 -0.07)">
      <use xlink:href="#ArialMT-41"/>
      <use xlink:href="#ArialMT-43" transform="translate(66.699219 0)"/>
      <use xlink:href="#ArialMT-43" transform="translate(138.916016 0)"/>
      <use xlink:href="#ArialMT-45" transform="translate(211.132812 0)"/>
      <use xlink:href="#ArialMT-53" transform="translate(277.832031 0)"/>
      <use xlink:href="#ArialMT-53" transform="translate(344.53125 0)"/>
      <use xlink:href="#ArialMT-2d" transform="translate(411.230469 0)"/>
      <use xlink:href="#ArialMT-45" transform="translate(444.53125 0)"/>
      <use xlink:href="#ArialMT-53" transform="translate(511.230469 0)"/>
      <use xlink:href="#ArialMT-4d" transform="translate(577.929688 0)"/>
      <use xlink:href="#ArialMT-31" transform="translate(661.230469 0)"/>
      <use xlink:href="#ArialMT-2d" transform="translate(716.845703 0)"/>
      <use xlink:href="#ArialMT-35" transform="translate(750.146484 0)"/>
     </g>
    </g>
    <g id="line2d_22">
     <path d="M 302.215748 56.30149 
L 309.215748 56.30149 
L 316.215748 56.30149 
" style="fill: none; stroke: #c44e52; stroke-linecap: round"/>
    </g>
    <g id="text_30">
     <!-- MIROC6 -->
     <g style="fill: #262626" transform="translate(321.815748 58.75149) scale(0.07 -0.07)">
      <defs>
       <path id="ArialMT-49" d="M 597 0 
L 597 4581 
L 1203 4581 
L 1203 0 
L 597 0 
z
" transform="scale(0.015625)"/>
       <path id="ArialMT-4f" d="M 309 2231 
Q 309 3372 921 4017 
Q 1534 4663 2503 4663 
Q 3138 4663 3647 4359 
Q 4156 4056 4423 3514 
Q 4691 2972 4691 2284 
Q 4691 1588 4409 1038 
Q 4128 488 3612 205 
Q 3097 -78 2500 -78 
Q 1853 -78 1343 234 
Q 834 547 571 1087 
Q 309 1628 309 2231 
z
M 934 2222 
Q 934 1394 1379 917 
Q 1825 441 2497 441 
Q 3181 441 3623 922 
Q 4066 1403 4066 2288 
Q 4066 2847 3877 3264 
Q 3688 3681 3323 3911 
Q 2959 4141 2506 4141 
Q 1863 4141 1398 3698 
Q 934 3256 934 2222 
z
" transform="scale(0.015625)"/>
      </defs>
      <use xlink:href="#ArialMT-4d"/>
      <use xlink:href="#ArialMT-49" transform="translate(83.300781 0)"/>
      <use xlink:href="#ArialMT-52" transform="translate(111.083984 0)"/>
      <use xlink:href="#ArialMT-4f" transform="translate(183.300781 0)"/>
      <use xlink:href="#ArialMT-43" transform="translate(261.083984 0)"/>
      <use xlink:href="#ArialMT-36" transform="translate(333.300781 0)"/>
     </g>
    </g>
    <g id="line2d_23">
     <path d="M 302.215748 66.203209 
L 309.215748 66.203209 
L 316.215748 66.203209 
" style="fill: none; stroke: #8172b3; stroke-linecap: round"/>
    </g>
    <g id="text_31">
     <!-- MPI-ESM1-2-LR -->
     <g style="fill: #262626" transform="translate(321.815748 68.653209) scale(0.07 -0.07)">
      <defs>
       <path id="ArialMT-50" d="M 494 0 
L 494 4581 
L 2222 4581 
Q 2678 4581 2919 4538 
Q 3256 4481 3484 4323 
Q 3713 4166 3852 3881 
Q 3991 3597 3991 3256 
Q 3991 2672 3619 2267 
Q 3247 1863 2275 1863 
L 1100 1863 
L 1100 0 
L 494 0 
z
M 1100 2403 
L 2284 2403 
Q 2872 2403 3119 2622 
Q 3366 2841 3366 3238 
Q 3366 3525 3220 3729 
Q 3075 3934 2838 4000 
Q 2684 4041 2272 4041 
L 1100 4041 
L 1100 2403 
z
" transform="scale(0.015625)"/>
       <path id="ArialMT-4c" d="M 469 0 
L 469 4581 
L 1075 4581 
L 1075 541 
L 3331 541 
L 3331 0 
L 469 0 
z
" transform="scale(0.015625)"/>
      </defs>
      <use xlink:href="#ArialMT-4d"/>
      <use xlink:href="#ArialMT-50" transform="translate(83.300781 0)"/>
      <use xlink:href="#ArialMT-49" transform="translate(150 0)"/>
      <use xlink:href="#ArialMT-2d" transform="translate(177.783203 0)"/>
      <use xlink:href="#ArialMT-45" transform="translate(211.083984 0)"/>
      <use xlink:href="#ArialMT-53" transform="translate(277.783203 0)"/>
      <use xlink:href="#ArialMT-4d" transform="translate(344.482422 0)"/>
      <use xlink:href="#ArialMT-31" transform="translate(427.783203 0)"/>
      <use xlink:href="#ArialMT-2d" transform="translate(483.398438 0)"/>
      <use xlink:href="#ArialMT-32" transform="translate(516.699219 0)"/>
      <use xlink:href="#ArialMT-2d" transform="translate(572.314453 0)"/>
      <use xlink:href="#ArialMT-4c" transform="translate(605.615234 0)"/>
      <use xlink:href="#ArialMT-52" transform="translate(661.230469 0)"/>
     </g>
    </g>
    <g id="line2d_24">
     <path d="M 302.215748 76.104927 
L 309.215748 76.104927 
L 316.215748 76.104927 
" style="fill: none; stroke: #937860; stroke-linecap: round"/>
    </g>
    <g id="text_32">
     <!-- IPSL-CM6A-LR -->
     <g style="fill: #262626" transform="translate(321.815748 78.554927) scale(0.07 -0.07)">
      <use xlink:href="#ArialMT-49"/>
      <use xlink:href="#ArialMT-50" transform="translate(27.783203 0)"/>
      <use xlink:href="#ArialMT-53" transform="translate(94.482422 0)"/>
      <use xlink:href="#ArialMT-4c" transform="translate(161.181641 0)"/>
      <use xlink:href="#ArialMT-2d" transform="translate(216.796875 0)"/>
      <use xlink:href="#ArialMT-43" transform="translate(250.097656 0)"/>
      <use xlink:href="#ArialMT-4d" transform="translate(322.314453 0)"/>
      <use xlink:href="#ArialMT-36" transform="translate(405.615234 0)"/>
      <use xlink:href="#ArialMT-41" transform="translate(461.230469 0)"/>
      <use xlink:href="#ArialMT-2d" transform="translate(527.929688 0)"/>
      <use xlink:href="#ArialMT-4c" transform="translate(561.230469 0)"/>
      <use xlink:href="#ArialMT-52" transform="translate(616.845703 0)"/>
     </g>
    </g>
    <g id="line2d_25">
     <path d="M 302.215748 86.006646 
L 309.215748 86.006646 
L 316.215748 86.006646 
" style="fill: none; stroke: #da8bc3; stroke-linecap: round"/>
    </g>
    <g id="text_33">
     <!-- GISS-E2-2-G -->
     <g style="fill: #262626" transform="translate(321.815748 88.456646) scale(0.07 -0.07)">
      <defs>
       <path id="ArialMT-47" d="M 2638 1797 
L 2638 2334 
L 4578 2338 
L 4578 638 
Q 4131 281 3656 101 
Q 3181 -78 2681 -78 
Q 2006 -78 1454 211 
Q 903 500 622 1047 
Q 341 1594 341 2269 
Q 341 2938 620 3517 
Q 900 4097 1425 4378 
Q 1950 4659 2634 4659 
Q 3131 4659 3532 4498 
Q 3934 4338 4162 4050 
Q 4391 3763 4509 3300 
L 3963 3150 
Q 3859 3500 3706 3700 
Q 3553 3900 3268 4020 
Q 2984 4141 2638 4141 
Q 2222 4141 1919 4014 
Q 1616 3888 1430 3681 
Q 1244 3475 1141 3228 
Q 966 2803 966 2306 
Q 966 1694 1177 1281 
Q 1388 869 1791 669 
Q 2194 469 2647 469 
Q 3041 469 3416 620 
Q 3791 772 3984 944 
L 3984 1797 
L 2638 1797 
z
" transform="scale(0.015625)"/>
      </defs>
      <use xlink:href="#ArialMT-47"/>
      <use xlink:href="#ArialMT-49" transform="translate(77.783203 0)"/>
      <use xlink:href="#ArialMT-53" transform="translate(105.566406 0)"/>
      <use xlink:href="#ArialMT-53" transform="translate(172.265625 0)"/>
      <use xlink:href="#ArialMT-2d" transform="translate(238.964844 0)"/>
      <use xlink:href="#ArialMT-45" transform="translate(272.265625 0)"/>
      <use xlink:href="#ArialMT-32" transform="translate(338.964844 0)"/>
      <use xlink:href="#ArialMT-2d" transform="translate(394.580078 0)"/>
      <use xlink:href="#ArialMT-32" transform="translate(427.880859 0)"/>
      <use xlink:href="#ArialMT-2d" transform="translate(483.496094 0)"/>
      <use xlink:href="#ArialMT-47" transform="translate(516.796875 0)"/>
     </g>
    </g>
    <g id="line2d_26">
     <path d="M 302.215748 95.908365 
L 309.215748 95.908365 
L 316.215748 95.908365 
" style="fill: none; stroke: #1a1a1a; stroke-width: 2; stroke-linecap: round"/>
    </g>
    <g id="text_34">
     <!-- mean -->
     <g style="fill: #262626" transform="translate(321.815748 98.358365) scale(0.07 -0.07)">
      <use xlink:href="#ArialMT-6d"/>
      <use xlink:href="#ArialMT-65" transform="translate(83.300781 0)"/>
      <use xlink:href="#ArialMT-61" transform="translate(138.916016 0)"/>
      <use xlink:href="#ArialMT-6e" transform="translate(194.53125 0)"/>
     </g>
    </g>
   </g>
  </g>
 </g>
 <defs>
  <clipPath id="p1d0863f860">
   <rect x="39.708677" y="17.735865" width="246.492605" height="160.729676"/>
  </clipPath>
  <clipPath id="p65cb7f4114">
   <rect x="295.915748" y="17.735865" width="246.492605" height="160.729676"/>
  </clipPath>
 </defs>
</svg>
