<?xml version="1.0" encoding="utf-8" standalone="no"?>
<!DOCTYPE svg PUBLIC "-//W3C//DTD SVG 1.1//EN"
  "http://www.w3.org/Graphics/SVG/1.1/DTD/svg11.dtd">
<svg xmlns:xlink="http://www.w3.org/1999/xlink" width="576pt" height="216pt" viewBox="0 0 576 216" xmlns="http://www.w3.org/2000/svg" version="1.1">
 <metadata>
  <rdf:RDF xmlns:dc="http://purl.org/dc/elements/1.1/" xmlns:cc="http://creativecommons.org/ns#" xmlns:rdf="http://www.w3.org/1999/02/22-rdf-syntax-ns#">
   <cc:Work>
    <dc:type rdf:resource="http://purl.org/dc/dcmitype/StillImage"/>
    <dc:date>2025-06-29T19:50:33.473699</dc:date>
    <dc:format>image/svg+xml</dc:format>
    <dc:creator>
     <cc:Agent>
      <dc:title>Matplotlib v3.10.3, https://matplotlib.org/</dc:title>
     </cc:Agent>
    </dc:creator>
   </cc:Work>
  </rdf:RDF>
 </metadata>
 <defs>
  <style type="text/css">*{stroke-linejoin: round; stroke-linecap: butt}</style>
 </defs>
 <g id="figure_1">
  <g id="patch_1">
   <path d="M 0 216 
L 576 216 
L 576 0 
L 0 0 
z
" style="fill: #ffffff"/>
  </g>
  <g id="axes_1">
   <g id="patch_2">
    <path d="M 72 192.24 
L 274.909091 192.24 
L 274.909091 25.92 
L 72 25.92 
z
" style="fill: #ffffff"/>
   </g>
   <g id="matplotlib.axis_1">
    <g id="xtick_1">
     <g id="text_1">
      <!-- 1850 -->
      <g style="fill: #262626" transform="translate(68.989078 209.613594) scale(0.11 -0.11)">
       <defs>
        <path id="ArialMT-31" d="M 2384 0 
L 1822 0 
L 1822 3584 
Q 1619 3391 1289 3197 
Q 959 3003 697 2906 
L 697 3450 
Q 1169 3672 1522 3987 
Q 1875 4303 2022 4600 
L 2384 4600 
L 2384 0 
z
" transform="scale(0.015625)"/>
        <path id="ArialMT-38" d="M 1131 2484 
Q 781 2613 612 2850 
Q 444 3088 444 3419 
Q 444 3919 803 4259 
Q 1163 4600 1759 4600 
Q 2359 4600 2725 4251 
Q 3091 3903 3091 3403 
Q 3091 3084 2923 2848 
Q 2756 2613 2416 2484 
Q 2838 2347 3058 2040 
Q 3278 1734 3278 1309 
Q 3278 722 2862 322 
Q 2447 -78 1769 -78 
Q 1091 -78 675 323 
Q 259 725 259 1325 
Q 259 1772 486 2073 
Q 713 2375 1131 2484 
z
M 1019 3438 
Q 1019 3113 1228 2906 
Q 1438 2700 1772 2700 
Q 2097 2700 2305 2904 
Q 2513 3109 2513 3406 
Q 2513 3716 2298 3927 
Q 2084 4138 1766 4138 
Q 1444 4138 1231 3931 
Q 1019 3725 1019 3438 
z
M 838 1322 
Q 838 1081 952 856 
Q 1066 631 1291 507 
Q 1516 384 1775 384 
Q 2178 384 2440 643 
Q 2703 903 2703 1303 
Q 2703 1709 2433 1975 
Q 2163 2241 1756 2241 
Q 1359 2241 1098 1978 
Q 838 1716 838 1322 
z
" transform="scale(0.015625)"/>
        <path id="ArialMT-35" d="M 266 1200 
L 856 1250 
Q 922 819 1161 601 
Q 1400 384 1738 384 
Q 2144 384 2425 690 
Q 2706 997 2706 1503 
Q 2706 1984 2436 2262 
Q 2166 2541 1728 2541 
Q 1456 2541 1237 2417 
Q 1019 2294 894 2097 
L 366 2166 
L 809 4519 
L 3088 4519 
L 3088 3981 
L 1259 3981 
L 1013 2750 
Q 1425 3038 1878 3038 
Q 2478 3038 2890 2622 
Q 3303 2206 3303 1553 
Q 3303 931 2941 478 
Q 2500 -78 1738 -78 
Q 1113 -78 717 272 
Q 322 622 266 1200 
z
" transform="scale(0.015625)"/>
        <path id="ArialMT-30" d="M 266 2259 
Q 266 3072 433 3567 
Q 600 4063 929 4331 
Q 1259 4600 1759 4600 
Q 2128 4600 2406 4451 
Q 2684 4303 2865 4023 
Q 3047 3744 3150 3342 
Q 3253 2941 3253 2259 
Q 3253 1453 3087 958 
Q 2922 463 2592 192 
Q 2263 -78 1759 -78 
Q 1097 -78 719 397 
Q 266 969 266 2259 
z
M 844 2259 
Q 844 1131 1108 757 
Q 1372 384 1759 384 
Q 2147 384 2411 759 
Q 2675 1134 2675 2259 
Q 2675 3391 2411 3762 
Q 2147 4134 1753 4134 
Q 1366 4134 1134 3806 
Q 844 3388 844 2259 
z
" transform="scale(0.015625)"/>
       </defs>
       <use xlink:href="#ArialMT-31"/>
       <use xlink:href="#ArialMT-38" transform="translate(55.615234 0)"/>
       <use xlink:href="#ArialMT-35" transform="translate(111.230469 0)"/>
       <use xlink:href="#ArialMT-30" transform="translate(166.845703 0)"/>
      </g>
     </g>
    </g>
    <g id="xtick_2">
     <g id="text_2">
      <!-- 1900 -->
      <g style="fill: #262626" transform="translate(130.88935 209.613594) scale(0.11 -0.11)">
       <defs>
        <path id="ArialMT-39" d="M 350 1059 
L 891 1109 
Q 959 728 1153 556 
Q 1347 384 1650 384 
Q 1909 384 2104 503 
Q 2300 622 2425 820 
Q 2550 1019 2634 1356 
Q 2719 1694 2719 2044 
Q 2719 2081 2716 2156 
Q 2547 1888 2255 1720 
Q 1963 1553 1622 1553 
Q 1053 1553 659 1965 
Q 266 2378 266 3053 
Q 266 3750 677 4175 
Q 1088 4600 1706 4600 
Q 2153 4600 2523 4359 
Q 2894 4119 3086 3673 
Q 3278 3228 3278 2384 
Q 3278 1506 3087 986 
Q 2897 466 2520 194 
Q 2144 -78 1638 -78 
Q 1100 -78 759 220 
Q 419 519 350 1059 
z
M 2653 3081 
Q 2653 3566 2395 3850 
Q 2138 4134 1775 4134 
Q 1400 4134 1122 3828 
Q 844 3522 844 3034 
Q 844 2597 1108 2323 
Q 1372 2050 1759 2050 
Q 2150 2050 2401 2323 
Q 2653 2597 2653 3081 
z
" transform="scale(0.015625)"/>
       </defs>
       <use xlink:href="#ArialMT-31"/>
       <use xlink:href="#ArialMT-39" transform="translate(55.615234 0)"/>
       <use xlink:href="#ArialMT-30" transform="translate(111.230469 0)"/>
       <use xlink:href="#ArialMT-30" transform="translate(166.845703 0)"/>
      </g>
     </g>
    </g>
    <g id="xtick_3">
     <g id="text_3">
      <!-- 1950 -->
      <g style="fill: #262626" transform="translate(192.789622 209.613594) scale(0.11 -0.11)">
       <use xlink:href="#ArialMT-31"/>
       <use xlink:href="#ArialMT-39" transform="translate(55.615234 0)"/>
       <use xlink:href="#ArialMT-35" transform="translate(111.230469 0)"/>
       <use xlink:href="#ArialMT-30" transform="translate(166.845703 0)"/>
      </g>
     </g>
    </g>
    <g id="xtick_4">
     <g id="text_4">
      <!-- 2000 -->
      <g style="fill: #262626" transform="translate(254.689893 209.613594) scale(0.11 -0.11)">
       <defs>
        <path id="ArialMT-32" d="M 3222 541 
L 3222 0 
L 194 0 
Q 188 203 259 391 
Q 375 700 629 1000 
Q 884 1300 1366 1694 
Q 2113 2306 2375 2664 
Q 2638 3022 2638 3341 
Q 2638 3675 2398 3904 
Q 2159 4134 1775 4134 
Q 1369 4134 1125 3890 
Q 881 3647 878 3216 
L 300 3275 
Q 359 3922 746 4261 
Q 1134 4600 1788 4600 
Q 2447 4600 2831 4234 
Q 3216 3869 3216 3328 
Q 3216 3053 3103 2787 
Q 2991 2522 2730 2228 
Q 2469 1934 1863 1422 
Q 1356 997 1212 845 
Q 1069 694 975 541 
L 3222 541 
z
" transform="scale(0.015625)"/>
       </defs>
       <use xlink:href="#ArialMT-32"/>
       <use xlink:href="#ArialMT-30" transform="translate(55.615234 0)"/>
       <use xlink:href="#ArialMT-30" transform="translate(111.230469 0)"/>
       <use xlink:href="#ArialMT-30" transform="translate(166.845703 0)"/>
      </g>
     </g>
    </g>
    <g id="text_5">
     <!-- Year -->
     <g style="fill: #262626" transform="translate(161.32892 224.389219) scale(0.12 -0.12)">
      <defs>
       <path id="ArialMT-59" d="M 1784 0 
L 1784 1941 
L 19 4581 
L 756 4581 
L 1659 3200 
Q 1909 2813 2125 2425 
Q 2331 2784 2625 3234 
L 3513 4581 
L 4219 4581 
L 2391 1941 
L 2391 0 
L 1784 0 
z
" transform="scale(0.015625)"/>
       <path id="ArialMT-65" d="M 2694 1069 
L 3275 997 
Q 3138 488 2766 206 
Q 2394 -75 1816 -75 
Q 1088 -75 661 373 
Q 234 822 234 1631 
Q 234 2469 665 2931 
Q 1097 3394 1784 3394 
Q 2450 3394 2872 2941 
Q 3294 2488 3294 1666 
Q 3294 1616 3291 1516 
L 816 1516 
Q 847 969 1125 678 
Q 1403 388 1819 388 
Q 2128 388 2347 550 
Q 2566 713 2694 1069 
z
M 847 1978 
L 2700 1978 
Q 2663 2397 2488 2606 
Q 2219 2931 1791 2931 
Q 1403 2931 1139 2672 
Q 875 2413 847 1978 
z
" transform="scale(0.015625)"/>
       <path id="ArialMT-61" d="M 2588 409 
Q 2275 144 1986 34 
Q 1697 -75 1366 -75 
Q 819 -75 525 192 
Q 231 459 231 875 
Q 231 1119 342 1320 
Q 453 1522 633 1644 
Q 813 1766 1038 1828 
Q 1203 1872 1538 1913 
Q 2219 1994 2541 2106 
Q 2544 2222 2544 2253 
Q 2544 2597 2384 2738 
Q 2169 2928 1744 2928 
Q 1347 2928 1158 2789 
Q 969 2650 878 2297 
L 328 2372 
Q 403 2725 575 2942 
Q 747 3159 1072 3276 
Q 1397 3394 1825 3394 
Q 2250 3394 2515 3294 
Q 2781 3194 2906 3042 
Q 3031 2891 3081 2659 
Q 3109 2516 3109 2141 
L 3109 1391 
Q 3109 606 3145 398 
Q 3181 191 3288 0 
L 2700 0 
Q 2613 175 2588 409 
z
M 2541 1666 
Q 2234 1541 1622 1453 
Q 1275 1403 1131 1340 
Q 988 1278 909 1158 
Q 831 1038 831 891 
Q 831 666 1001 516 
Q 1172 366 1500 366 
Q 1825 366 2078 508 
Q 2331 650 2450 897 
Q 2541 1088 2541 1459 
L 2541 1666 
z
" transform="scale(0.015625)"/>
       <path id="ArialMT-72" d="M 416 0 
L 416 3319 
L 922 3319 
L 922 2816 
Q 1116 3169 1280 3281 
Q 1444 3394 1641 3394 
Q 1925 3394 2219 3213 
L 2025 2691 
Q 1819 2813 1613 2813 
Q 1428 2813 1281 2702 
Q 1134 2591 1072 2394 
Q 978 2094 978 1738 
L 978 0 
L 416 0 
z
" transform="scale(0.015625)"/>
      </defs>
      <use xlink:href="#ArialMT-59"/>
      <use xlink:href="#ArialMT-65" transform="translate(57.574219 0)"/>
      <use xlink:href="#ArialMT-61" transform="translate(113.189453 0)"/>
      <use xlink:href="#ArialMT-72" transform="translate(168.804688 0)"/>
     </g>
    </g>
   </g>
   <g id="matplotlib.axis_2">
    <g id="ytick_1">
     <g id="text_6">
      <!-- 11 -->
      <g style="fill: #262626" transform="translate(51.077188 185.836015) scale(0.11 -0.11)">
       <use xlink:href="#ArialMT-31"/>
       <use xlink:href="#ArialMT-31" transform="translate(48.240234 0)"/>
      </g>
     </g>
    </g>
    <g id="ytick_2">
     <g id="text_7">
      <!-- 16 -->
      <g style="fill: #262626" transform="translate(50.265937 120.692835) scale(0.11 -0.11)">
       <defs>
        <path id="ArialMT-36" d="M 3184 3459 
L 2625 3416 
Q 2550 3747 2413 3897 
Q 2184 4138 1850 4138 
Q 1581 4138 1378 3988 
Q 1113 3794 959 3422 
Q 806 3050 800 2363 
Q 1003 2672 1297 2822 
Q 1591 2972 1913 2972 
Q 2475 2972 2870 2558 
Q 3266 2144 3266 1488 
Q 3266 1056 3080 686 
Q 2894 316 2569 119 
Q 2244 -78 1831 -78 
Q 1128 -78 684 439 
Q 241 956 241 2144 
Q 241 3472 731 4075 
Q 1159 4600 1884 4600 
Q 2425 4600 2770 4297 
Q 3116 3994 3184 3459 
z
M 888 1484 
Q 888 1194 1011 928 
Q 1134 663 1356 523 
Q 1578 384 1822 384 
Q 2178 384 2434 671 
Q 2691 959 2691 1453 
Q 2691 1928 2437 2201 
Q 2184 2475 1800 2475 
Q 1419 2475 1153 2201 
Q 888 1928 888 1484 
z
" transform="scale(0.015625)"/>
       </defs>
       <use xlink:href="#ArialMT-31"/>
       <use xlink:href="#ArialMT-36" transform="translate(55.615234 0)"/>
      </g>
     </g>
    </g>
    <g id="ytick_3">
     <g id="text_8">
      <!-- 21 -->
      <g style="fill: #262626" transform="translate(50.265937 55.549654) scale(0.11 -0.11)">
       <use xlink:href="#ArialMT-32"/>
       <use xlink:href="#ArialMT-31" transform="translate(55.615234 0)"/>
      </g>
     </g>
    </g>
    <g id="text_9">
     <!-- $^{\circ}$C -->
     <g style="fill: #262626" transform="translate(43.880938 116.28) rotate(-90) scale(0.12 -0.12)">
      <defs>
       <path id="DejaVuSans-2218" d="M 2003 2603 
Q 1753 2603 1581 2429 
Q 1409 2256 1409 2006 
Q 1409 1759 1581 1589 
Q 1753 1419 2003 1419 
Q 2253 1419 2425 1589 
Q 2597 1759 2597 2006 
Q 2597 2253 2423 2428 
Q 2250 2603 2003 2603 
z
M 2003 3006 
Q 2203 3006 2387 2929 
Q 2572 2853 2706 2709 
Q 2850 2569 2922 2390 
Q 2994 2212 2994 2006 
Q 2994 1594 2705 1308 
Q 2416 1022 1997 1022 
Q 1575 1022 1294 1303 
Q 1013 1584 1013 2006 
Q 1013 2425 1300 2715 
Q 1588 3006 2003 3006 
z
" transform="scale(0.015625)"/>
       <path id="ArialMT-43" d="M 3763 1606 
L 4369 1453 
Q 4178 706 3683 314 
Q 3188 -78 2472 -78 
Q 1731 -78 1267 223 
Q 803 525 561 1097 
Q 319 1669 319 2325 
Q 319 3041 592 3573 
Q 866 4106 1370 4382 
Q 1875 4659 2481 4659 
Q 3169 4659 3637 4309 
Q 4106 3959 4291 3325 
L 3694 3184 
Q 3534 3684 3231 3912 
Q 2928 4141 2469 4141 
Q 1941 4141 1586 3887 
Q 1231 3634 1087 3207 
Q 944 2781 944 2328 
Q 944 1744 1114 1308 
Q 1284 872 1643 656 
Q 2003 441 2422 441 
Q 2931 441 3284 734 
Q 3638 1028 3763 1606 
z
" transform="scale(0.015625)"/>
      </defs>
      <use xlink:href="#DejaVuSans-2218" transform="translate(0.957031 38.484375) scale(0.7)"/>
      <use xlink:href="#ArialMT-43" transform="translate(47.509766 0.203125)"/>
     </g>
    </g>
   </g>
   <g id="line2d_1">
    <path d="M 81.22314 92.69627 
L 82.461146 80.226539 
L 83.699151 95.229271 
L 84.937157 89.559187 
L 86.175162 88.80081 
L 87.413168 89.723024 
L 88.651173 83.143823 
L 89.889179 88.66734 
L 91.127184 88.661426 
L 92.365189 79.090316 
L 94.8412 84.109698 
L 96.079206 84.495074 
L 97.317211 79.080177 
L 98.555217 74.952567 
L 99.793222 75.846079 
L 101.031227 83.203612 
L 102.269233 77.597244 
L 103.507238 81.867941 
L 104.745244 82.796094 
L 105.983249 70.367341 
L 107.221255 78.300975 
L 108.45926 83.850238 
L 109.697266 86.435598 
L 110.935271 78.716793 
L 112.173276 80.497828 
L 113.411282 81.873408 
L 114.649287 77.654474 
L 115.887293 75.529264 
L 117.125298 72.896167 
L 118.363304 73.078368 
L 119.601309 69.849439 
L 120.839314 72.934983 
L 122.07732 69.800757 
L 123.315325 69.624794 
L 124.553331 79.34995 
L 125.791336 73.748552 
L 127.029342 66.628362 
L 128.267347 64.633094 
L 129.505352 70.801175 
L 130.743358 71.340846 
L 131.981363 74.808386 
L 133.219369 68.812542 
L 134.457374 67.645081 
L 135.69538 75.767105 
L 136.933385 71.484306 
L 138.171391 70.181238 
L 139.409396 66.155563 
L 140.647401 71.561589 
L 141.885407 64.785227 
L 143.123412 63.378807 
L 144.361418 63.191586 
L 145.599423 70.071102 
L 146.837429 73.618014 
L 148.075434 64.969888 
L 149.313439 64.735974 
L 150.551445 71.619639 
L 151.78945 64.352859 
L 153.027456 62.663968 
L 154.265461 72.92708 
L 155.503467 70.8634 
L 156.741472 68.520602 
L 157.979478 61.820181 
L 159.217483 63.353088 
L 160.455488 67.604501 
L 161.693494 59.120585 
L 162.931499 55.92242 
L 164.169505 62.124098 
L 165.40751 67.001214 
L 166.645516 70.030795 
L 167.883521 53.37349 
L 169.121526 72.266141 
L 170.359532 75.7513 
L 171.597537 77.45023 
L 172.835543 75.990011 
L 174.073548 60.190409 
L 175.311554 59.762166 
L 176.549559 69.279849 
L 177.787564 62.646896 
L 179.02557 61.637781 
L 180.263575 58.431441 
L 181.501581 63.926927 
L 182.739586 60.670787 
L 183.977592 66.902459 
L 185.215597 67.449411 
L 186.453603 63.615704 
L 187.691608 61.219752 
L 188.929613 64.822204 
L 190.167619 65.379443 
L 191.405624 55.131316 
L 192.64363 64.428204 
L 193.881635 66.764641 
L 195.119641 57.490465 
L 196.357646 65.907161 
L 197.595651 61.920476 
L 198.833657 63.139973 
L 200.071662 53.234429 
L 201.309668 52.733475 
L 202.547673 68.77293 
L 203.785679 68.410814 
L 205.023684 68.283979 
L 206.26169 69.64286 
L 207.499695 62.280977 
L 208.7377 66.826443 
L 209.975706 59.522238 
L 211.213711 60.477975 
L 212.451717 48.217159 
L 213.689722 58.850762 
L 214.927728 77.394889 
L 216.165733 78.609043 
L 217.403738 72.343798 
L 218.641744 76.523444 
L 219.879749 71.258567 
L 221.117755 61.792846 
L 222.35576 61.475137 
L 223.593766 60.693227 
L 224.831771 69.216853 
L 226.069776 60.173759 
L 227.307782 71.818018 
L 228.545787 62.529081 
L 229.783793 69.950281 
L 231.021798 71.717748 
L 232.259804 66.64859 
L 233.497809 62.949074 
L 234.735815 50.710772 
L 237.211825 60.625436 
L 238.449831 51.954572 
L 239.687836 65.627846 
L 240.925842 67.100913 
L 242.163847 61.091923 
L 243.401853 61.269725 
L 244.639858 54.346771 
L 245.877863 53.859336 
L 247.115869 62.301156 
L 248.353874 64.428453 
L 249.59188 68.995712 
L 250.829885 68.222027 
L 252.067891 57.868162 
L 253.305896 59.027173 
L 254.543901 59.3171 
L 255.781907 62.653009 
L 257.019912 57.527218 
L 258.257918 53.370757 
L 259.495923 44.832717 
L 260.733929 46.245324 
L 261.971934 58.44722 
L 263.20994 65.608413 
L 264.447945 58.102971 
L 265.68595 48.108166 
L 265.68595 48.108166 
" clip-path="url(#p29b50143e6)" style="fill: none; stroke: #4c72b0; stroke-linecap: round"/>
   </g>
   <g id="line2d_2">
    <path d="M 81.22314 91.035734 
L 82.461146 96.866896 
L 83.699151 93.562745 
L 84.937157 91.794135 
L 86.175162 89.580807 
L 88.651173 88.509045 
L 89.889179 89.340556 
L 92.365189 79.45939 
L 93.603195 81.748661 
L 94.8412 81.115951 
L 96.079206 86.353766 
L 97.317211 84.996128 
L 98.555217 78.83247 
L 99.793222 82.417328 
L 101.031227 84.689601 
L 102.269233 82.567597 
L 103.507238 82.499135 
L 104.745244 78.065073 
L 105.983249 79.416225 
L 107.221255 81.997311 
L 108.45926 74.726356 
L 109.697266 82.765081 
L 110.935271 83.673603 
L 112.173276 81.046395 
L 113.411282 87.519487 
L 114.649287 73.795668 
L 115.887293 74.456905 
L 117.125298 72.309629 
L 118.363304 79.018026 
L 119.601309 75.560302 
L 120.839314 75.999553 
L 122.07732 83.927149 
L 123.315325 74.487993 
L 124.553331 66.689593 
L 125.791336 67.744557 
L 127.029342 69.276394 
L 128.267347 64.560755 
L 129.505352 72.446404 
L 130.743358 73.469907 
L 131.981363 79.784728 
L 133.219369 78.314146 
L 134.457374 74.704115 
L 135.69538 78.063855 
L 136.933385 77.27449 
L 138.171391 71.365646 
L 139.409396 72.622418 
L 140.647401 71.416912 
L 141.885407 72.840503 
L 143.123412 70.906763 
L 144.361418 59.740596 
L 145.599423 74.042181 
L 146.837429 81.562036 
L 148.075434 77.271906 
L 149.313439 86.632138 
L 150.551445 82.881256 
L 151.78945 74.759133 
L 153.027456 76.039885 
L 154.265461 70.859995 
L 155.503467 67.108989 
L 156.741472 74.679985 
L 157.979478 67.119526 
L 159.217483 74.849389 
L 160.455488 70.415426 
L 161.693494 66.97199 
L 162.931499 58.021612 
L 164.169505 65.918543 
L 165.40751 71.225193 
L 166.645516 67.923502 
L 167.883521 63.916217 
L 169.121526 70.885218 
L 170.359532 69.181467 
L 171.597537 74.835224 
L 172.835543 70.37748 
L 174.073548 65.499097 
L 175.311554 68.8195 
L 176.549559 71.404412 
L 177.787564 64.286931 
L 179.02557 60.684877 
L 180.263575 67.107175 
L 181.501581 62.396779 
L 182.739586 58.674003 
L 183.977592 70.550387 
L 185.215597 80.797919 
L 186.453603 69.336731 
L 187.691608 71.929968 
L 188.929613 70.945604 
L 190.167619 73.886346 
L 191.405624 69.927294 
L 192.64363 64.720641 
L 193.881635 76.445489 
L 195.119641 73.868181 
L 196.357646 72.036252 
L 197.595651 71.801195 
L 198.833657 64.500668 
L 200.071662 74.410933 
L 201.309668 66.223727 
L 202.547673 65.065362 
L 203.785679 61.755347 
L 205.023684 66.950545 
L 206.26169 55.64964 
L 207.499695 53.130854 
L 208.7377 60.067674 
L 209.975706 59.724692 
L 211.213711 54.360936 
L 212.451717 58.095342 
L 213.689722 59.812662 
L 214.927728 59.965415 
L 216.165733 69.464212 
L 217.403738 65.384165 
L 218.641744 67.641801 
L 219.879749 61.366939 
L 221.117755 67.356596 
L 222.35576 63.353709 
L 223.593766 70.075376 
L 224.831771 61.600034 
L 226.069776 65.602001 
L 227.307782 59.957662 
L 228.545787 62.127702 
L 229.783793 65.805623 
L 231.021798 62.308586 
L 232.259804 66.077186 
L 233.497809 64.151622 
L 234.735815 55.177189 
L 235.97382 60.288542 
L 237.211825 51.751546 
L 238.449831 53.979436 
L 239.687836 59.308129 
L 240.925842 69.071778 
L 242.163847 55.859847 
L 243.401853 55.987801 
L 244.639858 56.4191 
L 245.877863 57.60572 
L 247.115869 59.778965 
L 248.353874 50.247664 
L 249.59188 58.746714 
L 250.829885 56.166672 
L 252.067891 55.440228 
L 253.305896 60.753662 
L 254.543901 57.801415 
L 255.781907 44.69793 
L 257.019912 49.891984 
L 258.257918 47.238684 
L 259.495923 52.5966 
L 260.733929 56.660917 
L 261.971934 54.13634 
L 263.20994 48.23848 
L 264.447945 47.77997 
L 265.68595 69.055427 
L 265.68595 69.055427 
" clip-path="url(#p29b50143e6)" style="fill: none; stroke: #dd8452; stroke-linecap: round"/>
   </g>
   <g id="line2d_3">
    <path d="M 81.22314 109.174008 
L 82.461146 107.1771 
L 83.699151 106.426352 
L 86.175162 110.673789 
L 87.413168 117.413386 
L 88.651173 117.2433 
L 89.889179 112.315912 
L 91.127184 97.107247 
L 92.365189 93.096532 
L 93.603195 90.788897 
L 94.8412 92.928619 
L 96.079206 89.63923 
L 97.317211 97.681484 
L 99.793222 104.23022 
L 101.031227 105.239161 
L 102.269233 99.353874 
L 103.507238 99.311232 
L 104.745244 100.107033 
L 105.983249 105.28066 
L 107.221255 107.618513 
L 108.45926 106.90509 
L 109.697266 107.378684 
L 110.935271 104.423181 
L 112.173276 95.781988 
L 113.411282 91.886454 
L 114.649287 92.385668 
L 115.887293 96.255384 
L 117.125298 95.269205 
L 119.601309 101.591208 
L 120.839314 91.344223 
L 122.07732 92.195888 
L 123.315325 100.434558 
L 124.553331 102.00556 
L 125.791336 95.038248 
L 127.029342 95.971495 
L 128.267347 95.885688 
L 129.505352 88.665178 
L 130.743358 90.9211 
L 131.981363 88.794648 
L 133.219369 89.055823 
L 134.457374 91.744882 
L 135.69538 91.406746 
L 136.933385 92.553978 
L 138.171391 99.1216 
L 139.409396 89.680506 
L 140.647401 97.189277 
L 141.885407 98.856176 
L 143.123412 91.307669 
L 144.361418 94.1382 
L 145.599423 84.705804 
L 146.837429 82.167858 
L 148.075434 85.365525 
L 149.313439 89.208974 
L 150.551445 86.936105 
L 151.78945 83.207489 
L 153.027456 87.443967 
L 154.265461 84.847971 
L 155.503467 87.788067 
L 156.741472 84.547583 
L 157.979478 87.653106 
L 159.217483 86.122411 
L 160.455488 78.938928 
L 161.693494 87.018384 
L 162.931499 85.77185 
L 164.169505 85.288987 
L 165.40751 83.054486 
L 166.645516 84.171575 
L 167.883521 79.146502 
L 169.121526 72.956627 
L 170.359532 76.837003 
L 171.597537 76.034045 
L 172.835543 77.861426 
L 174.073548 87.409028 
L 175.311554 83.160671 
L 176.549559 80.584605 
L 177.787564 76.980811 
L 179.02557 77.602239 
L 180.263575 78.738934 
L 181.501581 75.78778 
L 182.739586 80.15092 
L 183.977592 74.747652 
L 185.215597 82.195516 
L 186.453603 78.593238 
L 187.691608 70.728389 
L 188.929613 69.327114 
L 190.167619 72.127278 
L 191.405624 68.209627 
L 192.64363 76.134067 
L 193.881635 72.139206 
L 195.119641 79.81922 
L 196.357646 76.223478 
L 197.595651 67.754124 
L 198.833657 74.110345 
L 200.071662 70.003286 
L 201.309668 58.49615 
L 202.547673 69.621613 
L 203.785679 68.57977 
L 205.023684 65.618552 
L 206.26169 74.951299 
L 207.499695 75.345994 
L 208.7377 64.906694 
L 209.975706 68.665056 
L 211.213711 74.342669 
L 212.451717 68.942259 
L 213.689722 72.978843 
L 214.927728 71.244452 
L 216.165733 71.26878 
L 217.403738 64.04248 
L 218.641744 64.931718 
L 219.879749 54.446073 
L 221.117755 57.800967 
L 222.35576 62.070795 
L 223.593766 62.052306 
L 224.831771 51.488085 
L 226.069776 57.278046 
L 227.307782 58.739085 
L 228.545787 58.129387 
L 229.783793 61.312443 
L 231.021798 57.31055 
L 232.259804 51.353645 
L 233.497809 55.0925 
L 234.735815 64.124734 
L 235.97382 53.799223 
L 237.211825 60.339435 
L 238.449831 50.614975 
L 240.925842 58.586903 
L 242.163847 50.027318 
L 243.401853 56.450635 
L 244.639858 60.494575 
L 245.877863 59.881074 
L 247.115869 49.508546 
L 248.353874 61.399543 
L 249.59188 51.243609 
L 250.829885 57.666975 
L 252.067891 48.673482 
L 253.305896 52.932773 
L 254.543901 49.911367 
L 255.781907 51.057059 
L 257.019912 47.082948 
L 258.257918 52.466659 
L 259.495923 44.05026 
L 260.733929 48.942137 
L 261.971934 54.656305 
L 263.20994 41.721851 
L 264.447945 50.176991 
L 265.68595 51.795009 
L 265.68595 51.795009 
" clip-path="url(#p29b50143e6)" style="fill: none; stroke: #55a868; stroke-linecap: round"/>
   </g>
   <g id="line2d_4">
    <path d="M 81.22314 127.665155 
L 82.461146 117.141116 
L 83.699151 114.414309 
L 84.937157 125.326519 
L 86.175162 116.642373 
L 87.413168 114.030945 
L 88.651173 111.796494 
L 89.889179 113.092976 
L 91.127184 121.323893 
L 92.365189 121.115711 
L 93.603195 118.226931 
L 94.8412 121.527341 
L 96.079206 127.964052 
L 97.317211 125.049353 
L 98.555217 123.804199 
L 99.793222 114.994609 
L 101.031227 115.112548 
L 102.269233 113.784606 
L 103.507238 117.031638 
L 104.745244 116.474013 
L 105.983249 108.661921 
L 107.221255 109.149431 
L 108.45926 118.102779 
L 109.697266 117.443728 
L 110.935271 106.003502 
L 112.173276 106.450258 
L 113.411282 99.178234 
L 114.649287 111.379459 
L 115.887293 109.799834 
L 117.125298 112.636628 
L 118.363304 115.972115 
L 119.601309 108.446793 
L 120.839314 108.020663 
L 122.07732 113.306688 
L 123.315325 106.991544 
L 124.553331 109.879156 
L 125.791336 115.422628 
L 127.029342 113.466524 
L 128.267347 114.103384 
L 129.505352 120.059356 
L 130.743358 119.152151 
L 131.981363 120.23081 
L 133.219369 114.531999 
L 134.457374 113.52517 
L 135.69538 123.910732 
L 136.933385 117.4629 
L 138.171391 112.44568 
L 139.409396 105.917147 
L 140.647401 102.922803 
L 141.885407 107.673307 
L 143.123412 104.360434 
L 144.361418 102.493815 
L 145.599423 106.401551 
L 146.837429 103.63143 
L 148.075434 97.226552 
L 149.313439 108.376691 
L 150.551445 104.507995 
L 151.78945 95.187697 
L 153.027456 103.847975 
L 154.265461 97.510913 
L 155.503467 106.7666 
L 156.741472 102.896164 
L 157.979478 103.921904 
L 159.217483 98.385464 
L 160.455488 91.419594 
L 161.693494 95.206359 
L 162.931499 100.002289 
L 164.169505 85.637933 
L 165.40751 89.702374 
L 166.645516 97.094847 
L 167.883521 96.387909 
L 169.121526 92.823901 
L 170.359532 92.802281 
L 171.597537 101.25419 
L 172.835543 98.336335 
L 174.073548 94.7229 
L 175.311554 90.512563 
L 176.549559 90.798415 
L 177.787564 84.659582 
L 179.02557 93.894073 
L 180.263575 78.845119 
L 181.501581 77.847535 
L 182.739586 79.840989 
L 183.977592 88.626884 
L 185.215597 90.571359 
L 186.453603 107.150808 
L 187.691608 102.508377 
L 188.929613 91.994204 
L 190.167619 102.254036 
L 191.405624 103.490729 
L 192.64363 96.874277 
L 193.881635 97.463921 
L 195.119641 97.216513 
L 196.357646 96.169029 
L 197.595651 97.166639 
L 198.833657 97.793533 
L 200.071662 85.852887 
L 201.309668 87.915375 
L 202.547673 89.181564 
L 203.785679 81.676073 
L 205.023684 94.964369 
L 206.26169 84.369656 
L 207.499695 76.987993 
L 208.7377 89.675958 
L 209.975706 107.318398 
L 211.213711 106.997284 
L 212.451717 108.375772 
L 213.689722 102.888187 
L 214.927728 101.843387 
L 216.165733 101.55525 
L 217.403738 115.90989 
L 218.641744 115.256629 
L 219.879749 110.846597 
L 221.117755 103.783364 
L 222.35576 84.229898 
L 223.593766 91.689218 
L 224.831771 88.497837 
L 226.069776 79.455414 
L 227.307782 78.315041 
L 228.545787 76.809966 
L 229.783793 68.65355 
L 231.021798 74.750585 
L 232.259804 78.876082 
L 233.497809 78.647983 
L 234.735815 85.769539 
L 235.97382 84.813007 
L 237.211825 92.701042 
L 238.449831 88.812291 
L 239.687836 84.328703 
L 240.925842 86.032653 
L 242.163847 87.034213 
L 243.401853 86.355754 
L 244.639858 80.788252 
L 245.877863 74.079755 
L 247.115869 74.6982 
L 248.353874 80.709253 
L 249.59188 81.693717 
L 250.829885 86.643693 
L 252.067891 79.71388 
L 253.305896 83.355099 
L 254.543901 82.119549 
L 255.781907 73.52008 
L 257.019912 74.461726 
L 258.257918 68.407931 
L 259.495923 85.555555 
L 260.733929 69.845587 
L 261.971934 85.179224 
L 263.20994 73.9064 
L 264.447945 85.911359 
L 265.68595 81.370864 
L 265.68595 81.370864 
" clip-path="url(#p29b50143e6)" style="fill: none; stroke: #c44e52; stroke-linecap: round"/>
   </g>
   <g id="line2d_5">
    <path d="M 81.22314 149.927436 
L 82.461146 170.876896 
L 83.699151 163.644049 
L 84.937157 169.854238 
L 86.175162 162.536366 
L 87.413168 166.426881 
L 88.651173 149.888372 
L 89.889179 154.560076 
L 91.127184 147.221043 
L 92.365189 158.462941 
L 93.603195 157.669041 
L 94.8412 153.942189 
L 96.079206 161.548808 
L 97.317211 166.022482 
L 98.555217 175.343127 
L 99.793222 178.418681 
L 101.031227 180.173512 
L 102.269233 182.83464 
L 103.507238 184.68 
L 104.745244 181.823227 
L 105.983249 179.633369 
L 107.221255 172.39539 
L 108.45926 173.285634 
L 109.697266 175.200624 
L 110.935271 163.190061 
L 112.173276 147.476888 
L 113.411282 158.390379 
L 114.649287 154.199674 
L 115.887293 149.531412 
L 117.125298 152.718034 
L 118.363304 150.571043 
L 119.601309 135.604766 
L 120.839314 143.416361 
L 122.07732 142.20007 
L 123.315325 138.49167 
L 124.553331 138.064918 
L 125.791336 150.779101 
L 127.029342 148.746072 
L 128.267347 160.865591 
L 129.505352 163.270762 
L 130.743358 152.95293 
L 131.981363 161.427552 
L 133.219369 171.250046 
L 134.457374 154.092632 
L 135.69538 171.016095 
L 136.933385 171.48734 
L 138.171391 165.59399 
L 139.409396 150.959426 
L 140.647401 159.683469 
L 141.885407 164.99868 
L 143.123412 167.51477 
L 144.361418 154.945303 
L 145.599423 167.701892 
L 146.837429 134.532121 
L 148.075434 138.103784 
L 149.313439 137.888234 
L 150.551445 146.857473 
L 151.78945 146.058839 
L 153.027456 146.563173 
L 154.265461 149.868044 
L 155.503467 155.345067 
L 156.741472 148.511996 
L 157.979478 136.924408 
L 159.217483 148.247106 
L 160.455488 158.053697 
L 161.693494 155.686533 
L 162.931499 165.432191 
L 164.169505 146.216041 
L 165.40751 139.36857 
L 166.645516 142.459817 
L 167.883521 144.5852 
L 169.121526 143.842305 
L 170.359532 133.317061 
L 171.597537 138.233514 
L 172.835543 139.206522 
L 174.073548 150.532276 
L 175.311554 138.518458 
L 176.549559 128.396917 
L 177.787564 130.083137 
L 179.02557 133.219362 
L 180.263575 133.967128 
L 181.501581 135.724854 
L 182.739586 128.662342 
L 183.977592 122.430234 
L 185.215597 126.017205 
L 186.453603 120.6718 
L 187.691608 135.192949 
L 188.929613 135.79359 
L 190.167619 140.444308 
L 191.405624 139.617295 
L 192.64363 132.226127 
L 193.881635 139.516217 
L 195.119641 137.449107 
L 196.357646 136.212998 
L 197.595651 126.430463 
L 198.833657 136.832276 
L 200.071662 119.049421 
L 201.309668 133.357156 
L 202.547673 123.748473 
L 203.785679 124.493766 
L 205.023684 115.103254 
L 206.26169 121.385186 
L 207.499695 113.927966 
L 208.7377 122.50148 
L 209.975706 132.122862 
L 211.213711 131.397436 
L 212.451717 134.813164 
L 213.689722 127.413721 
L 214.927728 116.802271 
L 216.165733 129.624626 
L 217.403738 115.016055 
L 218.641744 121.135604 
L 219.879749 122.09641 
L 221.117755 101.254886 
L 223.593766 132.929498 
L 224.831771 113.979083 
L 226.069776 112.938359 
L 227.307782 107.852154 
L 228.545787 119.631635 
L 229.783793 104.161136 
L 231.021798 106.998601 
L 232.259804 117.442498 
L 233.497809 114.819316 
L 234.735815 98.874664 
L 235.97382 101.893684 
L 237.211825 106.608479 
L 238.449831 102.735657 
L 239.687836 112.060651 
L 240.925842 114.545219 
L 242.163847 119.083652 
L 243.401853 118.480887 
L 244.639858 112.933438 
L 245.877863 117.693336 
L 247.115869 108.883063 
L 248.353874 116.736033 
L 249.59188 120.027001 
L 250.829885 128.946776 
L 252.067891 108.047153 
L 253.305896 105.887277 
L 254.543901 102.363476 
L 255.781907 88.6325 
L 257.019912 97.366956 
L 258.257918 86.325487 
L 259.495923 97.152872 
L 260.733929 88.842683 
L 261.971934 90.880644 
L 263.20994 93.616472 
L 264.447945 95.896523 
L 265.68595 111.698386 
L 265.68595 111.698386 
" clip-path="url(#p29b50143e6)" style="fill: none; stroke: #8172b3; stroke-linecap: round"/>
   </g>
   <g id="line2d_6">
    <path d="M 81.22314 138.511314 
L 82.461146 123.510023 
L 83.699151 128.861267 
L 84.937157 132.803309 
L 86.175162 120.371101 
L 87.413168 113.890766 
L 88.651173 119.88584 
L 89.889179 117.796688 
L 91.127184 136.804096 
L 92.365189 125.982414 
L 93.603195 125.484156 
L 94.8412 115.008202 
L 96.079206 126.819765 
L 97.317211 125.384855 
L 98.555217 136.2479 
L 99.793222 140.665139 
L 101.031227 137.031997 
L 102.269233 139.99114 
L 104.745244 124.060852 
L 105.983249 138.62386 
L 107.221255 126.280641 
L 108.45926 135.582289 
L 109.697266 133.356697 
L 110.935271 108.432703 
L 112.173276 118.762464 
L 113.411282 121.080275 
L 114.649287 110.410005 
L 115.887293 108.639183 
L 117.125298 102.824322 
L 118.363304 106.868784 
L 119.601309 126.117289 
L 120.839314 110.9995 
L 122.07732 131.29314 
L 123.315325 122.748826 
L 124.553331 120.559751 
L 125.791336 116.01605 
L 127.029342 108.001976 
L 128.267347 103.002423 
L 129.505352 121.840043 
L 130.743358 120.147338 
L 131.981363 117.709265 
L 133.219369 118.27304 
L 134.457374 127.362231 
L 135.69538 121.191864 
L 136.933385 113.729861 
L 139.409396 96.240647 
L 140.647401 106.528809 
L 141.885407 123.574273 
L 143.123412 111.968482 
L 144.361418 108.64547 
L 145.599423 113.55084 
L 146.837429 112.453781 
L 148.075434 102.991266 
L 149.313439 104.020136 
L 150.551445 95.210708 
L 151.78945 100.876418 
L 153.027456 101.737824 
L 154.265461 112.809834 
L 155.503467 97.811674 
L 156.741472 89.722776 
L 157.979478 99.615199 
L 159.217483 95.324 
L 160.455488 95.911358 
L 161.693494 96.260403 
L 162.931499 107.184754 
L 165.40751 84.791164 
L 166.645516 88.759435 
L 167.883521 83.588143 
L 169.121526 88.356614 
L 170.359532 77.400182 
L 171.597537 71.40732 
L 172.835543 86.023384 
L 174.073548 84.890415 
L 175.311554 87.221509 
L 176.549559 100.831787 
L 177.787564 92.166863 
L 179.02557 88.977868 
L 180.263575 98.810501 
L 181.501581 89.208154 
L 182.739586 78.16092 
L 183.977592 76.414551 
L 185.215597 77.3392 
L 186.453603 78.642466 
L 187.691608 84.218492 
L 188.929613 69.233627 
L 190.167619 78.913308 
L 191.405624 98.070389 
L 192.64363 82.85325 
L 193.881635 95.142594 
L 195.119641 90.875127 
L 196.357646 96.406572 
L 197.595651 77.534497 
L 198.833657 83.681381 
L 200.071662 74.832963 
L 201.309668 86.864785 
L 202.547673 80.698096 
L 203.785679 92.943331 
L 205.023684 84.186858 
L 207.499695 71.578115 
L 208.7377 77.033245 
L 209.975706 78.341307 
L 211.213711 68.242901 
L 212.451717 70.573597 
L 213.689722 72.350035 
L 214.927728 89.214913 
L 216.165733 92.225261 
L 217.403738 83.789678 
L 218.641744 80.984369 
L 219.879749 91.376827 
L 221.117755 92.427019 
L 222.35576 85.298182 
L 223.593766 83.619554 
L 224.831771 77.213061 
L 226.069776 60.387346 
L 227.307782 69.857739 
L 228.545787 59.45559 
L 229.783793 50.400543 
L 231.021798 56.859793 
L 233.497809 62.868808 
L 234.735815 47.905066 
L 235.97382 51.937475 
L 237.211825 53.417127 
L 238.449831 59.197024 
L 239.687836 53.550846 
L 240.925842 62.508505 
L 242.163847 48.979462 
L 243.401853 64.741962 
L 244.639858 52.489993 
L 245.877863 52.845102 
L 247.115869 58.437653 
L 248.353874 55.314561 
L 249.59188 43.561358 
L 250.829885 33.48 
L 252.067891 50.270303 
L 253.305896 53.971236 
L 254.543901 47.59009 
L 255.781907 54.02618 
L 257.019912 44.611476 
L 258.257918 40.81067 
L 259.495923 39.865843 
L 260.733929 39.510883 
L 261.971934 39.845317 
L 263.20994 36.789071 
L 264.447945 37.380256 
L 265.68595 41.83728 
L 265.68595 41.83728 
" clip-path="url(#p29b50143e6)" style="fill: none; stroke: #937860; stroke-linecap: round"/>
   </g>
   <g id="line2d_7">
    <path d="M 81.22314 120.015508 
L 82.461146 119.960365 
L 83.699151 122.836882 
L 84.937157 122.985586 
L 86.175162 112.512402 
L 87.413168 117.441107 
L 88.651173 110.509083 
L 89.889179 115.136827 
L 91.127184 122.73896 
L 92.365189 123.016648 
L 93.603195 118.166532 
L 94.8412 125.830605 
L 96.079206 121.873218 
L 97.317211 113.138328 
L 98.555217 113.89084 
L 99.793222 121.285872 
L 101.031227 125.709336 
L 103.507238 121.254151 
L 104.745244 121.343425 
L 105.983249 125.570126 
L 107.221255 119.860667 
L 108.45926 119.002305 
L 109.697266 123.02721 
L 110.935271 133.891509 
L 112.173276 120.728956 
L 113.411282 111.805465 
L 114.649287 113.442196 
L 115.887293 114.012954 
L 117.125298 115.970798 
L 118.363304 112.457086 
L 119.601309 115.02187 
L 120.839314 105.54529 
L 122.07732 106.730418 
L 123.315325 109.239439 
L 124.553331 105.981559 
L 127.029342 120.393814 
L 128.267347 113.617662 
L 129.505352 114.956887 
L 130.743358 111.111574 
L 131.981363 106.307692 
L 133.219369 109.209569 
L 134.457374 105.792971 
L 135.69538 107.934333 
L 136.933385 106.315073 
L 138.171391 116.934089 
L 140.647401 111.704027 
L 141.885407 114.622304 
L 143.123412 108.179729 
L 144.361418 115.009072 
L 145.599423 111.17621 
L 146.837429 113.997721 
L 148.075434 117.450898 
L 149.313439 116.745675 
L 150.551445 107.462628 
L 151.78945 121.611509 
L 153.027456 114.59564 
L 154.265461 108.321573 
L 155.503467 97.475675 
L 156.741472 92.556563 
L 157.979478 98.677255 
L 159.217483 110.12977 
L 160.455488 106.976385 
L 161.693494 114.8303 
L 162.931499 115.564722 
L 164.169505 111.837472 
L 165.40751 121.701056 
L 166.645516 111.366686 
L 167.883521 120.349718 
L 169.121526 121.010185 
L 170.359532 115.275366 
L 171.597537 115.47454 
L 172.835543 119.681037 
L 174.073548 117.814207 
L 175.311554 127.897802 
L 176.549559 113.681006 
L 177.787564 133.171774 
L 179.02557 122.016069 
L 180.263575 121.331361 
L 181.501581 119.724177 
L 182.739586 107.220935 
L 183.977592 106.177651 
L 185.215597 99.400493 
L 186.453603 101.352597 
L 187.691608 100.202507 
L 188.929613 96.233888 
L 190.167619 103.643011 
L 191.405624 100.488955 
L 192.64363 103.285044 
L 193.881635 108.688585 
L 196.357646 102.592669 
L 197.595651 113.101351 
L 198.833657 106.159387 
L 200.071662 101.993234 
L 201.309668 98.283479 
L 202.547673 106.864311 
L 203.785679 102.443543 
L 205.023684 95.4401 
L 206.26169 104.251516 
L 207.499695 110.635918 
L 208.7377 101.463031 
L 209.975706 101.393053 
L 211.213711 97.81483 
L 212.451717 103.636276 
L 213.689722 107.975237 
L 214.927728 109.547829 
L 216.165733 102.500376 
L 217.403738 102.468766 
L 218.641744 111.361989 
L 219.879749 99.492712 
L 221.117755 92.547617 
L 222.35576 94.903312 
L 223.593766 102.368894 
L 224.831771 99.757018 
L 226.069776 103.908062 
L 227.307782 90.583038 
L 228.545787 101.982797 
L 229.783793 103.124562 
L 231.021798 90.198557 
L 232.259804 107.431366 
L 233.497809 110.97552 
L 234.735815 108.599373 
L 235.97382 94.703939 
L 237.211825 96.613027 
L 238.449831 84.526634 
L 239.687836 89.788629 
L 240.925842 96.322827 
L 242.163847 89.036514 
L 243.401853 93.044073 
L 244.639858 89.905201 
L 245.877863 92.661356 
L 247.115869 86.518722 
L 248.353874 114.101893 
L 249.59188 87.526445 
L 250.829885 85.502823 
L 252.067891 90.879103 
L 253.305896 97.291511 
L 254.543901 83.419684 
L 255.781907 94.005128 
L 257.019912 101.133593 
L 258.257918 87.645204 
L 259.495923 90.166749 
L 260.733929 102.589488 
L 261.971934 94.507275 
L 263.20994 93.540828 
L 264.447945 90.177285 
L 265.68595 93.025112 
L 265.68595 93.025112 
" clip-path="url(#p29b50143e6)" style="fill: none; stroke: #da8bc3; stroke-linecap: round"/>
   </g>
   <g id="patch_3">
    <path d="M 72 192.24 
L 72 25.92 
" style="fill: none; stroke: #ffffff; stroke-width: 1.25; stroke-linejoin: miter; stroke-linecap: square"/>
   </g>
   <g id="patch_4">
    <path d="M 274.909091 192.24 
L 274.909091 25.92 
" style="fill: none; stroke: #ffffff; stroke-width: 1.25; stroke-linejoin: miter; stroke-linecap: square"/>
   </g>
   <g id="patch_5">
    <path d="M 72 192.24 
L 274.909091 192.24 
" style="fill: none; stroke: #ffffff; stroke-width: 1.25; stroke-linejoin: miter; stroke-linecap: square"/>
   </g>
   <g id="patch_6">
    <path d="M 72 25.92 
L 274.909091 25.92 
" style="fill: none; stroke: #ffffff; stroke-width: 1.25; stroke-linejoin: miter; stroke-linecap: square"/>
   </g>
   <g id="text_10">
    <!-- Raw index -->
    <g style="fill: #262626" transform="translate(145.442045 19.92) scale(0.12 -0.12)">
     <defs>
      <path id="ArialMT-52" d="M 503 0 
L 503 4581 
L 2534 4581 
Q 3147 4581 3465 4457 
Q 3784 4334 3975 4021 
Q 4166 3709 4166 3331 
Q 4166 2844 3850 2509 
Q 3534 2175 2875 2084 
Q 3116 1969 3241 1856 
Q 3506 1613 3744 1247 
L 4541 0 
L 3778 0 
L 3172 953 
Q 2906 1366 2734 1584 
Q 2563 1803 2427 1890 
Q 2291 1978 2150 2013 
Q 2047 2034 1813 2034 
L 1109 2034 
L 1109 0 
L 503 0 
z
M 1109 2559 
L 2413 2559 
Q 2828 2559 3062 2645 
Q 3297 2731 3419 2920 
Q 3541 3109 3541 3331 
Q 3541 3656 3305 3865 
Q 3069 4075 2559 4075 
L 1109 4075 
L 1109 2559 
z
" transform="scale(0.015625)"/>
      <path id="ArialMT-77" d="M 1034 0 
L 19 3319 
L 600 3319 
L 1128 1403 
L 1325 691 
Q 1338 744 1497 1375 
L 2025 3319 
L 2603 3319 
L 3100 1394 
L 3266 759 
L 3456 1400 
L 4025 3319 
L 4572 3319 
L 3534 0 
L 2950 0 
L 2422 1988 
L 2294 2553 
L 1622 0 
L 1034 0 
z
" transform="scale(0.015625)"/>
      <path id="ArialMT-20" transform="scale(0.015625)"/>
      <path id="ArialMT-69" d="M 425 3934 
L 425 4581 
L 988 4581 
L 988 3934 
L 425 3934 
z
M 425 0 
L 425 3319 
L 988 3319 
L 988 0 
L 425 0 
z
" transform="scale(0.015625)"/>
      <path id="ArialMT-6e" d="M 422 0 
L 422 3319 
L 928 3319 
L 928 2847 
Q 1294 3394 1984 3394 
Q 2284 3394 2536 3286 
Q 2788 3178 2913 3003 
Q 3038 2828 3088 2588 
Q 3119 2431 3119 2041 
L 3119 0 
L 2556 0 
L 2556 2019 
Q 2556 2363 2490 2533 
Q 2425 2703 2258 2804 
Q 2091 2906 1866 2906 
Q 1506 2906 1245 2678 
Q 984 2450 984 1813 
L 984 0 
L 422 0 
z
" transform="scale(0.015625)"/>
      <path id="ArialMT-64" d="M 2575 0 
L 2575 419 
Q 2259 -75 1647 -75 
Q 1250 -75 917 144 
Q 584 363 401 755 
Q 219 1147 219 1656 
Q 219 2153 384 2558 
Q 550 2963 881 3178 
Q 1213 3394 1622 3394 
Q 1922 3394 2156 3267 
Q 2391 3141 2538 2938 
L 2538 4581 
L 3097 4581 
L 3097 0 
L 2575 0 
z
M 797 1656 
Q 797 1019 1065 703 
Q 1334 388 1700 388 
Q 2069 388 2326 689 
Q 2584 991 2584 1609 
Q 2584 2291 2321 2609 
Q 2059 2928 1675 2928 
Q 1300 2928 1048 2622 
Q 797 2316 797 1656 
z
" transform="scale(0.015625)"/>
      <path id="ArialMT-78" d="M 47 0 
L 1259 1725 
L 138 3319 
L 841 3319 
L 1350 2541 
Q 1494 2319 1581 2169 
Q 1719 2375 1834 2534 
L 2394 3319 
L 3066 3319 
L 1919 1756 
L 3153 0 
L 2463 0 
L 1781 1031 
L 1600 1309 
L 728 0 
L 47 0 
z
" transform="scale(0.015625)"/>
     </defs>
     <use xlink:href="#ArialMT-52"/>
     <use xlink:href="#ArialMT-61" transform="translate(72.216797 0)"/>
     <use xlink:href="#ArialMT-77" transform="translate(127.832031 0)"/>
     <use xlink:href="#ArialMT-20" transform="translate(200.048828 0)"/>
     <use xlink:href="#ArialMT-69" transform="translate(227.832031 0)"/>
     <use xlink:href="#ArialMT-6e" transform="translate(250.048828 0)"/>
     <use xlink:href="#ArialMT-64" transform="translate(305.664062 0)"/>
     <use xlink:href="#ArialMT-65" transform="translate(361.279297 0)"/>
     <use xlink:href="#ArialMT-78" transform="translate(416.894531 0)"/>
    </g>
   </g>
  </g>
  <g id="axes_2">
   <g id="patch_7">
    <path d="M 315.490909 192.24 
L 518.4 192.24 
L 518.4 25.92 
L 315.490909 25.92 
z
" style="fill: #ffffff"/>
   </g>
   <g id="matplotlib.axis_3">
    <g id="xtick_5">
     <g id="text_11">
      <!-- 1850 -->
      <g style="fill: #262626" transform="translate(312.479987 209.613594) scale(0.11 -0.11)">
       <use xlink:href="#ArialMT-31"/>
       <use xlink:href="#ArialMT-38" transform="translate(55.615234 0)"/>
       <use xlink:href="#ArialMT-35" transform="translate(111.230469 0)"/>
       <use xlink:href="#ArialMT-30" transform="translate(166.845703 0)"/>
      </g>
     </g>
    </g>
    <g id="xtick_6">
     <g id="text_12">
      <!-- 1900 -->
      <g style="fill: #262626" transform="translate(374.380259 209.613594) scale(0.11 -0.11)">
       <use xlink:href="#ArialMT-31"/>
       <use xlink:href="#ArialMT-39" transform="translate(55.615234 0)"/>
       <use xlink:href="#ArialMT-30" transform="translate(111.230469 0)"/>
       <use xlink:href="#ArialMT-30" transform="translate(166.845703 0)"/>
      </g>
     </g>
    </g>
    <g id="xtick_7">
     <g id="text_13">
      <!-- 1950 -->
      <g style="fill: #262626" transform="translate(436.280531 209.613594) scale(0.11 -0.11)">
       <use xlink:href="#ArialMT-31"/>
       <use xlink:href="#ArialMT-39" transform="translate(55.615234 0)"/>
       <use xlink:href="#ArialMT-35" transform="translate(111.230469 0)"/>
       <use xlink:href="#ArialMT-30" transform="translate(166.845703 0)"/>
      </g>
     </g>
    </g>
    <g id="xtick_8">
     <g id="text_14">
      <!-- 2000 -->
      <g style="fill: #262626" transform="translate(498.180802 209.613594) scale(0.11 -0.11)">
       <use xlink:href="#ArialMT-32"/>
       <use xlink:href="#ArialMT-30" transform="translate(55.615234 0)"/>
       <use xlink:href="#ArialMT-30" transform="translate(111.230469 0)"/>
       <use xlink:href="#ArialMT-30" transform="translate(166.845703 0)"/>
      </g>
     </g>
    </g>
    <g id="text_15">
     <!-- Year -->
     <g style="fill: #262626" transform="translate(404.81983 224.389219) scale(0.12 -0.12)">
      <use xlink:href="#ArialMT-59"/>
      <use xlink:href="#ArialMT-65" transform="translate(57.574219 0)"/>
      <use xlink:href="#ArialMT-61" transform="translate(113.189453 0)"/>
      <use xlink:href="#ArialMT-72" transform="translate(168.804688 0)"/>
     </g>
    </g>
   </g>
   <g id="matplotlib.axis_4">
    <g id="ytick_4">
     <g id="line2d_8">
      <defs>
       <path id="m9cc92fbc5a" d="M 0 0 
L 6 0 
" style="stroke: #262626; stroke-width: 1.25"/>
      </defs>
      <g>
       <use xlink:href="#m9cc92fbc5a" x="518.4" y="157.738627" style="fill: #262626; stroke: #262626; stroke-width: 1.25"/>
      </g>
     </g>
     <g id="text_16">
      <!-- 0 -->
      <g style="fill: #262626" transform="translate(527.9 161.675423) scale(0.11 -0.11)">
       <use xlink:href="#ArialMT-30"/>
      </g>
     </g>
    </g>
    <g id="ytick_5">
     <g id="line2d_9">
      <g>
       <use xlink:href="#m9cc92fbc5a" x="518.4" y="104.957434" style="fill: #262626; stroke: #262626; stroke-width: 1.25"/>
      </g>
     </g>
     <g id="text_17">
      <!-- 3 -->
      <g style="fill: #262626" transform="translate(527.9 108.894231) scale(0.11 -0.11)">
       <defs>
        <path id="ArialMT-33" d="M 269 1209 
L 831 1284 
Q 928 806 1161 595 
Q 1394 384 1728 384 
Q 2125 384 2398 659 
Q 2672 934 2672 1341 
Q 2672 1728 2419 1979 
Q 2166 2231 1775 2231 
Q 1616 2231 1378 2169 
L 1441 2663 
Q 1497 2656 1531 2656 
Q 1891 2656 2178 2843 
Q 2466 3031 2466 3422 
Q 2466 3731 2256 3934 
Q 2047 4138 1716 4138 
Q 1388 4138 1169 3931 
Q 950 3725 888 3313 
L 325 3413 
Q 428 3978 793 4289 
Q 1159 4600 1703 4600 
Q 2078 4600 2393 4439 
Q 2709 4278 2876 4000 
Q 3044 3722 3044 3409 
Q 3044 3113 2884 2869 
Q 2725 2625 2413 2481 
Q 2819 2388 3044 2092 
Q 3269 1797 3269 1353 
Q 3269 753 2831 336 
Q 2394 -81 1725 -81 
Q 1122 -81 723 278 
Q 325 638 269 1209 
z
" transform="scale(0.015625)"/>
       </defs>
       <use xlink:href="#ArialMT-33"/>
      </g>
     </g>
    </g>
    <g id="ytick_6">
     <g id="line2d_10">
      <g>
       <use xlink:href="#m9cc92fbc5a" x="518.4" y="52.176242" style="fill: #262626; stroke: #262626; stroke-width: 1.25"/>
      </g>
     </g>
     <g id="text_18">
      <!-- 6 -->
      <g style="fill: #262626" transform="translate(527.9 56.113039) scale(0.11 -0.11)">
       <use xlink:href="#ArialMT-36"/>
      </g>
     </g>
    </g>
    <g id="text_19">
     <!-- $^{\circ}$C -->
     <g style="fill: #262626" transform="translate(546.606406 116.28) rotate(-90) scale(0.12 -0.12)">
      <use xlink:href="#DejaVuSans-2218" transform="translate(0.957031 38.484375) scale(0.7)"/>
      <use xlink:href="#ArialMT-43" transform="translate(47.509766 0.203125)"/>
     </g>
    </g>
   </g>
   <g id="line2d_11">
    <path d="M 324.71405 171.850075 
L 325.952055 155.011083 
L 327.19006 175.270612 
L 328.428066 167.613791 
L 329.666071 166.589687 
L 330.904077 167.835035 
L 332.142082 158.950551 
L 333.380088 166.40945 
L 334.618093 166.401464 
L 335.856099 153.476739 
L 338.332109 160.254859 
L 339.570115 160.775267 
L 340.80812 153.463047 
L 342.046126 147.889167 
L 343.284131 149.095756 
L 344.522137 159.03129 
L 345.760142 151.460511 
L 346.998147 157.227615 
L 348.236153 158.480983 
L 349.474158 141.697327 
L 350.712164 152.410822 
L 351.950169 159.904487 
L 353.188175 163.395729 
L 354.42618 152.972338 
L 355.664185 155.377429 
L 356.902191 157.234997 
L 358.140196 151.537793 
L 359.378202 148.667933 
L 360.616207 145.112227 
L 361.854213 145.358269 
L 363.092218 140.997958 
L 364.330224 145.164643 
L 365.568229 140.932219 
L 366.806234 140.694599 
L 368.04424 153.827346 
L 369.282245 146.263278 
L 370.520251 136.64825 
L 371.758256 133.953861 
L 372.996262 142.283172 
L 374.234267 143.011937 
L 375.472272 147.694467 
L 376.710278 139.597743 
L 377.948283 138.021217 
L 379.186289 148.989111 
L 380.424294 143.205664 
L 381.6623 141.446016 
L 382.900305 136.009788 
L 384.13831 143.310028 
L 385.376316 134.1593 
L 386.614321 132.260086 
L 387.852327 132.007265 
L 389.090332 141.29729 
L 390.328338 146.087001 
L 391.566343 134.408665 
L 392.804349 134.092789 
L 394.042354 143.388418 
L 395.280359 133.575435 
L 396.518365 131.294775 
L 397.75637 145.153972 
L 398.994376 142.3672 
L 400.232381 139.203511 
L 401.470387 130.155334 
L 402.708392 132.225354 
L 403.946397 137.966418 
L 405.184403 126.509828 
L 406.422408 122.191061 
L 407.660414 130.565741 
L 408.898419 137.151745 
L 410.136425 141.24286 
L 411.37443 118.749013 
L 412.612436 144.261446 
L 413.850441 148.967768 
L 415.088446 151.261985 
L 416.326452 149.29012 
L 417.564457 127.954507 
L 418.802463 127.376213 
L 420.040468 140.228789 
L 421.278474 131.271721 
L 422.516479 129.909023 
L 423.754484 125.579215 
L 424.99249 133.000261 
L 426.230495 128.603205 
L 427.468501 137.018388 
L 428.706506 137.756986 
L 429.944512 132.579989 
L 431.182517 129.344521 
L 432.420522 134.209233 
L 433.658528 134.961724 
L 434.896533 121.122762 
L 436.134539 133.677181 
L 437.372544 136.832279 
L 438.61055 124.308531 
L 439.848555 135.674348 
L 441.086561 130.290772 
L 442.324566 131.937566 
L 443.562571 118.561226 
L 444.800577 117.884743 
L 446.038582 139.544252 
L 447.276588 139.055254 
L 448.514593 138.883977 
L 449.752599 140.718995 
L 450.990604 130.777588 
L 452.228609 136.915736 
L 453.466615 127.052216 
L 454.70462 128.342833 
L 455.942626 111.785958 
L 457.180631 126.145462 
L 458.418637 151.187253 
L 459.656642 152.826833 
L 460.894648 144.366313 
L 462.132653 150.010463 
L 463.370658 142.900829 
L 464.608664 130.118421 
L 465.846669 129.68939 
L 467.084675 128.633507 
L 468.32268 140.143721 
L 469.560686 127.932023 
L 470.798691 143.656306 
L 472.036696 131.112625 
L 473.274702 141.134134 
L 474.512707 143.520902 
L 475.750713 136.675566 
L 476.988718 131.679779 
L 478.226724 115.153307 
L 480.702734 128.541962 
L 481.94074 116.832921 
L 483.178745 135.297163 
L 484.416751 137.286378 
L 485.654756 129.171901 
L 486.892762 129.412004 
L 488.130767 120.063322 
L 489.368773 119.405094 
L 490.606778 130.804837 
L 491.844783 133.677516 
L 493.082789 139.845094 
L 494.320794 138.800319 
L 495.5588 124.81857 
L 496.796805 126.383686 
L 498.034811 126.7752 
L 499.272816 131.279976 
L 500.510821 124.358163 
L 501.748827 118.745322 
L 502.986832 107.215644 
L 504.224838 109.123214 
L 505.462843 125.600524 
L 506.700849 135.270921 
L 507.938854 125.135654 
L 509.17686 111.638775 
L 509.17686 111.638775 
" clip-path="url(#p2871ce8c57)" style="fill: none; stroke: #4c72b0; stroke-linecap: round"/>
   </g>
   <g id="line2d_12">
    <path d="M 324.71405 167.750571 
L 325.952055 175.624911 
L 327.19006 171.163021 
L 328.428066 168.774709 
L 329.666071 165.785854 
L 332.142082 164.338557 
L 333.380088 165.461421 
L 335.856099 152.118001 
L 337.094104 155.209407 
L 338.332109 154.355003 
L 339.570115 161.428093 
L 340.80812 159.594752 
L 342.046126 151.271415 
L 343.284131 156.112369 
L 344.522137 159.180822 
L 345.760142 156.31529 
L 346.998147 156.22284 
L 348.236153 150.23513 
L 349.474158 152.059711 
L 350.712164 155.545182 
L 351.950169 145.726562 
L 353.188175 156.581971 
L 354.42618 157.808829 
L 355.664185 154.261075 
L 356.902191 163.002269 
L 358.140196 144.469771 
L 359.378202 145.362699 
L 360.616207 142.463039 
L 361.854213 151.521988 
L 363.092218 146.852714 
L 364.330224 147.445874 
L 365.568229 158.151215 
L 366.806234 145.404679 
L 368.04424 134.873803 
L 369.282245 136.298415 
L 370.520251 138.366992 
L 371.758256 131.999043 
L 372.996262 142.647739 
L 374.234267 144.029867 
L 375.472272 152.557334 
L 376.710278 150.571475 
L 377.948283 145.696528 
L 379.186289 150.233485 
L 380.424294 149.167535 
L 381.6623 141.188295 
L 382.900305 142.885426 
L 384.13831 141.257524 
L 385.376316 143.179926 
L 386.614321 140.568625 
L 387.852327 125.489952 
L 389.090332 144.80266 
L 390.328338 154.957391 
L 391.566343 149.164045 
L 392.804349 161.804002 
L 394.042354 156.738852 
L 395.280359 145.770824 
L 396.518365 147.500338 
L 397.75637 140.50547 
L 398.994376 135.440151 
L 400.232381 145.663944 
L 401.470387 135.45438 
L 402.708392 145.892704 
L 403.946397 139.905128 
L 405.184403 135.255149 
L 406.422408 123.168654 
L 407.660414 133.832585 
L 408.898419 140.998629 
L 410.136425 136.540061 
L 411.37443 131.128666 
L 412.612436 140.539531 
L 413.850441 138.238803 
L 415.088446 145.873576 
L 416.326452 139.853886 
L 417.564457 133.26617 
L 418.802463 137.750006 
L 420.040468 141.240645 
L 421.278474 131.629275 
L 422.516479 126.765099 
L 423.754484 135.437702 
L 424.99249 129.076833 
L 426.230495 124.049636 
L 427.468501 140.087378 
L 428.706506 153.925535 
L 429.944512 138.44847 
L 431.182517 141.95035 
L 432.420522 140.621075 
L 433.658528 144.592222 
L 434.896533 139.245961 
L 436.134539 132.214952 
L 437.372544 148.048061 
L 438.61055 144.567691 
L 439.848555 142.093875 
L 441.086561 141.776455 
L 442.324566 131.917902 
L 443.562571 145.300618 
L 444.800577 134.244703 
L 446.038582 132.68046 
L 447.276588 128.21065 
L 448.514593 135.226189 
L 449.752599 119.965569 
L 450.990604 116.564227 
L 452.228609 125.931635 
L 453.466615 125.468476 
L 454.70462 118.225317 
L 455.942626 123.268219 
L 457.180631 125.587269 
L 458.418637 125.793546 
L 459.656642 138.620619 
L 460.894648 133.110967 
L 462.132653 136.159655 
L 463.370658 127.686149 
L 464.608664 135.774517 
L 465.846669 130.369061 
L 467.084675 139.445929 
L 468.32268 128.000917 
L 469.560686 133.405131 
L 470.798691 125.783076 
L 472.036696 128.713474 
L 473.274702 133.6801 
L 474.512707 128.957738 
L 475.750713 134.046815 
L 476.988718 131.446555 
L 478.226724 119.327576 
L 479.464729 126.229893 
L 480.702734 114.701624 
L 481.94074 117.710144 
L 483.178745 124.905953 
L 484.416751 138.090681 
L 485.654756 120.249431 
L 486.892762 120.422218 
L 488.130767 121.00464 
L 489.368773 122.607038 
L 490.606778 125.541765 
L 491.844783 112.670799 
L 493.082789 124.147825 
L 494.320794 120.663764 
L 495.5588 119.682781 
L 496.796805 126.857986 
L 498.034811 122.871302 
L 499.272816 105.176497 
L 500.510821 112.190492 
L 501.748827 108.607504 
L 502.986832 115.842777 
L 504.224838 121.331186 
L 505.462843 117.922025 
L 506.700849 109.957618 
L 507.938854 109.338451 
L 509.17686 138.0686 
L 509.17686 138.0686 
" clip-path="url(#p2871ce8c57)" style="fill: none; stroke: #dd8452; stroke-linecap: round"/>
   </g>
   <g id="line2d_13">
    <path d="M 324.71405 167.31013 
L 325.952055 164.613527 
L 327.19006 163.599725 
L 329.666071 169.335419 
L 330.904077 178.436499 
L 332.142082 178.206815 
L 333.380088 171.552924 
L 334.618093 151.015305 
L 335.856099 145.599278 
L 337.094104 142.483073 
L 338.332109 145.372531 
L 339.570115 140.930575 
L 340.80812 151.790749 
L 343.284131 160.634091 
L 344.522137 161.996554 
L 345.760142 154.049127 
L 346.998147 153.991543 
L 348.236153 155.066184 
L 349.474158 162.052595 
L 350.712164 165.209606 
L 351.950169 164.246208 
L 353.188175 164.885744 
L 354.42618 160.894664 
L 355.664185 149.22569 
L 356.902191 143.965202 
L 358.140196 144.639336 
L 359.378202 149.864958 
L 360.616207 148.533234 
L 363.092218 157.070398 
L 364.330224 143.23298 
L 365.568229 144.383058 
L 366.806234 155.50847 
L 368.04424 157.629934 
L 369.282245 148.221351 
L 370.520251 149.481599 
L 371.758256 149.365725 
L 372.996262 139.615226 
L 374.234267 142.661598 
L 375.472272 139.79006 
L 376.710278 140.142748 
L 377.948283 143.774026 
L 379.186289 143.31741 
L 380.424294 144.86662 
L 381.6623 153.735466 
L 382.900305 140.986313 
L 384.13831 151.126078 
L 385.376316 153.37704 
L 386.614321 143.183617 
L 387.852327 147.005937 
L 389.090332 134.268529 
L 390.328338 130.841314 
L 391.566343 135.15941 
L 392.804349 140.349562 
L 394.042354 137.280304 
L 395.280359 132.24522 
L 396.518365 137.966116 
L 397.75637 134.460511 
L 398.994376 138.430785 
L 400.232381 134.054869 
L 401.470387 138.248535 
L 402.708392 136.181501 
L 403.946397 126.481002 
L 405.184403 137.391412 
L 406.422408 135.708107 
L 407.660414 135.056054 
L 408.898419 132.038608 
L 410.136425 133.547112 
L 411.37443 126.761307 
L 412.612436 118.402567 
L 413.850441 123.642585 
L 415.088446 122.558279 
L 416.326452 125.025954 
L 417.564457 137.918934 
L 418.802463 132.181998 
L 420.040468 128.703306 
L 421.278474 123.836782 
L 422.516479 124.675951 
L 423.754484 126.210933 
L 424.99249 122.225725 
L 426.230495 128.117663 
L 427.468501 120.821148 
L 428.706506 130.878663 
L 429.944512 126.014186 
L 431.182517 115.393577 
L 432.420522 113.50131 
L 433.658528 117.282623 
L 434.896533 111.992269 
L 436.134539 122.693348 
L 437.372544 117.29873 
L 438.61055 127.669739 
L 439.848555 122.814087 
L 441.086561 111.377162 
L 442.324566 119.960535 
L 443.562571 114.414407 
L 444.800577 98.875294 
L 446.038582 113.898999 
L 447.276588 112.492106 
L 448.514593 108.493308 
L 449.752599 121.096151 
L 450.990604 121.629142 
L 452.228609 107.532023 
L 453.466615 112.607275 
L 454.70462 120.274263 
L 455.942626 112.981607 
L 457.180631 118.432567 
L 458.418637 116.090464 
L 459.656642 116.123316 
L 460.894648 106.364998 
L 462.132653 107.565816 
L 463.370658 93.406112 
L 464.608664 97.936526 
L 465.846669 103.702455 
L 467.084675 103.677489 
L 468.32268 89.411677 
L 469.560686 97.230378 
L 470.798691 99.20335 
L 472.036696 98.38002 
L 473.274702 102.678385 
L 474.512707 97.274271 
L 475.750713 89.230131 
L 476.988718 94.27904 
L 478.226724 106.476073 
L 479.464729 92.532613 
L 480.702734 101.364446 
L 481.94074 88.232638 
L 484.416751 98.997845 
L 485.654756 87.439073 
L 486.892762 96.113051 
L 488.130767 101.573944 
L 489.368773 100.74548 
L 490.606778 86.738529 
L 491.844783 102.796003 
L 493.082789 89.081539 
L 494.320794 97.755584 
L 495.5588 85.610867 
L 496.796805 91.362568 
L 498.034811 87.282494 
L 499.272816 88.829624 
L 500.510821 83.463027 
L 501.748827 90.733133 
L 502.986832 79.367718 
L 504.224838 85.973656 
L 505.462843 93.690007 
L 506.700849 76.223459 
L 507.938854 87.641189 
L 509.17686 89.826144 
L 509.17686 89.826144 
" clip-path="url(#p2871ce8c57)" style="fill: none; stroke: #55a868; stroke-linecap: round"/>
   </g>
   <g id="line2d_14">
    <path d="M 324.71405 173.701536 
L 325.952055 159.489986 
L 327.19006 155.807735 
L 328.428066 170.543468 
L 329.666071 158.81649 
L 330.904077 155.290045 
L 332.142082 152.272667 
L 333.380088 154.023422 
L 334.618093 165.138364 
L 335.856099 164.857237 
L 337.094104 160.956259 
L 338.332109 165.413098 
L 339.570115 174.105164 
L 340.80812 170.169186 
L 342.046126 168.487743 
L 343.284131 156.591367 
L 344.522137 156.75063 
L 345.760142 154.957391 
L 346.998147 159.342149 
L 348.236153 158.589138 
L 349.474158 148.039772 
L 350.712164 148.698101 
L 351.950169 160.788606 
L 353.188175 159.898631 
L 354.42618 144.449871 
L 355.664185 145.053166 
L 356.902191 135.233102 
L 358.140196 151.709507 
L 359.378202 149.576398 
L 360.616207 153.407174 
L 361.854213 157.91138 
L 363.092218 147.749266 
L 364.330224 147.173824 
L 365.568229 154.312016 
L 366.806234 145.784112 
L 368.04424 149.683513 
L 369.282245 157.169359 
L 370.520251 154.527857 
L 371.758256 155.387865 
L 372.996262 163.430747 
L 374.234267 162.205667 
L 375.472272 163.662276 
L 376.710278 155.966663 
L 377.948283 154.607052 
L 379.186289 168.631603 
L 380.424294 159.924521 
L 381.6623 153.149319 
L 382.900305 144.333259 
L 384.13831 140.289729 
L 385.376316 146.704759 
L 386.614321 142.231091 
L 387.852327 139.710428 
L 389.090332 144.987393 
L 390.328338 141.246652 
L 391.566343 132.597573 
L 392.804349 147.654601 
L 394.042354 142.430355 
L 395.280359 129.844324 
L 396.518365 141.539071 
L 397.75637 132.98157 
L 398.994376 145.480351 
L 400.232381 140.253756 
L 401.470387 141.638904 
L 402.708392 134.162555 
L 403.946397 124.755918 
L 405.184403 129.869526 
L 406.422408 136.345898 
L 407.660414 116.948425 
L 408.898419 122.437003 
L 410.136425 132.419719 
L 411.37443 131.465078 
L 412.612436 126.652279 
L 413.850441 126.623084 
L 415.088446 138.036452 
L 416.326452 134.096212 
L 417.564457 129.216667 
L 418.802463 123.531074 
L 420.040468 123.917084 
L 421.278474 115.627271 
L 422.516479 128.097428 
L 423.754484 107.775482 
L 424.99249 106.428355 
L 426.230495 109.120294 
L 427.468501 120.984673 
L 428.706506 123.610471 
L 429.944512 145.999182 
L 431.182517 139.730093 
L 432.420522 125.531866 
L 433.658528 139.386633 
L 434.896533 141.05665 
L 436.134539 132.121863 
L 437.372544 132.918113 
L 438.61055 132.584016 
L 439.848555 131.169505 
L 441.086561 132.516666 
L 442.324566 133.363218 
L 443.562571 117.238696 
L 444.800577 120.023858 
L 446.038582 121.733707 
L 447.276588 111.598372 
L 448.514593 129.542744 
L 449.752599 115.235757 
L 450.990604 105.267639 
L 452.228609 122.401331 
L 453.466615 146.225493 
L 454.70462 145.791864 
L 455.942626 147.653359 
L 457.180631 140.242984 
L 458.418637 138.832098 
L 459.656642 138.443 
L 460.894648 157.827352 
L 462.132653 156.945196 
L 463.370658 150.989936 
L 464.608664 141.451821 
L 465.846669 115.04703 
L 467.084675 125.120016 
L 468.32268 120.810409 
L 469.560686 108.599618 
L 470.798691 107.05967 
L 472.036696 105.027233 
L 473.274702 94.012896 
L 474.512707 102.246266 
L 475.750713 107.817295 
L 476.988718 107.509271 
L 478.226724 117.126145 
L 479.464729 115.834454 
L 480.702734 126.486372 
L 481.94074 121.235045 
L 483.178745 115.180455 
L 484.416751 117.48145 
L 485.654756 118.833947 
L 486.892762 117.917763 
L 488.130767 110.399468 
L 489.368773 101.340385 
L 490.606778 102.175527 
L 491.844783 110.292789 
L 493.082789 111.622198 
L 494.320794 118.306593 
L 495.5588 108.948648 
L 496.796805 113.86571 
L 498.034811 112.197237 
L 499.272816 100.584606 
L 500.510821 101.856195 
L 501.748827 93.681215 
L 502.986832 116.837182 
L 504.224838 95.62261 
L 505.462843 116.328989 
L 506.700849 101.106289 
L 507.938854 117.317657 
L 509.17686 111.18622 
L 509.17686 111.18622 
" clip-path="url(#p2871ce8c57)" style="fill: none; stroke: #c44e52; stroke-linecap: round"/>
   </g>
   <g id="line2d_15">
    <path d="M 324.71405 137.75051 
L 325.952055 166.040437 
L 327.19006 156.273276 
L 328.428066 164.65945 
L 329.666071 154.777473 
L 330.904077 160.031183 
L 332.142082 137.697757 
L 333.380088 144.006377 
L 334.618093 134.095826 
L 335.856099 149.276764 
L 337.094104 148.20469 
L 338.332109 143.171989 
L 339.570115 153.443886 
L 340.80812 159.485087 
L 342.046126 172.071587 
L 343.284131 176.224782 
L 344.522137 178.594487 
L 345.760142 182.188046 
L 346.998147 184.68 
L 348.236153 180.822244 
L 349.474158 177.865084 
L 350.712164 168.090994 
L 351.950169 169.29317 
L 353.188175 171.879152 
L 354.42618 155.660217 
L 355.664185 134.441316 
L 356.902191 149.178777 
L 358.140196 143.519694 
L 359.378202 137.215723 
L 360.616207 141.518903 
L 361.854213 138.619629 
L 363.092218 118.409329 
L 364.330224 128.958024 
L 365.568229 127.315558 
L 366.806234 122.307773 
L 368.04424 121.731492 
L 369.282245 138.900588 
L 370.520251 136.155209 
L 371.758256 152.521276 
L 372.996262 155.769194 
L 374.234267 141.836104 
L 375.472272 153.280143 
L 376.710278 166.544334 
L 377.948283 143.375146 
L 379.186289 166.228408 
L 380.424294 166.864774 
L 381.6623 158.906457 
L 382.900305 139.144097 
L 384.13831 150.924952 
L 385.376316 158.102556 
L 386.614321 161.500258 
L 387.852327 144.526583 
L 389.090332 161.752945 
L 390.328338 116.960841 
L 391.566343 121.783976 
L 392.804349 121.492899 
L 394.042354 133.604865 
L 395.280359 132.526398 
L 396.518365 133.207445 
L 397.75637 137.670308 
L 398.994376 145.066421 
L 400.232381 135.839115 
L 401.470387 120.19136 
L 402.708392 135.48141 
L 403.946397 148.724125 
L 405.184403 145.527533 
L 406.422408 158.687965 
L 407.660414 132.738682 
L 408.898419 123.491929 
L 410.136425 127.666316 
L 411.37443 130.536412 
L 412.612436 129.533214 
L 413.850441 115.320036 
L 415.088446 121.959162 
L 416.326452 123.273102 
L 417.564457 138.567279 
L 418.802463 122.343948 
L 420.040468 108.675927 
L 421.278474 110.95298 
L 422.516479 115.188106 
L 423.754484 116.197881 
L 424.99249 118.571495 
L 426.230495 109.034354 
L 427.468501 100.618583 
L 428.706506 105.462389 
L 429.944512 98.244012 
L 431.182517 117.853216 
L 432.420522 118.664314 
L 433.658528 124.944595 
L 434.896533 123.827805 
L 436.134539 113.846851 
L 437.372544 123.69131 
L 438.61055 120.899907 
L 439.848555 119.230679 
L 441.086561 106.020448 
L 442.324566 120.066946 
L 443.562571 96.053168 
L 444.800577 115.374181 
L 446.038582 102.398718 
L 447.276588 103.405154 
L 448.514593 90.724307 
L 449.752599 99.207361 
L 450.990604 89.137211 
L 452.228609 100.714792 
L 453.466615 113.707403 
L 454.70462 112.727796 
L 455.942626 117.340358 
L 457.180631 107.34823 
L 458.418637 93.018642 
L 459.656642 110.333813 
L 460.894648 90.606554 
L 462.132653 98.870327 
L 463.370658 100.167789 
L 464.608664 72.023619 
L 467.084675 114.796676 
L 468.32268 89.206238 
L 469.560686 87.800855 
L 470.798691 80.932499 
L 472.036696 96.839384 
L 473.274702 75.948188 
L 474.512707 79.77987 
L 475.750713 93.883197 
L 476.988718 90.34088 
L 478.226724 68.809393 
L 479.464729 72.886245 
L 480.702734 79.253053 
L 481.94074 74.023236 
L 483.178745 86.615609 
L 484.416751 89.970742 
L 485.654756 96.099394 
L 486.892762 95.285426 
L 488.130767 87.794211 
L 489.368773 94.221925 
L 490.606778 82.324627 
L 491.844783 92.929195 
L 493.082789 97.373282 
L 494.320794 109.418451 
L 495.5588 81.195824 
L 496.796805 78.279151 
L 498.034811 73.520647 
L 499.272816 54.978484 
L 500.510821 66.773399 
L 501.748827 51.863118 
L 502.986832 66.484302 
L 504.224838 55.262312 
L 505.462843 58.014353 
L 506.700849 61.708786 
L 507.938854 64.787742 
L 509.17686 86.126409 
L 509.17686 86.126409 
" clip-path="url(#p2871ce8c57)" style="fill: none; stroke: #8172b3; stroke-linecap: round"/>
   </g>
   <g id="line2d_16">
    <path d="M 324.71405 175.313163 
L 325.952055 155.05558 
L 327.19006 162.281843 
L 328.428066 167.605133 
L 329.666071 150.816813 
L 330.904077 142.065838 
L 332.142082 150.161522 
L 333.380088 147.340353 
L 334.618093 173.007754 
L 335.856099 158.394271 
L 337.094104 157.721428 
L 338.332109 143.574812 
L 339.570115 159.52502 
L 340.80812 157.587333 
L 342.046126 172.256673 
L 343.284131 178.221664 
L 344.522137 173.315509 
L 345.760142 177.311504 
L 348.236153 155.799413 
L 349.474158 175.465144 
L 350.712164 158.796993 
L 351.950169 171.357838 
L 353.188175 168.352423 
L 354.42618 134.695328 
L 355.664185 148.644527 
L 356.902191 151.774474 
L 358.140196 137.365456 
L 359.378202 134.974157 
L 360.616207 127.121831 
L 361.854213 132.583428 
L 363.092218 158.576403 
L 364.330224 138.161504 
L 365.568229 165.565818 
L 366.806234 154.027667 
L 368.04424 151.071564 
L 369.282245 144.935799 
L 370.520251 134.113678 
L 371.758256 127.362337 
L 372.996262 152.800457 
L 374.234267 150.514646 
L 375.472272 147.222298 
L 376.710278 147.983614 
L 377.948283 160.257561 
L 379.186289 151.925163 
L 380.424294 141.848553 
L 382.900305 118.231307 
L 384.13831 132.12433 
L 385.376316 155.142343 
L 386.614321 139.470007 
L 387.852327 134.982647 
L 389.090332 141.606806 
L 390.328338 140.125349 
L 391.566343 127.347269 
L 392.804349 128.736645 
L 394.042354 116.840488 
L 395.280359 124.491402 
L 396.518365 125.654635 
L 397.75637 140.606159 
L 398.994376 120.352804 
L 400.232381 109.429643 
L 401.470387 122.788265 
L 402.708392 116.993476 
L 403.946397 117.786638 
L 405.184403 118.257985 
L 406.422408 133.010111 
L 408.898419 102.770047 
L 410.136425 108.128757 
L 411.37443 101.1455 
L 412.612436 107.584792 
L 413.850441 92.789344 
L 415.088446 84.696647 
L 416.326452 104.434023 
L 417.564457 102.904075 
L 418.802463 106.051958 
L 420.040468 124.431133 
L 421.278474 112.730112 
L 422.516479 108.423727 
L 423.754484 121.70161 
L 424.99249 108.734703 
L 426.230495 93.816636 
L 427.468501 91.458358 
L 428.706506 92.706994 
L 429.944512 94.466911 
L 431.182517 101.996717 
L 432.420522 81.761316 
L 433.658528 94.832653 
L 434.896533 120.70217 
L 436.134539 100.153108 
L 437.372544 116.748507 
L 438.61055 110.985765 
L 439.848555 118.455369 
L 441.086561 92.970722 
L 442.324566 101.271408 
L 443.562571 89.322598 
L 444.800577 105.570242 
L 446.038582 97.242811 
L 447.276588 113.778645 
L 448.514593 101.953998 
L 450.990604 84.927287 
L 452.228609 92.293836 
L 453.466615 94.060229 
L 454.70462 80.42345 
L 455.942626 83.570797 
L 457.180631 85.969679 
L 458.418637 108.743831 
L 459.656642 112.808971 
L 460.894648 101.417651 
L 462.132653 97.629392 
L 463.370658 111.663255 
L 464.608664 113.081424 
L 465.846669 103.454718 
L 467.084675 101.187917 
L 468.32268 92.536657 
L 469.560686 69.815392 
L 470.798691 82.604109 
L 472.036696 68.557159 
L 473.274702 56.32932 
L 474.512707 65.051822 
L 476.988718 73.166332 
L 478.226724 52.959454 
L 479.464729 58.404776 
L 480.702734 60.402883 
L 481.94074 68.207994 
L 483.178745 60.583456 
L 484.416751 72.679783 
L 485.654756 54.410307 
L 486.892762 75.69582 
L 488.130767 59.150891 
L 489.368773 59.630426 
L 490.606778 67.182548 
L 491.844783 62.965157 
L 493.082789 47.093759 
L 494.320794 33.48 
L 495.5588 56.153445 
L 496.796805 61.151146 
L 498.034811 52.534114 
L 499.272816 61.225341 
L 500.510821 48.511826 
L 501.748827 43.379259 
L 502.986832 42.103374 
L 504.224838 41.62404 
L 505.462843 42.075655 
L 506.700849 37.948534 
L 507.938854 38.746864 
L 509.17686 44.765581 
L 509.17686 44.765581 
" clip-path="url(#p2871ce8c57)" style="fill: none; stroke: #937860; stroke-linecap: round"/>
   </g>
   <g id="line2d_17">
    <path d="M 324.71405 158.190728 
L 325.952055 158.116264 
L 327.19006 162.000682 
L 328.428066 162.201489 
L 329.666071 148.058615 
L 330.904077 154.714285 
L 332.142082 145.353353 
L 333.380088 151.60261 
L 334.618093 161.868449 
L 335.856099 162.243436 
L 337.094104 155.693892 
L 338.332109 166.043373 
L 339.570115 160.69936 
L 340.80812 148.903858 
L 342.046126 149.920043 
L 343.284131 159.906215 
L 344.522137 165.879613 
L 346.998147 159.863379 
L 348.236153 159.983934 
L 349.474158 165.691625 
L 350.712164 157.981632 
L 351.950169 156.82251 
L 353.188175 162.257698 
L 354.42618 176.928732 
L 355.664185 159.154161 
L 356.902191 147.103975 
L 358.140196 149.314198 
L 359.378202 150.084944 
L 360.616207 152.728795 
L 361.854213 147.983916 
L 363.092218 151.447373 
L 364.330224 138.6503 
L 365.568229 140.250685 
L 366.806234 143.63884 
L 368.04424 139.239434 
L 370.520251 158.701589 
L 371.758256 149.551146 
L 372.996262 151.359621 
L 374.234267 146.166952 
L 375.472272 139.679841 
L 376.710278 143.598504 
L 377.948283 138.984767 
L 379.186289 141.87644 
L 380.424294 139.689807 
L 381.6623 154.029613 
L 384.13831 146.966993 
L 385.376316 150.907804 
L 386.614321 142.207819 
L 387.852327 151.430091 
L 389.090332 146.254235 
L 390.328338 150.064373 
L 391.566343 154.727506 
L 392.804349 153.775181 
L 394.042354 141.239454 
L 395.280359 160.345951 
L 396.518365 150.871797 
L 397.75637 142.399364 
L 398.994376 127.753179 
L 400.232381 121.110463 
L 401.470387 129.375779 
L 402.708392 144.841133 
L 403.946397 140.582836 
L 405.184403 151.188679 
L 406.422408 152.180434 
L 407.660414 147.147196 
L 408.898419 160.466875 
L 410.136425 146.511452 
L 411.37443 158.642042 
L 412.612436 159.53393 
L 413.850441 151.789692 
L 415.088446 152.058654 
L 416.326452 157.739063 
L 417.564457 155.218115 
L 418.802463 168.834894 
L 420.040468 149.636684 
L 421.278474 175.95681 
L 422.516479 160.892265 
L 423.754484 159.967642 
L 424.99249 157.797318 
L 426.230495 140.913074 
L 427.468501 139.504235 
L 428.706506 130.352433 
L 429.944512 132.988533 
L 431.182517 131.435464 
L 432.420522 126.076284 
L 433.658528 136.081483 
L 434.896533 131.82228 
L 436.134539 135.598089 
L 437.372544 142.894973 
L 439.848555 134.663113 
L 441.086561 148.853925 
L 442.324566 139.47957 
L 443.562571 133.853642 
L 444.800577 128.844029 
L 446.038582 140.431493 
L 447.276588 134.461736 
L 448.514593 125.00436 
L 449.752599 136.903203 
L 450.990604 145.52463 
L 452.228609 133.137662 
L 453.466615 133.043165 
L 454.70462 128.21117 
L 455.942626 136.072389 
L 457.180631 141.931675 
L 458.418637 144.055287 
L 459.656642 134.538481 
L 460.894648 134.495796 
L 462.132653 146.50511 
L 463.370658 130.476965 
L 464.608664 121.098382 
L 465.846669 124.279487 
L 467.084675 134.360929 
L 468.32268 130.833881 
L 469.560686 136.439406 
L 470.798691 118.445436 
L 472.036696 133.839548 
L 473.274702 135.381376 
L 474.512707 117.926237 
L 475.750713 141.197238 
L 476.988718 145.983225 
L 478.226724 142.774502 
L 479.464729 124.010257 
L 480.702734 126.588269 
L 481.94074 110.266933 
L 483.178745 117.372674 
L 484.416751 126.196385 
L 485.654756 116.357027 
L 486.892762 121.768791 
L 488.130767 117.530092 
L 489.368773 121.251974 
L 490.606778 112.957027 
L 491.844783 150.205045 
L 493.082789 114.317845 
L 494.320794 111.585167 
L 495.5588 118.845239 
L 496.796805 127.504486 
L 498.034811 108.772119 
L 499.272816 123.066589 
L 500.510821 132.692792 
L 501.748827 114.478216 
L 502.986832 117.883283 
L 504.224838 134.658818 
L 505.462843 123.744683 
L 506.700849 122.439603 
L 507.938854 117.897512 
L 509.17686 121.743187 
L 509.17686 121.743187 
" clip-path="url(#p2871ce8c57)" style="fill: none; stroke: #da8bc3; stroke-linecap: round"/>
   </g>
   <g id="line2d_18">
    <path d="M 324.71405 164.552388 
L 325.952055 161.993113 
L 327.19006 163.770985 
L 328.428066 166.838889 
L 329.666071 159.168622 
L 330.904077 160.495197 
L 332.142082 155.283032 
L 333.380088 157.199508 
L 334.618093 158.624251 
L 335.856099 155.137961 
L 337.094104 153.861273 
L 338.332109 154.026524 
L 339.570115 158.701052 
L 340.80812 157.284859 
L 343.284131 162.398035 
L 344.522137 164.964129 
L 345.760142 162.732707 
L 346.998147 162.511917 
L 348.236153 159.853861 
L 349.474158 160.41018 
L 350.712164 158.104761 
L 351.950169 161.162769 
L 353.188175 163.89305 
L 354.42618 154.772854 
L 355.664185 149.451052 
L 356.902191 149.641828 
L 358.140196 146.079393 
L 359.378202 145.106688 
L 360.616207 144.412172 
L 361.854213 146.68631 
L 363.092218 145.871921 
L 364.330224 141.255307 
L 365.568229 147.272938 
L 366.806234 143.909448 
L 368.04424 144.008155 
L 369.282245 145.87233 
L 370.520251 143.999311 
L 371.758256 142.877322 
L 372.996262 149.700879 
L 374.234267 147.203825 
L 375.472272 149.126631 
L 376.710278 149.200726 
L 377.948283 146.388043 
L 379.186289 153.028803 
L 380.424294 149.366782 
L 381.6623 147.55215 
L 382.900305 138.888279 
L 385.376316 148.796247 
L 386.614321 143.060215 
L 387.852327 139.307557 
L 389.090332 144.995693 
L 390.328338 140.040417 
L 391.566343 136.455493 
L 392.804349 141.129383 
L 394.042354 138.788962 
L 395.280359 136.971364 
L 396.518365 138.290597 
L 397.75637 139.11105 
L 398.994376 136.412984 
L 400.232381 132.222185 
L 401.470387 131.121793 
L 402.708392 135.111161 
L 403.946397 133.743153 
L 405.184403 134.857159 
L 406.422408 137.327462 
L 407.660414 130.579369 
L 408.898419 131.336405 
L 410.136425 132.293755 
L 411.37443 128.34686 
L 412.612436 132.358252 
L 413.850441 128.195902 
L 416.326452 133.38748 
L 417.564457 132.149393 
L 418.802463 131.152871 
L 420.040468 130.976225 
L 421.278474 128.857851 
L 422.516479 127.707371 
L 423.754484 127.552924 
L 424.99249 125.119242 
L 426.230495 119.093551 
L 427.468501 121.498965 
L 428.706506 124.95621 
L 429.944512 124.105897 
L 431.182517 125.386277 
L 432.420522 120.052201 
L 433.658528 127.440276 
L 434.896533 127.109985 
L 436.134539 124.329341 
L 437.372544 131.204568 
L 438.61055 128.536113 
L 439.848555 129.157283 
L 441.086561 123.400878 
L 442.324566 125.428163 
L 443.562571 116.392052 
L 444.800577 117.259577 
L 446.038582 121.132921 
L 447.276588 120.428845 
L 448.514593 118.546985 
L 449.752599 118.035202 
L 450.990604 113.40396 
L 452.228609 116.989575 
L 453.466615 121.737751 
L 454.70462 119.142385 
L 455.942626 118.953239 
L 457.180631 120.808266 
L 458.418637 125.388731 
L 459.656642 129.09929 
L 460.894648 124.02709 
L 462.132653 127.669422 
L 463.370658 122.470149 
L 464.608664 115.926389 
L 465.846669 114.188096 
L 467.084675 121.031779 
L 468.32268 112.991922 
L 469.560686 108.746121 
L 470.798691 108.240629 
L 472.036696 108.924206 
L 473.274702 105.594911 
L 474.512707 104.965295 
L 475.750713 110.292386 
L 476.988718 110.629294 
L 478.226724 103.232354 
L 479.464729 101.711228 
L 480.702734 105.334082 
L 481.94074 99.501273 
L 483.178745 104.82211 
L 484.416751 111.529034 
L 485.654756 103.223008 
L 486.892762 108.087868 
L 488.130767 102.502368 
L 489.368773 102.743184 
L 490.606778 101.10355 
L 491.844783 109.362356 
L 493.082789 103.354503 
L 494.320794 104.287121 
L 495.5588 99.32219 
L 496.796805 103.629254 
L 498.034811 97.707585 
L 499.272816 95.020163 
L 500.510821 95.692271 
L 501.748827 88.783965 
L 502.986832 92.247749 
L 504.224838 91.942264 
L 505.462843 96.768033 
L 506.700849 92.093607 
L 507.938854 94.409297 
L 509.17686 100.479269 
L 509.17686 100.479269 
" clip-path="url(#p2871ce8c57)" style="fill: none; stroke: #1a1a1a; stroke-width: 2; stroke-linecap: round"/>
   </g>
   <g id="patch_8">
    <path d="M 315.490909 192.24 
L 315.490909 25.92 
" style="fill: none; stroke: #ffffff; stroke-width: 1.25; stroke-linejoin: miter; stroke-linecap: square"/>
   </g>
   <g id="patch_9">
    <path d="M 518.4 192.24 
L 518.4 25.92 
" style="fill: none; stroke: #ffffff; stroke-width: 1.25; stroke-linejoin: miter; stroke-linecap: square"/>
   </g>
   <g id="patch_10">
    <path d="M 315.490909 192.24 
L 518.4 192.24 
" style="fill: none; stroke: #ffffff; stroke-width: 1.25; stroke-linejoin: miter; stroke-linecap: square"/>
   </g>
   <g id="patch_11">
    <path d="M 315.490909 25.92 
L 518.4 25.92 
" style="fill: none; stroke: #ffffff; stroke-width: 1.25; stroke-linejoin: miter; stroke-linecap: square"/>
   </g>
   <g id="text_20">
    <!-- Change from first 30 yrs -->
    <g style="fill: #262626" transform="translate(352.92733 19.92) scale(0.12 -0.12)">
     <defs>
      <path id="ArialMT-68" d="M 422 0 
L 422 4581 
L 984 4581 
L 984 2938 
Q 1378 3394 1978 3394 
Q 2347 3394 2619 3248 
Q 2891 3103 3008 2847 
Q 3125 2591 3125 2103 
L 3125 0 
L 2563 0 
L 2563 2103 
Q 2563 2525 2380 2717 
Q 2197 2909 1863 2909 
Q 1613 2909 1392 2779 
Q 1172 2650 1078 2428 
Q 984 2206 984 1816 
L 984 0 
L 422 0 
z
" transform="scale(0.015625)"/>
      <path id="ArialMT-67" d="M 319 -275 
L 866 -356 
Q 900 -609 1056 -725 
Q 1266 -881 1628 -881 
Q 2019 -881 2231 -725 
Q 2444 -569 2519 -288 
Q 2563 -116 2559 434 
Q 2191 0 1641 0 
Q 956 0 581 494 
Q 206 988 206 1678 
Q 206 2153 378 2554 
Q 550 2956 876 3175 
Q 1203 3394 1644 3394 
Q 2231 3394 2613 2919 
L 2613 3319 
L 3131 3319 
L 3131 450 
Q 3131 -325 2973 -648 
Q 2816 -972 2473 -1159 
Q 2131 -1347 1631 -1347 
Q 1038 -1347 672 -1080 
Q 306 -813 319 -275 
z
M 784 1719 
Q 784 1066 1043 766 
Q 1303 466 1694 466 
Q 2081 466 2343 764 
Q 2606 1063 2606 1700 
Q 2606 2309 2336 2618 
Q 2066 2928 1684 2928 
Q 1309 2928 1046 2623 
Q 784 2319 784 1719 
z
" transform="scale(0.015625)"/>
      <path id="ArialMT-66" d="M 556 0 
L 556 2881 
L 59 2881 
L 59 3319 
L 556 3319 
L 556 3672 
Q 556 4006 616 4169 
Q 697 4388 901 4523 
Q 1106 4659 1475 4659 
Q 1713 4659 2000 4603 
L 1916 4113 
Q 1741 4144 1584 4144 
Q 1328 4144 1222 4034 
Q 1116 3925 1116 3625 
L 1116 3319 
L 1763 3319 
L 1763 2881 
L 1116 2881 
L 1116 0 
L 556 0 
z
" transform="scale(0.015625)"/>
      <path id="ArialMT-6f" d="M 213 1659 
Q 213 2581 725 3025 
Q 1153 3394 1769 3394 
Q 2453 3394 2887 2945 
Q 3322 2497 3322 1706 
Q 3322 1066 3130 698 
Q 2938 331 2570 128 
Q 2203 -75 1769 -75 
Q 1072 -75 642 372 
Q 213 819 213 1659 
z
M 791 1659 
Q 791 1022 1069 705 
Q 1347 388 1769 388 
Q 2188 388 2466 706 
Q 2744 1025 2744 1678 
Q 2744 2294 2464 2611 
Q 2184 2928 1769 2928 
Q 1347 2928 1069 2612 
Q 791 2297 791 1659 
z
" transform="scale(0.015625)"/>
      <path id="ArialMT-6d" d="M 422 0 
L 422 3319 
L 925 3319 
L 925 2853 
Q 1081 3097 1340 3245 
Q 1600 3394 1931 3394 
Q 2300 3394 2536 3241 
Q 2772 3088 2869 2813 
Q 3263 3394 3894 3394 
Q 4388 3394 4653 3120 
Q 4919 2847 4919 2278 
L 4919 0 
L 4359 0 
L 4359 2091 
Q 4359 2428 4304 2576 
Q 4250 2725 4106 2815 
Q 3963 2906 3769 2906 
Q 3419 2906 3187 2673 
Q 2956 2441 2956 1928 
L 2956 0 
L 2394 0 
L 2394 2156 
Q 2394 2531 2256 2718 
Q 2119 2906 1806 2906 
Q 1569 2906 1367 2781 
Q 1166 2656 1075 2415 
Q 984 2175 984 1722 
L 984 0 
L 422 0 
z
" transform="scale(0.015625)"/>
      <path id="ArialMT-73" d="M 197 991 
L 753 1078 
Q 800 744 1014 566 
Q 1228 388 1613 388 
Q 2000 388 2187 545 
Q 2375 703 2375 916 
Q 2375 1106 2209 1216 
Q 2094 1291 1634 1406 
Q 1016 1563 777 1677 
Q 538 1791 414 1992 
Q 291 2194 291 2438 
Q 291 2659 392 2848 
Q 494 3038 669 3163 
Q 800 3259 1026 3326 
Q 1253 3394 1513 3394 
Q 1903 3394 2198 3281 
Q 2494 3169 2634 2976 
Q 2775 2784 2828 2463 
L 2278 2388 
Q 2241 2644 2061 2787 
Q 1881 2931 1553 2931 
Q 1166 2931 1000 2803 
Q 834 2675 834 2503 
Q 834 2394 903 2306 
Q 972 2216 1119 2156 
Q 1203 2125 1616 2013 
Q 2213 1853 2448 1751 
Q 2684 1650 2818 1456 
Q 2953 1263 2953 975 
Q 2953 694 2789 445 
Q 2625 197 2315 61 
Q 2006 -75 1616 -75 
Q 969 -75 630 194 
Q 291 463 197 991 
z
" transform="scale(0.015625)"/>
      <path id="ArialMT-74" d="M 1650 503 
L 1731 6 
Q 1494 -44 1306 -44 
Q 1000 -44 831 53 
Q 663 150 594 308 
Q 525 466 525 972 
L 525 2881 
L 113 2881 
L 113 3319 
L 525 3319 
L 525 4141 
L 1084 4478 
L 1084 3319 
L 1650 3319 
L 1650 2881 
L 1084 2881 
L 1084 941 
Q 1084 700 1114 631 
Q 1144 563 1211 522 
Q 1278 481 1403 481 
Q 1497 481 1650 503 
z
" transform="scale(0.015625)"/>
      <path id="ArialMT-79" d="M 397 -1278 
L 334 -750 
Q 519 -800 656 -800 
Q 844 -800 956 -737 
Q 1069 -675 1141 -563 
Q 1194 -478 1313 -144 
Q 1328 -97 1363 -6 
L 103 3319 
L 709 3319 
L 1400 1397 
Q 1534 1031 1641 628 
Q 1738 1016 1872 1384 
L 2581 3319 
L 3144 3319 
L 1881 -56 
Q 1678 -603 1566 -809 
Q 1416 -1088 1222 -1217 
Q 1028 -1347 759 -1347 
Q 597 -1347 397 -1278 
z
" transform="scale(0.015625)"/>
     </defs>
     <use xlink:href="#ArialMT-43"/>
     <use xlink:href="#ArialMT-68" transform="translate(72.216797 0)"/>
     <use xlink:href="#ArialMT-61" transform="translate(127.832031 0)"/>
     <use xlink:href="#ArialMT-6e" transform="translate(183.447266 0)"/>
     <use xlink:href="#ArialMT-67" transform="translate(239.0625 0)"/>
     <use xlink:href="#ArialMT-65" transform="translate(294.677734 0)"/>
     <use xlink:href="#ArialMT-20" transform="translate(350.292969 0)"/>
     <use xlink:href="#ArialMT-66" transform="translate(378.076172 0)"/>
     <use xlink:href="#ArialMT-72" transform="translate(405.859375 0)"/>
     <use xlink:href="#ArialMT-6f" transform="translate(439.160156 0)"/>
     <use xlink:href="#ArialMT-6d" transform="translate(494.775391 0)"/>
     <use xlink:href="#ArialMT-20" transform="translate(578.076172 0)"/>
     <use xlink:href="#ArialMT-66" transform="translate(605.859375 0)"/>
     <use xlink:href="#ArialMT-69" transform="translate(633.642578 0)"/>
     <use xlink:href="#ArialMT-72" transform="translate(655.859375 0)"/>
     <use xlink:href="#ArialMT-73" transform="translate(689.160156 0)"/>
     <use xlink:href="#ArialMT-74" transform="translate(739.160156 0)"/>
     <use xlink:href="#ArialMT-20" transform="translate(766.943359 0)"/>
     <use xlink:href="#ArialMT-33" transform="translate(794.726562 0)"/>
     <use xlink:href="#ArialMT-30" transform="translate(850.341797 0)"/>
     <use xlink:href="#ArialMT-20" transform="translate(905.957031 0)"/>
     <use xlink:href="#ArialMT-79" transform="translate(933.740234 0)"/>
     <use xlink:href="#ArialMT-72" transform="translate(983.740234 0)"/>
     <use xlink:href="#ArialMT-73" transform="translate(1017.041016 0)"/>
    </g>
   </g>
   <g id="legend_1">
    <g id="patch_12">
     <path d="M 320.390909 110.73375 
L 399.194503 110.73375 
Q 400.594503 110.73375 400.594503 109.33375 
L 400.594503 30.82 
Q 400.594503 29.42 399.194503 29.42 
L 320.390909 29.42 
Q 318.990909 29.42 318.990909 30.82 
L 318.990909 109.33375 
Q 318.990909 110.73375 320.390909 110.73375 
z
" style="fill: #ffffff; opacity: 0.8; stroke: #cccccc; stroke-linejoin: miter"/>
    </g>
    <g id="line2d_19">
     <path d="M 321.790909 34.780469 
L 328.790909 34.780469 
L 335.790909 34.780469 
" style="fill: none; stroke: #4c72b0; stroke-linecap: round"/>
    </g>
    <g id="text_21">
     <!-- CESM2 -->
     <g style="fill: #262626" transform="translate(341.390909 37.230469) scale(0.07 -0.07)">
      <defs>
       <path id="ArialMT-45" d="M 506 0 
L 506 4581 
L 3819 4581 
L 3819 4041 
L 1113 4041 
L 1113 2638 
L 3647 2638 
L 3647 2100 
L 1113 2100 
L 1113 541 
L 3925 541 
L 3925 0 
L 506 0 
z
" transform="scale(0.015625)"/>
       <path id="ArialMT-53" d="M 288 1472 
L 859 1522 
Q 900 1178 1048 958 
Q 1197 738 1509 602 
Q 1822 466 2213 466 
Q 2559 466 2825 569 
Q 3091 672 3220 851 
Q 3350 1031 3350 1244 
Q 3350 1459 3225 1620 
Q 3100 1781 2813 1891 
Q 2628 1963 1997 2114 
Q 1366 2266 1113 2400 
Q 784 2572 623 2826 
Q 463 3081 463 3397 
Q 463 3744 659 4045 
Q 856 4347 1234 4503 
Q 1613 4659 2075 4659 
Q 2584 4659 2973 4495 
Q 3363 4331 3572 4012 
Q 3781 3694 3797 3291 
L 3216 3247 
Q 3169 3681 2898 3903 
Q 2628 4125 2100 4125 
Q 1550 4125 1298 3923 
Q 1047 3722 1047 3438 
Q 1047 3191 1225 3031 
Q 1400 2872 2139 2705 
Q 2878 2538 3153 2413 
Q 3553 2228 3743 1945 
Q 3934 1663 3934 1294 
Q 3934 928 3725 604 
Q 3516 281 3123 101 
Q 2731 -78 2241 -78 
Q 1619 -78 1198 103 
Q 778 284 539 648 
Q 300 1013 288 1472 
z
" transform="scale(0.015625)"/>
       <path id="ArialMT-4d" d="M 475 0 
L 475 4581 
L 1388 4581 
L 2472 1338 
Q 2622 884 2691 659 
Q 2769 909 2934 1394 
L 4031 4581 
L 4847 4581 
L 4847 0 
L 4263 0 
L 4263 3834 
L 2931 0 
L 2384 0 
L 1059 3900 
L 1059 0 
L 475 0 
z
" transform="scale(0.015625)"/>
      </defs>
      <use xlink:href="#ArialMT-43"/>
      <use xlink:href="#ArialMT-45" transform="translate(72.216797 0)"/>
      <use xlink:href="#ArialMT-53" transform="translate(138.916016 0)"/>
      <use xlink:href="#ArialMT-4d" transform="translate(205.615234 0)"/>
      <use xlink:href="#ArialMT-32" transform="translate(288.916016 0)"/>
     </g>
    </g>
    <g id="line2d_20">
     <path d="M 321.790909 44.682187 
L 328.790909 44.682187 
L 335.790909 44.682187 
" style="fill: none; stroke: #dd8452; stroke-linecap: round"/>
    </g>
    <g id="text_22">
     <!-- CESM2-WACCM -->
     <g style="fill: #262626" transform="translate(341.390909 47.132187) scale(0.07 -0.07)">
      <defs>
       <path id="ArialMT-2d" d="M 203 1375 
L 203 1941 
L 1931 1941 
L 1931 1375 
L 203 1375 
z
" transform="scale(0.015625)"/>
       <path id="ArialMT-57" d="M 1294 0 
L 78 4581 
L 700 4581 
L 1397 1578 
Q 1509 1106 1591 641 
Q 1766 1375 1797 1488 
L 2669 4581 
L 3400 4581 
L 4056 2263 
Q 4303 1400 4413 641 
Q 4500 1075 4641 1638 
L 5359 4581 
L 5969 4581 
L 4713 0 
L 4128 0 
L 3163 3491 
Q 3041 3928 3019 4028 
Q 2947 3713 2884 3491 
L 1913 0 
L 1294 0 
z
" transform="scale(0.015625)"/>
       <path id="ArialMT-41" d="M -9 0 
L 1750 4581 
L 2403 4581 
L 4278 0 
L 3588 0 
L 3053 1388 
L 1138 1388 
L 634 0 
L -9 0 
z
M 1313 1881 
L 2866 1881 
L 2388 3150 
Q 2169 3728 2063 4100 
Q 1975 3659 1816 3225 
L 1313 1881 
z
" transform="scale(0.015625)"/>
      </defs>
      <use xlink:href="#ArialMT-43"/>
      <use xlink:href="#ArialMT-45" transform="translate(72.216797 0)"/>
      <use xlink:href="#ArialMT-53" transform="translate(138.916016 0)"/>
      <use xlink:href="#ArialMT-4d" transform="translate(205.615234 0)"/>
      <use xlink:href="#ArialMT-32" transform="translate(288.916016 0)"/>
      <use xlink:href="#ArialMT-2d" transform="translate(344.53125 0)"/>
      <use xlink:href="#ArialMT-57" transform="translate(377.832031 0)"/>
      <use xlink:href="#ArialMT-41" transform="translate(468.466797 0)"/>
      <use xlink:href="#ArialMT-43" transform="translate(535.166016 0)"/>
      <use xlink:href="#ArialMT-43" transform="translate(607.382812 0)"/>
      <use xlink:href="#ArialMT-4d" transform="translate(679.599609 0)"/>
     </g>
    </g>
    <g id="line2d_21">
     <path d="M 321.790909 54.583906 
L 328.790909 54.583906 
L 335.790909 54.583906 
" style="fill: none; stroke: #55a868; stroke-linecap: round"/>
    </g>
    <g id="text_23">
     <!-- ACCESS-ESM1-5 -->
     <g style="fill: #262626" transform="translate(341.390909 57.033906) scale(0.07 -0.07)">
      <use xlink:href="#ArialMT-41"/>
      <use xlink:href="#ArialMT-43" transform="translate(66.699219 0)"/>
      <use xlink:href="#ArialMT-43" transform="translate(138.916016 0)"/>
      <use xlink:href="#ArialMT-45" transform="translate(211.132812 0)"/>
      <use xlink:href="#ArialMT-53" transform="translate(277.832031 0)"/>
      <use xlink:href="#ArialMT-53" transform="translate(344.53125 0)"/>
      <use xlink:href="#ArialMT-2d" transform="translate(411.230469 0)"/>
      <use xlink:href="#ArialMT-45" transform="translate(444.53125 0)"/>
      <use xlink:href="#ArialMT-53" transform="translate(511.230469 0)"/>
      <use xlink:href="#ArialMT-4d" transform="translate(577.929688 0)"/>
      <use xlink:href="#ArialMT-31" transform="translate(661.230469 0)"/>
      <use xlink:href="#ArialMT-2d" transform="translate(716.845703 0)"/>
      <use xlink:href="#ArialMT-35" transform="translate(750.146484 0)"/>
     </g>
    </g>
    <g id="line2d_22">
     <path d="M 321.790909 64.485625 
L 328.790909 64.485625 
L 335.790909 64.485625 
" style="fill: none; stroke: #c44e52; stroke-linecap: round"/>
    </g>
    <g id="text_24">
     <!-- MIROC6 -->
     <g style="fill: #262626" transform="translate(341.390909 66.935625) scale(0.07 -0.07)">
      <defs>
       <path id="ArialMT-49" d="M 597 0 
L 597 4581 
L 1203 4581 
L 1203 0 
L 597 0 
z
" transform="scale(0.015625)"/>
       <path id="ArialMT-4f" d="M 309 2231 
Q 309 3372 921 4017 
Q 1534 4663 2503 4663 
Q 3138 4663 3647 4359 
Q 4156 4056 4423 3514 
Q 4691 2972 4691 2284 
Q 4691 1588 4409 1038 
Q 4128 488 3612 205 
Q 3097 -78 2500 -78 
Q 1853 -78 1343 234 
Q 834 547 571 1087 
Q 309 1628 309 2231 
z
M 934 2222 
Q 934 1394 1379 917 
Q 1825 441 2497 441 
Q 3181 441 3623 922 
Q 4066 1403 4066 2288 
Q 4066 2847 3877 3264 
Q 3688 3681 3323 3911 
Q 2959 4141 2506 4141 
Q 1863 4141 1398 3698 
Q 934 3256 934 2222 
z
" transform="scale(0.015625)"/>
      </defs>
      <use xlink:href="#ArialMT-4d"/>
      <use xlink:href="#ArialMT-49" transform="translate(83.300781 0)"/>
      <use xlink:href="#ArialMT-52" transform="translate(111.083984 0)"/>
      <use xlink:href="#ArialMT-4f" transform="translate(183.300781 0)"/>
      <use xlink:href="#ArialMT-43" transform="translate(261.083984 0)"/>
      <use xlink:href="#ArialMT-36" transform="translate(333.300781 0)"/>
     </g>
    </g>
    <g id="line2d_23">
     <path d="M 321.790909 74.387344 
L 328.790909 74.387344 
L 335.790909 74.387344 
" style="fill: none; stroke: #8172b3; stroke-linecap: round"/>
    </g>
    <g id="text_25">
     <!-- MPI-ESM1-2-LR -->
     <g style="fill: #262626" transform="translate(341.390909 76.837344) scale(0.07 -0.07)">
      <defs>
       <path id="ArialMT-50" d="M 494 0 
L 494 4581 
L 2222 4581 
Q 2678 4581 2919 4538 
Q 3256 4481 3484 4323 
Q 3713 4166 3852 3881 
Q 3991 3597 3991 3256 
Q 3991 2672 3619 2267 
Q 3247 1863 2275 1863 
L 1100 1863 
L 1100 0 
L 494 0 
z
M 1100 2403 
L 2284 2403 
Q 2872 2403 3119 2622 
Q 3366 2841 3366 3238 
Q 3366 3525 3220 3729 
Q 3075 3934 2838 4000 
Q 2684 4041 2272 4041 
L 1100 4041 
L 1100 2403 
z
" transform="scale(0.015625)"/>
       <path id="ArialMT-4c" d="M 469 0 
L 469 4581 
L 1075 4581 
L 1075 541 
L 3331 541 
L 3331 0 
L 469 0 
z
" transform="scale(0.015625)"/>
      </defs>
      <use xlink:href="#ArialMT-4d"/>
      <use xlink:href="#ArialMT-50" transform="translate(83.300781 0)"/>
      <use xlink:href="#ArialMT-49" transform="translate(150 0)"/>
      <use xlink:href="#ArialMT-2d" transform="translate(177.783203 0)"/>
      <use xlink:href="#ArialMT-45" transform="translate(211.083984 0)"/>
      <use xlink:href="#ArialMT-53" transform="translate(277.783203 0)"/>
      <use xlink:href="#ArialMT-4d" transform="translate(344.482422 0)"/>
      <use xlink:href="#ArialMT-31" transform="translate(427.783203 0)"/>
      <use xlink:href="#ArialMT-2d" transform="translate(483.398438 0)"/>
      <use xlink:href="#ArialMT-32" transform="translate(516.699219 0)"/>
      <use xlink:href="#ArialMT-2d" transform="translate(572.314453 0)"/>
      <use xlink:href="#ArialMT-4c" transform="translate(605.615234 0)"/>
      <use xlink:href="#ArialMT-52" transform="translate(661.230469 0)"/>
     </g>
    </g>
    <g id="line2d_24">
     <path d="M 321.790909 84.289062 
L 328.790909 84.289062 
L 335.790909 84.289062 
" style="fill: none; stroke: #937860; stroke-linecap: round"/>
    </g>
    <g id="text_26">
     <!-- IPSL-CM6A-LR -->
     <g style="fill: #262626" transform="translate(341.390909 86.739062) scale(0.07 -0.07)">
      <use xlink:href="#ArialMT-49"/>
      <use xlink:href="#ArialMT-50" transform="translate(27.783203 0)"/>
      <use xlink:href="#ArialMT-53" transform="translate(94.482422 0)"/>
      <use xlink:href="#ArialMT-4c" transform="translate(161.181641 0)"/>
      <use xlink:href="#ArialMT-2d" transform="translate(216.796875 0)"/>
      <use xlink:href="#ArialMT-43" transform="translate(250.097656 0)"/>
      <use xlink:href="#ArialMT-4d" transform="translate(322.314453 0)"/>
      <use xlink:href="#ArialMT-36" transform="translate(405.615234 0)"/>
      <use xlink:href="#ArialMT-41" transform="translate(461.230469 0)"/>
      <use xlink:href="#ArialMT-2d" transform="translate(527.929688 0)"/>
      <use xlink:href="#ArialMT-4c" transform="translate(561.230469 0)"/>
      <use xlink:href="#ArialMT-52" transform="translate(616.845703 0)"/>
     </g>
    </g>
    <g id="line2d_25">
     <path d="M 321.790909 94.190781 
L 328.790909 94.190781 
L 335.790909 94.190781 
" style="fill: none; stroke: #da8bc3; stroke-linecap: round"/>
    </g>
    <g id="text_27">
     <!-- GISS-E2-2-G -->
     <g style="fill: #262626" transform="translate(341.390909 96.640781) scale(0.07 -0.07)">
      <defs>
       <path id="ArialMT-47" d="M 2638 1797 
L 2638 2334 
L 4578 2338 
L 4578 638 
Q 4131 281 3656 101 
Q 3181 -78 2681 -78 
Q 2006 -78 1454 211 
Q 903 500 622 1047 
Q 341 1594 341 2269 
Q 341 2938 620 3517 
Q 900 4097 1425 4378 
Q 1950 4659 2634 4659 
Q 3131 4659 3532 4498 
Q 3934 4338 4162 4050 
Q 4391 3763 4509 3300 
L 3963 3150 
Q 3859 3500 3706 3700 
Q 3553 3900 3268 4020 
Q 2984 4141 2638 4141 
Q 2222 4141 1919 4014 
Q 1616 3888 1430 3681 
Q 1244 3475 1141 3228 
Q 966 2803 966 2306 
Q 966 1694 1177 1281 
Q 1388 869 1791 669 
Q 2194 469 2647 469 
Q 3041 469 3416 620 
Q 3791 772 3984 944 
L 3984 1797 
L 2638 1797 
z
" transform="scale(0.015625)"/>
      </defs>
      <use xlink:href="#ArialMT-47"/>
      <use xlink:href="#ArialMT-49" transform="translate(77.783203 0)"/>
      <use xlink:href="#ArialMT-53" transform="translate(105.566406 0)"/>
      <use xlink:href="#ArialMT-53" transform="translate(172.265625 0)"/>
      <use xlink:href="#ArialMT-2d" transform="translate(238.964844 0)"/>
      <use xlink:href="#ArialMT-45" transform="translate(272.265625 0)"/>
      <use xlink:href="#ArialMT-32" transform="translate(338.964844 0)"/>
      <use xlink:href="#ArialMT-2d" transform="translate(394.580078 0)"/>
      <use xlink:href="#ArialMT-32" transform="translate(427.880859 0)"/>
      <use xlink:href="#ArialMT-2d" transform="translate(483.496094 0)"/>
      <use xlink:href="#ArialMT-47" transform="translate(516.796875 0)"/>
     </g>
    </g>
    <g id="line2d_26">
     <path d="M 321.790909 104.0925 
L 328.790909 104.0925 
L 335.790909 104.0925 
" style="fill: none; stroke: #1a1a1a; stroke-width: 2; stroke-linecap: round"/>
    </g>
    <g id="text_28">
     <!-- mean -->
     <g style="fill: #262626" transform="translate(341.390909 106.5425) scale(0.07 -0.07)">
      <use xlink:href="#ArialMT-6d"/>
      <use xlink:href="#ArialMT-65" transform="translate(83.300781 0)"/>
      <use xlink:href="#ArialMT-61" transform="translate(138.916016 0)"/>
      <use xlink:href="#ArialMT-6e" transform="translate(194.53125 0)"/>
     </g>
    </g>
   </g>
  </g>
 </g>
 <defs>
  <clipPath id="p29b50143e6">
   <rect x="72" y="25.92" width="202.909091" height="166.32"/>
  </clipPath>
  <clipPath id="p2871ce8c57">
   <rect x="315.490909" y="25.92" width="202.909091" height="166.32"/>
  </clipPath>
 </defs>
</svg>
